# Generated by generate_rootstead_entrance_bulkhead_proto.py -- do not hand-edit
mtllib VD_RootsteadEntranceBulkhead_Proto.mtl
o VD_RootsteadEntranceBulkhead_Proto
v -449.000000 424.000000 0.000000
v -391.000000 424.000000 0.000000
v -449.000000 570.000000 0.000000
v -391.000000 570.000000 0.000000
v -449.000000 424.000000 150.000000
v -391.000000 424.000000 150.000000
v -449.000000 570.000000 150.000000
v -391.000000 570.000000 150.000000
v -449.000000 424.000000 375.000000
v -391.000000 424.000000 375.000000
v -449.000000 570.000000 375.000000
v -391.000000 570.000000 375.000000
v -461.000000 424.000000 0.000000
v -461.000000 570.000000 0.000000
v -461.000000 424.000000 22.000000
v -449.000000 424.000000 22.000000
v -461.000000 570.000000 22.000000
v -449.000000 570.000000 22.000000
v -461.000000 424.000000 28.000000
v -449.000000 424.000000 28.000000
v -461.000000 570.000000 28.000000
v -449.000000 570.000000 28.000000
v -461.000000 424.000000 47.000000
v -449.000000 424.000000 47.000000
v -461.000000 570.000000 47.000000
v -449.000000 570.000000 47.000000
v -461.000000 424.000000 53.000000
v -449.000000 424.000000 53.000000
v -461.000000 570.000000 53.000000
v -449.000000 570.000000 53.000000
v -461.000000 424.000000 72.000000
v -449.000000 424.000000 72.000000
v -461.000000 570.000000 72.000000
v -449.000000 570.000000 72.000000
v -461.000000 424.000000 78.000000
v -449.000000 424.000000 78.000000
v -461.000000 570.000000 78.000000
v -449.000000 570.000000 78.000000
v -461.000000 424.000000 97.000000
v -449.000000 424.000000 97.000000
v -461.000000 570.000000 97.000000
v -449.000000 570.000000 97.000000
v -461.000000 424.000000 103.000000
v -449.000000 424.000000 103.000000
v -461.000000 570.000000 103.000000
v -449.000000 570.000000 103.000000
v -461.000000 424.000000 122.000000
v -449.000000 424.000000 122.000000
v -461.000000 570.000000 122.000000
v -449.000000 570.000000 122.000000
v -461.000000 424.000000 128.000000
v -449.000000 424.000000 128.000000
v -461.000000 570.000000 128.000000
v -449.000000 570.000000 128.000000
v -461.000000 424.000000 147.000000
v -449.000000 424.000000 147.000000
v -461.000000 570.000000 147.000000
v -449.000000 570.000000 147.000000
v -461.000000 438.000000 164.000000
v -461.000000 556.000000 164.000000
v -461.000000 438.000000 361.000000
v -461.000000 556.000000 361.000000
v -449.000000 433.000000 159.000000
v -449.000000 561.000000 159.000000
v -449.000000 433.000000 366.000000
v -449.000000 561.000000 366.000000
v -461.550000 460.886331 205.146208
v -461.550000 457.788733 206.787971
v -461.550000 454.428115 205.722631
v -461.550000 455.399466 202.720848
v -461.550000 458.897356 202.522341
v -463.200000 457.728000 204.425000
v -460.000000 457.294000 204.704000
v -461.800000 480.354362 194.105044
v -461.800000 476.370220 195.691844
v -461.800000 473.364570 193.024113
v -461.800000 473.680777 189.401412
v -461.800000 478.001068 188.600843
v -461.800000 481.669003 190.636745
v -464.200000 477.592000 191.690000
v -460.000000 476.976000 192.086000
v -461.450000 504.537196 210.143411
v -461.450000 501.406291 209.795263
v -461.450000 500.434783 207.112345
v -461.450000 503.549842 206.218451
v -461.450000 506.271888 207.730529
v -462.800000 503.464000 208.060000
v -460.000000 503.072000 208.312000
v -462.050000 533.511530 196.929005
v -462.050000 530.938175 200.142475
v -462.050000 526.635771 198.622125
v -462.050000 523.616805 195.847735
v -462.050000 525.840479 192.489279
v -462.050000 530.025502 191.423941
v -462.050000 534.111740 193.255439
v -465.200000 529.656000 195.270000
v -460.000000 528.928000 195.738000
v -461.675000 467.674434 245.153887
v -461.675000 463.892741 245.001909
v -461.675000 463.714989 241.900622
v -461.675000 465.766344 239.291077
v -461.675000 469.130577 240.715491
v -461.675000 470.860915 243.477014
v -463.700000 467.136000 242.405000
v -460.000000 466.618000 242.738000
v -461.950000 499.064124 233.710130
v -461.950000 496.387872 236.341615
v -461.950000 492.462548 237.833121
v -461.950000 489.991802 234.921194
v -461.950000 489.297903 231.541683
v -461.950000 493.025529 229.783445
v -461.950000 496.930223 230.648812
v -464.800000 494.264000 233.300000
v -460.000000 493.592000 233.732000
v -461.525000 522.863786 251.681409
v -461.525000 519.472719 251.783863
v -461.525000 517.645899 249.196617
v -461.525000 520.703889 247.686283
v -461.525000 523.913707 248.801828
v -463.100000 521.160000 249.680000
v -460.000000 520.740000 249.950000
v -461.750000 539.727729 236.998668
v -461.750000 536.234320 235.230730
v -461.750000 535.943337 231.872966
v -461.750000 539.557212 230.276122
v -461.750000 543.248934 231.748366
v -461.750000 543.128469 235.113148
v -464.000000 539.968000 233.335000
v -460.000000 539.394000 233.704000
v -461.875000 457.792112 286.319660
v -461.875000 453.930867 287.464066
v -461.875000 449.849440 287.309331
v -461.875000 449.075121 283.971744
v -461.875000 450.659509 281.044789
v -461.875000 454.708857 280.480165
v -461.875000 457.224093 282.950246
v -464.500000 453.688000 283.990000
v -460.000000 453.044000 284.404000
v -461.425000 484.404331 278.819751
v -461.425000 481.353588 278.463496
v -461.425000 481.074291 275.765970
v -461.425000 484.046171 275.062301
v -461.425000 486.521620 276.788482
v -462.700000 483.696000 276.845000
v -460.000000 483.318000 277.088000
v -461.725000 513.902564 294.067590
v -461.725000 511.552410 296.676275
v -461.725000 507.986361 295.273302
v -461.725000 506.406331 292.300019
v -461.725000 509.671076 290.469108
v -461.725000 513.601259 290.833706
v -463.900000 510.832000 293.075000
v -460.000000 510.286000 293.426000
v -461.975000 535.200775 284.392625
v -461.975000 530.803614 284.131289
v -461.975000 527.670955 281.901553
v -461.975000 528.044291 278.325687
v -461.975000 531.908429 276.982230
v -461.975000 536.294180 277.439136
v -461.975000 536.597757 281.027479
v -464.900000 532.752000 280.355000
v -460.000000 532.066000 280.796000
v -461.600000 474.719372 323.798519
v -461.600000 470.968552 325.012563
v -461.600000 469.150474 322.249710
v -461.600000 470.865664 319.348120
v -461.600000 474.495938 320.741087
v -463.400000 472.304000 322.065000
v -460.000000 471.842000 322.362000
v -461.825000 517.441362 331.602008
v -461.825000 513.811893 329.553276
v -461.825000 512.256052 326.172859
v -461.825000 516.234510 324.619791
v -461.825000 520.582586 325.205133
v -461.825000 520.233597 328.806933
v -464.300000 517.104000 327.445000
v -460.000000 516.502000 327.832000
v -457.000000 430.000000 152.000000
v -453.000000 430.000000 152.000000
v -457.000000 429.000000 152.000000
v -453.000000 429.000000 152.000000
v -457.000000 430.000000 157.000000
v -453.000000 430.000000 157.000000
v -457.000000 429.000000 157.000000
v -453.000000 429.000000 157.000000
v -457.000000 453.000000 152.000000
v -453.000000 453.000000 152.000000
v -457.000000 531.000000 152.000000
v -453.000000 531.000000 152.000000
v -457.000000 453.000000 157.000000
v -453.000000 453.000000 157.000000
v -457.000000 531.000000 157.000000
v -453.000000 531.000000 157.000000
v -457.000000 426.000000 332.000000
v -453.000000 426.000000 332.000000
v -457.000000 431.000000 332.000000
v -453.000000 431.000000 332.000000
v -457.000000 426.000000 370.000000
v -453.000000 426.000000 370.000000
v -457.000000 431.000000 370.000000
v -453.000000 431.000000 370.000000
v -461.000000 433.000000 159.000000
v -461.000000 463.000000 159.000000
v -461.000000 463.000000 185.000000
v -461.000000 433.000000 185.000000
v -443.000000 442.000000 166.000000
v -442.294194 444.293870 166.000000
v -442.958551 443.762820 164.371889
v -443.647188 442.199135 163.697503
v -443.956712 440.518799 164.371889
v -443.705806 439.706130 166.000000
v -443.041449 440.237180 167.628111
v -442.352812 441.800865 168.302497
v -442.043288 443.481201 167.628111
v -455.294194 448.293870 170.000000
v -455.958551 447.762820 168.371889
v -456.647188 446.199135 167.697503
v -456.956712 444.518799 168.371889
v -456.705806 443.706130 170.000000
v -456.041449 444.237180 171.628111
v -455.352812 445.800865 172.302497
v -455.043288 447.481201 171.628111
v -461.600000 439.500000 298.333333
v -461.000000 439.500000 298.333333
v -461.600000 442.500000 298.333333
v -461.000000 442.500000 298.333333
v -461.600000 439.500000 366.000000
v -461.000000 439.500000 366.000000
v -461.600000 442.500000 366.000000
v -461.000000 442.500000 366.000000
v -461.600000 439.830000 230.666667
v -461.000000 439.830000 230.666667
v -461.600000 442.170000 230.666667
v -461.000000 442.170000 230.666667
v -461.600000 439.830000 298.333333
v -461.000000 439.830000 298.333333
v -461.600000 442.170000 298.333333
v -461.000000 442.170000 298.333333
v -461.600000 440.160000 163.000000
v -461.000000 440.160000 163.000000
v -461.600000 441.840000 163.000000
v -461.000000 441.840000 163.000000
v -461.600000 440.160000 230.666667
v -461.000000 440.160000 230.666667
v -461.600000 441.840000 230.666667
v -461.000000 441.840000 230.666667
v -461.600000 549.500000 298.333333
v -461.000000 549.500000 298.333333
v -461.600000 552.500000 298.333333
v -461.000000 552.500000 298.333333
v -461.600000 549.500000 366.000000
v -461.000000 549.500000 366.000000
v -461.600000 552.500000 366.000000
v -461.000000 552.500000 366.000000
v -461.600000 549.830000 230.666667
v -461.000000 549.830000 230.666667
v -461.600000 552.170000 230.666667
v -461.000000 552.170000 230.666667
v -461.600000 549.830000 298.333333
v -461.000000 549.830000 298.333333
v -461.600000 552.170000 298.333333
v -461.000000 552.170000 298.333333
v -461.600000 550.160000 163.000000
v -461.000000 550.160000 163.000000
v -461.600000 551.840000 163.000000
v -461.000000 551.840000 163.000000
v -461.600000 550.160000 230.666667
v -461.000000 550.160000 230.666667
v -461.600000 551.840000 230.666667
v -461.000000 551.840000 230.666667
v -461.600000 446.500000 177.666667
v -461.000000 446.500000 177.666667
v -461.600000 449.500000 177.666667
v -461.000000 449.500000 177.666667
v -461.600000 446.500000 185.000000
v -461.000000 446.500000 185.000000
v -461.600000 449.500000 185.000000
v -461.000000 449.500000 185.000000
v -461.600000 446.830000 170.333333
v -461.000000 446.830000 170.333333
v -461.600000 449.170000 170.333333
v -461.000000 449.170000 170.333333
v -461.600000 446.830000 177.666667
v -461.000000 446.830000 177.666667
v -461.600000 449.170000 177.666667
v -461.000000 449.170000 177.666667
v -461.600000 447.160000 163.000000
v -461.000000 447.160000 163.000000
v -461.600000 448.840000 163.000000
v -461.000000 448.840000 163.000000
v -461.600000 447.160000 170.333333
v -461.000000 447.160000 170.333333
v -461.600000 448.840000 170.333333
v -461.000000 448.840000 170.333333
vt -4.490000 4.240000
vt -3.910000 4.240000
vt -3.910000 5.700000
vt -4.490000 5.700000
vt -4.490000 4.240000
vt -4.490000 5.700000
vt -3.910000 5.700000
vt -3.910000 4.240000
vt -4.490000 0.000000
vt -4.490000 1.500000
vt -3.910000 1.500000
vt -3.910000 0.000000
vt -4.490000 0.000000
vt -3.910000 0.000000
vt -3.910000 1.500000
vt -4.490000 1.500000
vt 4.240000 0.000000
vt 5.700000 0.000000
vt 5.700000 1.500000
vt 4.240000 1.500000
vt 4.240000 0.000000
vt 4.240000 1.500000
vt 5.700000 1.500000
vt 5.700000 0.000000
vt -4.490000 4.240000
vt -3.910000 4.240000
vt -3.910000 5.700000
vt -4.490000 5.700000
vt -4.490000 4.240000
vt -4.490000 5.700000
vt -3.910000 5.700000
vt -3.910000 4.240000
vt -4.490000 1.500000
vt -4.490000 3.750000
vt -3.910000 3.750000
vt -3.910000 1.500000
vt -4.490000 1.500000
vt -3.910000 1.500000
vt -3.910000 3.750000
vt -4.490000 3.750000
vt 4.240000 1.500000
vt 5.700000 1.500000
vt 5.700000 3.750000
vt 4.240000 3.750000
vt 4.240000 1.500000
vt 4.240000 3.750000
vt 5.700000 3.750000
vt 5.700000 1.500000
vt -4.610000 4.240000
vt -4.490000 4.240000
vt -4.490000 5.700000
vt -4.610000 5.700000
vt -4.610000 4.240000
vt -4.610000 5.700000
vt -4.490000 5.700000
vt -4.490000 4.240000
vt -4.610000 0.000000
vt -4.610000 0.220000
vt -4.490000 0.220000
vt -4.490000 0.000000
vt -4.610000 0.000000
vt -4.490000 0.000000
vt -4.490000 0.220000
vt -4.610000 0.220000
vt 4.240000 0.000000
vt 5.700000 0.000000
vt 5.700000 0.220000
vt 4.240000 0.220000
vt 4.240000 0.000000
vt 4.240000 0.220000
vt 5.700000 0.220000
vt 5.700000 0.000000
vt -4.610000 4.240000
vt -4.490000 4.240000
vt -4.490000 5.700000
vt -4.610000 5.700000
vt -4.610000 4.240000
vt -4.610000 5.700000
vt -4.490000 5.700000
vt -4.490000 4.240000
vt -4.610000 0.280000
vt -4.610000 0.470000
vt -4.490000 0.470000
vt -4.490000 0.280000
vt -4.610000 0.280000
vt -4.490000 0.280000
vt -4.490000 0.470000
vt -4.610000 0.470000
vt 4.240000 0.280000
vt 5.700000 0.280000
vt 5.700000 0.470000
vt 4.240000 0.470000
vt 4.240000 0.280000
vt 4.240000 0.470000
vt 5.700000 0.470000
vt 5.700000 0.280000
vt -4.610000 4.240000
vt -4.490000 4.240000
vt -4.490000 5.700000
vt -4.610000 5.700000
vt -4.610000 4.240000
vt -4.610000 5.700000
vt -4.490000 5.700000
vt -4.490000 4.240000
vt -4.610000 0.530000
vt -4.610000 0.720000
vt -4.490000 0.720000
vt -4.490000 0.530000
vt -4.610000 0.530000
vt -4.490000 0.530000
vt -4.490000 0.720000
vt -4.610000 0.720000
vt 4.240000 0.530000
vt 5.700000 0.530000
vt 5.700000 0.720000
vt 4.240000 0.720000
vt 4.240000 0.530000
vt 4.240000 0.720000
vt 5.700000 0.720000
vt 5.700000 0.530000
vt -4.610000 4.240000
vt -4.490000 4.240000
vt -4.490000 5.700000
vt -4.610000 5.700000
vt -4.610000 4.240000
vt -4.610000 5.700000
vt -4.490000 5.700000
vt -4.490000 4.240000
vt -4.610000 0.780000
vt -4.610000 0.970000
vt -4.490000 0.970000
vt -4.490000 0.780000
vt -4.610000 0.780000
vt -4.490000 0.780000
vt -4.490000 0.970000
vt -4.610000 0.970000
vt 4.240000 0.780000
vt 5.700000 0.780000
vt 5.700000 0.970000
vt 4.240000 0.970000
vt 4.240000 0.780000
vt 4.240000 0.970000
vt 5.700000 0.970000
vt 5.700000 0.780000
vt -4.610000 4.240000
vt -4.490000 4.240000
vt -4.490000 5.700000
vt -4.610000 5.700000
vt -4.610000 4.240000
vt -4.610000 5.700000
vt -4.490000 5.700000
vt -4.490000 4.240000
vt -4.610000 1.030000
vt -4.610000 1.220000
vt -4.490000 1.220000
vt -4.490000 1.030000
vt -4.610000 1.030000
vt -4.490000 1.030000
vt -4.490000 1.220000
vt -4.610000 1.220000
vt 4.240000 1.030000
vt 5.700000 1.030000
vt 5.700000 1.220000
vt 4.240000 1.220000
vt 4.240000 1.030000
vt 4.240000 1.220000
vt 5.700000 1.220000
vt 5.700000 1.030000
vt -4.610000 4.240000
vt -4.490000 4.240000
vt -4.490000 5.700000
vt -4.610000 5.700000
vt -4.610000 4.240000
vt -4.610000 5.700000
vt -4.490000 5.700000
vt -4.490000 4.240000
vt -4.610000 1.280000
vt -4.610000 1.470000
vt -4.490000 1.470000
vt -4.490000 1.280000
vt -4.610000 1.280000
vt -4.490000 1.280000
vt -4.490000 1.470000
vt -4.610000 1.470000
vt 4.240000 1.280000
vt 5.700000 1.280000
vt 5.700000 1.470000
vt 4.240000 1.470000
vt 4.240000 1.280000
vt 4.240000 1.470000
vt 5.700000 1.470000
vt 5.700000 1.280000
vt 4.380000 1.640000
vt 5.560000 1.640000
vt 5.560000 3.610000
vt 4.380000 3.610000
vt 4.330000 1.590000
vt 4.330000 3.660000
vt 5.610000 3.660000
vt 5.610000 1.590000
vt -4.610000 1.640000
vt -4.610000 3.610000
vt -4.490000 3.660000
vt -4.490000 1.590000
vt -4.610000 3.610000
vt -4.610000 1.640000
vt -4.490000 1.590000
vt -4.490000 3.660000
vt -4.610000 5.560000
vt -4.610000 4.380000
vt -4.490000 4.330000
vt -4.490000 5.610000
vt -4.610000 4.380000
vt -4.610000 5.560000
vt -4.490000 5.610000
vt -4.490000 4.330000
vt 4.577280 2.044250
vt 4.608863 2.051462
vt 4.577887 2.067880
vt 4.572940 2.047040
vt 4.577887 2.067880
vt 4.608863 2.051462
vt 4.577280 2.044250
vt 4.577887 2.067880
vt 4.544281 2.057226
vt 4.572940 2.047040
vt 4.544281 2.057226
vt 4.577887 2.067880
vt 4.577280 2.044250
vt 4.544281 2.057226
vt 4.553995 2.027208
vt 4.572940 2.047040
vt 4.553995 2.027208
vt 4.544281 2.057226
vt 4.577280 2.044250
vt 4.553995 2.027208
vt 4.588974 2.025223
vt 4.572940 2.047040
vt 4.588974 2.025223
vt 4.553995 2.027208
vt 4.577280 2.044250
vt 4.588974 2.025223
vt 4.608863 2.051462
vt 4.572940 2.047040
vt 4.608863 2.051462
vt 4.588974 2.025223
vt 4.775920 1.916900
vt 4.803544 1.941050
vt 4.763702 1.956918
vt 4.769760 1.920860
vt 4.763702 1.956918
vt 4.803544 1.941050
vt 4.775920 1.916900
vt 4.763702 1.956918
vt 4.733646 1.930241
vt 4.769760 1.920860
vt 4.733646 1.930241
vt 4.763702 1.956918
vt 4.775920 1.916900
vt 4.733646 1.930241
vt 4.736808 1.894014
vt 4.769760 1.920860
vt 4.736808 1.894014
vt 4.733646 1.930241
vt 4.775920 1.916900
vt 4.736808 1.894014
vt 4.780011 1.886008
vt 4.769760 1.920860
vt 4.780011 1.886008
vt 4.736808 1.894014
vt 4.775920 1.916900
vt 4.780011 1.886008
vt 4.816690 1.906367
vt 4.769760 1.920860
vt 4.816690 1.906367
vt 4.780011 1.886008
vt 4.775920 1.916900
vt 4.816690 1.906367
vt 4.803544 1.941050
vt 4.769760 1.920860
vt 4.803544 1.941050
vt 4.816690 1.906367
vt 5.034640 2.080600
vt 5.045372 2.101434
vt 5.014063 2.097953
vt 5.030720 2.083120
vt 5.014063 2.097953
vt 5.045372 2.101434
vt 5.034640 2.080600
vt 5.014063 2.097953
vt 5.004348 2.071123
vt 5.030720 2.083120
vt 5.004348 2.071123
vt 5.014063 2.097953
vt 5.034640 2.080600
vt 5.004348 2.071123
vt 5.035498 2.062185
vt 5.030720 2.083120
vt 5.035498 2.062185
vt 5.004348 2.071123
vt 5.034640 2.080600
vt 5.035498 2.062185
vt 5.062719 2.077305
vt 5.030720 2.083120
vt 5.062719 2.077305
vt 5.035498 2.062185
vt 5.034640 2.080600
vt 5.062719 2.077305
vt 5.045372 2.101434
vt 5.030720 2.083120
vt 5.045372 2.101434
vt 5.062719 2.077305
vt 5.296560 1.952700
vt 5.335115 1.969290
vt 5.309382 2.001425
vt 5.289280 1.957380
vt 5.309382 2.001425
vt 5.335115 1.969290
vt 5.296560 1.952700
vt 5.309382 2.001425
vt 5.266358 1.986221
vt 5.289280 1.957380
vt 5.266358 1.986221
vt 5.309382 2.001425
vt 5.296560 1.952700
vt 5.266358 1.986221
vt 5.236168 1.958477
vt 5.289280 1.957380
vt 5.236168 1.958477
vt 5.266358 1.986221
vt 5.296560 1.952700
vt 5.236168 1.958477
vt 5.258405 1.924893
vt 5.289280 1.957380
vt 5.258405 1.924893
vt 5.236168 1.958477
vt 5.296560 1.952700
vt 5.258405 1.924893
vt 5.300255 1.914239
vt 5.289280 1.957380
vt 5.300255 1.914239
vt 5.258405 1.924893
vt 5.296560 1.952700
vt 5.300255 1.914239
vt 5.341117 1.932554
vt 5.289280 1.957380
vt 5.341117 1.932554
vt 5.300255 1.914239
vt 5.296560 1.952700
vt 5.341117 1.932554
vt 5.335115 1.969290
vt 5.289280 1.957380
vt 5.335115 1.969290
vt 5.341117 1.932554
vt 4.671360 2.424050
vt 4.676744 2.451539
vt 4.638927 2.450019
vt 4.666180 2.427380
vt 4.638927 2.450019
vt 4.676744 2.451539
vt 4.671360 2.424050
vt 4.638927 2.450019
vt 4.637150 2.419006
vt 4.666180 2.427380
vt 4.637150 2.419006
vt 4.638927 2.450019
vt 4.671360 2.424050
vt 4.637150 2.419006
vt 4.657663 2.392911
vt 4.666180 2.427380
vt 4.657663 2.392911
vt 4.637150 2.419006
vt 4.671360 2.424050
vt 4.657663 2.392911
vt 4.691306 2.407155
vt 4.666180 2.427380
vt 4.691306 2.407155
vt 4.657663 2.392911
vt 4.671360 2.424050
vt 4.691306 2.407155
vt 4.708609 2.434770
vt 4.666180 2.427380
vt 4.708609 2.434770
vt 4.691306 2.407155
vt 4.671360 2.424050
vt 4.708609 2.434770
vt 4.676744 2.451539
vt 4.666180 2.427380
vt 4.676744 2.451539
vt 4.708609 2.434770
vt 4.942640 2.333000
vt 4.990641 2.337101
vt 4.963879 2.363416
vt 4.935920 2.337320
vt 4.963879 2.363416
vt 4.990641 2.337101
vt 4.942640 2.333000
vt 4.963879 2.363416
vt 4.924625 2.378331
vt 4.935920 2.337320
vt 4.924625 2.378331
vt 4.963879 2.363416
vt 4.942640 2.333000
vt 4.924625 2.378331
vt 4.899918 2.349212
vt 4.935920 2.337320
vt 4.899918 2.349212
vt 4.924625 2.378331
vt 4.942640 2.333000
vt 4.899918 2.349212
vt 4.892979 2.315417
vt 4.935920 2.337320
vt 4.892979 2.315417
vt 4.899918 2.349212
vt 4.942640 2.333000
vt 4.892979 2.315417
vt 4.930255 2.297834
vt 4.935920 2.337320
vt 4.930255 2.297834
vt 4.892979 2.315417
vt 4.942640 2.333000
vt 4.930255 2.297834
vt 4.969302 2.306488
vt 4.935920 2.337320
vt 4.969302 2.306488
vt 4.930255 2.297834
vt 4.942640 2.333000
vt 4.969302 2.306488
vt 4.990641 2.337101
vt 4.935920 2.337320
vt 4.990641 2.337101
vt 4.969302 2.306488
vt 5.211600 2.496800
vt 5.228638 2.516814
vt 5.194727 2.517839
vt 5.207400 2.499500
vt 5.194727 2.517839
vt 5.228638 2.516814
vt 5.211600 2.496800
vt 5.194727 2.517839
vt 5.176459 2.491966
vt 5.207400 2.499500
vt 5.176459 2.491966
vt 5.194727 2.517839
vt 5.211600 2.496800
vt 5.176459 2.491966
vt 5.207039 2.476863
vt 5.207400 2.499500
vt 5.207039 2.476863
vt 5.176459 2.491966
vt 5.211600 2.496800
vt 5.207039 2.476863
vt 5.239137 2.488018
vt 5.207400 2.499500
vt 5.239137 2.488018
vt 5.207039 2.476863
vt 5.211600 2.496800
vt 5.239137 2.488018
vt 5.228638 2.516814
vt 5.207400 2.499500
vt 5.228638 2.516814
vt 5.239137 2.488018
vt 5.399680 2.333350
vt 5.397277 2.369987
vt 5.362343 2.352307
vt 5.393940 2.337040
vt 5.362343 2.352307
vt 5.397277 2.369987
vt 5.399680 2.333350
vt 5.362343 2.352307
vt 5.359433 2.318730
vt 5.393940 2.337040
vt 5.359433 2.318730
vt 5.362343 2.352307
vt 5.399680 2.333350
vt 5.359433 2.318730
vt 5.395572 2.302761
vt 5.393940 2.337040
vt 5.395572 2.302761
vt 5.359433 2.318730
vt 5.399680 2.333350
vt 5.395572 2.302761
vt 5.432489 2.317484
vt 5.393940 2.337040
vt 5.432489 2.317484
vt 5.395572 2.302761
vt 5.399680 2.333350
vt 5.432489 2.317484
vt 5.431285 2.351131
vt 5.393940 2.337040
vt 5.431285 2.351131
vt 5.432489 2.317484
vt 5.399680 2.333350
vt 5.431285 2.351131
vt 5.397277 2.369987
vt 5.393940 2.337040
vt 5.397277 2.369987
vt 5.431285 2.351131
vt 4.536880 2.839900
vt 4.577921 2.863197
vt 4.539309 2.874641
vt 4.530440 2.844040
vt 4.539309 2.874641
vt 4.577921 2.863197
vt 4.536880 2.839900
vt 4.539309 2.874641
vt 4.498494 2.873093
vt 4.530440 2.844040
vt 4.498494 2.873093
vt 4.539309 2.874641
vt 4.536880 2.839900
vt 4.498494 2.873093
vt 4.490751 2.839717
vt 4.530440 2.844040
vt 4.490751 2.839717
vt 4.498494 2.873093
vt 4.536880 2.839900
vt 4.490751 2.839717
vt 4.506595 2.810448
vt 4.530440 2.844040
vt 4.506595 2.810448
vt 4.490751 2.839717
vt 4.536880 2.839900
vt 4.506595 2.810448
vt 4.547089 2.804802
vt 4.530440 2.844040
vt 4.547089 2.804802
vt 4.506595 2.810448
vt 4.536880 2.839900
vt 4.547089 2.804802
vt 4.572241 2.829502
vt 4.530440 2.844040
vt 4.572241 2.829502
vt 4.547089 2.804802
vt 4.536880 2.839900
vt 4.572241 2.829502
vt 4.577921 2.863197
vt 4.530440 2.844040
vt 4.577921 2.863197
vt 4.572241 2.829502
vt 4.836960 2.768450
vt 4.844043 2.788198
vt 4.813536 2.784635
vt 4.833180 2.770880
vt 4.813536 2.784635
vt 4.844043 2.788198
vt 4.836960 2.768450
vt 4.813536 2.784635
vt 4.810743 2.757660
vt 4.833180 2.770880
vt 4.810743 2.757660
vt 4.813536 2.784635
vt 4.836960 2.768450
vt 4.810743 2.757660
vt 4.840462 2.750623
vt 4.833180 2.770880
vt 4.840462 2.750623
vt 4.810743 2.757660
vt 4.836960 2.768450
vt 4.840462 2.750623
vt 4.865216 2.767885
vt 4.833180 2.770880
vt 4.865216 2.767885
vt 4.840462 2.750623
vt 4.836960 2.768450
vt 4.865216 2.767885
vt 4.844043 2.788198
vt 4.833180 2.770880
vt 4.844043 2.788198
vt 4.865216 2.767885
vt 5.108320 2.930750
vt 5.139026 2.940676
vt 5.115524 2.966763
vt 5.102860 2.934260
vt 5.115524 2.966763
vt 5.139026 2.940676
vt 5.108320 2.930750
vt 5.115524 2.966763
vt 5.079864 2.952733
vt 5.102860 2.934260
vt 5.079864 2.952733
vt 5.115524 2.966763
vt 5.108320 2.930750
vt 5.079864 2.952733
vt 5.064063 2.923000
vt 5.102860 2.934260
vt 5.064063 2.923000
vt 5.079864 2.952733
vt 5.108320 2.930750
vt 5.064063 2.923000
vt 5.096711 2.904691
vt 5.102860 2.934260
vt 5.096711 2.904691
vt 5.064063 2.923000
vt 5.108320 2.930750
vt 5.096711 2.904691
vt 5.136013 2.908337
vt 5.102860 2.934260
vt 5.136013 2.908337
vt 5.096711 2.904691
vt 5.108320 2.930750
vt 5.136013 2.908337
vt 5.139026 2.940676
vt 5.102860 2.934260
vt 5.139026 2.940676
vt 5.136013 2.908337
vt 5.327520 2.803550
vt 5.352008 2.843926
vt 5.308036 2.841313
vt 5.320660 2.807960
vt 5.308036 2.841313
vt 5.352008 2.843926
vt 5.327520 2.803550
vt 5.308036 2.841313
vt 5.276710 2.819016
vt 5.320660 2.807960
vt 5.276710 2.819016
vt 5.308036 2.841313
vt 5.327520 2.803550
vt 5.276710 2.819016
vt 5.280443 2.783257
vt 5.320660 2.807960
vt 5.280443 2.783257
vt 5.276710 2.819016
vt 5.327520 2.803550
vt 5.280443 2.783257
vt 5.319084 2.769822
vt 5.320660 2.807960
vt 5.319084 2.769822
vt 5.280443 2.783257
vt 5.327520 2.803550
vt 5.319084 2.769822
vt 5.362942 2.774391
vt 5.320660 2.807960
vt 5.362942 2.774391
vt 5.319084 2.769822
vt 5.327520 2.803550
vt 5.362942 2.774391
vt 5.365978 2.810275
vt 5.320660 2.807960
vt 5.365978 2.810275
vt 5.362942 2.774391
vt 5.327520 2.803550
vt 5.365978 2.810275
vt 5.352008 2.843926
vt 5.320660 2.807960
vt 5.352008 2.843926
vt 5.365978 2.810275
vt 4.723040 3.220650
vt 4.747194 3.237985
vt 4.709686 3.250126
vt 4.718420 3.223620
vt 4.709686 3.250126
vt 4.747194 3.237985
vt 4.723040 3.220650
vt 4.709686 3.250126
vt 4.691505 3.222497
vt 4.718420 3.223620
vt 4.691505 3.222497
vt 4.709686 3.250126
vt 4.723040 3.220650
vt 4.691505 3.222497
vt 4.708657 3.193481
vt 4.718420 3.223620
vt 4.708657 3.193481
vt 4.691505 3.222497
vt 4.723040 3.220650
vt 4.708657 3.193481
vt 4.744959 3.207411
vt 4.718420 3.223620
vt 4.744959 3.207411
vt 4.708657 3.193481
vt 4.723040 3.220650
vt 4.744959 3.207411
vt 4.747194 3.237985
vt 4.718420 3.223620
vt 4.747194 3.237985
vt 4.744959 3.207411
vt 5.171040 3.274450
vt 5.174414 3.316020
vt 5.138119 3.295533
vt 5.165020 3.278320
vt 5.138119 3.295533
vt 5.174414 3.316020
vt 5.171040 3.274450
vt 5.138119 3.295533
vt 5.122561 3.261729
vt 5.165020 3.278320
vt 5.122561 3.261729
vt 5.138119 3.295533
vt 5.171040 3.274450
vt 5.122561 3.261729
vt 5.162345 3.246198
vt 5.165020 3.278320
vt 5.162345 3.246198
vt 5.122561 3.261729
vt 5.171040 3.274450
vt 5.162345 3.246198
vt 5.205826 3.252051
vt 5.165020 3.278320
vt 5.205826 3.252051
vt 5.162345 3.246198
vt 5.171040 3.274450
vt 5.205826 3.252051
vt 5.202336 3.288069
vt 5.165020 3.278320
vt 5.202336 3.288069
vt 5.205826 3.252051
vt 5.171040 3.274450
vt 5.202336 3.288069
vt 5.174414 3.316020
vt 5.165020 3.278320
vt 5.174414 3.316020
vt 5.202336 3.288069
vt -4.570000 4.300000
vt -4.530000 4.300000
vt -4.530000 4.290000
vt -4.570000 4.290000
vt -4.570000 4.300000
vt -4.570000 4.290000
vt -4.530000 4.290000
vt -4.530000 4.300000
vt -4.570000 1.520000
vt -4.570000 1.570000
vt -4.530000 1.570000
vt -4.530000 1.520000
vt -4.570000 1.520000
vt -4.530000 1.520000
vt -4.530000 1.570000
vt -4.570000 1.570000
vt 4.300000 1.520000
vt 4.290000 1.520000
vt 4.290000 1.570000
vt 4.300000 1.570000
vt 4.300000 1.520000
vt 4.300000 1.570000
vt 4.290000 1.570000
vt 4.290000 1.520000
vt -4.570000 4.530000
vt -4.530000 4.530000
vt -4.530000 5.310000
vt -4.570000 5.310000
vt -4.570000 4.530000
vt -4.570000 5.310000
vt -4.530000 5.310000
vt -4.530000 4.530000
vt -4.570000 1.520000
vt -4.570000 1.570000
vt -4.530000 1.570000
vt -4.530000 1.520000
vt -4.570000 1.520000
vt -4.530000 1.520000
vt -4.530000 1.570000
vt -4.570000 1.570000
vt 4.530000 1.520000
vt 5.310000 1.520000
vt 5.310000 1.570000
vt 4.530000 1.570000
vt 4.530000 1.520000
vt 4.530000 1.570000
vt 5.310000 1.570000
vt 5.310000 1.520000
vt -4.570000 4.260000
vt -4.530000 4.260000
vt -4.530000 4.310000
vt -4.570000 4.310000
vt -4.570000 4.260000
vt -4.570000 4.310000
vt -4.530000 4.310000
vt -4.530000 4.260000
vt -4.570000 3.320000
vt -4.570000 3.700000
vt -4.530000 3.700000
vt -4.530000 3.320000
vt -4.570000 3.320000
vt -4.530000 3.320000
vt -4.530000 3.700000
vt -4.570000 3.700000
vt 4.260000 3.320000
vt 4.310000 3.320000
vt 4.310000 3.700000
vt 4.260000 3.700000
vt 4.260000 3.320000
vt 4.260000 3.700000
vt 4.310000 3.700000
vt 4.310000 3.320000
vt 4.330000 1.590000
vt 4.330000 1.850000
vt 4.630000 1.850000
vt 4.630000 1.590000
vt -4.610000 4.330000
vt -4.610000 4.630000
vt -4.430000 4.420000
vt 4.630000 1.590000
vt 4.630000 1.850000
vt 4.420000 1.660000
vt 4.630000 1.850000
vt 4.330000 1.850000
vt 4.420000 1.660000
vt -4.610000 1.850000
vt -4.610000 1.590000
vt -4.430000 1.660000
vt 4.434812 1.676281
vt 4.418009 1.683025
vt 4.402372 1.676281
vt 4.397061 1.660000
vt 4.405188 1.643719
vt 4.421991 1.636975
vt 4.437628 1.643719
vt 4.442939 1.660000
vt 4.482939 1.700000
vt 4.477628 1.683719
vt 4.461991 1.676975
vt 4.445188 1.683719
vt 4.437061 1.700000
vt 4.442372 1.716281
vt 4.458009 1.723025
vt 4.474812 1.716281
vt -4.422942 1.660000
vt -4.429586 1.643719
vt -4.559586 1.683719
vt -4.552942 1.700000
vt -4.429586 4.437628
vt -4.436472 4.421991
vt -4.566472 4.461991
vt -4.559586 4.477628
vt -4.436472 4.421991
vt -4.439567 4.405188
vt -4.569567 4.445188
vt -4.566472 4.461991
vt -4.439567 1.643719
vt -4.437058 1.660000
vt -4.567058 1.700000
vt -4.569567 1.683719
vt -4.437058 1.660000
vt -4.430414 1.676281
vt -4.560414 1.716281
vt -4.567058 1.700000
vt -4.430414 4.402372
vt -4.423528 4.418009
vt -4.553528 4.458009
vt -4.560414 4.442372
vt -4.423528 4.418009
vt -4.420433 4.434812
vt -4.550433 4.474812
vt -4.553528 4.458009
vt -4.420433 1.676281
vt -4.422942 1.660000
vt -4.552942 1.700000
vt -4.550433 1.716281
vt -4.616000 4.395000
vt -4.610000 4.395000
vt -4.610000 4.425000
vt -4.616000 4.425000
vt -4.616000 4.395000
vt -4.616000 4.425000
vt -4.610000 4.425000
vt -4.610000 4.395000
vt -4.616000 2.983333
vt -4.616000 3.660000
vt -4.610000 3.660000
vt -4.610000 2.983333
vt -4.616000 2.983333
vt -4.610000 2.983333
vt -4.610000 3.660000
vt -4.616000 3.660000
vt 4.395000 2.983333
vt 4.425000 2.983333
vt 4.425000 3.660000
vt 4.395000 3.660000
vt 4.395000 2.983333
vt 4.395000 3.660000
vt 4.425000 3.660000
vt 4.425000 2.983333
vt -4.616000 4.398300
vt -4.610000 4.398300
vt -4.610000 4.421700
vt -4.616000 4.421700
vt -4.616000 4.398300
vt -4.616000 4.421700
vt -4.610000 4.421700
vt -4.610000 4.398300
vt -4.616000 2.306667
vt -4.616000 2.983333
vt -4.610000 2.983333
vt -4.610000 2.306667
vt -4.616000 2.306667
vt -4.610000 2.306667
vt -4.610000 2.983333
vt -4.616000 2.983333
vt 4.398300 2.306667
vt 4.421700 2.306667
vt 4.421700 2.983333
vt 4.398300 2.983333
vt 4.398300 2.306667
vt 4.398300 2.983333
vt 4.421700 2.983333
vt 4.421700 2.306667
vt -4.616000 4.401600
vt -4.610000 4.401600
vt -4.610000 4.418400
vt -4.616000 4.418400
vt -4.616000 4.401600
vt -4.616000 4.418400
vt -4.610000 4.418400
vt -4.610000 4.401600
vt -4.616000 1.630000
vt -4.616000 2.306667
vt -4.610000 2.306667
vt -4.610000 1.630000
vt -4.616000 1.630000
vt -4.610000 1.630000
vt -4.610000 2.306667
vt -4.616000 2.306667
vt 4.401600 1.630000
vt 4.418400 1.630000
vt 4.418400 2.306667
vt 4.401600 2.306667
vt 4.401600 1.630000
vt 4.401600 2.306667
vt 4.418400 2.306667
vt 4.418400 1.630000
vt -4.616000 5.495000
vt -4.610000 5.495000
vt -4.610000 5.525000
vt -4.616000 5.525000
vt -4.616000 5.495000
vt -4.616000 5.525000
vt -4.610000 5.525000
vt -4.610000 5.495000
vt -4.616000 2.983333
vt -4.616000 3.660000
vt -4.610000 3.660000
vt -4.610000 2.983333
vt -4.616000 2.983333
vt -4.610000 2.983333
vt -4.610000 3.660000
vt -4.616000 3.660000
vt 5.495000 2.983333
vt 5.525000 2.983333
vt 5.525000 3.660000
vt 5.495000 3.660000
vt 5.495000 2.983333
vt 5.495000 3.660000
vt 5.525000 3.660000
vt 5.525000 2.983333
vt -4.616000 5.498300
vt -4.610000 5.498300
vt -4.610000 5.521700
vt -4.616000 5.521700
vt -4.616000 5.498300
vt -4.616000 5.521700
vt -4.610000 5.521700
vt -4.610000 5.498300
vt -4.616000 2.306667
vt -4.616000 2.983333
vt -4.610000 2.983333
vt -4.610000 2.306667
vt -4.616000 2.306667
vt -4.610000 2.306667
vt -4.610000 2.983333
vt -4.616000 2.983333
vt 5.498300 2.306667
vt 5.521700 2.306667
vt 5.521700 2.983333
vt 5.498300 2.983333
vt 5.498300 2.306667
vt 5.498300 2.983333
vt 5.521700 2.983333
vt 5.521700 2.306667
vt -4.616000 5.501600
vt -4.610000 5.501600
vt -4.610000 5.518400
vt -4.616000 5.518400
vt -4.616000 5.501600
vt -4.616000 5.518400
vt -4.610000 5.518400
vt -4.610000 5.501600
vt -4.616000 1.630000
vt -4.616000 2.306667
vt -4.610000 2.306667
vt -4.610000 1.630000
vt -4.616000 1.630000
vt -4.610000 1.630000
vt -4.610000 2.306667
vt -4.616000 2.306667
vt 5.501600 1.630000
vt 5.518400 1.630000
vt 5.518400 2.306667
vt 5.501600 2.306667
vt 5.501600 1.630000
vt 5.501600 2.306667
vt 5.518400 2.306667
vt 5.518400 1.630000
vt -4.616000 4.465000
vt -4.610000 4.465000
vt -4.610000 4.495000
vt -4.616000 4.495000
vt -4.616000 4.465000
vt -4.616000 4.495000
vt -4.610000 4.495000
vt -4.610000 4.465000
vt -4.616000 1.776667
vt -4.616000 1.850000
vt -4.610000 1.850000
vt -4.610000 1.776667
vt -4.616000 1.776667
vt -4.610000 1.776667
vt -4.610000 1.850000
vt -4.616000 1.850000
vt 4.465000 1.776667
vt 4.495000 1.776667
vt 4.495000 1.850000
vt 4.465000 1.850000
vt 4.465000 1.776667
vt 4.465000 1.850000
vt 4.495000 1.850000
vt 4.495000 1.776667
vt -4.616000 4.468300
vt -4.610000 4.468300
vt -4.610000 4.491700
vt -4.616000 4.491700
vt -4.616000 4.468300
vt -4.616000 4.491700
vt -4.610000 4.491700
vt -4.610000 4.468300
vt -4.616000 1.703333
vt -4.616000 1.776667
vt -4.610000 1.776667
vt -4.610000 1.703333
vt -4.616000 1.703333
vt -4.610000 1.703333
vt -4.610000 1.776667
vt -4.616000 1.776667
vt 4.468300 1.703333
vt 4.491700 1.703333
vt 4.491700 1.776667
vt 4.468300 1.776667
vt 4.468300 1.703333
vt 4.468300 1.776667
vt 4.491700 1.776667
vt 4.491700 1.703333
vt -4.616000 4.471600
vt -4.610000 4.471600
vt -4.610000 4.488400
vt -4.616000 4.488400
vt -4.616000 4.471600
vt -4.616000 4.488400
vt -4.610000 4.488400
vt -4.610000 4.471600
vt -4.616000 1.630000
vt -4.616000 1.703333
vt -4.610000 1.703333
vt -4.610000 1.630000
vt -4.616000 1.630000
vt -4.610000 1.630000
vt -4.610000 1.703333
vt -4.616000 1.703333
vt 4.471600 1.630000
vt 4.488400 1.630000
vt 4.488400 1.703333
vt 4.471600 1.703333
vt 4.471600 1.630000
vt 4.471600 1.703333
vt 4.488400 1.703333
vt 4.488400 1.630000
usemtl M_EntranceBulkhead_BaseMassing
s 1
f 1/1 2/2 4/3 3/4
f 5/5 7/6 8/7 6/8
f 1/9 5/10 6/11 2/12
f 3/13 4/14 8/15 7/16
f 1/17 3/18 7/19 5/20
f 2/21 6/22 8/23 4/24
f 9/29 11/30 12/31 10/32
f 5/33 9/34 10/35 6/36
f 7/37 8/38 12/39 11/40
usemtl M_EntranceBulkhead_JointReveal
f 5/41 7/42 11/43 9/44
usemtl M_EntranceBulkhead_BaseMassing
f 6/45 10/46 12/47 8/48
usemtl M_EntranceBulkhead_BoardFormedPlinth
f 13/49 1/50 3/51 14/52
f 15/53 17/54 18/55 16/56
f 13/57 15/58 16/59 1/60
f 14/61 3/62 18/63 17/64
f 13/65 14/66 17/67 15/68
f 1/69 16/70 18/71 3/72
f 19/73 20/74 22/75 21/76
f 23/77 25/78 26/79 24/80
f 19/81 23/82 24/83 20/84
f 21/85 22/86 26/87 25/88
f 19/89 21/90 25/91 23/92
f 20/93 24/94 26/95 22/96
f 27/97 28/98 30/99 29/100
f 31/101 33/102 34/103 32/104
f 27/105 31/106 32/107 28/108
f 29/109 30/110 34/111 33/112
f 27/113 29/114 33/115 31/116
f 28/117 32/118 34/119 30/120
f 35/121 36/122 38/123 37/124
f 39/125 41/126 42/127 40/128
f 35/129 39/130 40/131 36/132
f 37/133 38/134 42/135 41/136
f 35/137 37/138 41/139 39/140
f 36/141 40/142 42/143 38/144
f 43/145 44/146 46/147 45/148
f 47/149 49/150 50/151 48/152
f 43/153 47/154 48/155 44/156
f 45/157 46/158 50/159 49/160
f 43/161 45/162 49/163 47/164
f 44/165 48/166 50/167 46/168
f 51/169 52/170 54/171 53/172
f 55/173 57/174 58/175 56/176
f 51/177 55/178 56/179 52/180
f 53/181 54/182 58/183 57/184
f 51/185 53/186 57/187 55/188
f 52/189 56/190 58/191 54/192
usemtl M_EntranceBulkhead_PrecastAggregate
f 59/193 60/194 62/195 61/196
f 63/197 65/198 66/199 64/200
usemtl M_EntranceBulkhead_ChamferArris
f 59/201 61/202 65/203 63/204
f 62/205 60/206 64/207 66/208
f 60/209 59/210 63/211 64/212
f 61/213 62/214 66/215 65/216
usemtl M_EntranceBulkhead_ProudCoarseAggregate
f 72/217 67/218 68/219
f 73/220 68/221 67/222
f 72/223 68/224 69/225
f 73/226 69/227 68/228
f 72/229 69/230 70/231
f 73/232 70/233 69/234
f 72/235 70/236 71/237
f 73/238 71/239 70/240
f 72/241 71/242 67/243
f 73/244 67/245 71/246
f 80/247 74/248 75/249
f 81/250 75/251 74/252
f 80/253 75/254 76/255
f 81/256 76/257 75/258
f 80/259 76/260 77/261
f 81/262 77/263 76/264
f 80/265 77/266 78/267
f 81/268 78/269 77/270
f 80/271 78/272 79/273
f 81/274 79/275 78/276
f 80/277 79/278 74/279
f 81/280 74/281 79/282
f 87/283 82/284 83/285
f 88/286 83/287 82/288
f 87/289 83/290 84/291
f 88/292 84/293 83/294
f 87/295 84/296 85/297
f 88/298 85/299 84/300
f 87/301 85/302 86/303
f 88/304 86/305 85/306
f 87/307 86/308 82/309
f 88/310 82/311 86/312
f 96/313 89/314 90/315
f 97/316 90/317 89/318
f 96/319 90/320 91/321
f 97/322 91/323 90/324
f 96/325 91/326 92/327
f 97/328 92/329 91/330
f 96/331 92/332 93/333
f 97/334 93/335 92/336
f 96/337 93/338 94/339
f 97/340 94/341 93/342
f 96/343 94/344 95/345
f 97/346 95/347 94/348
f 96/349 95/350 89/351
f 97/352 89/353 95/354
f 104/355 98/356 99/357
f 105/358 99/359 98/360
f 104/361 99/362 100/363
f 105/364 100/365 99/366
f 104/367 100/368 101/369
f 105/370 101/371 100/372
f 104/373 101/374 102/375
f 105/376 102/377 101/378
f 104/379 102/380 103/381
f 105/382 103/383 102/384
f 104/385 103/386 98/387
f 105/388 98/389 103/390
f 113/391 106/392 107/393
f 114/394 107/395 106/396
f 113/397 107/398 108/399
f 114/400 108/401 107/402
f 113/403 108/404 109/405
f 114/406 109/407 108/408
f 113/409 109/410 110/411
f 114/412 110/413 109/414
f 113/415 110/416 111/417
f 114/418 111/419 110/420
f 113/421 111/422 112/423
f 114/424 112/425 111/426
f 113/427 112/428 106/429
f 114/430 106/431 112/432
f 120/433 115/434 116/435
f 121/436 116/437 115/438
f 120/439 116/440 117/441
f 121/442 117/443 116/444
f 120/445 117/446 118/447
f 121/448 118/449 117/450
f 120/451 118/452 119/453
f 121/454 119/455 118/456
f 120/457 119/458 115/459
f 121/460 115/461 119/462
f 128/463 122/464 123/465
f 129/466 123/467 122/468
f 128/469 123/470 124/471
f 129/472 124/473 123/474
f 128/475 124/476 125/477
f 129/478 125/479 124/480
f 128/481 125/482 126/483
f 129/484 126/485 125/486
f 128/487 126/488 127/489
f 129/490 127/491 126/492
f 128/493 127/494 122/495
f 129/496 122/497 127/498
f 137/499 130/500 131/501
f 138/502 131/503 130/504
f 137/505 131/506 132/507
f 138/508 132/509 131/510
f 137/511 132/512 133/513
f 138/514 133/515 132/516
f 137/517 133/518 134/519
f 138/520 134/521 133/522
f 137/523 134/524 135/525
f 138/526 135/527 134/528
f 137/529 135/530 136/531
f 138/532 136/533 135/534
f 137/535 136/536 130/537
f 138/538 130/539 136/540
f 144/541 139/542 140/543
f 145/544 140/545 139/546
f 144/547 140/548 141/549
f 145/550 141/551 140/552
f 144/553 141/554 142/555
f 145/556 142/557 141/558
f 144/559 142/560 143/561
f 145/562 143/563 142/564
f 144/565 143/566 139/567
f 145/568 139/569 143/570
f 152/571 146/572 147/573
f 153/574 147/575 146/576
f 152/577 147/578 148/579
f 153/580 148/581 147/582
f 152/583 148/584 149/585
f 153/586 149/587 148/588
f 152/589 149/590 150/591
f 153/592 150/593 149/594
f 152/595 150/596 151/597
f 153/598 151/599 150/600
f 152/601 151/602 146/603
f 153/604 146/605 151/606
f 161/607 154/608 155/609
f 162/610 155/611 154/612
f 161/613 155/614 156/615
f 162/616 156/617 155/618
f 161/619 156/620 157/621
f 162/622 157/623 156/624
f 161/625 157/626 158/627
f 162/628 158/629 157/630
f 161/631 158/632 159/633
f 162/634 159/635 158/636
f 161/637 159/638 160/639
f 162/640 160/641 159/642
f 161/643 160/644 154/645
f 162/646 154/647 160/648
f 168/649 163/650 164/651
f 169/652 164/653 163/654
f 168/655 164/656 165/657
f 169/658 165/659 164/660
f 168/661 165/662 166/663
f 169/664 166/665 165/666
f 168/667 166/668 167/669
f 169/670 167/671 166/672
f 168/673 167/674 163/675
f 169/676 163/677 167/678
f 176/679 170/680 171/681
f 177/682 171/683 170/684
f 176/685 171/686 172/687
f 177/688 172/689 171/690
f 176/691 172/692 173/693
f 177/694 173/695 172/696
f 176/697 173/698 174/699
f 177/700 174/701 173/702
f 176/703 174/704 175/705
f 177/706 175/707 174/708
f 176/709 175/710 170/711
f 177/712 170/713 175/714
usemtl M_EntranceBulkhead_SealantJoint
f 178/715 179/716 181/717 180/718
f 182/719 184/720 185/721 183/722
f 178/723 182/724 183/725 179/726
f 178/731 180/732 184/733 182/734
f 179/735 183/736 185/737 181/738
f 186/739 187/740 189/741 188/742
f 190/743 192/744 193/745 191/746
f 186/747 190/748 191/749 187/750
f 188/751 189/752 193/753 192/754
f 186/755 188/756 192/757 190/758
f 187/759 191/760 193/761 189/762
f 194/763 195/764 197/765 196/766
f 198/767 200/768 201/769 199/770
f 194/771 198/772 199/773 195/774
f 196/775 197/776 201/777 200/778
f 194/779 196/780 200/781 198/782
f 195/783 199/784 201/785 197/786
usemtl M_EntranceBulkhead_SpallReveal
f 202/787 205/788 204/789 203/790
f 202/791 203/792 206/793
f 203/794 204/795 206/796
f 204/797 205/798 206/799
f 205/800 202/801 206/802
usemtl M_EntranceBulkhead_RebarLug
f 214/803 213/804 212/805 211/806 210/807 209/808 208/809 207/810
f 215/811 216/812 217/813 218/814 219/815 220/816 221/817 222/818
f 207/819 208/820 216/821 215/822
f 208/823 209/824 217/825 216/826
f 209/827 210/828 218/829 217/830
f 210/831 211/832 219/833 218/834
f 211/835 212/836 220/837 219/838
f 212/839 213/840 221/841 220/842
f 213/843 214/844 222/845 221/846
f 214/847 207/848 215/849 222/850
usemtl M_EntranceBulkhead_WeatherStreak
f 223/851 224/852 226/853 225/854
f 227/855 229/856 230/857 228/858
f 223/859 227/860 228/861 224/862
f 225/863 226/864 230/865 229/866
f 223/867 225/868 229/869 227/870
f 231/875 232/876 234/877 233/878
f 231/883 235/884 236/885 232/886
f 233/887 234/888 238/889 237/890
f 231/891 233/892 237/893 235/894
f 239/899 240/900 242/901 241/902
f 239/907 243/908 244/909 240/910
f 241/911 242/912 246/913 245/914
f 239/915 241/916 245/917 243/918
f 247/923 248/924 250/925 249/926
f 251/927 253/928 254/929 252/930
f 247/931 251/932 252/933 248/934
f 249/935 250/936 254/937 253/938
f 247/939 249/940 253/941 251/942
f 255/947 256/948 258/949 257/950
f 255/955 259/956 260/957 256/958
f 257/959 258/960 262/961 261/962
f 255/963 257/964 261/965 259/966
f 263/971 264/972 266/973 265/974
f 263/979 267/980 268/981 264/982
f 265/983 266/984 270/985 269/986
f 263/987 265/988 269/989 267/990
f 271/995 272/996 274/997 273/998
f 275/999 277/1000 278/1001 276/1002
f 271/1003 275/1004 276/1005 272/1006
f 273/1007 274/1008 278/1009 277/1010
f 271/1011 273/1012 277/1013 275/1014
f 279/1019 280/1020 282/1021 281/1022
f 279/1027 283/1028 284/1029 280/1030
f 281/1031 282/1032 286/1033 285/1034
f 279/1035 281/1036 285/1037 283/1038
f 287/1043 288/1044 290/1045 289/1046
f 287/1051 291/1052 292/1053 288/1054
f 289/1055 290/1056 294/1057 293/1058
f 287/1059 289/1060 293/1061 291/1062
