# Generated by scripts/generate_rootstead_entry_vestibule.py
mtllib VD_RootsteadEntryVestibule.mtl
o VD_RootsteadEntryVestibule_Glazing
v 12.000000 -941.000000 90.000000
v 174.000000 -941.000000 90.000000
v 174.000000 -941.000000 424.000000
v 12.000000 -941.000000 424.000000
v 12.000000 -941.000000 440.000000
v 174.000000 -941.000000 440.000000
v 174.000000 -941.000000 800.000000
v 12.000000 -941.000000 800.000000
v 186.000000 -941.000000 90.000000
v 348.000000 -941.000000 90.000000
v 348.000000 -941.000000 424.000000
v 186.000000 -941.000000 424.000000
v 186.000000 -941.000000 440.000000
v 348.000000 -941.000000 440.000000
v 348.000000 -941.000000 800.000000
v 186.000000 -941.000000 800.000000
v 12.000000 941.000000 424.000000
v 174.000000 941.000000 424.000000
v 174.000000 941.000000 90.000000
v 12.000000 941.000000 90.000000
v 12.000000 941.000000 800.000000
v 174.000000 941.000000 800.000000
v 174.000000 941.000000 440.000000
v 12.000000 941.000000 440.000000
v 186.000000 941.000000 424.000000
v 348.000000 941.000000 424.000000
v 348.000000 941.000000 90.000000
v 186.000000 941.000000 90.000000
v 186.000000 941.000000 800.000000
v 348.000000 941.000000 800.000000
v 348.000000 941.000000 440.000000
v 186.000000 941.000000 440.000000
v 361.000000 -482.000000 78.000000
v 361.000000 -928.000000 78.000000
v 361.000000 -928.000000 424.000000
v 361.000000 -482.000000 424.000000
v 361.000000 -482.000000 440.000000
v 361.000000 -928.000000 440.000000
v 361.000000 -928.000000 800.000000
v 361.000000 -482.000000 800.000000
v 361.000000 928.000000 78.000000
v 361.000000 482.000000 78.000000
v 361.000000 482.000000 424.000000
v 361.000000 928.000000 424.000000
v 361.000000 928.000000 440.000000
v 361.000000 482.000000 440.000000
v 361.000000 482.000000 800.000000
v 361.000000 928.000000 800.000000
v 361.000000 -8.000000 548.000000
v 361.000000 -462.000000 548.000000
v 361.000000 -462.000000 800.000000
v 361.000000 -8.000000 800.000000
v 361.000000 462.000000 548.000000
v 361.000000 8.000000 548.000000
v 361.000000 8.000000 800.000000
v 361.000000 462.000000 800.000000
v 12.000000 -922.000000 821.531915
v 174.000000 -922.000000 821.531915
v 174.000000 -474.000000 859.659574
v 12.000000 -474.000000 859.659574
v 12.000000 -462.000000 860.680851
v 174.000000 -462.000000 860.680851
v 174.000000 -12.000000 898.978723
v 12.000000 -12.000000 898.978723
v 12.000000 12.000000 898.978723
v 174.000000 12.000000 898.978723
v 174.000000 462.000000 860.680851
v 12.000000 462.000000 860.680851
v 12.000000 474.000000 859.659574
v 174.000000 474.000000 859.659574
v 174.000000 922.000000 821.531915
v 12.000000 922.000000 821.531915
v 186.000000 -922.000000 821.531915
v 348.000000 -922.000000 821.531915
v 348.000000 -474.000000 859.659574
v 186.000000 -474.000000 859.659574
v 186.000000 -462.000000 860.680851
v 348.000000 -462.000000 860.680851
v 348.000000 -12.000000 898.978723
v 186.000000 -12.000000 898.978723
v 186.000000 12.000000 898.978723
v 348.000000 12.000000 898.978723
v 348.000000 462.000000 860.680851
v 186.000000 462.000000 860.680851
v 186.000000 474.000000 859.659574
v 348.000000 474.000000 859.659574
v 348.000000 922.000000 821.531915
v 186.000000 922.000000 821.531915
vt 0.120000 0.900000
vt 1.740000 0.900000
vt 1.740000 4.240000
vt 0.120000 4.240000
vt 0.120000 4.400000
vt 1.740000 4.400000
vt 1.740000 8.000000
vt 0.120000 8.000000
vt 1.860000 0.900000
vt 3.480000 0.900000
vt 3.480000 4.240000
vt 1.860000 4.240000
vt 1.860000 4.400000
vt 3.480000 4.400000
vt 3.480000 8.000000
vt 1.860000 8.000000
vt 0.120000 4.240000
vt 1.740000 4.240000
vt 1.740000 0.900000
vt 0.120000 0.900000
vt 0.120000 8.000000
vt 1.740000 8.000000
vt 1.740000 4.400000
vt 0.120000 4.400000
vt 1.860000 4.240000
vt 3.480000 4.240000
vt 3.480000 0.900000
vt 1.860000 0.900000
vt 1.860000 8.000000
vt 3.480000 8.000000
vt 3.480000 4.400000
vt 1.860000 4.400000
vt -4.820000 0.780000
vt -9.280000 0.780000
vt -9.280000 4.240000
vt -4.820000 4.240000
vt -4.820000 4.400000
vt -9.280000 4.400000
vt -9.280000 8.000000
vt -4.820000 8.000000
vt 9.280000 0.780000
vt 4.820000 0.780000
vt 4.820000 4.240000
vt 9.280000 4.240000
vt 9.280000 4.400000
vt 4.820000 4.400000
vt 4.820000 8.000000
vt 9.280000 8.000000
vt -0.080000 5.480000
vt -4.620000 5.480000
vt -4.620000 8.000000
vt -0.080000 8.000000
vt 4.620000 5.480000
vt 0.080000 5.480000
vt 0.080000 8.000000
vt 4.620000 8.000000
vt 0.120000 -9.220000
vt 1.740000 -9.220000
vt 1.740000 -4.740000
vt 0.120000 -4.740000
vt 0.120000 -4.620000
vt 1.740000 -4.620000
vt 1.740000 -0.120000
vt 0.120000 -0.120000
vt 0.120000 0.120000
vt 1.740000 0.120000
vt 1.740000 4.620000
vt 0.120000 4.620000
vt 0.120000 4.740000
vt 1.740000 4.740000
vt 1.740000 9.220000
vt 0.120000 9.220000
vt 1.860000 -9.220000
vt 3.480000 -9.220000
vt 3.480000 -4.740000
vt 1.860000 -4.740000
vt 1.860000 -4.620000
vt 3.480000 -4.620000
vt 3.480000 -0.120000
vt 1.860000 -0.120000
vt 1.860000 0.120000
vt 3.480000 0.120000
vt 3.480000 4.620000
vt 1.860000 4.620000
vt 1.860000 4.740000
vt 3.480000 4.740000
vt 3.480000 9.220000
vt 1.860000 9.220000
usemtl M_Vestibule_GlassAged
s 1
f 1/1 2/2 3/3 4/4
f 5/5 6/6 7/7 8/8
f 9/9 10/10 11/11 12/12
f 13/13 14/14 15/15 16/16
f 17/17 18/18 19/19 20/20
f 21/21 22/22 23/23 24/24
f 25/25 26/26 27/27 28/28
usemtl M_Vestibule_GlassRepair
s 1
f 29/29 30/30 31/31 32/32
usemtl M_Vestibule_GlassAged
s 1
f 33/33 34/34 35/35 36/36
f 37/37 38/38 39/39 40/40
usemtl M_Vestibule_GlassRepair
s 1
f 41/41 42/42 43/43 44/44
usemtl M_Vestibule_GlassAged
s 1
f 45/45 46/46 47/47 48/48
f 49/49 50/50 51/51 52/52
f 53/53 54/54 55/55 56/56
f 57/57 58/58 59/59 60/60
f 61/61 62/62 63/63 64/64
f 65/65 66/66 67/67 68/68
usemtl M_Vestibule_GlassRepair
s 1
f 69/69 70/70 71/71 72/72
f 73/73 74/74 75/75 76/76
f 77/77 78/78 79/79 80/80
usemtl M_Vestibule_GlassAged
s 1
f 81/81 82/82 83/83 84/84
f 85/85 86/86 87/87 88/88
