# Generated by scripts/generate_rootstead_entry_vestibule.py
mtllib VD_RootsteadEntryVestibule.mtl
o VD_RootsteadEntryVestibule_Frame
v 0.000000 -940.000000 0.000000
v 20.000000 -940.000000 0.000000
v 0.000000 -920.000000 0.000000
v 20.000000 -920.000000 0.000000
v 0.000000 -940.000000 85.000000
v 20.000000 -940.000000 85.000000
v 0.000000 -920.000000 85.000000
v 20.000000 -920.000000 85.000000
v 0.000000 -940.000000 820.000000
v 20.000000 -940.000000 820.000000
v 0.000000 -920.000000 820.000000
v 20.000000 -920.000000 820.000000
v 0.000000 920.000000 0.000000
v 20.000000 920.000000 0.000000
v 0.000000 940.000000 0.000000
v 20.000000 940.000000 0.000000
v 0.000000 920.000000 85.000000
v 20.000000 920.000000 85.000000
v 0.000000 940.000000 85.000000
v 20.000000 940.000000 85.000000
v 0.000000 920.000000 820.000000
v 20.000000 920.000000 820.000000
v 0.000000 940.000000 820.000000
v 20.000000 940.000000 820.000000
v 170.000000 -940.000000 0.000000
v 190.000000 -940.000000 0.000000
v 170.000000 -920.000000 0.000000
v 190.000000 -920.000000 0.000000
v 170.000000 -940.000000 85.000000
v 190.000000 -940.000000 85.000000
v 170.000000 -920.000000 85.000000
v 190.000000 -920.000000 85.000000
v 170.000000 -940.000000 820.000000
v 190.000000 -940.000000 820.000000
v 170.000000 -920.000000 820.000000
v 190.000000 -920.000000 820.000000
v 170.000000 920.000000 0.000000
v 190.000000 920.000000 0.000000
v 170.000000 940.000000 0.000000
v 190.000000 940.000000 0.000000
v 170.000000 920.000000 85.000000
v 190.000000 920.000000 85.000000
v 170.000000 940.000000 85.000000
v 190.000000 940.000000 85.000000
v 170.000000 920.000000 820.000000
v 190.000000 920.000000 820.000000
v 170.000000 940.000000 820.000000
v 190.000000 940.000000 820.000000
v 340.000000 -940.000000 0.000000
v 360.000000 -940.000000 0.000000
v 340.000000 -920.000000 0.000000
v 360.000000 -920.000000 0.000000
v 340.000000 -940.000000 85.000000
v 360.000000 -940.000000 85.000000
v 340.000000 -920.000000 85.000000
v 360.000000 -920.000000 85.000000
v 340.000000 -940.000000 820.000000
v 360.000000 -940.000000 820.000000
v 340.000000 -920.000000 820.000000
v 360.000000 -920.000000 820.000000
v 340.000000 920.000000 0.000000
v 360.000000 920.000000 0.000000
v 340.000000 940.000000 0.000000
v 360.000000 940.000000 0.000000
v 340.000000 920.000000 85.000000
v 360.000000 920.000000 85.000000
v 340.000000 940.000000 85.000000
v 360.000000 940.000000 85.000000
v 340.000000 920.000000 820.000000
v 360.000000 920.000000 820.000000
v 340.000000 940.000000 820.000000
v 360.000000 940.000000 820.000000
v 340.000000 -480.000000 0.000000
v 360.000000 -480.000000 0.000000
v 340.000000 -460.000000 0.000000
v 360.000000 -460.000000 0.000000
v 340.000000 -480.000000 85.000000
v 360.000000 -480.000000 85.000000
v 340.000000 -460.000000 85.000000
v 360.000000 -460.000000 85.000000
v 340.000000 -480.000000 820.000000
v 360.000000 -480.000000 820.000000
v 340.000000 -460.000000 820.000000
v 360.000000 -460.000000 820.000000
v 340.000000 460.000000 0.000000
v 360.000000 460.000000 0.000000
v 340.000000 480.000000 0.000000
v 360.000000 480.000000 0.000000
v 340.000000 460.000000 85.000000
v 360.000000 460.000000 85.000000
v 340.000000 480.000000 85.000000
v 360.000000 480.000000 85.000000
v 340.000000 460.000000 820.000000
v 360.000000 460.000000 820.000000
v 340.000000 480.000000 820.000000
v 360.000000 480.000000 820.000000
v 0.000000 -930.000000 780.000000
v 20.000000 -930.000000 780.000000
v 0.000000 930.000000 780.000000
v 20.000000 930.000000 780.000000
v 0.000000 -930.000000 820.000000
v 20.000000 -930.000000 820.000000
v 0.000000 930.000000 820.000000
v 20.000000 930.000000 820.000000
v 0.000000 -939.000000 66.000000
v 360.000000 -939.000000 66.000000
v 0.000000 -921.000000 66.000000
v 360.000000 -921.000000 66.000000
v 0.000000 -939.000000 84.000000
v 360.000000 -939.000000 84.000000
v 0.000000 -921.000000 84.000000
v 360.000000 -921.000000 84.000000
v 0.000000 -939.000000 421.000000
v 360.000000 -939.000000 421.000000
v 0.000000 -921.000000 421.000000
v 360.000000 -921.000000 421.000000
v 0.000000 -939.000000 439.000000
v 360.000000 -939.000000 439.000000
v 0.000000 -921.000000 439.000000
v 360.000000 -921.000000 439.000000
v 0.000000 -939.000000 801.000000
v 360.000000 -939.000000 801.000000
v 0.000000 -921.000000 801.000000
v 360.000000 -921.000000 801.000000
v 0.000000 -939.000000 819.000000
v 360.000000 -939.000000 819.000000
v 0.000000 -921.000000 819.000000
v 360.000000 -921.000000 819.000000
v 0.000000 921.000000 66.000000
v 360.000000 921.000000 66.000000
v 0.000000 939.000000 66.000000
v 360.000000 939.000000 66.000000
v 0.000000 921.000000 84.000000
v 360.000000 921.000000 84.000000
v 0.000000 939.000000 84.000000
v 360.000000 939.000000 84.000000
v 0.000000 921.000000 421.000000
v 360.000000 921.000000 421.000000
v 0.000000 939.000000 421.000000
v 360.000000 939.000000 421.000000
v 0.000000 921.000000 439.000000
v 360.000000 921.000000 439.000000
v 0.000000 939.000000 439.000000
v 360.000000 939.000000 439.000000
v 0.000000 921.000000 801.000000
v 360.000000 921.000000 801.000000
v 0.000000 939.000000 801.000000
v 360.000000 939.000000 801.000000
v 0.000000 921.000000 819.000000
v 360.000000 921.000000 819.000000
v 0.000000 939.000000 819.000000
v 360.000000 939.000000 819.000000
v 1.000000 -930.771345 828.966885
v 19.000000 -930.771345 828.966885
v 19.000000 -929.228655 811.033115
v 1.000000 -929.228655 811.033115
v 1.000000 -0.771345 908.966885
v 19.000000 -0.771345 908.966885
v 19.000000 0.771345 891.033115
v 1.000000 0.771345 891.033115
v 1.000000 0.771345 908.966885
v 19.000000 0.771345 908.966885
v 19.000000 -0.771345 891.033115
v 1.000000 -0.771345 891.033115
v 1.000000 930.771345 828.966885
v 19.000000 930.771345 828.966885
v 19.000000 929.228655 811.033115
v 1.000000 929.228655 811.033115
v 171.000000 -930.771345 828.966885
v 189.000000 -930.771345 828.966885
v 189.000000 -929.228655 811.033115
v 171.000000 -929.228655 811.033115
v 171.000000 -0.771345 908.966885
v 189.000000 -0.771345 908.966885
v 189.000000 0.771345 891.033115
v 171.000000 0.771345 891.033115
v 171.000000 0.771345 908.966885
v 189.000000 0.771345 908.966885
v 189.000000 -0.771345 891.033115
v 171.000000 -0.771345 891.033115
v 171.000000 930.771345 828.966885
v 189.000000 930.771345 828.966885
v 189.000000 929.228655 811.033115
v 171.000000 929.228655 811.033115
v 341.000000 -930.771345 828.966885
v 359.000000 -930.771345 828.966885
v 359.000000 -929.228655 811.033115
v 341.000000 -929.228655 811.033115
v 341.000000 -0.771345 908.966885
v 359.000000 -0.771345 908.966885
v 359.000000 0.771345 891.033115
v 341.000000 0.771345 891.033115
v 341.000000 0.771345 908.966885
v 359.000000 0.771345 908.966885
v 359.000000 -0.771345 891.033115
v 341.000000 -0.771345 891.033115
v 341.000000 930.771345 828.966885
v 359.000000 930.771345 828.966885
v 359.000000 929.228655 811.033115
v 341.000000 929.228655 811.033115
v 0.000000 -478.000000 852.000000
v 360.000000 -478.000000 852.000000
v 0.000000 -462.000000 852.000000
v 360.000000 -462.000000 852.000000
v 0.000000 -478.000000 868.000000
v 360.000000 -478.000000 868.000000
v 0.000000 -462.000000 868.000000
v 360.000000 -462.000000 868.000000
v 0.000000 -8.000000 892.000000
v 360.000000 -8.000000 892.000000
v 0.000000 8.000000 892.000000
v 360.000000 8.000000 892.000000
v 0.000000 -8.000000 908.000000
v 360.000000 -8.000000 908.000000
v 0.000000 8.000000 908.000000
v 360.000000 8.000000 908.000000
v 0.000000 462.000000 852.000000
v 360.000000 462.000000 852.000000
v 0.000000 478.000000 852.000000
v 360.000000 478.000000 852.000000
v 0.000000 462.000000 868.000000
v 360.000000 462.000000 868.000000
v 0.000000 478.000000 868.000000
v 360.000000 478.000000 868.000000
v 340.000000 -930.000000 66.000000
v 360.000000 -930.000000 66.000000
v 340.000000 -480.000000 66.000000
v 360.000000 -480.000000 66.000000
v 340.000000 -930.000000 84.000000
v 360.000000 -930.000000 84.000000
v 340.000000 -480.000000 84.000000
v 360.000000 -480.000000 84.000000
v 340.000000 -930.000000 421.000000
v 360.000000 -930.000000 421.000000
v 340.000000 -480.000000 421.000000
v 360.000000 -480.000000 421.000000
v 340.000000 -930.000000 439.000000
v 360.000000 -930.000000 439.000000
v 340.000000 -480.000000 439.000000
v 360.000000 -480.000000 439.000000
v 340.000000 -930.000000 801.000000
v 360.000000 -930.000000 801.000000
v 340.000000 -480.000000 801.000000
v 360.000000 -480.000000 801.000000
v 340.000000 -930.000000 819.000000
v 360.000000 -930.000000 819.000000
v 340.000000 -480.000000 819.000000
v 360.000000 -480.000000 819.000000
v 340.000000 480.000000 66.000000
v 360.000000 480.000000 66.000000
v 340.000000 930.000000 66.000000
v 360.000000 930.000000 66.000000
v 340.000000 480.000000 84.000000
v 360.000000 480.000000 84.000000
v 340.000000 930.000000 84.000000
v 360.000000 930.000000 84.000000
v 340.000000 480.000000 421.000000
v 360.000000 480.000000 421.000000
v 340.000000 930.000000 421.000000
v 360.000000 930.000000 421.000000
v 340.000000 480.000000 439.000000
v 360.000000 480.000000 439.000000
v 340.000000 930.000000 439.000000
v 360.000000 930.000000 439.000000
v 340.000000 480.000000 801.000000
v 360.000000 480.000000 801.000000
v 340.000000 930.000000 801.000000
v 360.000000 930.000000 801.000000
v 340.000000 480.000000 819.000000
v 360.000000 480.000000 819.000000
v 340.000000 930.000000 819.000000
v 360.000000 930.000000 819.000000
v 340.000000 -480.000000 520.000000
v 360.000000 -480.000000 520.000000
v 340.000000 480.000000 520.000000
v 360.000000 480.000000 520.000000
v 340.000000 -480.000000 542.000000
v 360.000000 -480.000000 542.000000
v 340.000000 480.000000 542.000000
v 360.000000 480.000000 542.000000
v 340.000000 -10.000000 532.000000
v 360.000000 -10.000000 532.000000
v 340.000000 10.000000 532.000000
v 360.000000 10.000000 532.000000
v 340.000000 -10.000000 820.000000
v 360.000000 -10.000000 820.000000
v 340.000000 10.000000 820.000000
v 360.000000 10.000000 820.000000
v 0.000000 -936.000000 0.000000
v 360.000000 -936.000000 0.000000
v 0.000000 -924.000000 0.000000
v 360.000000 -924.000000 0.000000
v 0.000000 -936.000000 65.000000
v 360.000000 -936.000000 65.000000
v 0.000000 -924.000000 65.000000
v 360.000000 -924.000000 65.000000
v 0.000000 924.000000 0.000000
v 360.000000 924.000000 0.000000
v 0.000000 936.000000 0.000000
v 360.000000 936.000000 0.000000
v 0.000000 924.000000 65.000000
v 360.000000 924.000000 65.000000
v 0.000000 936.000000 65.000000
v 360.000000 936.000000 65.000000
v 348.000000 -930.000000 0.000000
v 360.000000 -930.000000 0.000000
v 348.000000 -480.000000 0.000000
v 348.000000 -930.000000 65.000000
v 360.000000 -930.000000 65.000000
v 348.000000 -480.000000 65.000000
v 360.000000 -480.000000 65.000000
v 348.000000 480.000000 0.000000
v 348.000000 930.000000 0.000000
v 360.000000 930.000000 0.000000
v 348.000000 480.000000 65.000000
v 360.000000 480.000000 65.000000
v 348.000000 930.000000 65.000000
v 360.000000 930.000000 65.000000
v 8.000000 -943.000000 81.000000
v 352.000000 -943.000000 81.000000
v 8.000000 -937.000000 81.000000
v 352.000000 -937.000000 81.000000
v 8.000000 -943.000000 89.000000
v 352.000000 -943.000000 89.000000
v 8.000000 -937.000000 89.000000
v 352.000000 -937.000000 89.000000
v 8.000000 -943.000000 434.000000
v 352.000000 -943.000000 434.000000
v 8.000000 -937.000000 434.000000
v 352.000000 -937.000000 434.000000
v 8.000000 -943.000000 442.000000
v 352.000000 -943.000000 442.000000
v 8.000000 -937.000000 442.000000
v 352.000000 -937.000000 442.000000
v 8.000000 -943.000000 798.000000
v 352.000000 -943.000000 798.000000
v 8.000000 -937.000000 798.000000
v 352.000000 -937.000000 798.000000
v 8.000000 -943.000000 806.000000
v 352.000000 -943.000000 806.000000
v 8.000000 -937.000000 806.000000
v 352.000000 -937.000000 806.000000
v 8.000000 937.000000 81.000000
v 352.000000 937.000000 81.000000
v 8.000000 943.000000 81.000000
v 352.000000 943.000000 81.000000
v 8.000000 937.000000 89.000000
v 352.000000 937.000000 89.000000
v 8.000000 943.000000 89.000000
v 352.000000 943.000000 89.000000
v 8.000000 937.000000 434.000000
v 352.000000 937.000000 434.000000
v 8.000000 943.000000 434.000000
v 352.000000 943.000000 434.000000
v 8.000000 937.000000 442.000000
v 352.000000 937.000000 442.000000
v 8.000000 943.000000 442.000000
v 352.000000 943.000000 442.000000
v 8.000000 937.000000 798.000000
v 352.000000 937.000000 798.000000
v 8.000000 943.000000 798.000000
v 352.000000 943.000000 798.000000
v 8.000000 937.000000 806.000000
v 352.000000 937.000000 806.000000
v 8.000000 943.000000 806.000000
v 352.000000 943.000000 806.000000
v 347.000000 -943.000000 72.000000
v 353.000000 -943.000000 72.000000
v 347.000000 -937.000000 72.000000
v 353.000000 -937.000000 72.000000
v 347.000000 -943.000000 810.000000
v 353.000000 -943.000000 810.000000
v 347.000000 -937.000000 810.000000
v 353.000000 -937.000000 810.000000
v 347.000000 -483.000000 72.000000
v 353.000000 -483.000000 72.000000
v 347.000000 -477.000000 72.000000
v 353.000000 -477.000000 72.000000
v 347.000000 -483.000000 810.000000
v 353.000000 -483.000000 810.000000
v 347.000000 -477.000000 810.000000
v 353.000000 -477.000000 810.000000
v 347.000000 477.000000 72.000000
v 353.000000 477.000000 72.000000
v 347.000000 483.000000 72.000000
v 353.000000 483.000000 72.000000
v 347.000000 477.000000 810.000000
v 353.000000 477.000000 810.000000
v 347.000000 483.000000 810.000000
v 353.000000 483.000000 810.000000
v 347.000000 937.000000 72.000000
v 353.000000 937.000000 72.000000
v 347.000000 943.000000 72.000000
v 353.000000 943.000000 72.000000
v 347.000000 937.000000 810.000000
v 353.000000 937.000000 810.000000
v 347.000000 943.000000 810.000000
v 353.000000 943.000000 810.000000
v 347.000000 -476.000000 536.000000
v 353.000000 -476.000000 536.000000
v 347.000000 476.000000 536.000000
v 353.000000 476.000000 536.000000
v 347.000000 -476.000000 544.000000
v 353.000000 -476.000000 544.000000
v 347.000000 476.000000 544.000000
v 353.000000 476.000000 544.000000
v 0.000000 -972.000000 0.000000
v 12.000000 -972.000000 0.000000
v 0.000000 -888.000000 0.000000
v 12.000000 -888.000000 0.000000
v 0.000000 -972.000000 95.000000
v 12.000000 -972.000000 95.000000
v 0.000000 -888.000000 95.000000
v 12.000000 -888.000000 95.000000
v 12.000000 -962.000000 20.000000
v 12.000000 -960.535534 16.464466
v 12.000000 -957.000000 15.000000
v 12.000000 -953.464466 16.464466
v 12.000000 -952.000000 20.000000
v 12.000000 -953.464466 23.535534
v 12.000000 -957.000000 25.000000
v 12.000000 -960.535534 23.535534
v 22.000000 -962.000000 20.000000
v 22.000000 -960.535534 16.464466
v 22.000000 -957.000000 15.000000
v 22.000000 -953.464466 16.464466
v 22.000000 -952.000000 20.000000
v 22.000000 -953.464466 23.535534
v 22.000000 -957.000000 25.000000
v 22.000000 -960.535534 23.535534
v 12.000000 -962.000000 72.000000
v 12.000000 -960.535534 68.464466
v 12.000000 -957.000000 67.000000
v 12.000000 -953.464466 68.464466
v 12.000000 -952.000000 72.000000
v 12.000000 -953.464466 75.535534
v 12.000000 -957.000000 77.000000
v 12.000000 -960.535534 75.535534
v 22.000000 -962.000000 72.000000
v 22.000000 -960.535534 68.464466
v 22.000000 -957.000000 67.000000
v 22.000000 -953.464466 68.464466
v 22.000000 -952.000000 72.000000
v 22.000000 -953.464466 75.535534
v 22.000000 -957.000000 77.000000
v 22.000000 -960.535534 75.535534
v 12.000000 -908.000000 20.000000
v 12.000000 -906.535534 16.464466
v 12.000000 -903.000000 15.000000
v 12.000000 -899.464466 16.464466
v 12.000000 -898.000000 20.000000
v 12.000000 -899.464466 23.535534
v 12.000000 -903.000000 25.000000
v 12.000000 -906.535534 23.535534
v 22.000000 -908.000000 20.000000
v 22.000000 -906.535534 16.464466
v 22.000000 -903.000000 15.000000
v 22.000000 -899.464466 16.464466
v 22.000000 -898.000000 20.000000
v 22.000000 -899.464466 23.535534
v 22.000000 -903.000000 25.000000
v 22.000000 -906.535534 23.535534
v 12.000000 -908.000000 72.000000
v 12.000000 -906.535534 68.464466
v 12.000000 -903.000000 67.000000
v 12.000000 -899.464466 68.464466
v 12.000000 -898.000000 72.000000
v 12.000000 -899.464466 75.535534
v 12.000000 -903.000000 77.000000
v 12.000000 -906.535534 75.535534
v 22.000000 -908.000000 72.000000
v 22.000000 -906.535534 68.464466
v 22.000000 -903.000000 67.000000
v 22.000000 -899.464466 68.464466
v 22.000000 -898.000000 72.000000
v 22.000000 -899.464466 75.535534
v 22.000000 -903.000000 77.000000
v 22.000000 -906.535534 75.535534
v 0.000000 888.000000 0.000000
v 12.000000 888.000000 0.000000
v 0.000000 972.000000 0.000000
v 12.000000 972.000000 0.000000
v 0.000000 888.000000 95.000000
v 12.000000 888.000000 95.000000
v 0.000000 972.000000 95.000000
v 12.000000 972.000000 95.000000
v 12.000000 898.000000 20.000000
v 12.000000 899.464466 16.464466
v 12.000000 903.000000 15.000000
v 12.000000 906.535534 16.464466
v 12.000000 908.000000 20.000000
v 12.000000 906.535534 23.535534
v 12.000000 903.000000 25.000000
v 12.000000 899.464466 23.535534
v 22.000000 898.000000 20.000000
v 22.000000 899.464466 16.464466
v 22.000000 903.000000 15.000000
v 22.000000 906.535534 16.464466
v 22.000000 908.000000 20.000000
v 22.000000 906.535534 23.535534
v 22.000000 903.000000 25.000000
v 22.000000 899.464466 23.535534
v 12.000000 898.000000 72.000000
v 12.000000 899.464466 68.464466
v 12.000000 903.000000 67.000000
v 12.000000 906.535534 68.464466
v 12.000000 908.000000 72.000000
v 12.000000 906.535534 75.535534
v 12.000000 903.000000 77.000000
v 12.000000 899.464466 75.535534
v 22.000000 898.000000 72.000000
v 22.000000 899.464466 68.464466
v 22.000000 903.000000 67.000000
v 22.000000 906.535534 68.464466
v 22.000000 908.000000 72.000000
v 22.000000 906.535534 75.535534
v 22.000000 903.000000 77.000000
v 22.000000 899.464466 75.535534
v 12.000000 952.000000 20.000000
v 12.000000 953.464466 16.464466
v 12.000000 957.000000 15.000000
v 12.000000 960.535534 16.464466
v 12.000000 962.000000 20.000000
v 12.000000 960.535534 23.535534
v 12.000000 957.000000 25.000000
v 12.000000 953.464466 23.535534
v 22.000000 952.000000 20.000000
v 22.000000 953.464466 16.464466
v 22.000000 957.000000 15.000000
v 22.000000 960.535534 16.464466
v 22.000000 962.000000 20.000000
v 22.000000 960.535534 23.535534
v 22.000000 957.000000 25.000000
v 22.000000 953.464466 23.535534
v 12.000000 950.000000 72.000000
v 12.000000 950.937822 68.500000
v 12.000000 953.500000 65.937822
v 12.000000 957.000000 65.000000
v 12.000000 960.500000 65.937822
v 12.000000 963.062178 68.500000
v 12.000000 964.000000 72.000000
v 12.000000 963.062178 75.500000
v 12.000000 960.500000 78.062178
v 12.000000 957.000000 79.000000
v 12.000000 953.500000 78.062178
v 12.000000 950.937822 75.500000
v 22.000000 950.000000 72.000000
v 22.000000 950.937822 68.500000
v 22.000000 953.500000 65.937822
v 22.000000 957.000000 65.000000
v 22.000000 960.500000 65.937822
v 22.000000 963.062178 68.500000
v 22.000000 964.000000 72.000000
v 22.000000 963.062178 75.500000
v 22.000000 960.500000 78.062178
v 22.000000 957.000000 79.000000
v 22.000000 953.500000 78.062178
v 22.000000 950.937822 75.500000
v 338.000000 -735.000000 795.000000
v 362.000000 -735.000000 795.000000
v 338.000000 -555.000000 795.000000
v 362.000000 -555.000000 795.000000
v 338.000000 -735.000000 827.000000
v 362.000000 -735.000000 827.000000
v 338.000000 -555.000000 827.000000
v 362.000000 -555.000000 827.000000
v 362.000000 -710.000000 811.000000
v 362.000000 -708.535534 807.464466
v 362.000000 -705.000000 806.000000
v 362.000000 -701.464466 807.464466
v 362.000000 -700.000000 811.000000
v 362.000000 -701.464466 814.535534
v 362.000000 -705.000000 816.000000
v 362.000000 -708.535534 814.535534
v 370.000000 -710.000000 811.000000
v 370.000000 -708.535534 807.464466
v 370.000000 -705.000000 806.000000
v 370.000000 -701.464466 807.464466
v 370.000000 -700.000000 811.000000
v 370.000000 -701.464466 814.535534
v 370.000000 -705.000000 816.000000
v 370.000000 -708.535534 814.535534
v 362.000000 -590.000000 811.000000
v 362.000000 -588.535534 807.464466
v 362.000000 -585.000000 806.000000
v 362.000000 -581.464466 807.464466
v 362.000000 -580.000000 811.000000
v 362.000000 -581.464466 814.535534
v 362.000000 -585.000000 816.000000
v 362.000000 -588.535534 814.535534
v 370.000000 -590.000000 811.000000
v 370.000000 -588.535534 807.464466
v 370.000000 -585.000000 806.000000
v 370.000000 -581.464466 807.464466
v 370.000000 -580.000000 811.000000
v 370.000000 -581.464466 814.535534
v 370.000000 -585.000000 816.000000
v 370.000000 -588.535534 814.535534
v 165.000000 -18.000000 875.000000
v 195.000000 -18.000000 875.000000
v 165.000000 18.000000 875.000000
v 195.000000 18.000000 875.000000
v 165.000000 -18.000000 907.000000
v 195.000000 -18.000000 907.000000
v 165.000000 18.000000 907.000000
v 195.000000 18.000000 907.000000
v 185.000000 -893.000000 455.000000
v 180.885503 -894.336881 455.000000
v 178.342604 -897.836881 455.000000
v 178.342604 -902.163119 455.000000
v 180.885503 -905.663119 455.000000
v 185.000000 -907.000000 455.000000
v 189.114497 -905.663119 455.000000
v 191.657396 -902.163119 455.000000
v 191.657396 -897.836881 455.000000
v 189.114497 -894.336881 455.000000
v 185.000000 -893.000000 785.000000
v 180.885503 -894.336881 785.000000
v 178.342604 -897.836881 785.000000
v 178.342604 -902.163119 785.000000
v 180.885503 -905.663119 785.000000
v 185.000000 -907.000000 785.000000
v 189.114497 -905.663119 785.000000
v 191.657396 -902.163119 785.000000
v 191.657396 -897.836881 785.000000
v 189.114497 -894.336881 785.000000
v 185.000000 907.000000 455.000000
v 180.885503 905.663119 455.000000
v 178.342604 902.163119 455.000000
v 178.342604 897.836881 455.000000
v 180.885503 894.336881 455.000000
v 185.000000 893.000000 455.000000
v 189.114497 894.336881 455.000000
v 191.657396 897.836881 455.000000
v 191.657396 902.163119 455.000000
v 189.114497 905.663119 455.000000
v 185.000000 907.000000 785.000000
v 180.885503 905.663119 785.000000
v 178.342604 902.163119 785.000000
v 178.342604 897.836881 785.000000
v 180.885503 894.336881 785.000000
v 185.000000 893.000000 785.000000
v 189.114497 894.336881 785.000000
v 191.657396 897.836881 785.000000
v 191.657396 902.163119 785.000000
v 189.114497 905.663119 785.000000
v 0.000000 -950.000000 805.000000
v 360.000000 -950.000000 805.000000
v 0.000000 -934.000000 805.000000
v 360.000000 -934.000000 805.000000
v 0.000000 -950.000000 825.000000
v 360.000000 -950.000000 825.000000
v 0.000000 -934.000000 825.000000
v 360.000000 -934.000000 825.000000
v 0.000000 934.000000 805.000000
v 360.000000 934.000000 805.000000
v 0.000000 950.000000 805.000000
v 360.000000 950.000000 805.000000
v 0.000000 934.000000 825.000000
v 360.000000 934.000000 825.000000
v 0.000000 950.000000 825.000000
v 360.000000 950.000000 825.000000
v 348.000000 -959.000000 805.000000
v 342.000000 -957.392305 805.000000
v 337.607695 -953.000000 805.000000
v 336.000000 -947.000000 805.000000
v 337.607695 -941.000000 805.000000
v 342.000000 -936.607695 805.000000
v 348.000000 -935.000000 805.000000
v 354.000000 -936.607695 805.000000
v 358.392305 -941.000000 805.000000
v 360.000000 -947.000000 805.000000
v 358.392305 -953.000000 805.000000
v 354.000000 -957.392305 805.000000
v 348.000000 -959.000000 95.000000
v 342.000000 -957.392305 95.000000
v 337.607695 -953.000000 95.000000
v 336.000000 -947.000000 95.000000
v 337.607695 -941.000000 95.000000
v 342.000000 -936.607695 95.000000
v 348.000000 -935.000000 95.000000
v 354.000000 -936.607695 95.000000
v 358.392305 -941.000000 95.000000
v 360.000000 -947.000000 95.000000
v 358.392305 -953.000000 95.000000
v 354.000000 -957.392305 95.000000
v 352.386332 -936.607695 90.906090
v 355.597349 -941.000000 87.909141
v 356.772663 -947.000000 86.812181
v 355.597349 -953.000000 87.909141
v 352.386332 -957.392305 90.906090
v 343.613668 -957.392305 99.093910
v 340.402651 -953.000000 102.090859
v 339.227337 -947.000000 103.187819
v 340.402651 -941.000000 102.090859
v 343.613668 -936.607695 99.093910
v 320.000000 -935.000000 65.000000
v 324.386332 -936.607695 60.906090
v 327.597349 -941.000000 57.909141
v 328.772663 -947.000000 56.812181
v 327.597349 -953.000000 57.909141
v 324.386332 -957.392305 60.906090
v 320.000000 -959.000000 65.000000
v 315.613668 -957.392305 69.093910
v 312.402651 -953.000000 72.090859
v 311.227337 -947.000000 73.187819
v 312.402651 -941.000000 72.090859
v 315.613668 -936.607695 69.093910
vt 0.000000 -9.400000
vt 0.200000 -9.400000
vt 0.200000 -9.200000
vt 0.000000 -9.200000
vt 0.000000 -9.400000
vt 0.000000 -9.200000
vt 0.200000 -9.200000
vt 0.200000 -9.400000
vt 0.000000 0.000000
vt 0.000000 0.850000
vt 0.200000 0.850000
vt 0.200000 0.000000
vt 0.000000 0.000000
vt 0.200000 0.000000
vt 0.200000 0.850000
vt 0.000000 0.850000
vt -9.400000 0.000000
vt -9.200000 0.000000
vt -9.200000 0.850000
vt -9.400000 0.850000
vt -9.400000 0.000000
vt -9.400000 0.850000
vt -9.200000 0.850000
vt -9.200000 0.000000
vt 0.000000 -9.400000
vt 0.200000 -9.400000
vt 0.200000 -9.200000
vt 0.000000 -9.200000
vt 0.000000 -9.400000
vt 0.000000 -9.200000
vt 0.200000 -9.200000
vt 0.200000 -9.400000
vt 0.000000 0.850000
vt 0.000000 8.200000
vt 0.200000 8.200000
vt 0.200000 0.850000
vt 0.000000 0.850000
vt 0.200000 0.850000
vt 0.200000 8.200000
vt 0.000000 8.200000
vt -9.400000 0.850000
vt -9.200000 0.850000
vt -9.200000 8.200000
vt -9.400000 8.200000
vt -9.400000 0.850000
vt -9.400000 8.200000
vt -9.200000 8.200000
vt -9.200000 0.850000
vt 0.000000 9.200000
vt 0.200000 9.200000
vt 0.200000 9.400000
vt 0.000000 9.400000
vt 0.000000 9.200000
vt 0.000000 9.400000
vt 0.200000 9.400000
vt 0.200000 9.200000
vt 0.000000 0.000000
vt 0.000000 0.850000
vt 0.200000 0.850000
vt 0.200000 0.000000
vt 0.000000 0.000000
vt 0.200000 0.000000
vt 0.200000 0.850000
vt 0.000000 0.850000
vt 9.200000 0.000000
vt 9.400000 0.000000
vt 9.400000 0.850000
vt 9.200000 0.850000
vt 9.200000 0.000000
vt 9.200000 0.850000
vt 9.400000 0.850000
vt 9.400000 0.000000
vt 0.000000 9.200000
vt 0.200000 9.200000
vt 0.200000 9.400000
vt 0.000000 9.400000
vt 0.000000 9.200000
vt 0.000000 9.400000
vt 0.200000 9.400000
vt 0.200000 9.200000
vt 0.000000 0.850000
vt 0.000000 8.200000
vt 0.200000 8.200000
vt 0.200000 0.850000
vt 0.000000 0.850000
vt 0.200000 0.850000
vt 0.200000 8.200000
vt 0.000000 8.200000
vt 9.200000 0.850000
vt 9.400000 0.850000
vt 9.400000 8.200000
vt 9.200000 8.200000
vt 9.200000 0.850000
vt 9.200000 8.200000
vt 9.400000 8.200000
vt 9.400000 0.850000
vt 1.700000 -9.400000
vt 1.900000 -9.400000
vt 1.900000 -9.200000
vt 1.700000 -9.200000
vt 1.700000 -9.400000
vt 1.700000 -9.200000
vt 1.900000 -9.200000
vt 1.900000 -9.400000
vt 1.700000 0.000000
vt 1.700000 0.850000
vt 1.900000 0.850000
vt 1.900000 0.000000
vt 1.700000 0.000000
vt 1.900000 0.000000
vt 1.900000 0.850000
vt 1.700000 0.850000
vt -9.400000 0.000000
vt -9.200000 0.000000
vt -9.200000 0.850000
vt -9.400000 0.850000
vt -9.400000 0.000000
vt -9.400000 0.850000
vt -9.200000 0.850000
vt -9.200000 0.000000
vt 1.700000 -9.400000
vt 1.900000 -9.400000
vt 1.900000 -9.200000
vt 1.700000 -9.200000
vt 1.700000 -9.400000
vt 1.700000 -9.200000
vt 1.900000 -9.200000
vt 1.900000 -9.400000
vt 1.700000 0.850000
vt 1.700000 8.200000
vt 1.900000 8.200000
vt 1.900000 0.850000
vt 1.700000 0.850000
vt 1.900000 0.850000
vt 1.900000 8.200000
vt 1.700000 8.200000
vt -9.400000 0.850000
vt -9.200000 0.850000
vt -9.200000 8.200000
vt -9.400000 8.200000
vt -9.400000 0.850000
vt -9.400000 8.200000
vt -9.200000 8.200000
vt -9.200000 0.850000
vt 1.700000 9.200000
vt 1.900000 9.200000
vt 1.900000 9.400000
vt 1.700000 9.400000
vt 1.700000 9.200000
vt 1.700000 9.400000
vt 1.900000 9.400000
vt 1.900000 9.200000
vt 1.700000 0.000000
vt 1.700000 0.850000
vt 1.900000 0.850000
vt 1.900000 0.000000
vt 1.700000 0.000000
vt 1.900000 0.000000
vt 1.900000 0.850000
vt 1.700000 0.850000
vt 9.200000 0.000000
vt 9.400000 0.000000
vt 9.400000 0.850000
vt 9.200000 0.850000
vt 9.200000 0.000000
vt 9.200000 0.850000
vt 9.400000 0.850000
vt 9.400000 0.000000
vt 1.700000 9.200000
vt 1.900000 9.200000
vt 1.900000 9.400000
vt 1.700000 9.400000
vt 1.700000 9.200000
vt 1.700000 9.400000
vt 1.900000 9.400000
vt 1.900000 9.200000
vt 1.700000 0.850000
vt 1.700000 8.200000
vt 1.900000 8.200000
vt 1.900000 0.850000
vt 1.700000 0.850000
vt 1.900000 0.850000
vt 1.900000 8.200000
vt 1.700000 8.200000
vt 9.200000 0.850000
vt 9.400000 0.850000
vt 9.400000 8.200000
vt 9.200000 8.200000
vt 9.200000 0.850000
vt 9.200000 8.200000
vt 9.400000 8.200000
vt 9.400000 0.850000
vt 3.400000 -9.400000
vt 3.600000 -9.400000
vt 3.600000 -9.200000
vt 3.400000 -9.200000
vt 3.400000 -9.400000
vt 3.400000 -9.200000
vt 3.600000 -9.200000
vt 3.600000 -9.400000
vt 3.400000 0.000000
vt 3.400000 0.850000
vt 3.600000 0.850000
vt 3.600000 0.000000
vt 3.400000 0.000000
vt 3.600000 0.000000
vt 3.600000 0.850000
vt 3.400000 0.850000
vt -9.400000 0.000000
vt -9.200000 0.000000
vt -9.200000 0.850000
vt -9.400000 0.850000
vt -9.400000 0.000000
vt -9.400000 0.850000
vt -9.200000 0.850000
vt -9.200000 0.000000
vt 3.400000 -9.400000
vt 3.600000 -9.400000
vt 3.600000 -9.200000
vt 3.400000 -9.200000
vt 3.400000 -9.400000
vt 3.400000 -9.200000
vt 3.600000 -9.200000
vt 3.600000 -9.400000
vt 3.400000 0.850000
vt 3.400000 8.200000
vt 3.600000 8.200000
vt 3.600000 0.850000
vt 3.400000 0.850000
vt 3.600000 0.850000
vt 3.600000 8.200000
vt 3.400000 8.200000
vt -9.400000 0.850000
vt -9.200000 0.850000
vt -9.200000 8.200000
vt -9.400000 8.200000
vt -9.400000 0.850000
vt -9.400000 8.200000
vt -9.200000 8.200000
vt -9.200000 0.850000
vt 3.400000 9.200000
vt 3.600000 9.200000
vt 3.600000 9.400000
vt 3.400000 9.400000
vt 3.400000 9.200000
vt 3.400000 9.400000
vt 3.600000 9.400000
vt 3.600000 9.200000
vt 3.400000 0.000000
vt 3.400000 0.850000
vt 3.600000 0.850000
vt 3.600000 0.000000
vt 3.400000 0.000000
vt 3.600000 0.000000
vt 3.600000 0.850000
vt 3.400000 0.850000
vt 9.200000 0.000000
vt 9.400000 0.000000
vt 9.400000 0.850000
vt 9.200000 0.850000
vt 9.200000 0.000000
vt 9.200000 0.850000
vt 9.400000 0.850000
vt 9.400000 0.000000
vt 3.400000 9.200000
vt 3.600000 9.200000
vt 3.600000 9.400000
vt 3.400000 9.400000
vt 3.400000 9.200000
vt 3.400000 9.400000
vt 3.600000 9.400000
vt 3.600000 9.200000
vt 3.400000 0.850000
vt 3.400000 8.200000
vt 3.600000 8.200000
vt 3.600000 0.850000
vt 3.400000 0.850000
vt 3.600000 0.850000
vt 3.600000 8.200000
vt 3.400000 8.200000
vt 9.200000 0.850000
vt 9.400000 0.850000
vt 9.400000 8.200000
vt 9.200000 8.200000
vt 9.200000 0.850000
vt 9.200000 8.200000
vt 9.400000 8.200000
vt 9.400000 0.850000
vt 3.400000 -4.800000
vt 3.600000 -4.800000
vt 3.600000 -4.600000
vt 3.400000 -4.600000
vt 3.400000 -4.800000
vt 3.400000 -4.600000
vt 3.600000 -4.600000
vt 3.600000 -4.800000
vt 3.400000 0.000000
vt 3.400000 0.850000
vt 3.600000 0.850000
vt 3.600000 0.000000
vt 3.400000 0.000000
vt 3.600000 0.000000
vt 3.600000 0.850000
vt 3.400000 0.850000
vt -4.800000 0.000000
vt -4.600000 0.000000
vt -4.600000 0.850000
vt -4.800000 0.850000
vt -4.800000 0.000000
vt -4.800000 0.850000
vt -4.600000 0.850000
vt -4.600000 0.000000
vt 3.400000 -4.800000
vt 3.600000 -4.800000
vt 3.600000 -4.600000
vt 3.400000 -4.600000
vt 3.400000 -4.800000
vt 3.400000 -4.600000
vt 3.600000 -4.600000
vt 3.600000 -4.800000
vt 3.400000 0.850000
vt 3.400000 8.200000
vt 3.600000 8.200000
vt 3.600000 0.850000
vt 3.400000 0.850000
vt 3.600000 0.850000
vt 3.600000 8.200000
vt 3.400000 8.200000
vt -4.800000 0.850000
vt -4.600000 0.850000
vt -4.600000 8.200000
vt -4.800000 8.200000
vt -4.800000 0.850000
vt -4.800000 8.200000
vt -4.600000 8.200000
vt -4.600000 0.850000
vt 3.400000 4.600000
vt 3.600000 4.600000
vt 3.600000 4.800000
vt 3.400000 4.800000
vt 3.400000 4.600000
vt 3.400000 4.800000
vt 3.600000 4.800000
vt 3.600000 4.600000
vt 3.400000 0.000000
vt 3.400000 0.850000
vt 3.600000 0.850000
vt 3.600000 0.000000
vt 3.400000 0.000000
vt 3.600000 0.000000
vt 3.600000 0.850000
vt 3.400000 0.850000
vt 4.600000 0.000000
vt 4.800000 0.000000
vt 4.800000 0.850000
vt 4.600000 0.850000
vt 4.600000 0.000000
vt 4.600000 0.850000
vt 4.800000 0.850000
vt 4.800000 0.000000
vt 3.400000 4.600000
vt 3.600000 4.600000
vt 3.600000 4.800000
vt 3.400000 4.800000
vt 3.400000 4.600000
vt 3.400000 4.800000
vt 3.600000 4.800000
vt 3.600000 4.600000
vt 3.400000 0.850000
vt 3.400000 8.200000
vt 3.600000 8.200000
vt 3.600000 0.850000
vt 3.400000 0.850000
vt 3.600000 0.850000
vt 3.600000 8.200000
vt 3.400000 8.200000
vt 4.600000 0.850000
vt 4.800000 0.850000
vt 4.800000 8.200000
vt 4.600000 8.200000
vt 4.600000 0.850000
vt 4.600000 8.200000
vt 4.800000 8.200000
vt 4.800000 0.850000
vt 0.000000 -9.300000
vt 0.200000 -9.300000
vt 0.200000 9.300000
vt 0.000000 9.300000
vt 0.000000 -9.300000
vt 0.000000 9.300000
vt 0.200000 9.300000
vt 0.200000 -9.300000
vt 0.000000 7.800000
vt 0.000000 8.200000
vt 0.200000 8.200000
vt 0.200000 7.800000
vt 0.000000 7.800000
vt 0.200000 7.800000
vt 0.200000 8.200000
vt 0.000000 8.200000
vt -9.300000 7.800000
vt 9.300000 7.800000
vt 9.300000 8.200000
vt -9.300000 8.200000
vt -9.300000 7.800000
vt -9.300000 8.200000
vt 9.300000 8.200000
vt 9.300000 7.800000
vt 0.000000 -9.390000
vt 3.600000 -9.390000
vt 3.600000 -9.210000
vt 0.000000 -9.210000
vt 0.000000 -9.390000
vt 0.000000 -9.210000
vt 3.600000 -9.210000
vt 3.600000 -9.390000
vt 0.000000 0.660000
vt 0.000000 0.840000
vt 3.600000 0.840000
vt 3.600000 0.660000
vt 0.000000 0.660000
vt 3.600000 0.660000
vt 3.600000 0.840000
vt 0.000000 0.840000
vt -9.390000 0.660000
vt -9.210000 0.660000
vt -9.210000 0.840000
vt -9.390000 0.840000
vt -9.390000 0.660000
vt -9.390000 0.840000
vt -9.210000 0.840000
vt -9.210000 0.660000
vt 0.000000 -9.390000
vt 3.600000 -9.390000
vt 3.600000 -9.210000
vt 0.000000 -9.210000
vt 0.000000 -9.390000
vt 0.000000 -9.210000
vt 3.600000 -9.210000
vt 3.600000 -9.390000
vt 0.000000 4.210000
vt 0.000000 4.390000
vt 3.600000 4.390000
vt 3.600000 4.210000
vt 0.000000 4.210000
vt 3.600000 4.210000
vt 3.600000 4.390000
vt 0.000000 4.390000
vt -9.390000 4.210000
vt -9.210000 4.210000
vt -9.210000 4.390000
vt -9.390000 4.390000
vt -9.390000 4.210000
vt -9.390000 4.390000
vt -9.210000 4.390000
vt -9.210000 4.210000
vt 0.000000 -9.390000
vt 3.600000 -9.390000
vt 3.600000 -9.210000
vt 0.000000 -9.210000
vt 0.000000 -9.390000
vt 0.000000 -9.210000
vt 3.600000 -9.210000
vt 3.600000 -9.390000
vt 0.000000 8.010000
vt 0.000000 8.190000
vt 3.600000 8.190000
vt 3.600000 8.010000
vt 0.000000 8.010000
vt 3.600000 8.010000
vt 3.600000 8.190000
vt 0.000000 8.190000
vt -9.390000 8.010000
vt -9.210000 8.010000
vt -9.210000 8.190000
vt -9.390000 8.190000
vt -9.390000 8.010000
vt -9.390000 8.190000
vt -9.210000 8.190000
vt -9.210000 8.010000
vt 0.000000 9.210000
vt 3.600000 9.210000
vt 3.600000 9.390000
vt 0.000000 9.390000
vt 0.000000 9.210000
vt 0.000000 9.390000
vt 3.600000 9.390000
vt 3.600000 9.210000
vt 0.000000 0.660000
vt 0.000000 0.840000
vt 3.600000 0.840000
vt 3.600000 0.660000
vt 0.000000 0.660000
vt 3.600000 0.660000
vt 3.600000 0.840000
vt 0.000000 0.840000
vt 9.210000 0.660000
vt 9.390000 0.660000
vt 9.390000 0.840000
vt 9.210000 0.840000
vt 9.210000 0.660000
vt 9.210000 0.840000
vt 9.390000 0.840000
vt 9.390000 0.660000
vt 0.000000 9.210000
vt 3.600000 9.210000
vt 3.600000 9.390000
vt 0.000000 9.390000
vt 0.000000 9.210000
vt 0.000000 9.390000
vt 3.600000 9.390000
vt 3.600000 9.210000
vt 0.000000 4.210000
vt 0.000000 4.390000
vt 3.600000 4.390000
vt 3.600000 4.210000
vt 0.000000 4.210000
vt 3.600000 4.210000
vt 3.600000 4.390000
vt 0.000000 4.390000
vt 9.210000 4.210000
vt 9.390000 4.210000
vt 9.390000 4.390000
vt 9.210000 4.390000
vt 9.210000 4.210000
vt 9.210000 4.390000
vt 9.390000 4.390000
vt 9.390000 4.210000
vt 0.000000 9.210000
vt 3.600000 9.210000
vt 3.600000 9.390000
vt 0.000000 9.390000
vt 0.000000 9.210000
vt 0.000000 9.390000
vt 3.600000 9.390000
vt 3.600000 9.210000
vt 0.000000 8.010000
vt 0.000000 8.190000
vt 3.600000 8.190000
vt 3.600000 8.010000
vt 0.000000 8.010000
vt 3.600000 8.010000
vt 3.600000 8.190000
vt 0.000000 8.190000
vt 9.210000 8.010000
vt 9.390000 8.010000
vt 9.390000 8.190000
vt 9.210000 8.190000
vt 9.210000 8.010000
vt 9.210000 8.190000
vt 9.390000 8.190000
vt 9.390000 8.010000
vt 0.010000 8.110331
vt 0.190000 8.110331
vt 0.190000 8.289669
vt 0.010000 8.289669
vt 0.010000 9.089669
vt 0.190000 9.089669
vt 0.190000 8.910331
vt 0.010000 8.910331
vt 0.010000 -9.307713
vt 0.010000 -0.007713
vt 0.190000 -0.007713
vt 0.190000 -9.307713
vt -9.307713 8.289669
vt -0.007713 9.089669
vt 0.007713 8.910331
vt -9.292287 8.110331
vt 0.190000 -9.292287
vt 0.190000 0.007713
vt 0.010000 0.007713
vt 0.010000 -9.292287
vt -9.292287 8.110331
vt 0.007713 8.910331
vt -0.007713 9.089669
vt -9.307713 8.289669
vt 0.010000 8.910331
vt 0.190000 8.910331
vt 0.190000 9.089669
vt 0.010000 9.089669
vt 0.010000 8.289669
vt 0.190000 8.289669
vt 0.190000 8.110331
vt 0.010000 8.110331
vt 0.010000 0.007713
vt 0.010000 9.307713
vt 0.190000 9.307713
vt 0.190000 0.007713
vt 0.007713 9.089669
vt 9.307713 8.289669
vt 9.292287 8.110331
vt -0.007713 8.910331
vt 0.190000 -0.007713
vt 0.190000 9.292287
vt 0.010000 9.292287
vt 0.010000 -0.007713
vt -0.007713 8.910331
vt 9.292287 8.110331
vt 9.307713 8.289669
vt 0.007713 9.089669
vt 1.710000 8.110331
vt 1.890000 8.110331
vt 1.890000 8.289669
vt 1.710000 8.289669
vt 1.710000 9.089669
vt 1.890000 9.089669
vt 1.890000 8.910331
vt 1.710000 8.910331
vt 1.710000 -9.307713
vt 1.710000 -0.007713
vt 1.890000 -0.007713
vt 1.890000 -9.307713
vt -9.307713 8.289669
vt -0.007713 9.089669
vt 0.007713 8.910331
vt -9.292287 8.110331
vt 1.890000 -9.292287
vt 1.890000 0.007713
vt 1.710000 0.007713
vt 1.710000 -9.292287
vt -9.292287 8.110331
vt 0.007713 8.910331
vt -0.007713 9.089669
vt -9.307713 8.289669
vt 1.710000 8.910331
vt 1.890000 8.910331
vt 1.890000 9.089669
vt 1.710000 9.089669
vt 1.710000 8.289669
vt 1.890000 8.289669
vt 1.890000 8.110331
vt 1.710000 8.110331
vt 1.710000 0.007713
vt 1.710000 9.307713
vt 1.890000 9.307713
vt 1.890000 0.007713
vt 0.007713 9.089669
vt 9.307713 8.289669
vt 9.292287 8.110331
vt -0.007713 8.910331
vt 1.890000 -0.007713
vt 1.890000 9.292287
vt 1.710000 9.292287
vt 1.710000 -0.007713
vt -0.007713 8.910331
vt 9.292287 8.110331
vt 9.307713 8.289669
vt 0.007713 9.089669
vt 3.410000 8.110331
vt 3.590000 8.110331
vt 3.590000 8.289669
vt 3.410000 8.289669
vt 3.410000 9.089669
vt 3.590000 9.089669
vt 3.590000 8.910331
vt 3.410000 8.910331
vt 3.410000 -9.307713
vt 3.410000 -0.007713
vt 3.590000 -0.007713
vt 3.590000 -9.307713
vt -9.307713 8.289669
vt -0.007713 9.089669
vt 0.007713 8.910331
vt -9.292287 8.110331
vt 3.590000 -9.292287
vt 3.590000 0.007713
vt 3.410000 0.007713
vt 3.410000 -9.292287
vt -9.292287 8.110331
vt 0.007713 8.910331
vt -0.007713 9.089669
vt -9.307713 8.289669
vt 3.410000 8.910331
vt 3.590000 8.910331
vt 3.590000 9.089669
vt 3.410000 9.089669
vt 3.410000 8.289669
vt 3.590000 8.289669
vt 3.590000 8.110331
vt 3.410000 8.110331
vt 3.410000 0.007713
vt 3.410000 9.307713
vt 3.590000 9.307713
vt 3.590000 0.007713
vt 0.007713 9.089669
vt 9.307713 8.289669
vt 9.292287 8.110331
vt -0.007713 8.910331
vt 3.590000 -0.007713
vt 3.590000 9.292287
vt 3.410000 9.292287
vt 3.410000 -0.007713
vt -0.007713 8.910331
vt 9.292287 8.110331
vt 9.307713 8.289669
vt 0.007713 9.089669
vt 0.000000 -4.780000
vt 3.600000 -4.780000
vt 3.600000 -4.620000
vt 0.000000 -4.620000
vt 0.000000 -4.780000
vt 0.000000 -4.620000
vt 3.600000 -4.620000
vt 3.600000 -4.780000
vt 0.000000 8.520000
vt 0.000000 8.680000
vt 3.600000 8.680000
vt 3.600000 8.520000
vt 0.000000 8.520000
vt 3.600000 8.520000
vt 3.600000 8.680000
vt 0.000000 8.680000
vt -4.780000 8.520000
vt -4.620000 8.520000
vt -4.620000 8.680000
vt -4.780000 8.680000
vt -4.780000 8.520000
vt -4.780000 8.680000
vt -4.620000 8.680000
vt -4.620000 8.520000
vt 0.000000 -0.080000
vt 3.600000 -0.080000
vt 3.600000 0.080000
vt 0.000000 0.080000
vt 0.000000 -0.080000
vt 0.000000 0.080000
vt 3.600000 0.080000
vt 3.600000 -0.080000
vt 0.000000 8.920000
vt 0.000000 9.080000
vt 3.600000 9.080000
vt 3.600000 8.920000
vt 0.000000 8.920000
vt 3.600000 8.920000
vt 3.600000 9.080000
vt 0.000000 9.080000
vt -0.080000 8.920000
vt 0.080000 8.920000
vt 0.080000 9.080000
vt -0.080000 9.080000
vt -0.080000 8.920000
vt -0.080000 9.080000
vt 0.080000 9.080000
vt 0.080000 8.920000
vt 0.000000 4.620000
vt 3.600000 4.620000
vt 3.600000 4.780000
vt 0.000000 4.780000
vt 0.000000 4.620000
vt 0.000000 4.780000
vt 3.600000 4.780000
vt 3.600000 4.620000
vt 0.000000 8.520000
vt 0.000000 8.680000
vt 3.600000 8.680000
vt 3.600000 8.520000
vt 0.000000 8.520000
vt 3.600000 8.520000
vt 3.600000 8.680000
vt 0.000000 8.680000
vt 4.620000 8.520000
vt 4.780000 8.520000
vt 4.780000 8.680000
vt 4.620000 8.680000
vt 4.620000 8.520000
vt 4.620000 8.680000
vt 4.780000 8.680000
vt 4.780000 8.520000
vt 3.400000 -9.300000
vt 3.600000 -9.300000
vt 3.600000 -4.800000
vt 3.400000 -4.800000
vt 3.400000 -9.300000
vt 3.400000 -4.800000
vt 3.600000 -4.800000
vt 3.600000 -9.300000
vt 3.400000 0.660000
vt 3.400000 0.840000
vt 3.600000 0.840000
vt 3.600000 0.660000
vt 3.400000 0.660000
vt 3.600000 0.660000
vt 3.600000 0.840000
vt 3.400000 0.840000
vt -9.300000 0.660000
vt -4.800000 0.660000
vt -4.800000 0.840000
vt -9.300000 0.840000
vt -9.300000 0.660000
vt -9.300000 0.840000
vt -4.800000 0.840000
vt -4.800000 0.660000
vt 3.400000 -9.300000
vt 3.600000 -9.300000
vt 3.600000 -4.800000
vt 3.400000 -4.800000
vt 3.400000 -9.300000
vt 3.400000 -4.800000
vt 3.600000 -4.800000
vt 3.600000 -9.300000
vt 3.400000 4.210000
vt 3.400000 4.390000
vt 3.600000 4.390000
vt 3.600000 4.210000
vt 3.400000 4.210000
vt 3.600000 4.210000
vt 3.600000 4.390000
vt 3.400000 4.390000
vt -9.300000 4.210000
vt -4.800000 4.210000
vt -4.800000 4.390000
vt -9.300000 4.390000
vt -9.300000 4.210000
vt -9.300000 4.390000
vt -4.800000 4.390000
vt -4.800000 4.210000
vt 3.400000 -9.300000
vt 3.600000 -9.300000
vt 3.600000 -4.800000
vt 3.400000 -4.800000
vt 3.400000 -9.300000
vt 3.400000 -4.800000
vt 3.600000 -4.800000
vt 3.600000 -9.300000
vt 3.400000 8.010000
vt 3.400000 8.190000
vt 3.600000 8.190000
vt 3.600000 8.010000
vt 3.400000 8.010000
vt 3.600000 8.010000
vt 3.600000 8.190000
vt 3.400000 8.190000
vt -9.300000 8.010000
vt -4.800000 8.010000
vt -4.800000 8.190000
vt -9.300000 8.190000
vt -9.300000 8.010000
vt -9.300000 8.190000
vt -4.800000 8.190000
vt -4.800000 8.010000
vt 3.400000 4.800000
vt 3.600000 4.800000
vt 3.600000 9.300000
vt 3.400000 9.300000
vt 3.400000 4.800000
vt 3.400000 9.300000
vt 3.600000 9.300000
vt 3.600000 4.800000
vt 3.400000 0.660000
vt 3.400000 0.840000
vt 3.600000 0.840000
vt 3.600000 0.660000
vt 3.400000 0.660000
vt 3.600000 0.660000
vt 3.600000 0.840000
vt 3.400000 0.840000
vt 4.800000 0.660000
vt 9.300000 0.660000
vt 9.300000 0.840000
vt 4.800000 0.840000
vt 4.800000 0.660000
vt 4.800000 0.840000
vt 9.300000 0.840000
vt 9.300000 0.660000
vt 3.400000 4.800000
vt 3.600000 4.800000
vt 3.600000 9.300000
vt 3.400000 9.300000
vt 3.400000 4.800000
vt 3.400000 9.300000
vt 3.600000 9.300000
vt 3.600000 4.800000
vt 3.400000 4.210000
vt 3.400000 4.390000
vt 3.600000 4.390000
vt 3.600000 4.210000
vt 3.400000 4.210000
vt 3.600000 4.210000
vt 3.600000 4.390000
vt 3.400000 4.390000
vt 4.800000 4.210000
vt 9.300000 4.210000
vt 9.300000 4.390000
vt 4.800000 4.390000
vt 4.800000 4.210000
vt 4.800000 4.390000
vt 9.300000 4.390000
vt 9.300000 4.210000
vt 3.400000 4.800000
vt 3.600000 4.800000
vt 3.600000 9.300000
vt 3.400000 9.300000
vt 3.400000 4.800000
vt 3.400000 9.300000
vt 3.600000 9.300000
vt 3.600000 4.800000
vt 3.400000 8.010000
vt 3.400000 8.190000
vt 3.600000 8.190000
vt 3.600000 8.010000
vt 3.400000 8.010000
vt 3.600000 8.010000
vt 3.600000 8.190000
vt 3.400000 8.190000
vt 4.800000 8.010000
vt 9.300000 8.010000
vt 9.300000 8.190000
vt 4.800000 8.190000
vt 4.800000 8.010000
vt 4.800000 8.190000
vt 9.300000 8.190000
vt 9.300000 8.010000
vt 3.400000 -4.800000
vt 3.600000 -4.800000
vt 3.600000 4.800000
vt 3.400000 4.800000
vt 3.400000 -4.800000
vt 3.400000 4.800000
vt 3.600000 4.800000
vt 3.600000 -4.800000
vt 3.400000 5.200000
vt 3.400000 5.420000
vt 3.600000 5.420000
vt 3.600000 5.200000
vt 3.400000 5.200000
vt 3.600000 5.200000
vt 3.600000 5.420000
vt 3.400000 5.420000
vt -4.800000 5.200000
vt 4.800000 5.200000
vt 4.800000 5.420000
vt -4.800000 5.420000
vt -4.800000 5.200000
vt -4.800000 5.420000
vt 4.800000 5.420000
vt 4.800000 5.200000
vt 3.400000 -0.100000
vt 3.600000 -0.100000
vt 3.600000 0.100000
vt 3.400000 0.100000
vt 3.400000 -0.100000
vt 3.400000 0.100000
vt 3.600000 0.100000
vt 3.600000 -0.100000
vt 3.400000 5.320000
vt 3.400000 8.200000
vt 3.600000 8.200000
vt 3.600000 5.320000
vt 3.400000 5.320000
vt 3.600000 5.320000
vt 3.600000 8.200000
vt 3.400000 8.200000
vt -0.100000 5.320000
vt 0.100000 5.320000
vt 0.100000 8.200000
vt -0.100000 8.200000
vt -0.100000 5.320000
vt -0.100000 8.200000
vt 0.100000 8.200000
vt 0.100000 5.320000
vt 0.000000 -9.360000
vt 3.600000 -9.360000
vt 3.600000 -9.240000
vt 0.000000 -9.240000
vt 0.000000 -9.360000
vt 0.000000 -9.240000
vt 3.600000 -9.240000
vt 3.600000 -9.360000
vt 0.000000 0.000000
vt 0.000000 0.650000
vt 3.600000 0.650000
vt 3.600000 0.000000
vt 0.000000 0.000000
vt 3.600000 0.000000
vt 3.600000 0.650000
vt 0.000000 0.650000
vt -9.360000 0.000000
vt -9.240000 0.000000
vt -9.240000 0.650000
vt -9.360000 0.650000
vt -9.360000 0.000000
vt -9.360000 0.650000
vt -9.240000 0.650000
vt -9.240000 0.000000
vt 0.000000 9.240000
vt 3.600000 9.240000
vt 3.600000 9.360000
vt 0.000000 9.360000
vt 0.000000 9.240000
vt 0.000000 9.360000
vt 3.600000 9.360000
vt 3.600000 9.240000
vt 0.000000 0.000000
vt 0.000000 0.650000
vt 3.600000 0.650000
vt 3.600000 0.000000
vt 0.000000 0.000000
vt 3.600000 0.000000
vt 3.600000 0.650000
vt 0.000000 0.650000
vt 9.240000 0.000000
vt 9.360000 0.000000
vt 9.360000 0.650000
vt 9.240000 0.650000
vt 9.240000 0.000000
vt 9.240000 0.650000
vt 9.360000 0.650000
vt 9.360000 0.000000
vt 3.480000 -9.300000
vt 3.600000 -9.300000
vt 3.600000 -4.800000
vt 3.480000 -4.800000
vt 3.480000 -9.300000
vt 3.480000 -4.800000
vt 3.600000 -4.800000
vt 3.600000 -9.300000
vt 3.480000 0.000000
vt 3.480000 0.650000
vt 3.600000 0.650000
vt 3.600000 0.000000
vt 3.480000 0.000000
vt 3.600000 0.000000
vt 3.600000 0.650000
vt 3.480000 0.650000
vt -9.300000 0.000000
vt -4.800000 0.000000
vt -4.800000 0.650000
vt -9.300000 0.650000
vt -9.300000 0.000000
vt -9.300000 0.650000
vt -4.800000 0.650000
vt -4.800000 0.000000
vt 3.480000 4.800000
vt 3.600000 4.800000
vt 3.600000 9.300000
vt 3.480000 9.300000
vt 3.480000 4.800000
vt 3.480000 9.300000
vt 3.600000 9.300000
vt 3.600000 4.800000
vt 3.480000 0.000000
vt 3.480000 0.650000
vt 3.600000 0.650000
vt 3.600000 0.000000
vt 3.480000 0.000000
vt 3.600000 0.000000
vt 3.600000 0.650000
vt 3.480000 0.650000
vt 4.800000 0.000000
vt 9.300000 0.000000
vt 9.300000 0.650000
vt 4.800000 0.650000
vt 4.800000 0.000000
vt 4.800000 0.650000
vt 9.300000 0.650000
vt 9.300000 0.000000
vt 0.080000 -9.430000
vt 3.520000 -9.430000
vt 3.520000 -9.370000
vt 0.080000 -9.370000
vt 0.080000 -9.430000
vt 0.080000 -9.370000
vt 3.520000 -9.370000
vt 3.520000 -9.430000
vt 0.080000 0.810000
vt 0.080000 0.890000
vt 3.520000 0.890000
vt 3.520000 0.810000
vt 0.080000 0.810000
vt 3.520000 0.810000
vt 3.520000 0.890000
vt 0.080000 0.890000
vt -9.430000 0.810000
vt -9.370000 0.810000
vt -9.370000 0.890000
vt -9.430000 0.890000
vt -9.430000 0.810000
vt -9.430000 0.890000
vt -9.370000 0.890000
vt -9.370000 0.810000
vt 0.080000 -9.430000
vt 3.520000 -9.430000
vt 3.520000 -9.370000
vt 0.080000 -9.370000
vt 0.080000 -9.430000
vt 0.080000 -9.370000
vt 3.520000 -9.370000
vt 3.520000 -9.430000
vt 0.080000 4.340000
vt 0.080000 4.420000
vt 3.520000 4.420000
vt 3.520000 4.340000
vt 0.080000 4.340000
vt 3.520000 4.340000
vt 3.520000 4.420000
vt 0.080000 4.420000
vt -9.430000 4.340000
vt -9.370000 4.340000
vt -9.370000 4.420000
vt -9.430000 4.420000
vt -9.430000 4.340000
vt -9.430000 4.420000
vt -9.370000 4.420000
vt -9.370000 4.340000
vt 0.080000 -9.430000
vt 3.520000 -9.430000
vt 3.520000 -9.370000
vt 0.080000 -9.370000
vt 0.080000 -9.430000
vt 0.080000 -9.370000
vt 3.520000 -9.370000
vt 3.520000 -9.430000
vt 0.080000 7.980000
vt 0.080000 8.060000
vt 3.520000 8.060000
vt 3.520000 7.980000
vt 0.080000 7.980000
vt 3.520000 7.980000
vt 3.520000 8.060000
vt 0.080000 8.060000
vt -9.430000 7.980000
vt -9.370000 7.980000
vt -9.370000 8.060000
vt -9.430000 8.060000
vt -9.430000 7.980000
vt -9.430000 8.060000
vt -9.370000 8.060000
vt -9.370000 7.980000
vt 0.080000 9.370000
vt 3.520000 9.370000
vt 3.520000 9.430000
vt 0.080000 9.430000
vt 0.080000 9.370000
vt 0.080000 9.430000
vt 3.520000 9.430000
vt 3.520000 9.370000
vt 0.080000 0.810000
vt 0.080000 0.890000
vt 3.520000 0.890000
vt 3.520000 0.810000
vt 0.080000 0.810000
vt 3.520000 0.810000
vt 3.520000 0.890000
vt 0.080000 0.890000
vt 9.370000 0.810000
vt 9.430000 0.810000
vt 9.430000 0.890000
vt 9.370000 0.890000
vt 9.370000 0.810000
vt 9.370000 0.890000
vt 9.430000 0.890000
vt 9.430000 0.810000
vt 0.080000 9.370000
vt 3.520000 9.370000
vt 3.520000 9.430000
vt 0.080000 9.430000
vt 0.080000 9.370000
vt 0.080000 9.430000
vt 3.520000 9.430000
vt 3.520000 9.370000
vt 0.080000 4.340000
vt 0.080000 4.420000
vt 3.520000 4.420000
vt 3.520000 4.340000
vt 0.080000 4.340000
vt 3.520000 4.340000
vt 3.520000 4.420000
vt 0.080000 4.420000
vt 9.370000 4.340000
vt 9.430000 4.340000
vt 9.430000 4.420000
vt 9.370000 4.420000
vt 9.370000 4.340000
vt 9.370000 4.420000
vt 9.430000 4.420000
vt 9.430000 4.340000
vt 0.080000 9.370000
vt 3.520000 9.370000
vt 3.520000 9.430000
vt 0.080000 9.430000
vt 0.080000 9.370000
vt 0.080000 9.430000
vt 3.520000 9.430000
vt 3.520000 9.370000
vt 0.080000 7.980000
vt 0.080000 8.060000
vt 3.520000 8.060000
vt 3.520000 7.980000
vt 0.080000 7.980000
vt 3.520000 7.980000
vt 3.520000 8.060000
vt 0.080000 8.060000
vt 9.370000 7.980000
vt 9.430000 7.980000
vt 9.430000 8.060000
vt 9.370000 8.060000
vt 9.370000 7.980000
vt 9.370000 8.060000
vt 9.430000 8.060000
vt 9.430000 7.980000
vt 3.470000 -9.430000
vt 3.530000 -9.430000
vt 3.530000 -9.370000
vt 3.470000 -9.370000
vt 3.470000 -9.430000
vt 3.470000 -9.370000
vt 3.530000 -9.370000
vt 3.530000 -9.430000
vt 3.470000 0.720000
vt 3.470000 8.100000
vt 3.530000 8.100000
vt 3.530000 0.720000
vt 3.470000 0.720000
vt 3.530000 0.720000
vt 3.530000 8.100000
vt 3.470000 8.100000
vt -9.430000 0.720000
vt -9.370000 0.720000
vt -9.370000 8.100000
vt -9.430000 8.100000
vt -9.430000 0.720000
vt -9.430000 8.100000
vt -9.370000 8.100000
vt -9.370000 0.720000
vt 3.470000 -4.830000
vt 3.530000 -4.830000
vt 3.530000 -4.770000
vt 3.470000 -4.770000
vt 3.470000 -4.830000
vt 3.470000 -4.770000
vt 3.530000 -4.770000
vt 3.530000 -4.830000
vt 3.470000 0.720000
vt 3.470000 8.100000
vt 3.530000 8.100000
vt 3.530000 0.720000
vt 3.470000 0.720000
vt 3.530000 0.720000
vt 3.530000 8.100000
vt 3.470000 8.100000
vt -4.830000 0.720000
vt -4.770000 0.720000
vt -4.770000 8.100000
vt -4.830000 8.100000
vt -4.830000 0.720000
vt -4.830000 8.100000
vt -4.770000 8.100000
vt -4.770000 0.720000
vt 3.470000 4.770000
vt 3.530000 4.770000
vt 3.530000 4.830000
vt 3.470000 4.830000
vt 3.470000 4.770000
vt 3.470000 4.830000
vt 3.530000 4.830000
vt 3.530000 4.770000
vt 3.470000 0.720000
vt 3.470000 8.100000
vt 3.530000 8.100000
vt 3.530000 0.720000
vt 3.470000 0.720000
vt 3.530000 0.720000
vt 3.530000 8.100000
vt 3.470000 8.100000
vt 4.770000 0.720000
vt 4.830000 0.720000
vt 4.830000 8.100000
vt 4.770000 8.100000
vt 4.770000 0.720000
vt 4.770000 8.100000
vt 4.830000 8.100000
vt 4.830000 0.720000
vt 3.470000 9.370000
vt 3.530000 9.370000
vt 3.530000 9.430000
vt 3.470000 9.430000
vt 3.470000 9.370000
vt 3.470000 9.430000
vt 3.530000 9.430000
vt 3.530000 9.370000
vt 3.470000 0.720000
vt 3.470000 8.100000
vt 3.530000 8.100000
vt 3.530000 0.720000
vt 3.470000 0.720000
vt 3.530000 0.720000
vt 3.530000 8.100000
vt 3.470000 8.100000
vt 9.370000 0.720000
vt 9.430000 0.720000
vt 9.430000 8.100000
vt 9.370000 8.100000
vt 9.370000 0.720000
vt 9.370000 8.100000
vt 9.430000 8.100000
vt 9.430000 0.720000
vt 3.470000 -4.760000
vt 3.530000 -4.760000
vt 3.530000 4.760000
vt 3.470000 4.760000
vt 3.470000 -4.760000
vt 3.470000 4.760000
vt 3.530000 4.760000
vt 3.530000 -4.760000
vt 3.470000 5.360000
vt 3.470000 5.440000
vt 3.530000 5.440000
vt 3.530000 5.360000
vt 3.470000 5.360000
vt 3.530000 5.360000
vt 3.530000 5.440000
vt 3.470000 5.440000
vt -4.760000 5.360000
vt 4.760000 5.360000
vt 4.760000 5.440000
vt -4.760000 5.440000
vt -4.760000 5.360000
vt -4.760000 5.440000
vt 4.760000 5.440000
vt 4.760000 5.360000
vt 0.000000 -9.720000
vt 0.120000 -9.720000
vt 0.120000 -8.880000
vt 0.000000 -8.880000
vt 0.000000 -9.720000
vt 0.000000 -8.880000
vt 0.120000 -8.880000
vt 0.120000 -9.720000
vt 0.000000 0.000000
vt 0.000000 0.950000
vt 0.120000 0.950000
vt 0.120000 0.000000
vt 0.000000 0.000000
vt 0.120000 0.000000
vt 0.120000 0.950000
vt 0.000000 0.950000
vt -9.720000 0.000000
vt -8.880000 0.000000
vt -8.880000 0.950000
vt -9.720000 0.950000
vt -9.720000 0.000000
vt -9.720000 0.950000
vt -8.880000 0.950000
vt -8.880000 0.000000
vt -9.605355 0.235355
vt -9.570000 0.250000
vt -9.534645 0.235355
vt -9.520000 0.200000
vt -9.534645 0.164645
vt -9.570000 0.150000
vt -9.605355 0.164645
vt -9.620000 0.200000
vt -9.620000 0.200000
vt -9.605355 0.164645
vt -9.570000 0.150000
vt -9.534645 0.164645
vt -9.520000 0.200000
vt -9.534645 0.235355
vt -9.570000 0.250000
vt -9.605355 0.235355
vt 0.120000 0.200000
vt 0.120000 0.164645
vt 0.220000 0.164645
vt 0.220000 0.200000
vt 0.120000 -9.605355
vt 0.120000 -9.570000
vt 0.220000 -9.570000
vt 0.220000 -9.605355
vt 0.120000 -9.570000
vt 0.120000 -9.534645
vt 0.220000 -9.534645
vt 0.220000 -9.570000
vt 0.120000 0.164645
vt 0.120000 0.200000
vt 0.220000 0.200000
vt 0.220000 0.164645
vt 0.120000 0.200000
vt 0.120000 0.235355
vt 0.220000 0.235355
vt 0.220000 0.200000
vt 0.120000 -9.534645
vt 0.120000 -9.570000
vt 0.220000 -9.570000
vt 0.220000 -9.534645
vt 0.120000 -9.570000
vt 0.120000 -9.605355
vt 0.220000 -9.605355
vt 0.220000 -9.570000
vt 0.120000 0.235355
vt 0.120000 0.200000
vt 0.220000 0.200000
vt 0.220000 0.235355
vt -9.605355 0.755355
vt -9.570000 0.770000
vt -9.534645 0.755355
vt -9.520000 0.720000
vt -9.534645 0.684645
vt -9.570000 0.670000
vt -9.605355 0.684645
vt -9.620000 0.720000
vt -9.620000 0.720000
vt -9.605355 0.684645
vt -9.570000 0.670000
vt -9.534645 0.684645
vt -9.520000 0.720000
vt -9.534645 0.755355
vt -9.570000 0.770000
vt -9.605355 0.755355
vt 0.120000 0.720000
vt 0.120000 0.684645
vt 0.220000 0.684645
vt 0.220000 0.720000
vt 0.120000 -9.605355
vt 0.120000 -9.570000
vt 0.220000 -9.570000
vt 0.220000 -9.605355
vt 0.120000 -9.570000
vt 0.120000 -9.534645
vt 0.220000 -9.534645
vt 0.220000 -9.570000
vt 0.120000 0.684645
vt 0.120000 0.720000
vt 0.220000 0.720000
vt 0.220000 0.684645
vt 0.120000 0.720000
vt 0.120000 0.755355
vt 0.220000 0.755355
vt 0.220000 0.720000
vt 0.120000 -9.534645
vt 0.120000 -9.570000
vt 0.220000 -9.570000
vt 0.220000 -9.534645
vt 0.120000 -9.570000
vt 0.120000 -9.605355
vt 0.220000 -9.605355
vt 0.220000 -9.570000
vt 0.120000 0.755355
vt 0.120000 0.720000
vt 0.220000 0.720000
vt 0.220000 0.755355
vt -9.065355 0.235355
vt -9.030000 0.250000
vt -8.994645 0.235355
vt -8.980000 0.200000
vt -8.994645 0.164645
vt -9.030000 0.150000
vt -9.065355 0.164645
vt -9.080000 0.200000
vt -9.080000 0.200000
vt -9.065355 0.164645
vt -9.030000 0.150000
vt -8.994645 0.164645
vt -8.980000 0.200000
vt -8.994645 0.235355
vt -9.030000 0.250000
vt -9.065355 0.235355
vt 0.120000 0.200000
vt 0.120000 0.164645
vt 0.220000 0.164645
vt 0.220000 0.200000
vt 0.120000 -9.065355
vt 0.120000 -9.030000
vt 0.220000 -9.030000
vt 0.220000 -9.065355
vt 0.120000 -9.030000
vt 0.120000 -8.994645
vt 0.220000 -8.994645
vt 0.220000 -9.030000
vt 0.120000 0.164645
vt 0.120000 0.200000
vt 0.220000 0.200000
vt 0.220000 0.164645
vt 0.120000 0.200000
vt 0.120000 0.235355
vt 0.220000 0.235355
vt 0.220000 0.200000
vt 0.120000 -8.994645
vt 0.120000 -9.030000
vt 0.220000 -9.030000
vt 0.220000 -8.994645
vt 0.120000 -9.030000
vt 0.120000 -9.065355
vt 0.220000 -9.065355
vt 0.220000 -9.030000
vt 0.120000 0.235355
vt 0.120000 0.200000
vt 0.220000 0.200000
vt 0.220000 0.235355
vt -9.065355 0.755355
vt -9.030000 0.770000
vt -8.994645 0.755355
vt -8.980000 0.720000
vt -8.994645 0.684645
vt -9.030000 0.670000
vt -9.065355 0.684645
vt -9.080000 0.720000
vt -9.080000 0.720000
vt -9.065355 0.684645
vt -9.030000 0.670000
vt -8.994645 0.684645
vt -8.980000 0.720000
vt -8.994645 0.755355
vt -9.030000 0.770000
vt -9.065355 0.755355
vt 0.120000 0.720000
vt 0.120000 0.684645
vt 0.220000 0.684645
vt 0.220000 0.720000
vt 0.120000 -9.065355
vt 0.120000 -9.030000
vt 0.220000 -9.030000
vt 0.220000 -9.065355
vt 0.120000 -9.030000
vt 0.120000 -8.994645
vt 0.220000 -8.994645
vt 0.220000 -9.030000
vt 0.120000 0.684645
vt 0.120000 0.720000
vt 0.220000 0.720000
vt 0.220000 0.684645
vt 0.120000 0.720000
vt 0.120000 0.755355
vt 0.220000 0.755355
vt 0.220000 0.720000
vt 0.120000 -8.994645
vt 0.120000 -9.030000
vt 0.220000 -9.030000
vt 0.220000 -8.994645
vt 0.120000 -9.030000
vt 0.120000 -9.065355
vt 0.220000 -9.065355
vt 0.220000 -9.030000
vt 0.120000 0.755355
vt 0.120000 0.720000
vt 0.220000 0.720000
vt 0.220000 0.755355
vt 0.000000 8.880000
vt 0.120000 8.880000
vt 0.120000 9.720000
vt 0.000000 9.720000
vt 0.000000 8.880000
vt 0.000000 9.720000
vt 0.120000 9.720000
vt 0.120000 8.880000
vt 0.000000 0.000000
vt 0.000000 0.950000
vt 0.120000 0.950000
vt 0.120000 0.000000
vt 0.000000 0.000000
vt 0.120000 0.000000
vt 0.120000 0.950000
vt 0.000000 0.950000
vt 8.880000 0.000000
vt 9.720000 0.000000
vt 9.720000 0.950000
vt 8.880000 0.950000
vt 8.880000 0.000000
vt 8.880000 0.950000
vt 9.720000 0.950000
vt 9.720000 0.000000
vt 8.994645 0.235355
vt 9.030000 0.250000
vt 9.065355 0.235355
vt 9.080000 0.200000
vt 9.065355 0.164645
vt 9.030000 0.150000
vt 8.994645 0.164645
vt 8.980000 0.200000
vt 8.980000 0.200000
vt 8.994645 0.164645
vt 9.030000 0.150000
vt 9.065355 0.164645
vt 9.080000 0.200000
vt 9.065355 0.235355
vt 9.030000 0.250000
vt 8.994645 0.235355
vt 0.120000 0.200000
vt 0.120000 0.164645
vt 0.220000 0.164645
vt 0.220000 0.200000
vt 0.120000 8.994645
vt 0.120000 9.030000
vt 0.220000 9.030000
vt 0.220000 8.994645
vt 0.120000 9.030000
vt 0.120000 9.065355
vt 0.220000 9.065355
vt 0.220000 9.030000
vt 0.120000 0.164645
vt 0.120000 0.200000
vt 0.220000 0.200000
vt 0.220000 0.164645
vt 0.120000 0.200000
vt 0.120000 0.235355
vt 0.220000 0.235355
vt 0.220000 0.200000
vt 0.120000 9.065355
vt 0.120000 9.030000
vt 0.220000 9.030000
vt 0.220000 9.065355
vt 0.120000 9.030000
vt 0.120000 8.994645
vt 0.220000 8.994645
vt 0.220000 9.030000
vt 0.120000 0.235355
vt 0.120000 0.200000
vt 0.220000 0.200000
vt 0.220000 0.235355
vt 8.994645 0.755355
vt 9.030000 0.770000
vt 9.065355 0.755355
vt 9.080000 0.720000
vt 9.065355 0.684645
vt 9.030000 0.670000
vt 8.994645 0.684645
vt 8.980000 0.720000
vt 8.980000 0.720000
vt 8.994645 0.684645
vt 9.030000 0.670000
vt 9.065355 0.684645
vt 9.080000 0.720000
vt 9.065355 0.755355
vt 9.030000 0.770000
vt 8.994645 0.755355
vt 0.120000 0.720000
vt 0.120000 0.684645
vt 0.220000 0.684645
vt 0.220000 0.720000
vt 0.120000 8.994645
vt 0.120000 9.030000
vt 0.220000 9.030000
vt 0.220000 8.994645
vt 0.120000 9.030000
vt 0.120000 9.065355
vt 0.220000 9.065355
vt 0.220000 9.030000
vt 0.120000 0.684645
vt 0.120000 0.720000
vt 0.220000 0.720000
vt 0.220000 0.684645
vt 0.120000 0.720000
vt 0.120000 0.755355
vt 0.220000 0.755355
vt 0.220000 0.720000
vt 0.120000 9.065355
vt 0.120000 9.030000
vt 0.220000 9.030000
vt 0.220000 9.065355
vt 0.120000 9.030000
vt 0.120000 8.994645
vt 0.220000 8.994645
vt 0.220000 9.030000
vt 0.120000 0.755355
vt 0.120000 0.720000
vt 0.220000 0.720000
vt 0.220000 0.755355
vt 9.534645 0.235355
vt 9.570000 0.250000
vt 9.605355 0.235355
vt 9.620000 0.200000
vt 9.605355 0.164645
vt 9.570000 0.150000
vt 9.534645 0.164645
vt 9.520000 0.200000
vt 9.520000 0.200000
vt 9.534645 0.164645
vt 9.570000 0.150000
vt 9.605355 0.164645
vt 9.620000 0.200000
vt 9.605355 0.235355
vt 9.570000 0.250000
vt 9.534645 0.235355
vt 0.120000 0.200000
vt 0.120000 0.164645
vt 0.220000 0.164645
vt 0.220000 0.200000
vt 0.120000 9.534645
vt 0.120000 9.570000
vt 0.220000 9.570000
vt 0.220000 9.534645
vt 0.120000 9.570000
vt 0.120000 9.605355
vt 0.220000 9.605355
vt 0.220000 9.570000
vt 0.120000 0.164645
vt 0.120000 0.200000
vt 0.220000 0.200000
vt 0.220000 0.164645
vt 0.120000 0.200000
vt 0.120000 0.235355
vt 0.220000 0.235355
vt 0.220000 0.200000
vt 0.120000 9.605355
vt 0.120000 9.570000
vt 0.220000 9.570000
vt 0.220000 9.605355
vt 0.120000 9.570000
vt 0.120000 9.534645
vt 0.220000 9.534645
vt 0.220000 9.570000
vt 0.120000 0.235355
vt 0.120000 0.200000
vt 0.220000 0.200000
vt 0.220000 0.235355
vt 9.509378 0.755000
vt 9.535000 0.780622
vt 9.570000 0.790000
vt 9.605000 0.780622
vt 9.630622 0.755000
vt 9.640000 0.720000
vt 9.630622 0.685000
vt 9.605000 0.659378
vt 9.570000 0.650000
vt 9.535000 0.659378
vt 9.509378 0.685000
vt 9.500000 0.720000
vt 9.500000 0.720000
vt 9.509378 0.685000
vt 9.535000 0.659378
vt 9.570000 0.650000
vt 9.605000 0.659378
vt 9.630622 0.685000
vt 9.640000 0.720000
vt 9.630622 0.755000
vt 9.605000 0.780622
vt 9.570000 0.790000
vt 9.535000 0.780622
vt 9.509378 0.755000
vt 0.120000 0.720000
vt 0.120000 0.685000
vt 0.220000 0.685000
vt 0.220000 0.720000
vt 0.120000 9.509378
vt 0.120000 9.535000
vt 0.220000 9.535000
vt 0.220000 9.509378
vt 0.120000 9.535000
vt 0.120000 9.570000
vt 0.220000 9.570000
vt 0.220000 9.535000
vt 0.120000 9.570000
vt 0.120000 9.605000
vt 0.220000 9.605000
vt 0.220000 9.570000
vt 0.120000 9.605000
vt 0.120000 9.630622
vt 0.220000 9.630622
vt 0.220000 9.605000
vt 0.120000 0.685000
vt 0.120000 0.720000
vt 0.220000 0.720000
vt 0.220000 0.685000
vt 0.120000 0.720000
vt 0.120000 0.755000
vt 0.220000 0.755000
vt 0.220000 0.720000
vt 0.120000 9.630622
vt 0.120000 9.605000
vt 0.220000 9.605000
vt 0.220000 9.630622
vt 0.120000 9.605000
vt 0.120000 9.570000
vt 0.220000 9.570000
vt 0.220000 9.605000
vt 0.120000 9.570000
vt 0.120000 9.535000
vt 0.220000 9.535000
vt 0.220000 9.570000
vt 0.120000 9.535000
vt 0.120000 9.509378
vt 0.220000 9.509378
vt 0.220000 9.535000
vt 0.120000 0.755000
vt 0.120000 0.720000
vt 0.220000 0.720000
vt 0.220000 0.755000
vt 3.380000 -7.350000
vt 3.620000 -7.350000
vt 3.620000 -5.550000
vt 3.380000 -5.550000
vt 3.380000 -7.350000
vt 3.380000 -5.550000
vt 3.620000 -5.550000
vt 3.620000 -7.350000
vt 3.380000 7.950000
vt 3.380000 8.270000
vt 3.620000 8.270000
vt 3.620000 7.950000
vt 3.380000 7.950000
vt 3.620000 7.950000
vt 3.620000 8.270000
vt 3.380000 8.270000
vt -7.350000 7.950000
vt -5.550000 7.950000
vt -5.550000 8.270000
vt -7.350000 8.270000
vt -7.350000 7.950000
vt -7.350000 8.270000
vt -5.550000 8.270000
vt -5.550000 7.950000
vt -7.085355 8.145355
vt -7.050000 8.160000
vt -7.014645 8.145355
vt -7.000000 8.110000
vt -7.014645 8.074645
vt -7.050000 8.060000
vt -7.085355 8.074645
vt -7.100000 8.110000
vt -7.100000 8.110000
vt -7.085355 8.074645
vt -7.050000 8.060000
vt -7.014645 8.074645
vt -7.000000 8.110000
vt -7.014645 8.145355
vt -7.050000 8.160000
vt -7.085355 8.145355
vt 3.620000 8.110000
vt 3.620000 8.074645
vt 3.700000 8.074645
vt 3.700000 8.110000
vt 3.620000 -7.085355
vt 3.620000 -7.050000
vt 3.700000 -7.050000
vt 3.700000 -7.085355
vt 3.620000 -7.050000
vt 3.620000 -7.014645
vt 3.700000 -7.014645
vt 3.700000 -7.050000
vt 3.620000 8.074645
vt 3.620000 8.110000
vt 3.700000 8.110000
vt 3.700000 8.074645
vt 3.620000 8.110000
vt 3.620000 8.145355
vt 3.700000 8.145355
vt 3.700000 8.110000
vt 3.620000 -7.014645
vt 3.620000 -7.050000
vt 3.700000 -7.050000
vt 3.700000 -7.014645
vt 3.620000 -7.050000
vt 3.620000 -7.085355
vt 3.700000 -7.085355
vt 3.700000 -7.050000
vt 3.620000 8.145355
vt 3.620000 8.110000
vt 3.700000 8.110000
vt 3.700000 8.145355
vt -5.885355 8.145355
vt -5.850000 8.160000
vt -5.814645 8.145355
vt -5.800000 8.110000
vt -5.814645 8.074645
vt -5.850000 8.060000
vt -5.885355 8.074645
vt -5.900000 8.110000
vt -5.900000 8.110000
vt -5.885355 8.074645
vt -5.850000 8.060000
vt -5.814645 8.074645
vt -5.800000 8.110000
vt -5.814645 8.145355
vt -5.850000 8.160000
vt -5.885355 8.145355
vt 3.620000 8.110000
vt 3.620000 8.074645
vt 3.700000 8.074645
vt 3.700000 8.110000
vt 3.620000 -5.885355
vt 3.620000 -5.850000
vt 3.700000 -5.850000
vt 3.700000 -5.885355
vt 3.620000 -5.850000
vt 3.620000 -5.814645
vt 3.700000 -5.814645
vt 3.700000 -5.850000
vt 3.620000 8.074645
vt 3.620000 8.110000
vt 3.700000 8.110000
vt 3.700000 8.074645
vt 3.620000 8.110000
vt 3.620000 8.145355
vt 3.700000 8.145355
vt 3.700000 8.110000
vt 3.620000 -5.814645
vt 3.620000 -5.850000
vt 3.700000 -5.850000
vt 3.700000 -5.814645
vt 3.620000 -5.850000
vt 3.620000 -5.885355
vt 3.700000 -5.885355
vt 3.700000 -5.850000
vt 3.620000 8.145355
vt 3.620000 8.110000
vt 3.700000 8.110000
vt 3.700000 8.145355
vt 1.650000 -0.180000
vt 1.950000 -0.180000
vt 1.950000 0.180000
vt 1.650000 0.180000
vt 1.650000 -0.180000
vt 1.650000 0.180000
vt 1.950000 0.180000
vt 1.950000 -0.180000
vt 1.650000 8.750000
vt 1.650000 9.070000
vt 1.950000 9.070000
vt 1.950000 8.750000
vt 1.650000 8.750000
vt 1.950000 8.750000
vt 1.950000 9.070000
vt 1.650000 9.070000
vt -0.180000 8.750000
vt 0.180000 8.750000
vt 0.180000 9.070000
vt -0.180000 9.070000
vt -0.180000 8.750000
vt -0.180000 9.070000
vt 0.180000 9.070000
vt 0.180000 8.750000
vt 1.891145 -8.943369
vt 1.916574 -8.978369
vt 1.916574 -9.021631
vt 1.891145 -9.056631
vt 1.850000 -9.070000
vt 1.808855 -9.056631
vt 1.783426 -9.021631
vt 1.783426 -8.978369
vt 1.808855 -8.943369
vt 1.850000 -8.930000
vt 1.850000 -8.930000
vt 1.808855 -8.943369
vt 1.783426 -8.978369
vt 1.783426 -9.021631
vt 1.808855 -9.056631
vt 1.850000 -9.070000
vt 1.891145 -9.056631
vt 1.916574 -9.021631
vt 1.916574 -8.978369
vt 1.891145 -8.943369
vt 1.850000 4.550000
vt 1.808855 4.550000
vt 1.808855 7.850000
vt 1.850000 7.850000
vt -8.943369 4.550000
vt -8.978369 4.550000
vt -8.978369 7.850000
vt -8.943369 7.850000
vt -8.978369 4.550000
vt -9.021631 4.550000
vt -9.021631 7.850000
vt -8.978369 7.850000
vt -9.021631 4.550000
vt -9.056631 4.550000
vt -9.056631 7.850000
vt -9.021631 7.850000
vt 1.808855 4.550000
vt 1.850000 4.550000
vt 1.850000 7.850000
vt 1.808855 7.850000
vt 1.850000 4.550000
vt 1.891145 4.550000
vt 1.891145 7.850000
vt 1.850000 7.850000
vt -9.056631 4.550000
vt -9.021631 4.550000
vt -9.021631 7.850000
vt -9.056631 7.850000
vt -9.021631 4.550000
vt -8.978369 4.550000
vt -8.978369 7.850000
vt -9.021631 7.850000
vt -8.978369 4.550000
vt -8.943369 4.550000
vt -8.943369 7.850000
vt -8.978369 7.850000
vt 1.891145 4.550000
vt 1.850000 4.550000
vt 1.850000 7.850000
vt 1.891145 7.850000
vt 1.891145 9.056631
vt 1.916574 9.021631
vt 1.916574 8.978369
vt 1.891145 8.943369
vt 1.850000 8.930000
vt 1.808855 8.943369
vt 1.783426 8.978369
vt 1.783426 9.021631
vt 1.808855 9.056631
vt 1.850000 9.070000
vt 1.850000 9.070000
vt 1.808855 9.056631
vt 1.783426 9.021631
vt 1.783426 8.978369
vt 1.808855 8.943369
vt 1.850000 8.930000
vt 1.891145 8.943369
vt 1.916574 8.978369
vt 1.916574 9.021631
vt 1.891145 9.056631
vt 1.850000 4.550000
vt 1.808855 4.550000
vt 1.808855 7.850000
vt 1.850000 7.850000
vt 9.056631 4.550000
vt 9.021631 4.550000
vt 9.021631 7.850000
vt 9.056631 7.850000
vt 9.021631 4.550000
vt 8.978369 4.550000
vt 8.978369 7.850000
vt 9.021631 7.850000
vt 8.978369 4.550000
vt 8.943369 4.550000
vt 8.943369 7.850000
vt 8.978369 7.850000
vt 1.808855 4.550000
vt 1.850000 4.550000
vt 1.850000 7.850000
vt 1.808855 7.850000
vt 1.850000 4.550000
vt 1.891145 4.550000
vt 1.891145 7.850000
vt 1.850000 7.850000
vt 8.943369 4.550000
vt 8.978369 4.550000
vt 8.978369 7.850000
vt 8.943369 7.850000
vt 8.978369 4.550000
vt 9.021631 4.550000
vt 9.021631 7.850000
vt 8.978369 7.850000
vt 9.021631 4.550000
vt 9.056631 4.550000
vt 9.056631 7.850000
vt 9.021631 7.850000
vt 1.891145 4.550000
vt 1.850000 4.550000
vt 1.850000 7.850000
vt 1.891145 7.850000
vt 0.000000 -9.500000
vt 3.600000 -9.500000
vt 3.600000 -9.340000
vt 0.000000 -9.340000
vt 0.000000 -9.500000
vt 0.000000 -9.340000
vt 3.600000 -9.340000
vt 3.600000 -9.500000
vt 0.000000 8.050000
vt 0.000000 8.250000
vt 3.600000 8.250000
vt 3.600000 8.050000
vt 0.000000 8.050000
vt 3.600000 8.050000
vt 3.600000 8.250000
vt 0.000000 8.250000
vt -9.500000 8.050000
vt -9.340000 8.050000
vt -9.340000 8.250000
vt -9.500000 8.250000
vt -9.500000 8.050000
vt -9.500000 8.250000
vt -9.340000 8.250000
vt -9.340000 8.050000
vt 0.000000 9.340000
vt 3.600000 9.340000
vt 3.600000 9.500000
vt 0.000000 9.500000
vt 0.000000 9.340000
vt 0.000000 9.500000
vt 3.600000 9.500000
vt 3.600000 9.340000
vt 0.000000 8.050000
vt 0.000000 8.250000
vt 3.600000 8.250000
vt 3.600000 8.050000
vt 0.000000 8.050000
vt 3.600000 8.050000
vt 3.600000 8.250000
vt 0.000000 8.250000
vt 9.340000 8.050000
vt 9.500000 8.050000
vt 9.500000 8.250000
vt 9.340000 8.250000
vt 9.340000 8.050000
vt 9.340000 8.250000
vt 9.500000 8.250000
vt 9.500000 8.050000
vt 3.540000 -9.573923
vt 3.583923 -9.530000
vt 3.600000 -9.470000
vt 3.583923 -9.410000
vt 3.540000 -9.366077
vt 3.480000 -9.350000
vt 3.420000 -9.366077
vt 3.376077 -9.410000
vt 3.360000 -9.470000
vt 3.376077 -9.530000
vt 3.420000 -9.573923
vt 3.480000 -9.590000
vt 3.480000 -9.590000
vt 3.420000 -9.573923
vt 3.376077 -9.530000
vt 3.360000 -9.470000
vt 3.376077 -9.410000
vt 3.420000 -9.366077
vt 3.480000 -9.350000
vt 3.540000 -9.366077
vt 3.583923 -9.410000
vt 3.600000 -9.470000
vt 3.583923 -9.530000
vt 3.540000 -9.573923
vt 3.480000 8.050000
vt 3.420000 8.050000
vt 3.420000 0.950000
vt 3.480000 0.950000
vt 3.420000 8.050000
vt 3.376077 8.050000
vt 3.376077 0.950000
vt 3.420000 0.950000
vt -9.530000 8.050000
vt -9.470000 8.050000
vt -9.470000 0.950000
vt -9.530000 0.950000
vt -9.470000 8.050000
vt -9.410000 8.050000
vt -9.410000 0.950000
vt -9.470000 0.950000
vt 3.376077 8.050000
vt 3.420000 8.050000
vt 3.420000 0.950000
vt 3.376077 0.950000
vt 3.420000 8.050000
vt 3.480000 8.050000
vt 3.480000 0.950000
vt 3.420000 0.950000
vt 3.480000 8.050000
vt 3.540000 8.050000
vt 3.540000 0.950000
vt 3.480000 0.950000
vt 3.540000 8.050000
vt 3.583923 8.050000
vt 3.583923 0.950000
vt 3.540000 0.950000
vt -9.410000 8.050000
vt -9.470000 8.050000
vt -9.470000 0.950000
vt -9.410000 0.950000
vt -9.470000 8.050000
vt -9.530000 8.050000
vt -9.530000 0.950000
vt -9.470000 0.950000
vt 3.583923 8.050000
vt 3.540000 8.050000
vt 3.540000 0.950000
vt 3.583923 0.950000
vt 3.540000 8.050000
vt 3.480000 8.050000
vt 3.480000 0.950000
vt 3.540000 0.950000
vt 3.436137 -9.366077
vt 3.404027 -9.410000
vt 3.392273 -9.470000
vt 3.404027 -9.530000
vt 3.436137 -9.573923
vt 3.480000 -9.590000
vt 3.523863 -9.573923
vt 3.555973 -9.530000
vt 3.567727 -9.470000
vt 3.555973 -9.410000
vt 3.523863 -9.366077
vt 3.480000 -9.350000
vt 3.200000 -9.350000
vt 3.243863 -9.366077
vt 3.275973 -9.410000
vt 3.287727 -9.470000
vt 3.275973 -9.530000
vt 3.243863 -9.573923
vt 3.200000 -9.590000
vt 3.156137 -9.573923
vt 3.124027 -9.530000
vt 3.112273 -9.470000
vt 3.124027 -9.410000
vt 3.156137 -9.366077
vt 3.480000 0.950000
vt 3.523863 0.909061
vt 3.243863 0.609061
vt 3.200000 0.650000
vt 3.523863 0.909061
vt 3.555973 0.879091
vt 3.275973 0.579091
vt 3.243863 0.609061
vt -9.410000 0.879091
vt -9.470000 0.868122
vt -9.470000 0.568122
vt -9.410000 0.579091
vt -9.470000 0.868122
vt -9.530000 0.879091
vt -9.530000 0.579091
vt -9.470000 0.568122
vt 3.555973 0.879091
vt 3.523863 0.909061
vt 3.243863 0.609061
vt 3.275973 0.579091
vt 3.523863 0.909061
vt 3.480000 0.950000
vt 3.200000 0.650000
vt 3.243863 0.609061
vt 3.480000 0.950000
vt 3.436137 0.990939
vt 3.156137 0.690939
vt 3.200000 0.650000
vt 3.436137 0.990939
vt 3.404027 1.020909
vt 3.124027 0.720909
vt 3.156137 0.690939
vt -9.530000 1.020909
vt -9.470000 1.031878
vt -9.470000 0.731878
vt -9.530000 0.720909
vt -9.470000 1.031878
vt -9.410000 1.020909
vt -9.410000 0.720909
vt -9.470000 0.731878
vt 3.404027 1.020909
vt 3.436137 0.990939
vt 3.156137 0.690939
vt 3.124027 0.720909
vt 3.436137 0.990939
vt 3.480000 0.950000
vt 3.200000 0.650000
vt 3.156137 0.690939
usemtl M_Vestibule_PaintedSteel_BaseWear
s 1
f 1/1 2/2 4/3 3/4
f 5/5 7/6 8/7 6/8
f 1/9 5/10 6/11 2/12
f 3/13 4/14 8/15 7/16
f 1/17 3/18 7/19 5/20
f 2/21 6/22 8/23 4/24
usemtl M_Vestibule_PaintedSteel
f 9/29 11/30 12/31 10/32
f 5/33 9/34 10/35 6/36
f 7/37 8/38 12/39 11/40
f 5/41 7/42 11/43 9/44
f 6/45 10/46 12/47 8/48
usemtl M_Vestibule_PaintedSteel_BaseWear
f 13/49 14/50 16/51 15/52
f 17/53 19/54 20/55 18/56
f 13/57 17/58 18/59 14/60
f 15/61 16/62 20/63 19/64
f 13/65 15/66 19/67 17/68
f 14/69 18/70 20/71 16/72
usemtl M_Vestibule_PaintedSteel
f 21/77 23/78 24/79 22/80
f 17/81 21/82 22/83 18/84
f 19/85 20/86 24/87 23/88
f 17/89 19/90 23/91 21/92
f 18/93 22/94 24/95 20/96
usemtl M_Vestibule_PaintedSteel_BaseWear
f 25/97 26/98 28/99 27/100
f 29/101 31/102 32/103 30/104
f 25/105 29/106 30/107 26/108
f 27/109 28/110 32/111 31/112
f 25/113 27/114 31/115 29/116
f 26/117 30/118 32/119 28/120
usemtl M_Vestibule_PaintedSteel
f 33/125 35/126 36/127 34/128
f 29/129 33/130 34/131 30/132
f 31/133 32/134 36/135 35/136
f 29/137 31/138 35/139 33/140
f 30/141 34/142 36/143 32/144
usemtl M_Vestibule_PaintedSteel_BaseWear
f 37/145 38/146 40/147 39/148
f 41/149 43/150 44/151 42/152
f 37/153 41/154 42/155 38/156
f 39/157 40/158 44/159 43/160
f 37/161 39/162 43/163 41/164
f 38/165 42/166 44/167 40/168
usemtl M_Vestibule_PaintedSteel
f 45/173 47/174 48/175 46/176
f 41/177 45/178 46/179 42/180
f 43/181 44/182 48/183 47/184
f 41/185 43/186 47/187 45/188
f 42/189 46/190 48/191 44/192
usemtl M_Vestibule_PaintedSteel_BaseWear
f 49/193 50/194 52/195 51/196
f 53/197 55/198 56/199 54/200
f 49/201 53/202 54/203 50/204
f 51/205 52/206 56/207 55/208
f 49/209 51/210 55/211 53/212
f 50/213 54/214 56/215 52/216
usemtl M_Vestibule_PaintedSteel
f 57/221 59/222 60/223 58/224
f 53/225 57/226 58/227 54/228
f 55/229 56/230 60/231 59/232
f 53/233 55/234 59/235 57/236
f 54/237 58/238 60/239 56/240
usemtl M_Vestibule_PaintedSteel_BaseWear
f 61/241 62/242 64/243 63/244
f 65/245 67/246 68/247 66/248
f 61/249 65/250 66/251 62/252
f 63/253 64/254 68/255 67/256
f 61/257 63/258 67/259 65/260
f 62/261 66/262 68/263 64/264
usemtl M_Vestibule_PaintedSteel
f 69/269 71/270 72/271 70/272
f 65/273 69/274 70/275 66/276
f 67/277 68/278 72/279 71/280
f 65/281 67/282 71/283 69/284
f 66/285 70/286 72/287 68/288
usemtl M_Vestibule_PaintedSteel_BaseWear
f 73/289 74/290 76/291 75/292
f 77/293 79/294 80/295 78/296
f 73/297 77/298 78/299 74/300
f 75/301 76/302 80/303 79/304
f 73/305 75/306 79/307 77/308
f 74/309 78/310 80/311 76/312
usemtl M_Vestibule_PaintedSteel
f 81/317 83/318 84/319 82/320
f 77/321 81/322 82/323 78/324
f 79/325 80/326 84/327 83/328
f 77/329 79/330 83/331 81/332
f 78/333 82/334 84/335 80/336
usemtl M_Vestibule_PaintedSteel_BaseWear
f 85/337 86/338 88/339 87/340
f 89/341 91/342 92/343 90/344
f 85/345 89/346 90/347 86/348
f 87/349 88/350 92/351 91/352
f 85/353 87/354 91/355 89/356
f 86/357 90/358 92/359 88/360
usemtl M_Vestibule_PaintedSteel
f 93/365 95/366 96/367 94/368
f 89/369 93/370 94/371 90/372
f 91/373 92/374 96/375 95/376
f 89/377 91/378 95/379 93/380
f 90/381 94/382 96/383 92/384
f 97/385 98/386 100/387 99/388
f 101/389 103/390 104/391 102/392
f 97/393 101/394 102/395 98/396
f 99/397 100/398 104/399 103/400
f 97/401 99/402 103/403 101/404
f 98/405 102/406 104/407 100/408
f 105/409 106/410 108/411 107/412
f 109/413 111/414 112/415 110/416
f 105/417 109/418 110/419 106/420
f 107/421 108/422 112/423 111/424
f 105/425 107/426 111/427 109/428
f 106/429 110/430 112/431 108/432
f 113/433 114/434 116/435 115/436
f 117/437 119/438 120/439 118/440
f 113/441 117/442 118/443 114/444
f 115/445 116/446 120/447 119/448
f 113/449 115/450 119/451 117/452
f 114/453 118/454 120/455 116/456
f 121/457 122/458 124/459 123/460
f 125/461 127/462 128/463 126/464
f 121/465 125/466 126/467 122/468
f 123/469 124/470 128/471 127/472
f 121/473 123/474 127/475 125/476
f 122/477 126/478 128/479 124/480
f 129/481 130/482 132/483 131/484
f 133/485 135/486 136/487 134/488
f 129/489 133/490 134/491 130/492
f 131/493 132/494 136/495 135/496
f 129/497 131/498 135/499 133/500
f 130/501 134/502 136/503 132/504
f 137/505 138/506 140/507 139/508
f 141/509 143/510 144/511 142/512
f 137/513 141/514 142/515 138/516
f 139/517 140/518 144/519 143/520
f 137/521 139/522 143/523 141/524
f 138/525 142/526 144/527 140/528
f 145/529 146/530 148/531 147/532
f 149/533 151/534 152/535 150/536
f 145/537 149/538 150/539 146/540
f 147/541 148/542 152/543 151/544
f 145/545 147/546 151/547 149/548
f 146/549 150/550 152/551 148/552
f 156/553 155/554 154/555 153/556
f 157/557 158/558 159/559 160/560
f 153/561 157/562 158/563 154/564
f 154/565 158/566 159/567 155/568
f 155/569 159/570 160/571 156/572
f 156/573 160/574 157/575 153/576
f 164/577 163/578 162/579 161/580
f 165/581 166/582 167/583 168/584
f 161/585 165/586 166/587 162/588
f 162/589 166/590 167/591 163/592
f 163/593 167/594 168/595 164/596
f 164/597 168/598 165/599 161/600
f 172/601 171/602 170/603 169/604
f 173/605 174/606 175/607 176/608
f 169/609 173/610 174/611 170/612
f 170/613 174/614 175/615 171/616
f 171/617 175/618 176/619 172/620
f 172/621 176/622 173/623 169/624
f 180/625 179/626 178/627 177/628
f 181/629 182/630 183/631 184/632
f 177/633 181/634 182/635 178/636
f 178/637 182/638 183/639 179/640
f 179/641 183/642 184/643 180/644
f 180/645 184/646 181/647 177/648
f 188/649 187/650 186/651 185/652
f 189/653 190/654 191/655 192/656
f 185/657 189/658 190/659 186/660
f 186/661 190/662 191/663 187/664
f 187/665 191/666 192/667 188/668
f 188/669 192/670 189/671 185/672
f 196/673 195/674 194/675 193/676
f 197/677 198/678 199/679 200/680
f 193/681 197/682 198/683 194/684
f 194/685 198/686 199/687 195/688
f 195/689 199/690 200/691 196/692
f 196/693 200/694 197/695 193/696
f 201/697 202/698 204/699 203/700
f 205/701 207/702 208/703 206/704
f 201/705 205/706 206/707 202/708
f 203/709 204/710 208/711 207/712
f 201/713 203/714 207/715 205/716
f 202/717 206/718 208/719 204/720
f 209/721 210/722 212/723 211/724
f 213/725 215/726 216/727 214/728
f 209/729 213/730 214/731 210/732
f 211/733 212/734 216/735 215/736
f 209/737 211/738 215/739 213/740
f 210/741 214/742 216/743 212/744
f 217/745 218/746 220/747 219/748
f 221/749 223/750 224/751 222/752
f 217/753 221/754 222/755 218/756
f 219/757 220/758 224/759 223/760
f 217/761 219/762 223/763 221/764
f 218/765 222/766 224/767 220/768
f 225/769 226/770 228/771 227/772
f 229/773 231/774 232/775 230/776
f 225/777 229/778 230/779 226/780
f 227/781 228/782 232/783 231/784
f 225/785 227/786 231/787 229/788
f 226/789 230/790 232/791 228/792
f 233/793 234/794 236/795 235/796
f 237/797 239/798 240/799 238/800
f 233/801 237/802 238/803 234/804
f 235/805 236/806 240/807 239/808
f 233/809 235/810 239/811 237/812
f 234/813 238/814 240/815 236/816
f 241/817 242/818 244/819 243/820
f 245/821 247/822 248/823 246/824
f 241/825 245/826 246/827 242/828
f 243/829 244/830 248/831 247/832
f 241/833 243/834 247/835 245/836
f 242/837 246/838 248/839 244/840
f 249/841 250/842 252/843 251/844
f 253/845 255/846 256/847 254/848
f 249/849 253/850 254/851 250/852
f 251/853 252/854 256/855 255/856
f 249/857 251/858 255/859 253/860
f 250/861 254/862 256/863 252/864
f 257/865 258/866 260/867 259/868
f 261/869 263/870 264/871 262/872
f 257/873 261/874 262/875 258/876
f 259/877 260/878 264/879 263/880
f 257/881 259/882 263/883 261/884
f 258/885 262/886 264/887 260/888
f 265/889 266/890 268/891 267/892
f 269/893 271/894 272/895 270/896
f 265/897 269/898 270/899 266/900
f 267/901 268/902 272/903 271/904
f 265/905 267/906 271/907 269/908
f 266/909 270/910 272/911 268/912
f 273/913 274/914 276/915 275/916
f 277/917 279/918 280/919 278/920
f 273/921 277/922 278/923 274/924
f 275/925 276/926 280/927 279/928
f 273/929 275/930 279/931 277/932
f 274/933 278/934 280/935 276/936
f 281/937 282/938 284/939 283/940
f 285/941 287/942 288/943 286/944
f 281/945 285/946 286/947 282/948
f 283/949 284/950 288/951 287/952
f 281/953 283/954 287/955 285/956
f 282/957 286/958 288/959 284/960
usemtl M_Vestibule_Kickplate
f 289/961 290/962 292/963 291/964
f 293/965 295/966 296/967 294/968
f 289/969 293/970 294/971 290/972
f 291/973 292/974 296/975 295/976
f 289/977 291/978 295/979 293/980
f 290/981 294/982 296/983 292/984
f 297/985 298/986 300/987 299/988
f 301/989 303/990 304/991 302/992
f 297/993 301/994 302/995 298/996
f 299/997 300/998 304/999 303/1000
f 297/1001 299/1002 303/1003 301/1004
f 298/1005 302/1006 304/1007 300/1008
f 305/1009 306/1010 74/1011 307/1012
f 308/1013 310/1014 311/1015 309/1016
f 305/1017 308/1018 309/1019 306/1020
f 307/1021 74/1022 311/1023 310/1024
f 305/1025 307/1026 310/1027 308/1028
f 306/1029 309/1030 311/1031 74/1032
f 312/1033 88/1034 314/1035 313/1036
f 315/1037 317/1038 318/1039 316/1040
f 312/1041 315/1042 316/1043 88/1044
f 313/1045 314/1046 318/1047 317/1048
f 312/1049 313/1050 317/1051 315/1052
f 88/1053 316/1054 318/1055 314/1056
usemtl M_Vestibule_RubberSeal
f 319/1057 320/1058 322/1059 321/1060
f 323/1061 325/1062 326/1063 324/1064
f 319/1065 323/1066 324/1067 320/1068
f 321/1069 322/1070 326/1071 325/1072
f 319/1073 321/1074 325/1075 323/1076
f 320/1077 324/1078 326/1079 322/1080
f 327/1081 328/1082 330/1083 329/1084
f 331/1085 333/1086 334/1087 332/1088
f 327/1089 331/1090 332/1091 328/1092
f 329/1093 330/1094 334/1095 333/1096
f 327/1097 329/1098 333/1099 331/1100
f 328/1101 332/1102 334/1103 330/1104
f 335/1105 336/1106 338/1107 337/1108
f 339/1109 341/1110 342/1111 340/1112
f 335/1113 339/1114 340/1115 336/1116
f 337/1117 338/1118 342/1119 341/1120
f 335/1121 337/1122 341/1123 339/1124
f 336/1125 340/1126 342/1127 338/1128
f 343/1129 344/1130 346/1131 345/1132
f 347/1133 349/1134 350/1135 348/1136
f 343/1137 347/1138 348/1139 344/1140
f 345/1141 346/1142 350/1143 349/1144
f 343/1145 345/1146 349/1147 347/1148
f 344/1149 348/1150 350/1151 346/1152
f 351/1153 352/1154 354/1155 353/1156
f 355/1157 357/1158 358/1159 356/1160
f 351/1161 355/1162 356/1163 352/1164
f 353/1165 354/1166 358/1167 357/1168
f 351/1169 353/1170 357/1171 355/1172
f 352/1173 356/1174 358/1175 354/1176
f 359/1177 360/1178 362/1179 361/1180
f 363/1181 365/1182 366/1183 364/1184
f 359/1185 363/1186 364/1187 360/1188
f 361/1189 362/1190 366/1191 365/1192
f 359/1193 361/1194 365/1195 363/1196
f 360/1197 364/1198 366/1199 362/1200
f 367/1201 368/1202 370/1203 369/1204
f 371/1205 373/1206 374/1207 372/1208
f 367/1209 371/1210 372/1211 368/1212
f 369/1213 370/1214 374/1215 373/1216
f 367/1217 369/1218 373/1219 371/1220
f 368/1221 372/1222 374/1223 370/1224
f 375/1225 376/1226 378/1227 377/1228
f 379/1229 381/1230 382/1231 380/1232
f 375/1233 379/1234 380/1235 376/1236
f 377/1237 378/1238 382/1239 381/1240
f 375/1241 377/1242 381/1243 379/1244
f 376/1245 380/1246 382/1247 378/1248
f 383/1249 384/1250 386/1251 385/1252
f 387/1253 389/1254 390/1255 388/1256
f 383/1257 387/1258 388/1259 384/1260
f 385/1261 386/1262 390/1263 389/1264
f 383/1265 385/1266 389/1267 387/1268
f 384/1269 388/1270 390/1271 386/1272
f 391/1273 392/1274 394/1275 393/1276
f 395/1277 397/1278 398/1279 396/1280
f 391/1281 395/1282 396/1283 392/1284
f 393/1285 394/1286 398/1287 397/1288
f 391/1289 393/1290 397/1291 395/1292
f 392/1293 396/1294 398/1295 394/1296
f 399/1297 400/1298 402/1299 401/1300
f 403/1301 405/1302 406/1303 404/1304
f 399/1305 403/1306 404/1307 400/1308
f 401/1309 402/1310 406/1311 405/1312
f 399/1313 401/1314 405/1315 403/1316
f 400/1317 404/1318 406/1319 402/1320
usemtl M_Vestibule_BareSteel
f 407/1321 408/1322 410/1323 409/1324
f 411/1325 413/1326 414/1327 412/1328
f 407/1329 411/1330 412/1331 408/1332
f 409/1333 410/1334 414/1335 413/1336
f 407/1337 409/1338 413/1339 411/1340
f 408/1341 412/1342 414/1343 410/1344
f 422/1345 421/1346 420/1347 419/1348 418/1349 417/1350 416/1351 415/1352
f 423/1353 424/1354 425/1355 426/1356 427/1357 428/1358 429/1359 430/1360
f 415/1361 416/1362 424/1363 423/1364
f 416/1365 417/1366 425/1367 424/1368
f 417/1369 418/1370 426/1371 425/1372
f 418/1373 419/1374 427/1375 426/1376
f 419/1377 420/1378 428/1379 427/1380
f 420/1381 421/1382 429/1383 428/1384
f 421/1385 422/1386 430/1387 429/1388
f 422/1389 415/1390 423/1391 430/1392
f 438/1393 437/1394 436/1395 435/1396 434/1397 433/1398 432/1399 431/1400
f 439/1401 440/1402 441/1403 442/1404 443/1405 444/1406 445/1407 446/1408
f 431/1409 432/1410 440/1411 439/1412
f 432/1413 433/1414 441/1415 440/1416
f 433/1417 434/1418 442/1419 441/1420
f 434/1421 435/1422 443/1423 442/1424
f 435/1425 436/1426 444/1427 443/1428
f 436/1429 437/1430 445/1431 444/1432
f 437/1433 438/1434 446/1435 445/1436
f 438/1437 431/1438 439/1439 446/1440
f 454/1441 453/1442 452/1443 451/1444 450/1445 449/1446 448/1447 447/1448
f 455/1449 456/1450 457/1451 458/1452 459/1453 460/1454 461/1455 462/1456
f 447/1457 448/1458 456/1459 455/1460
f 448/1461 449/1462 457/1463 456/1464
f 449/1465 450/1466 458/1467 457/1468
f 450/1469 451/1470 459/1471 458/1472
f 451/1473 452/1474 460/1475 459/1476
f 452/1477 453/1478 461/1479 460/1480
f 453/1481 454/1482 462/1483 461/1484
f 454/1485 447/1486 455/1487 462/1488
f 470/1489 469/1490 468/1491 467/1492 466/1493 465/1494 464/1495 463/1496
f 471/1497 472/1498 473/1499 474/1500 475/1501 476/1502 477/1503 478/1504
f 463/1505 464/1506 472/1507 471/1508
f 464/1509 465/1510 473/1511 472/1512
f 465/1513 466/1514 474/1515 473/1516
f 466/1517 467/1518 475/1519 474/1520
f 467/1521 468/1522 476/1523 475/1524
f 468/1525 469/1526 477/1527 476/1528
f 469/1529 470/1530 478/1531 477/1532
f 470/1533 463/1534 471/1535 478/1536
f 479/1537 480/1538 482/1539 481/1540
f 483/1541 485/1542 486/1543 484/1544
f 479/1545 483/1546 484/1547 480/1548
f 481/1549 482/1550 486/1551 485/1552
f 479/1553 481/1554 485/1555 483/1556
f 480/1557 484/1558 486/1559 482/1560
f 494/1561 493/1562 492/1563 491/1564 490/1565 489/1566 488/1567 487/1568
f 495/1569 496/1570 497/1571 498/1572 499/1573 500/1574 501/1575 502/1576
f 487/1577 488/1578 496/1579 495/1580
f 488/1581 489/1582 497/1583 496/1584
f 489/1585 490/1586 498/1587 497/1588
f 490/1589 491/1590 499/1591 498/1592
f 491/1593 492/1594 500/1595 499/1596
f 492/1597 493/1598 501/1599 500/1600
f 493/1601 494/1602 502/1603 501/1604
f 494/1605 487/1606 495/1607 502/1608
f 510/1609 509/1610 508/1611 507/1612 506/1613 505/1614 504/1615 503/1616
f 511/1617 512/1618 513/1619 514/1620 515/1621 516/1622 517/1623 518/1624
f 503/1625 504/1626 512/1627 511/1628
f 504/1629 505/1630 513/1631 512/1632
f 505/1633 506/1634 514/1635 513/1636
f 506/1637 507/1638 515/1639 514/1640
f 507/1641 508/1642 516/1643 515/1644
f 508/1645 509/1646 517/1647 516/1648
f 509/1649 510/1650 518/1651 517/1652
f 510/1653 503/1654 511/1655 518/1656
f 526/1657 525/1658 524/1659 523/1660 522/1661 521/1662 520/1663 519/1664
f 527/1665 528/1666 529/1667 530/1668 531/1669 532/1670 533/1671 534/1672
f 519/1673 520/1674 528/1675 527/1676
f 520/1677 521/1678 529/1679 528/1680
f 521/1681 522/1682 530/1683 529/1684
f 522/1685 523/1686 531/1687 530/1688
f 523/1689 524/1690 532/1691 531/1692
f 524/1693 525/1694 533/1695 532/1696
f 525/1697 526/1698 534/1699 533/1700
f 526/1701 519/1702 527/1703 534/1704
f 546/1705 545/1706 544/1707 543/1708 542/1709 541/1710 540/1711 539/1712 538/1713 537/1714 536/1715 535/1716
f 547/1717 548/1718 549/1719 550/1720 551/1721 552/1722 553/1723 554/1724 555/1725 556/1726 557/1727 558/1728
f 535/1729 536/1730 548/1731 547/1732
f 536/1733 537/1734 549/1735 548/1736
f 537/1737 538/1738 550/1739 549/1740
f 538/1741 539/1742 551/1743 550/1744
f 539/1745 540/1746 552/1747 551/1748
f 540/1749 541/1750 553/1751 552/1752
f 541/1753 542/1754 554/1755 553/1756
f 542/1757 543/1758 555/1759 554/1760
f 543/1761 544/1762 556/1763 555/1764
f 544/1765 545/1766 557/1767 556/1768
f 545/1769 546/1770 558/1771 557/1772
f 546/1773 535/1774 547/1775 558/1776
f 559/1777 560/1778 562/1779 561/1780
f 563/1781 565/1782 566/1783 564/1784
f 559/1785 563/1786 564/1787 560/1788
f 561/1789 562/1790 566/1791 565/1792
f 559/1793 561/1794 565/1795 563/1796
f 560/1797 564/1798 566/1799 562/1800
f 574/1801 573/1802 572/1803 571/1804 570/1805 569/1806 568/1807 567/1808
f 575/1809 576/1810 577/1811 578/1812 579/1813 580/1814 581/1815 582/1816
f 567/1817 568/1818 576/1819 575/1820
f 568/1821 569/1822 577/1823 576/1824
f 569/1825 570/1826 578/1827 577/1828
f 570/1829 571/1830 579/1831 578/1832
f 571/1833 572/1834 580/1835 579/1836
f 572/1837 573/1838 581/1839 580/1840
f 573/1841 574/1842 582/1843 581/1844
f 574/1845 567/1846 575/1847 582/1848
f 590/1849 589/1850 588/1851 587/1852 586/1853 585/1854 584/1855 583/1856
f 591/1857 592/1858 593/1859 594/1860 595/1861 596/1862 597/1863 598/1864
f 583/1865 584/1866 592/1867 591/1868
f 584/1869 585/1870 593/1871 592/1872
f 585/1873 586/1874 594/1875 593/1876
f 586/1877 587/1878 595/1879 594/1880
f 587/1881 588/1882 596/1883 595/1884
f 588/1885 589/1886 597/1887 596/1888
f 589/1889 590/1890 598/1891 597/1892
f 590/1893 583/1894 591/1895 598/1896
f 599/1897 600/1898 602/1899 601/1900
f 603/1901 605/1902 606/1903 604/1904
f 599/1905 603/1906 604/1907 600/1908
f 601/1909 602/1910 606/1911 605/1912
f 599/1913 601/1914 605/1915 603/1916
f 600/1917 604/1918 606/1919 602/1920
f 616/1921 615/1922 614/1923 613/1924 612/1925 611/1926 610/1927 609/1928 608/1929 607/1930
f 617/1931 618/1932 619/1933 620/1934 621/1935 622/1936 623/1937 624/1938 625/1939 626/1940
f 607/1941 608/1942 618/1943 617/1944
f 608/1945 609/1946 619/1947 618/1948
f 609/1949 610/1950 620/1951 619/1952
f 610/1953 611/1954 621/1955 620/1956
f 611/1957 612/1958 622/1959 621/1960
f 612/1961 613/1962 623/1963 622/1964
f 613/1965 614/1966 624/1967 623/1968
f 614/1969 615/1970 625/1971 624/1972
f 615/1973 616/1974 626/1975 625/1976
f 616/1977 607/1978 617/1979 626/1980
f 636/1981 635/1982 634/1983 633/1984 632/1985 631/1986 630/1987 629/1988 628/1989 627/1990
f 637/1991 638/1992 639/1993 640/1994 641/1995 642/1996 643/1997 644/1998 645/1999 646/2000
f 627/2001 628/2002 638/2003 637/2004
f 628/2005 629/2006 639/2007 638/2008
f 629/2009 630/2010 640/2011 639/2012
f 630/2013 631/2014 641/2015 640/2016
f 631/2017 632/2018 642/2019 641/2020
f 632/2021 633/2022 643/2023 642/2024
f 633/2025 634/2026 644/2027 643/2028
f 634/2029 635/2030 645/2031 644/2032
f 635/2033 636/2034 646/2035 645/2036
f 636/2037 627/2038 637/2039 646/2040
f 647/2041 648/2042 650/2043 649/2044
f 651/2045 653/2046 654/2047 652/2048
f 647/2049 651/2050 652/2051 648/2052
f 649/2053 650/2054 654/2055 653/2056
f 647/2057 649/2058 653/2059 651/2060
f 648/2061 652/2062 654/2063 650/2064
f 655/2065 656/2066 658/2067 657/2068
f 659/2069 661/2070 662/2071 660/2072
f 655/2073 659/2074 660/2075 656/2076
f 657/2077 658/2078 662/2079 661/2080
f 655/2081 657/2082 661/2083 659/2084
f 656/2085 660/2086 662/2087 658/2088
f 674/2089 673/2090 672/2091 671/2092 670/2093 669/2094 668/2095 667/2096 666/2097 665/2098 664/2099 663/2100
f 675/2101 676/2102 677/2103 678/2104 679/2105 680/2106 681/2107 682/2108 683/2109 684/2110 685/2111 686/2112
f 663/2113 664/2114 676/2115 675/2116
f 664/2117 665/2118 677/2119 676/2120
f 665/2121 666/2122 678/2123 677/2124
f 666/2125 667/2126 679/2127 678/2128
f 667/2129 668/2130 680/2131 679/2132
f 668/2133 669/2134 681/2135 680/2136
f 669/2137 670/2138 682/2139 681/2140
f 670/2141 671/2142 683/2143 682/2144
f 671/2145 672/2146 684/2147 683/2148
f 672/2149 673/2150 685/2151 684/2152
f 673/2153 674/2154 686/2155 685/2156
f 674/2157 663/2158 675/2159 686/2160
f 696/2161 695/2162 694/2163 693/2164 692/2165 675/2166 691/2167 690/2168 689/2169 688/2170 687/2171 681/2172
f 697/2173 698/2174 699/2175 700/2176 701/2177 702/2178 703/2179 704/2180 705/2181 706/2182 707/2183 708/2184
f 681/2185 687/2186 698/2187 697/2188
f 687/2189 688/2190 699/2191 698/2192
f 688/2193 689/2194 700/2195 699/2196
f 689/2197 690/2198 701/2199 700/2200
f 690/2201 691/2202 702/2203 701/2204
f 691/2205 675/2206 703/2207 702/2208
f 675/2209 692/2210 704/2211 703/2212
f 692/2213 693/2214 705/2215 704/2216
f 693/2217 694/2218 706/2219 705/2220
f 694/2221 695/2222 707/2223 706/2224
f 695/2225 696/2226 708/2227 707/2228
f 696/2229 681/2230 697/2231 708/2232
