# Generated by generate_rootstead_west_endwall_entry.py -- do not hand-edit
mtllib VD_RootsteadWestEndwallEntry_Leaves.mtl
o VD_RootsteadWestEndwallEntry_Leaves
v -397.000000 -416.000000 0.000000
v -353.000000 -416.000000 0.000000
v -397.000000 -6.000000 0.000000
v -353.000000 -6.000000 0.000000
v -397.000000 -416.000000 384.000000
v -353.000000 -416.000000 384.000000
v -397.000000 -6.000000 384.000000
v -353.000000 -6.000000 384.000000
v -397.000000 6.000000 0.000000
v -353.000000 6.000000 0.000000
v -397.000000 416.000000 0.000000
v -353.000000 416.000000 0.000000
v -397.000000 6.000000 384.000000
v -353.000000 6.000000 384.000000
v -397.000000 416.000000 384.000000
v -353.000000 416.000000 384.000000
vt -3.970000 -4.160000
vt -3.530000 -4.160000
vt -3.530000 -0.060000
vt -3.970000 -0.060000
vt -3.970000 -4.160000
vt -3.970000 -0.060000
vt -3.530000 -0.060000
vt -3.530000 -4.160000
vt -3.970000 0.000000
vt -3.970000 3.840000
vt -3.530000 3.840000
vt -3.530000 0.000000
vt -3.970000 0.000000
vt -3.530000 0.000000
vt -3.530000 3.840000
vt -3.970000 3.840000
vt -4.160000 0.000000
vt -0.060000 0.000000
vt -0.060000 3.840000
vt -4.160000 3.840000
vt -4.160000 0.000000
vt -4.160000 3.840000
vt -0.060000 3.840000
vt -0.060000 0.000000
vt -3.970000 0.060000
vt -3.530000 0.060000
vt -3.530000 4.160000
vt -3.970000 4.160000
vt -3.970000 0.060000
vt -3.970000 4.160000
vt -3.530000 4.160000
vt -3.530000 0.060000
vt -3.970000 0.000000
vt -3.970000 3.840000
vt -3.530000 3.840000
vt -3.530000 0.000000
vt -3.970000 0.000000
vt -3.530000 0.000000
vt -3.530000 3.840000
vt -3.970000 3.840000
vt 0.060000 0.000000
vt 4.160000 0.000000
vt 4.160000 3.840000
vt 0.060000 3.840000
vt 0.060000 0.000000
vt 0.060000 3.840000
vt 4.160000 3.840000
vt 4.160000 0.000000
usemtl M_WestEndwallLeaf_AluminiumFrame
s 1
f 1/1 2/2 4/3 3/4
f 5/5 7/6 8/7 6/8
f 1/9 5/10 6/11 2/12
f 3/13 4/14 8/15 7/16
usemtl M_WestEndwallLeaf_FrostedGlass
s 1
f 1/17 3/18 7/19 5/20
f 2/21 6/22 8/23 4/24
usemtl M_WestEndwallLeaf_AluminiumFrame
s 1
f 9/25 10/26 12/27 11/28
f 13/29 15/30 16/31 14/32
f 9/33 13/34 14/35 10/36
f 11/37 12/38 16/39 15/40
usemtl M_WestEndwallLeaf_FrostedGlass
s 1
f 9/41 11/42 15/43 13/44
f 10/45 14/46 16/47 12/48
