# Generated by generate_rootstead_west_entry_assets.py
mtllib VD_VaultFootShoe.mtl
o VD_VaultFootShoe
v -90.000000 -94.000000 0.000000
v 90.000000 -94.000000 0.000000
v -90.000000 94.000000 0.000000
v 90.000000 94.000000 0.000000
v -90.000000 -94.000000 12.000000
v 90.000000 -94.000000 12.000000
v -90.000000 94.000000 12.000000
v 90.000000 94.000000 12.000000
v -72.000000 -74.000000 12.000000
v 72.000000 -74.000000 12.000000
v -72.000000 -58.000000 12.000000
v 72.000000 -58.000000 12.000000
v -72.000000 -74.000000 72.000000
v 72.000000 -74.000000 72.000000
v -72.000000 -58.000000 72.000000
v 72.000000 -58.000000 72.000000
v -72.000000 58.000000 12.000000
v 72.000000 58.000000 12.000000
v -72.000000 74.000000 12.000000
v 72.000000 74.000000 12.000000
v -72.000000 58.000000 72.000000
v 72.000000 58.000000 72.000000
v -72.000000 74.000000 72.000000
v 72.000000 74.000000 72.000000
v -72.000000 -58.000000 12.000000
v -56.000000 -58.000000 12.000000
v -72.000000 58.000000 12.000000
v -56.000000 58.000000 12.000000
v -72.000000 -58.000000 72.000000
v -56.000000 -58.000000 72.000000
v -72.000000 58.000000 72.000000
v -56.000000 58.000000 72.000000
v 56.000000 -58.000000 12.000000
v 72.000000 -58.000000 12.000000
v 56.000000 58.000000 12.000000
v 72.000000 58.000000 12.000000
v 56.000000 -58.000000 72.000000
v 72.000000 -58.000000 72.000000
v 56.000000 58.000000 72.000000
v 72.000000 58.000000 72.000000
v -72.000000 -68.000000 12.000000
v -76.702282 -69.527864 12.000000
v -79.608452 -73.527864 12.000000
v -79.608452 -78.472136 12.000000
v -76.702282 -82.472136 12.000000
v -72.000000 -84.000000 12.000000
v -67.297718 -82.472136 12.000000
v -64.391548 -78.472136 12.000000
v -64.391548 -73.527864 12.000000
v -67.297718 -69.527864 12.000000
v -72.000000 -68.000000 25.000000
v -76.702282 -69.527864 25.000000
v -79.608452 -73.527864 25.000000
v -79.608452 -78.472136 25.000000
v -76.702282 -82.472136 25.000000
v -72.000000 -84.000000 25.000000
v -67.297718 -82.472136 25.000000
v -64.391548 -78.472136 25.000000
v -64.391548 -73.527864 25.000000
v -67.297718 -69.527864 25.000000
v -72.000000 -64.000000 25.000000
v -82.392305 -70.000000 25.000000
v -82.392305 -82.000000 25.000000
v -72.000000 -88.000000 25.000000
v -61.607695 -82.000000 25.000000
v -61.607695 -70.000000 25.000000
v -72.000000 -64.000000 30.000000
v -82.392305 -70.000000 30.000000
v -82.392305 -82.000000 30.000000
v -72.000000 -88.000000 30.000000
v -61.607695 -82.000000 30.000000
v -61.607695 -70.000000 30.000000
v -72.000000 84.000000 12.000000
v -76.702282 82.472136 12.000000
v -79.608452 78.472136 12.000000
v -79.608452 73.527864 12.000000
v -76.702282 69.527864 12.000000
v -72.000000 68.000000 12.000000
v -67.297718 69.527864 12.000000
v -64.391548 73.527864 12.000000
v -64.391548 78.472136 12.000000
v -67.297718 82.472136 12.000000
v -72.000000 84.000000 25.000000
v -76.702282 82.472136 25.000000
v -79.608452 78.472136 25.000000
v -79.608452 73.527864 25.000000
v -76.702282 69.527864 25.000000
v -72.000000 68.000000 25.000000
v -67.297718 69.527864 25.000000
v -64.391548 73.527864 25.000000
v -64.391548 78.472136 25.000000
v -67.297718 82.472136 25.000000
v -72.000000 88.000000 25.000000
v -82.392305 82.000000 25.000000
v -82.392305 70.000000 25.000000
v -72.000000 64.000000 25.000000
v -61.607695 70.000000 25.000000
v -61.607695 82.000000 25.000000
v -72.000000 88.000000 30.000000
v -82.392305 82.000000 30.000000
v -82.392305 70.000000 30.000000
v -72.000000 64.000000 30.000000
v -61.607695 70.000000 30.000000
v -61.607695 82.000000 30.000000
v 72.000000 -68.000000 12.000000
v 67.297718 -69.527864 12.000000
v 64.391548 -73.527864 12.000000
v 64.391548 -78.472136 12.000000
v 67.297718 -82.472136 12.000000
v 72.000000 -84.000000 12.000000
v 76.702282 -82.472136 12.000000
v 79.608452 -78.472136 12.000000
v 79.608452 -73.527864 12.000000
v 76.702282 -69.527864 12.000000
v 72.000000 -68.000000 25.000000
v 67.297718 -69.527864 25.000000
v 64.391548 -73.527864 25.000000
v 64.391548 -78.472136 25.000000
v 67.297718 -82.472136 25.000000
v 72.000000 -84.000000 25.000000
v 76.702282 -82.472136 25.000000
v 79.608452 -78.472136 25.000000
v 79.608452 -73.527864 25.000000
v 76.702282 -69.527864 25.000000
v 72.000000 -64.000000 25.000000
v 61.607695 -70.000000 25.000000
v 61.607695 -82.000000 25.000000
v 72.000000 -88.000000 25.000000
v 82.392305 -82.000000 25.000000
v 82.392305 -70.000000 25.000000
v 72.000000 -64.000000 30.000000
v 61.607695 -70.000000 30.000000
v 61.607695 -82.000000 30.000000
v 72.000000 -88.000000 30.000000
v 82.392305 -82.000000 30.000000
v 82.392305 -70.000000 30.000000
v 72.000000 84.000000 12.000000
v 67.297718 82.472136 12.000000
v 64.391548 78.472136 12.000000
v 64.391548 73.527864 12.000000
v 67.297718 69.527864 12.000000
v 72.000000 68.000000 12.000000
v 76.702282 69.527864 12.000000
v 79.608452 73.527864 12.000000
v 79.608452 78.472136 12.000000
v 76.702282 82.472136 12.000000
v 72.000000 84.000000 25.000000
v 67.297718 82.472136 25.000000
v 64.391548 78.472136 25.000000
v 64.391548 73.527864 25.000000
v 67.297718 69.527864 25.000000
v 72.000000 68.000000 25.000000
v 76.702282 69.527864 25.000000
v 79.608452 73.527864 25.000000
v 79.608452 78.472136 25.000000
v 76.702282 82.472136 25.000000
v 72.000000 88.000000 25.000000
v 61.607695 82.000000 25.000000
v 61.607695 70.000000 25.000000
v 72.000000 64.000000 25.000000
v 82.392305 70.000000 25.000000
v 82.392305 82.000000 25.000000
v 72.000000 88.000000 30.000000
v 61.607695 82.000000 30.000000
v 61.607695 70.000000 30.000000
v 72.000000 64.000000 30.000000
v 82.392305 70.000000 30.000000
v 82.392305 82.000000 30.000000
v -91.000000 -62.000000 0.000000
v -90.000000 -62.000000 0.000000
v -91.000000 44.000000 0.000000
v -90.000000 44.000000 0.000000
v -91.000000 -62.000000 28.000000
v -90.000000 -62.000000 28.000000
v -91.000000 44.000000 28.000000
v -90.000000 44.000000 28.000000
v 90.000000 28.000000 0.000000
v 91.000000 28.000000 0.000000
v 90.000000 82.000000 0.000000
v 91.000000 82.000000 0.000000
v 90.000000 28.000000 20.000000
v 91.000000 28.000000 20.000000
v 90.000000 82.000000 20.000000
v 91.000000 82.000000 20.000000
vt -0.900000 -0.940000
vt 0.900000 -0.940000
vt 0.900000 0.940000
vt -0.900000 0.940000
vt -0.900000 -0.940000
vt -0.900000 0.940000
vt 0.900000 0.940000
vt 0.900000 -0.940000
vt -0.900000 0.000000
vt -0.900000 0.120000
vt 0.900000 0.120000
vt 0.900000 0.000000
vt -0.900000 0.000000
vt 0.900000 0.000000
vt 0.900000 0.120000
vt -0.900000 0.120000
vt -0.940000 0.000000
vt 0.940000 0.000000
vt 0.940000 0.120000
vt -0.940000 0.120000
vt -0.940000 0.000000
vt -0.940000 0.120000
vt 0.940000 0.120000
vt 0.940000 0.000000
vt -0.720000 -0.740000
vt 0.720000 -0.740000
vt 0.720000 -0.580000
vt -0.720000 -0.580000
vt -0.720000 -0.740000
vt -0.720000 -0.580000
vt 0.720000 -0.580000
vt 0.720000 -0.740000
vt -0.720000 0.120000
vt -0.720000 0.720000
vt 0.720000 0.720000
vt 0.720000 0.120000
vt -0.720000 0.120000
vt 0.720000 0.120000
vt 0.720000 0.720000
vt -0.720000 0.720000
vt -0.740000 0.120000
vt -0.580000 0.120000
vt -0.580000 0.720000
vt -0.740000 0.720000
vt -0.740000 0.120000
vt -0.740000 0.720000
vt -0.580000 0.720000
vt -0.580000 0.120000
vt -0.720000 0.580000
vt 0.720000 0.580000
vt 0.720000 0.740000
vt -0.720000 0.740000
vt -0.720000 0.580000
vt -0.720000 0.740000
vt 0.720000 0.740000
vt 0.720000 0.580000
vt -0.720000 0.120000
vt -0.720000 0.720000
vt 0.720000 0.720000
vt 0.720000 0.120000
vt -0.720000 0.120000
vt 0.720000 0.120000
vt 0.720000 0.720000
vt -0.720000 0.720000
vt 0.580000 0.120000
vt 0.740000 0.120000
vt 0.740000 0.720000
vt 0.580000 0.720000
vt 0.580000 0.120000
vt 0.580000 0.720000
vt 0.740000 0.720000
vt 0.740000 0.120000
vt -0.720000 -0.580000
vt -0.560000 -0.580000
vt -0.560000 0.580000
vt -0.720000 0.580000
vt -0.720000 -0.580000
vt -0.720000 0.580000
vt -0.560000 0.580000
vt -0.560000 -0.580000
vt -0.720000 0.120000
vt -0.720000 0.720000
vt -0.560000 0.720000
vt -0.560000 0.120000
vt -0.720000 0.120000
vt -0.560000 0.120000
vt -0.560000 0.720000
vt -0.720000 0.720000
vt -0.580000 0.120000
vt 0.580000 0.120000
vt 0.580000 0.720000
vt -0.580000 0.720000
vt -0.580000 0.120000
vt -0.580000 0.720000
vt 0.580000 0.720000
vt 0.580000 0.120000
vt 0.560000 -0.580000
vt 0.720000 -0.580000
vt 0.720000 0.580000
vt 0.560000 0.580000
vt 0.560000 -0.580000
vt 0.560000 0.580000
vt 0.720000 0.580000
vt 0.720000 -0.580000
vt 0.560000 0.120000
vt 0.560000 0.720000
vt 0.720000 0.720000
vt 0.720000 0.120000
vt 0.560000 0.120000
vt 0.720000 0.120000
vt 0.720000 0.720000
vt 0.560000 0.720000
vt -0.580000 0.120000
vt 0.580000 0.120000
vt 0.580000 0.720000
vt -0.580000 0.720000
vt -0.580000 0.120000
vt -0.580000 0.720000
vt 0.580000 0.720000
vt 0.580000 0.120000
vt -0.672977 -0.695279
vt -0.643915 -0.735279
vt -0.643915 -0.784721
vt -0.672977 -0.824721
vt -0.720000 -0.840000
vt -0.767023 -0.824721
vt -0.796085 -0.784721
vt -0.796085 -0.735279
vt -0.767023 -0.695279
vt -0.720000 -0.680000
vt -0.720000 -0.680000
vt -0.767023 -0.695279
vt -0.796085 -0.735279
vt -0.796085 -0.784721
vt -0.767023 -0.824721
vt -0.720000 -0.840000
vt -0.672977 -0.824721
vt -0.643915 -0.784721
vt -0.643915 -0.735279
vt -0.672977 -0.695279
vt -0.720000 0.120000
vt -0.767023 0.120000
vt -0.767023 0.250000
vt -0.720000 0.250000
vt -0.695279 0.120000
vt -0.735279 0.120000
vt -0.735279 0.250000
vt -0.695279 0.250000
vt -0.735279 0.120000
vt -0.784721 0.120000
vt -0.784721 0.250000
vt -0.735279 0.250000
vt -0.784721 0.120000
vt -0.824721 0.120000
vt -0.824721 0.250000
vt -0.784721 0.250000
vt -0.767023 0.120000
vt -0.720000 0.120000
vt -0.720000 0.250000
vt -0.767023 0.250000
vt -0.720000 0.120000
vt -0.672977 0.120000
vt -0.672977 0.250000
vt -0.720000 0.250000
vt -0.824721 0.120000
vt -0.784721 0.120000
vt -0.784721 0.250000
vt -0.824721 0.250000
vt -0.784721 0.120000
vt -0.735279 0.120000
vt -0.735279 0.250000
vt -0.784721 0.250000
vt -0.735279 0.120000
vt -0.695279 0.120000
vt -0.695279 0.250000
vt -0.735279 0.250000
vt -0.672977 0.120000
vt -0.720000 0.120000
vt -0.720000 0.250000
vt -0.672977 0.250000
vt -0.616077 -0.700000
vt -0.616077 -0.820000
vt -0.720000 -0.880000
vt -0.823923 -0.820000
vt -0.823923 -0.700000
vt -0.720000 -0.640000
vt -0.720000 -0.640000
vt -0.823923 -0.700000
vt -0.823923 -0.820000
vt -0.720000 -0.880000
vt -0.616077 -0.820000
vt -0.616077 -0.700000
vt -0.720000 0.250000
vt -0.823923 0.250000
vt -0.823923 0.300000
vt -0.720000 0.300000
vt -0.700000 0.250000
vt -0.820000 0.250000
vt -0.820000 0.300000
vt -0.700000 0.300000
vt -0.823923 0.250000
vt -0.720000 0.250000
vt -0.720000 0.300000
vt -0.823923 0.300000
vt -0.720000 0.250000
vt -0.616077 0.250000
vt -0.616077 0.300000
vt -0.720000 0.300000
vt -0.820000 0.250000
vt -0.700000 0.250000
vt -0.700000 0.300000
vt -0.820000 0.300000
vt -0.616077 0.250000
vt -0.720000 0.250000
vt -0.720000 0.300000
vt -0.616077 0.300000
vt -0.672977 0.824721
vt -0.643915 0.784721
vt -0.643915 0.735279
vt -0.672977 0.695279
vt -0.720000 0.680000
vt -0.767023 0.695279
vt -0.796085 0.735279
vt -0.796085 0.784721
vt -0.767023 0.824721
vt -0.720000 0.840000
vt -0.720000 0.840000
vt -0.767023 0.824721
vt -0.796085 0.784721
vt -0.796085 0.735279
vt -0.767023 0.695279
vt -0.720000 0.680000
vt -0.672977 0.695279
vt -0.643915 0.735279
vt -0.643915 0.784721
vt -0.672977 0.824721
vt -0.720000 0.120000
vt -0.767023 0.120000
vt -0.767023 0.250000
vt -0.720000 0.250000
vt 0.824721 0.120000
vt 0.784721 0.120000
vt 0.784721 0.250000
vt 0.824721 0.250000
vt 0.784721 0.120000
vt 0.735279 0.120000
vt 0.735279 0.250000
vt 0.784721 0.250000
vt 0.735279 0.120000
vt 0.695279 0.120000
vt 0.695279 0.250000
vt 0.735279 0.250000
vt -0.767023 0.120000
vt -0.720000 0.120000
vt -0.720000 0.250000
vt -0.767023 0.250000
vt -0.720000 0.120000
vt -0.672977 0.120000
vt -0.672977 0.250000
vt -0.720000 0.250000
vt 0.695279 0.120000
vt 0.735279 0.120000
vt 0.735279 0.250000
vt 0.695279 0.250000
vt 0.735279 0.120000
vt 0.784721 0.120000
vt 0.784721 0.250000
vt 0.735279 0.250000
vt 0.784721 0.120000
vt 0.824721 0.120000
vt 0.824721 0.250000
vt 0.784721 0.250000
vt -0.672977 0.120000
vt -0.720000 0.120000
vt -0.720000 0.250000
vt -0.672977 0.250000
vt -0.616077 0.820000
vt -0.616077 0.700000
vt -0.720000 0.640000
vt -0.823923 0.700000
vt -0.823923 0.820000
vt -0.720000 0.880000
vt -0.720000 0.880000
vt -0.823923 0.820000
vt -0.823923 0.700000
vt -0.720000 0.640000
vt -0.616077 0.700000
vt -0.616077 0.820000
vt -0.720000 0.250000
vt -0.823923 0.250000
vt -0.823923 0.300000
vt -0.720000 0.300000
vt 0.820000 0.250000
vt 0.700000 0.250000
vt 0.700000 0.300000
vt 0.820000 0.300000
vt -0.823923 0.250000
vt -0.720000 0.250000
vt -0.720000 0.300000
vt -0.823923 0.300000
vt -0.720000 0.250000
vt -0.616077 0.250000
vt -0.616077 0.300000
vt -0.720000 0.300000
vt 0.700000 0.250000
vt 0.820000 0.250000
vt 0.820000 0.300000
vt 0.700000 0.300000
vt -0.616077 0.250000
vt -0.720000 0.250000
vt -0.720000 0.300000
vt -0.616077 0.300000
vt 0.767023 -0.695279
vt 0.796085 -0.735279
vt 0.796085 -0.784721
vt 0.767023 -0.824721
vt 0.720000 -0.840000
vt 0.672977 -0.824721
vt 0.643915 -0.784721
vt 0.643915 -0.735279
vt 0.672977 -0.695279
vt 0.720000 -0.680000
vt 0.720000 -0.680000
vt 0.672977 -0.695279
vt 0.643915 -0.735279
vt 0.643915 -0.784721
vt 0.672977 -0.824721
vt 0.720000 -0.840000
vt 0.767023 -0.824721
vt 0.796085 -0.784721
vt 0.796085 -0.735279
vt 0.767023 -0.695279
vt 0.720000 0.120000
vt 0.672977 0.120000
vt 0.672977 0.250000
vt 0.720000 0.250000
vt -0.695279 0.120000
vt -0.735279 0.120000
vt -0.735279 0.250000
vt -0.695279 0.250000
vt -0.735279 0.120000
vt -0.784721 0.120000
vt -0.784721 0.250000
vt -0.735279 0.250000
vt -0.784721 0.120000
vt -0.824721 0.120000
vt -0.824721 0.250000
vt -0.784721 0.250000
vt 0.672977 0.120000
vt 0.720000 0.120000
vt 0.720000 0.250000
vt 0.672977 0.250000
vt 0.720000 0.120000
vt 0.767023 0.120000
vt 0.767023 0.250000
vt 0.720000 0.250000
vt -0.824721 0.120000
vt -0.784721 0.120000
vt -0.784721 0.250000
vt -0.824721 0.250000
vt -0.784721 0.120000
vt -0.735279 0.120000
vt -0.735279 0.250000
vt -0.784721 0.250000
vt -0.735279 0.120000
vt -0.695279 0.120000
vt -0.695279 0.250000
vt -0.735279 0.250000
vt 0.767023 0.120000
vt 0.720000 0.120000
vt 0.720000 0.250000
vt 0.767023 0.250000
vt 0.823923 -0.700000
vt 0.823923 -0.820000
vt 0.720000 -0.880000
vt 0.616077 -0.820000
vt 0.616077 -0.700000
vt 0.720000 -0.640000
vt 0.720000 -0.640000
vt 0.616077 -0.700000
vt 0.616077 -0.820000
vt 0.720000 -0.880000
vt 0.823923 -0.820000
vt 0.823923 -0.700000
vt 0.720000 0.250000
vt 0.616077 0.250000
vt 0.616077 0.300000
vt 0.720000 0.300000
vt -0.700000 0.250000
vt -0.820000 0.250000
vt -0.820000 0.300000
vt -0.700000 0.300000
vt 0.616077 0.250000
vt 0.720000 0.250000
vt 0.720000 0.300000
vt 0.616077 0.300000
vt 0.720000 0.250000
vt 0.823923 0.250000
vt 0.823923 0.300000
vt 0.720000 0.300000
vt -0.820000 0.250000
vt -0.700000 0.250000
vt -0.700000 0.300000
vt -0.820000 0.300000
vt 0.823923 0.250000
vt 0.720000 0.250000
vt 0.720000 0.300000
vt 0.823923 0.300000
vt 0.767023 0.824721
vt 0.796085 0.784721
vt 0.796085 0.735279
vt 0.767023 0.695279
vt 0.720000 0.680000
vt 0.672977 0.695279
vt 0.643915 0.735279
vt 0.643915 0.784721
vt 0.672977 0.824721
vt 0.720000 0.840000
vt 0.720000 0.840000
vt 0.672977 0.824721
vt 0.643915 0.784721
vt 0.643915 0.735279
vt 0.672977 0.695279
vt 0.720000 0.680000
vt 0.767023 0.695279
vt 0.796085 0.735279
vt 0.796085 0.784721
vt 0.767023 0.824721
vt 0.720000 0.120000
vt 0.672977 0.120000
vt 0.672977 0.250000
vt 0.720000 0.250000
vt 0.824721 0.120000
vt 0.784721 0.120000
vt 0.784721 0.250000
vt 0.824721 0.250000
vt 0.784721 0.120000
vt 0.735279 0.120000
vt 0.735279 0.250000
vt 0.784721 0.250000
vt 0.735279 0.120000
vt 0.695279 0.120000
vt 0.695279 0.250000
vt 0.735279 0.250000
vt 0.672977 0.120000
vt 0.720000 0.120000
vt 0.720000 0.250000
vt 0.672977 0.250000
vt 0.720000 0.120000
vt 0.767023 0.120000
vt 0.767023 0.250000
vt 0.720000 0.250000
vt 0.695279 0.120000
vt 0.735279 0.120000
vt 0.735279 0.250000
vt 0.695279 0.250000
vt 0.735279 0.120000
vt 0.784721 0.120000
vt 0.784721 0.250000
vt 0.735279 0.250000
vt 0.784721 0.120000
vt 0.824721 0.120000
vt 0.824721 0.250000
vt 0.784721 0.250000
vt 0.767023 0.120000
vt 0.720000 0.120000
vt 0.720000 0.250000
vt 0.767023 0.250000
vt 0.823923 0.820000
vt 0.823923 0.700000
vt 0.720000 0.640000
vt 0.616077 0.700000
vt 0.616077 0.820000
vt 0.720000 0.880000
vt 0.720000 0.880000
vt 0.616077 0.820000
vt 0.616077 0.700000
vt 0.720000 0.640000
vt 0.823923 0.700000
vt 0.823923 0.820000
vt 0.720000 0.250000
vt 0.616077 0.250000
vt 0.616077 0.300000
vt 0.720000 0.300000
vt 0.820000 0.250000
vt 0.700000 0.250000
vt 0.700000 0.300000
vt 0.820000 0.300000
vt 0.616077 0.250000
vt 0.720000 0.250000
vt 0.720000 0.300000
vt 0.616077 0.300000
vt 0.720000 0.250000
vt 0.823923 0.250000
vt 0.823923 0.300000
vt 0.720000 0.300000
vt 0.700000 0.250000
vt 0.820000 0.250000
vt 0.820000 0.300000
vt 0.700000 0.300000
vt 0.823923 0.250000
vt 0.720000 0.250000
vt 0.720000 0.300000
vt 0.823923 0.300000
vt -0.910000 -0.620000
vt -0.900000 -0.620000
vt -0.900000 0.440000
vt -0.910000 0.440000
vt -0.910000 -0.620000
vt -0.910000 0.440000
vt -0.900000 0.440000
vt -0.900000 -0.620000
vt -0.910000 0.000000
vt -0.910000 0.280000
vt -0.900000 0.280000
vt -0.900000 0.000000
vt -0.910000 0.000000
vt -0.900000 0.000000
vt -0.900000 0.280000
vt -0.910000 0.280000
vt -0.620000 0.000000
vt 0.440000 0.000000
vt 0.440000 0.280000
vt -0.620000 0.280000
vt -0.620000 0.000000
vt -0.620000 0.280000
vt 0.440000 0.280000
vt 0.440000 0.000000
vt 0.900000 0.280000
vt 0.910000 0.280000
vt 0.910000 0.820000
vt 0.900000 0.820000
vt 0.900000 0.280000
vt 0.900000 0.820000
vt 0.910000 0.820000
vt 0.910000 0.280000
vt 0.900000 0.000000
vt 0.900000 0.200000
vt 0.910000 0.200000
vt 0.910000 0.000000
vt 0.900000 0.000000
vt 0.910000 0.000000
vt 0.910000 0.200000
vt 0.900000 0.200000
vt 0.280000 0.000000
vt 0.820000 0.000000
vt 0.820000 0.200000
vt 0.280000 0.200000
vt 0.280000 0.000000
vt 0.280000 0.200000
vt 0.820000 0.200000
vt 0.820000 0.000000
usemtl M_VaultFootShoe_CastIron
s 1
f 1/1 2/2 4/3 3/4
f 5/5 7/6 8/7 6/8
f 1/9 5/10 6/11 2/12
f 3/13 4/14 8/15 7/16
f 1/17 3/18 7/19 5/20
f 2/21 6/22 8/23 4/24
f 9/25 10/26 12/27 11/28
f 13/29 15/30 16/31 14/32
f 9/33 13/34 14/35 10/36
f 11/37 12/38 16/39 15/40
f 9/41 11/42 15/43 13/44
f 10/45 14/46 16/47 12/48
f 17/49 18/50 20/51 19/52
f 21/53 23/54 24/55 22/56
f 17/57 21/58 22/59 18/60
f 19/61 20/62 24/63 23/64
f 17/65 19/66 23/67 21/68
f 18/69 22/70 24/71 20/72
f 25/73 26/74 28/75 27/76
f 29/77 31/78 32/79 30/80
f 25/81 29/82 30/83 26/84
f 27/85 28/86 32/87 31/88
f 25/89 27/90 31/91 29/92
f 26/93 30/94 32/95 28/96
f 33/97 34/98 36/99 35/100
f 37/101 39/102 40/103 38/104
f 33/105 37/106 38/107 34/108
f 35/109 36/110 40/111 39/112
f 33/113 35/114 39/115 37/116
f 34/117 38/118 40/119 36/120
usemtl M_VaultFootShoe_BoltSteel
s 1
f 50/121 49/122 48/123 47/124 46/125 45/126 44/127 43/128 42/129 41/130
f 51/131 52/132 53/133 54/134 55/135 56/136 57/137 58/138 59/139 60/140
f 41/141 42/142 52/143 51/144
f 42/145 43/146 53/147 52/148
f 43/149 44/150 54/151 53/152
f 44/153 45/154 55/155 54/156
f 45/157 46/158 56/159 55/160
f 46/161 47/162 57/163 56/164
f 47/165 48/166 58/167 57/168
f 48/169 49/170 59/171 58/172
f 49/173 50/174 60/175 59/176
f 50/177 41/178 51/179 60/180
f 66/181 65/182 64/183 63/184 62/185 61/186
f 67/187 68/188 69/189 70/190 71/191 72/192
f 61/193 62/194 68/195 67/196
f 62/197 63/198 69/199 68/200
f 63/201 64/202 70/203 69/204
f 64/205 65/206 71/207 70/208
f 65/209 66/210 72/211 71/212
f 66/213 61/214 67/215 72/216
f 82/217 81/218 80/219 79/220 78/221 77/222 76/223 75/224 74/225 73/226
f 83/227 84/228 85/229 86/230 87/231 88/232 89/233 90/234 91/235 92/236
f 73/237 74/238 84/239 83/240
f 74/241 75/242 85/243 84/244
f 75/245 76/246 86/247 85/248
f 76/249 77/250 87/251 86/252
f 77/253 78/254 88/255 87/256
f 78/257 79/258 89/259 88/260
f 79/261 80/262 90/263 89/264
f 80/265 81/266 91/267 90/268
f 81/269 82/270 92/271 91/272
f 82/273 73/274 83/275 92/276
f 98/277 97/278 96/279 95/280 94/281 93/282
f 99/283 100/284 101/285 102/286 103/287 104/288
f 93/289 94/290 100/291 99/292
f 94/293 95/294 101/295 100/296
f 95/297 96/298 102/299 101/300
f 96/301 97/302 103/303 102/304
f 97/305 98/306 104/307 103/308
f 98/309 93/310 99/311 104/312
f 114/313 113/314 112/315 111/316 110/317 109/318 108/319 107/320 106/321 105/322
f 115/323 116/324 117/325 118/326 119/327 120/328 121/329 122/330 123/331 124/332
f 105/333 106/334 116/335 115/336
f 106/337 107/338 117/339 116/340
f 107/341 108/342 118/343 117/344
f 108/345 109/346 119/347 118/348
f 109/349 110/350 120/351 119/352
f 110/353 111/354 121/355 120/356
f 111/357 112/358 122/359 121/360
f 112/361 113/362 123/363 122/364
f 113/365 114/366 124/367 123/368
f 114/369 105/370 115/371 124/372
f 130/373 129/374 128/375 127/376 126/377 125/378
f 131/379 132/380 133/381 134/382 135/383 136/384
f 125/385 126/386 132/387 131/388
f 126/389 127/390 133/391 132/392
f 127/393 128/394 134/395 133/396
f 128/397 129/398 135/399 134/400
f 129/401 130/402 136/403 135/404
f 130/405 125/406 131/407 136/408
f 146/409 145/410 144/411 143/412 142/413 141/414 140/415 139/416 138/417 137/418
f 147/419 148/420 149/421 150/422 151/423 152/424 153/425 154/426 155/427 156/428
f 137/429 138/430 148/431 147/432
f 138/433 139/434 149/435 148/436
f 139/437 140/438 150/439 149/440
f 140/441 141/442 151/443 150/444
f 141/445 142/446 152/447 151/448
f 142/449 143/450 153/451 152/452
f 143/453 144/454 154/455 153/456
f 144/457 145/458 155/459 154/460
f 145/461 146/462 156/463 155/464
f 146/465 137/466 147/467 156/468
f 162/469 161/470 160/471 159/472 158/473 157/474
f 163/475 164/476 165/477 166/478 167/479 168/480
f 157/481 158/482 164/483 163/484
f 158/485 159/486 165/487 164/488
f 159/489 160/490 166/491 165/492
f 160/493 161/494 167/495 166/496
f 161/497 162/498 168/499 167/500
f 162/501 157/502 163/503 168/504
usemtl M_VaultFootShoe_WaterStain
s 1
f 169/505 170/506 172/507 171/508
f 173/509 175/510 176/511 174/512
f 169/513 173/514 174/515 170/516
f 171/517 172/518 176/519 175/520
f 169/521 171/522 175/523 173/524
f 170/525 174/526 176/527 172/528
f 177/529 178/530 180/531 179/532
f 181/533 183/534 184/535 182/536
f 177/537 181/538 182/539 178/540
f 179/541 180/542 184/543 183/544
f 177/545 179/546 183/547 181/548
f 178/549 182/550 184/551 180/552
