# Generated by scripts/generate_spire_landmark.py
mtllib VD_Spire_Landmark.mtl
o VD_SpireLights
v 635.000000 -25.000000 5980.000000
v 647.500000 -21.650635 5980.000000
v 656.650635 -12.500000 5980.000000
v 660.000000 -0.000000 5980.000000
v 656.650635 12.500000 5980.000000
v 647.500000 21.650635 5980.000000
v 635.000000 25.000000 5980.000000
v 622.500000 21.650635 5980.000000
v 613.349365 12.500000 5980.000000
v 610.000000 0.000000 5980.000000
v 613.349365 -12.500000 5980.000000
v 622.500000 -21.650635 5980.000000
v 635.000000 -25.000000 6020.000000
v 647.500000 -21.650635 6020.000000
v 656.650635 -12.500000 6020.000000
v 660.000000 -0.000000 6020.000000
v 656.650635 12.500000 6020.000000
v 647.500000 21.650635 6020.000000
v 635.000000 25.000000 6020.000000
v 622.500000 21.650635 6020.000000
v 613.349365 12.500000 6020.000000
v 610.000000 0.000000 6020.000000
v 613.349365 -12.500000 6020.000000
v 622.500000 -21.650635 6020.000000
v 0.000000 610.000000 5980.000000
v 12.500000 613.349365 5980.000000
v 21.650635 622.500000 5980.000000
v 25.000000 635.000000 5980.000000
v 21.650635 647.500000 5980.000000
v 12.500000 656.650635 5980.000000
v 0.000000 660.000000 5980.000000
v -12.500000 656.650635 5980.000000
v -21.650635 647.500000 5980.000000
v -25.000000 635.000000 5980.000000
v -21.650635 622.500000 5980.000000
v -12.500000 613.349365 5980.000000
v 0.000000 610.000000 6020.000000
v 12.500000 613.349365 6020.000000
v 21.650635 622.500000 6020.000000
v 25.000000 635.000000 6020.000000
v 21.650635 647.500000 6020.000000
v 12.500000 656.650635 6020.000000
v 0.000000 660.000000 6020.000000
v -12.500000 656.650635 6020.000000
v -21.650635 647.500000 6020.000000
v -25.000000 635.000000 6020.000000
v -21.650635 622.500000 6020.000000
v -12.500000 613.349365 6020.000000
v -635.000000 -25.000000 5980.000000
v -622.500000 -21.650635 5980.000000
v -613.349365 -12.500000 5980.000000
v -610.000000 0.000000 5980.000000
v -613.349365 12.500000 5980.000000
v -622.500000 21.650635 5980.000000
v -635.000000 25.000000 5980.000000
v -647.500000 21.650635 5980.000000
v -656.650635 12.500000 5980.000000
v -660.000000 0.000000 5980.000000
v -656.650635 -12.500000 5980.000000
v -647.500000 -21.650635 5980.000000
v -635.000000 -25.000000 6020.000000
v -622.500000 -21.650635 6020.000000
v -613.349365 -12.500000 6020.000000
v -610.000000 0.000000 6020.000000
v -613.349365 12.500000 6020.000000
v -622.500000 21.650635 6020.000000
v -635.000000 25.000000 6020.000000
v -647.500000 21.650635 6020.000000
v -656.650635 12.500000 6020.000000
v -660.000000 0.000000 6020.000000
v -656.650635 -12.500000 6020.000000
v -647.500000 -21.650635 6020.000000
v -0.000000 -660.000000 5980.000000
v 12.500000 -656.650635 5980.000000
v 21.650635 -647.500000 5980.000000
v 25.000000 -635.000000 5980.000000
v 21.650635 -622.500000 5980.000000
v 12.500000 -613.349365 5980.000000
v -0.000000 -610.000000 5980.000000
v -12.500000 -613.349365 5980.000000
v -21.650635 -622.500000 5980.000000
v -25.000000 -635.000000 5980.000000
v -21.650635 -647.500000 5980.000000
v -12.500000 -656.650635 5980.000000
v -0.000000 -660.000000 6020.000000
v 12.500000 -656.650635 6020.000000
v 21.650635 -647.500000 6020.000000
v 25.000000 -635.000000 6020.000000
v 21.650635 -622.500000 6020.000000
v 12.500000 -613.349365 6020.000000
v -0.000000 -610.000000 6020.000000
v -12.500000 -613.349365 6020.000000
v -21.650635 -622.500000 6020.000000
v -25.000000 -635.000000 6020.000000
v -21.650635 -647.500000 6020.000000
v -12.500000 -656.650635 6020.000000
v 480.000000 -25.000000 11980.000000
v 492.500000 -21.650635 11980.000000
v 501.650635 -12.500000 11980.000000
v 505.000000 -0.000000 11980.000000
v 501.650635 12.500000 11980.000000
v 492.500000 21.650635 11980.000000
v 480.000000 25.000000 11980.000000
v 467.500000 21.650635 11980.000000
v 458.349365 12.500000 11980.000000
v 455.000000 0.000000 11980.000000
v 458.349365 -12.500000 11980.000000
v 467.500000 -21.650635 11980.000000
v 480.000000 -25.000000 12020.000000
v 492.500000 -21.650635 12020.000000
v 501.650635 -12.500000 12020.000000
v 505.000000 -0.000000 12020.000000
v 501.650635 12.500000 12020.000000
v 492.500000 21.650635 12020.000000
v 480.000000 25.000000 12020.000000
v 467.500000 21.650635 12020.000000
v 458.349365 12.500000 12020.000000
v 455.000000 0.000000 12020.000000
v 458.349365 -12.500000 12020.000000
v 467.500000 -21.650635 12020.000000
v 0.000000 455.000000 11980.000000
v 12.500000 458.349365 11980.000000
v 21.650635 467.500000 11980.000000
v 25.000000 480.000000 11980.000000
v 21.650635 492.500000 11980.000000
v 12.500000 501.650635 11980.000000
v 0.000000 505.000000 11980.000000
v -12.500000 501.650635 11980.000000
v -21.650635 492.500000 11980.000000
v -25.000000 480.000000 11980.000000
v -21.650635 467.500000 11980.000000
v -12.500000 458.349365 11980.000000
v 0.000000 455.000000 12020.000000
v 12.500000 458.349365 12020.000000
v 21.650635 467.500000 12020.000000
v 25.000000 480.000000 12020.000000
v 21.650635 492.500000 12020.000000
v 12.500000 501.650635 12020.000000
v 0.000000 505.000000 12020.000000
v -12.500000 501.650635 12020.000000
v -21.650635 492.500000 12020.000000
v -25.000000 480.000000 12020.000000
v -21.650635 467.500000 12020.000000
v -12.500000 458.349365 12020.000000
v -480.000000 -25.000000 11980.000000
v -467.500000 -21.650635 11980.000000
v -458.349365 -12.500000 11980.000000
v -455.000000 0.000000 11980.000000
v -458.349365 12.500000 11980.000000
v -467.500000 21.650635 11980.000000
v -480.000000 25.000000 11980.000000
v -492.500000 21.650635 11980.000000
v -501.650635 12.500000 11980.000000
v -505.000000 0.000000 11980.000000
v -501.650635 -12.500000 11980.000000
v -492.500000 -21.650635 11980.000000
v -480.000000 -25.000000 12020.000000
v -467.500000 -21.650635 12020.000000
v -458.349365 -12.500000 12020.000000
v -455.000000 0.000000 12020.000000
v -458.349365 12.500000 12020.000000
v -467.500000 21.650635 12020.000000
v -480.000000 25.000000 12020.000000
v -492.500000 21.650635 12020.000000
v -501.650635 12.500000 12020.000000
v -505.000000 0.000000 12020.000000
v -501.650635 -12.500000 12020.000000
v -492.500000 -21.650635 12020.000000
v -0.000000 -505.000000 11980.000000
v 12.500000 -501.650635 11980.000000
v 21.650635 -492.500000 11980.000000
v 25.000000 -480.000000 11980.000000
v 21.650635 -467.500000 11980.000000
v 12.500000 -458.349365 11980.000000
v -0.000000 -455.000000 11980.000000
v -12.500000 -458.349365 11980.000000
v -21.650635 -467.500000 11980.000000
v -25.000000 -480.000000 11980.000000
v -21.650635 -492.500000 11980.000000
v -12.500000 -501.650635 11980.000000
v -0.000000 -505.000000 12020.000000
v 12.500000 -501.650635 12020.000000
v 21.650635 -492.500000 12020.000000
v 25.000000 -480.000000 12020.000000
v 21.650635 -467.500000 12020.000000
v 12.500000 -458.349365 12020.000000
v -0.000000 -455.000000 12020.000000
v -12.500000 -458.349365 12020.000000
v -21.650635 -467.500000 12020.000000
v -25.000000 -480.000000 12020.000000
v -21.650635 -492.500000 12020.000000
v -12.500000 -501.650635 12020.000000
v 335.000000 -25.000000 17730.000000
v 347.500000 -21.650635 17730.000000
v 356.650635 -12.500000 17730.000000
v 360.000000 -0.000000 17730.000000
v 356.650635 12.500000 17730.000000
v 347.500000 21.650635 17730.000000
v 335.000000 25.000000 17730.000000
v 322.500000 21.650635 17730.000000
v 313.349365 12.500000 17730.000000
v 310.000000 0.000000 17730.000000
v 313.349365 -12.500000 17730.000000
v 322.500000 -21.650635 17730.000000
v 335.000000 -25.000000 17770.000000
v 347.500000 -21.650635 17770.000000
v 356.650635 -12.500000 17770.000000
v 360.000000 -0.000000 17770.000000
v 356.650635 12.500000 17770.000000
v 347.500000 21.650635 17770.000000
v 335.000000 25.000000 17770.000000
v 322.500000 21.650635 17770.000000
v 313.349365 12.500000 17770.000000
v 310.000000 0.000000 17770.000000
v 313.349365 -12.500000 17770.000000
v 322.500000 -21.650635 17770.000000
v 0.000000 310.000000 17730.000000
v 12.500000 313.349365 17730.000000
v 21.650635 322.500000 17730.000000
v 25.000000 335.000000 17730.000000
v 21.650635 347.500000 17730.000000
v 12.500000 356.650635 17730.000000
v 0.000000 360.000000 17730.000000
v -12.500000 356.650635 17730.000000
v -21.650635 347.500000 17730.000000
v -25.000000 335.000000 17730.000000
v -21.650635 322.500000 17730.000000
v -12.500000 313.349365 17730.000000
v 0.000000 310.000000 17770.000000
v 12.500000 313.349365 17770.000000
v 21.650635 322.500000 17770.000000
v 25.000000 335.000000 17770.000000
v 21.650635 347.500000 17770.000000
v 12.500000 356.650635 17770.000000
v 0.000000 360.000000 17770.000000
v -12.500000 356.650635 17770.000000
v -21.650635 347.500000 17770.000000
v -25.000000 335.000000 17770.000000
v -21.650635 322.500000 17770.000000
v -12.500000 313.349365 17770.000000
v -335.000000 -25.000000 17730.000000
v -322.500000 -21.650635 17730.000000
v -313.349365 -12.500000 17730.000000
v -310.000000 0.000000 17730.000000
v -313.349365 12.500000 17730.000000
v -322.500000 21.650635 17730.000000
v -335.000000 25.000000 17730.000000
v -347.500000 21.650635 17730.000000
v -356.650635 12.500000 17730.000000
v -360.000000 0.000000 17730.000000
v -356.650635 -12.500000 17730.000000
v -347.500000 -21.650635 17730.000000
v -335.000000 -25.000000 17770.000000
v -322.500000 -21.650635 17770.000000
v -313.349365 -12.500000 17770.000000
v -310.000000 0.000000 17770.000000
v -313.349365 12.500000 17770.000000
v -322.500000 21.650635 17770.000000
v -335.000000 25.000000 17770.000000
v -347.500000 21.650635 17770.000000
v -356.650635 12.500000 17770.000000
v -360.000000 0.000000 17770.000000
v -356.650635 -12.500000 17770.000000
v -347.500000 -21.650635 17770.000000
v -0.000000 -360.000000 17730.000000
v 12.500000 -356.650635 17730.000000
v 21.650635 -347.500000 17730.000000
v 25.000000 -335.000000 17730.000000
v 21.650635 -322.500000 17730.000000
v 12.500000 -313.349365 17730.000000
v -0.000000 -310.000000 17730.000000
v -12.500000 -313.349365 17730.000000
v -21.650635 -322.500000 17730.000000
v -25.000000 -335.000000 17730.000000
v -21.650635 -347.500000 17730.000000
v -12.500000 -356.650635 17730.000000
v -0.000000 -360.000000 17770.000000
v 12.500000 -356.650635 17770.000000
v 21.650635 -347.500000 17770.000000
v 25.000000 -335.000000 17770.000000
v 21.650635 -322.500000 17770.000000
v 12.500000 -313.349365 17770.000000
v -0.000000 -310.000000 17770.000000
v -12.500000 -313.349365 17770.000000
v -21.650635 -322.500000 17770.000000
v -25.000000 -335.000000 17770.000000
v -21.650635 -347.500000 17770.000000
v -12.500000 -356.650635 17770.000000
vt 6.350000 59.800000
vt 6.475000 59.800000
vt 6.475000 60.200000
vt 6.350000 60.200000
vt -0.216506 59.800000
vt -0.125000 59.800000
vt -0.125000 60.200000
vt -0.216506 60.200000
vt -0.125000 59.800000
vt -0.000000 59.800000
vt -0.000000 60.200000
vt -0.125000 60.200000
vt -0.000000 59.800000
vt 0.125000 59.800000
vt 0.125000 60.200000
vt -0.000000 60.200000
vt 0.125000 59.800000
vt 0.216506 59.800000
vt 0.216506 60.200000
vt 0.125000 60.200000
vt 6.475000 59.800000
vt 6.350000 59.800000
vt 6.350000 60.200000
vt 6.475000 60.200000
vt 6.350000 59.800000
vt 6.225000 59.800000
vt 6.225000 60.200000
vt 6.350000 60.200000
vt 0.216506 59.800000
vt 0.125000 59.800000
vt 0.125000 60.200000
vt 0.216506 60.200000
vt 0.125000 59.800000
vt 0.000000 59.800000
vt 0.000000 60.200000
vt 0.125000 60.200000
vt 0.000000 59.800000
vt -0.125000 59.800000
vt -0.125000 60.200000
vt 0.000000 60.200000
vt -0.125000 59.800000
vt -0.216506 59.800000
vt -0.216506 60.200000
vt -0.125000 60.200000
vt 6.225000 59.800000
vt 6.350000 59.800000
vt 6.350000 60.200000
vt 6.225000 60.200000
vt 6.225000 -0.216506
vt 6.133494 -0.125000
vt 6.100000 0.000000
vt 6.133494 0.125000
vt 6.225000 0.216506
vt 6.350000 0.250000
vt 6.475000 0.216506
vt 6.566506 0.125000
vt 6.600000 -0.000000
vt 6.566506 -0.125000
vt 6.475000 -0.216506
vt 6.350000 -0.250000
vt 6.350000 -0.250000
vt 6.475000 -0.216506
vt 6.566506 -0.125000
vt 6.600000 -0.000000
vt 6.566506 0.125000
vt 6.475000 0.216506
vt 6.350000 0.250000
vt 6.225000 0.216506
vt 6.133494 0.125000
vt 6.100000 0.000000
vt 6.133494 -0.125000
vt 6.225000 -0.216506
vt 0.000000 59.800000
vt 0.125000 59.800000
vt 0.125000 60.200000
vt 0.000000 60.200000
vt 0.125000 59.800000
vt 0.216506 59.800000
vt 0.216506 60.200000
vt 0.125000 60.200000
vt 6.225000 59.800000
vt 6.350000 59.800000
vt 6.350000 60.200000
vt 6.225000 60.200000
vt 6.350000 59.800000
vt 6.475000 59.800000
vt 6.475000 60.200000
vt 6.350000 60.200000
vt 0.216506 59.800000
vt 0.125000 59.800000
vt 0.125000 60.200000
vt 0.216506 60.200000
vt 0.125000 59.800000
vt 0.000000 59.800000
vt 0.000000 60.200000
vt 0.125000 60.200000
vt 0.000000 59.800000
vt -0.125000 59.800000
vt -0.125000 60.200000
vt 0.000000 60.200000
vt -0.125000 59.800000
vt -0.216506 59.800000
vt -0.216506 60.200000
vt -0.125000 60.200000
vt 6.475000 59.800000
vt 6.350000 59.800000
vt 6.350000 60.200000
vt 6.475000 60.200000
vt 6.350000 59.800000
vt 6.225000 59.800000
vt 6.225000 60.200000
vt 6.350000 60.200000
vt -0.216506 59.800000
vt -0.125000 59.800000
vt -0.125000 60.200000
vt -0.216506 60.200000
vt -0.125000 59.800000
vt 0.000000 59.800000
vt 0.000000 60.200000
vt -0.125000 60.200000
vt -0.125000 6.133494
vt -0.216506 6.225000
vt -0.250000 6.350000
vt -0.216506 6.475000
vt -0.125000 6.566506
vt 0.000000 6.600000
vt 0.125000 6.566506
vt 0.216506 6.475000
vt 0.250000 6.350000
vt 0.216506 6.225000
vt 0.125000 6.133494
vt 0.000000 6.100000
vt 0.000000 6.100000
vt 0.125000 6.133494
vt 0.216506 6.225000
vt 0.250000 6.350000
vt 0.216506 6.475000
vt 0.125000 6.566506
vt 0.000000 6.600000
vt -0.125000 6.566506
vt -0.216506 6.475000
vt -0.250000 6.350000
vt -0.216506 6.225000
vt -0.125000 6.133494
vt -6.350000 59.800000
vt -6.225000 59.800000
vt -6.225000 60.200000
vt -6.350000 60.200000
vt -0.216506 59.800000
vt -0.125000 59.800000
vt -0.125000 60.200000
vt -0.216506 60.200000
vt -0.125000 59.800000
vt 0.000000 59.800000
vt 0.000000 60.200000
vt -0.125000 60.200000
vt 0.000000 59.800000
vt 0.125000 59.800000
vt 0.125000 60.200000
vt 0.000000 60.200000
vt 0.125000 59.800000
vt 0.216506 59.800000
vt 0.216506 60.200000
vt 0.125000 60.200000
vt -6.225000 59.800000
vt -6.350000 59.800000
vt -6.350000 60.200000
vt -6.225000 60.200000
vt -6.350000 59.800000
vt -6.475000 59.800000
vt -6.475000 60.200000
vt -6.350000 60.200000
vt 0.216506 59.800000
vt 0.125000 59.800000
vt 0.125000 60.200000
vt 0.216506 60.200000
vt 0.125000 59.800000
vt 0.000000 59.800000
vt 0.000000 60.200000
vt 0.125000 60.200000
vt 0.000000 59.800000
vt -0.125000 59.800000
vt -0.125000 60.200000
vt 0.000000 60.200000
vt -0.125000 59.800000
vt -0.216506 59.800000
vt -0.216506 60.200000
vt -0.125000 60.200000
vt -6.475000 59.800000
vt -6.350000 59.800000
vt -6.350000 60.200000
vt -6.475000 60.200000
vt -6.475000 -0.216506
vt -6.566506 -0.125000
vt -6.600000 0.000000
vt -6.566506 0.125000
vt -6.475000 0.216506
vt -6.350000 0.250000
vt -6.225000 0.216506
vt -6.133494 0.125000
vt -6.100000 0.000000
vt -6.133494 -0.125000
vt -6.225000 -0.216506
vt -6.350000 -0.250000
vt -6.350000 -0.250000
vt -6.225000 -0.216506
vt -6.133494 -0.125000
vt -6.100000 0.000000
vt -6.133494 0.125000
vt -6.225000 0.216506
vt -6.350000 0.250000
vt -6.475000 0.216506
vt -6.566506 0.125000
vt -6.600000 0.000000
vt -6.566506 -0.125000
vt -6.475000 -0.216506
vt -0.000000 59.800000
vt 0.125000 59.800000
vt 0.125000 60.200000
vt -0.000000 60.200000
vt 0.125000 59.800000
vt 0.216506 59.800000
vt 0.216506 60.200000
vt 0.125000 60.200000
vt -6.475000 59.800000
vt -6.350000 59.800000
vt -6.350000 60.200000
vt -6.475000 60.200000
vt -6.350000 59.800000
vt -6.225000 59.800000
vt -6.225000 60.200000
vt -6.350000 60.200000
vt 0.216506 59.800000
vt 0.125000 59.800000
vt 0.125000 60.200000
vt 0.216506 60.200000
vt 0.125000 59.800000
vt -0.000000 59.800000
vt -0.000000 60.200000
vt 0.125000 60.200000
vt -0.000000 59.800000
vt -0.125000 59.800000
vt -0.125000 60.200000
vt -0.000000 60.200000
vt -0.125000 59.800000
vt -0.216506 59.800000
vt -0.216506 60.200000
vt -0.125000 60.200000
vt -6.225000 59.800000
vt -6.350000 59.800000
vt -6.350000 60.200000
vt -6.225000 60.200000
vt -6.350000 59.800000
vt -6.475000 59.800000
vt -6.475000 60.200000
vt -6.350000 60.200000
vt -0.216506 59.800000
vt -0.125000 59.800000
vt -0.125000 60.200000
vt -0.216506 60.200000
vt -0.125000 59.800000
vt -0.000000 59.800000
vt -0.000000 60.200000
vt -0.125000 60.200000
vt -0.125000 -6.566506
vt -0.216506 -6.475000
vt -0.250000 -6.350000
vt -0.216506 -6.225000
vt -0.125000 -6.133494
vt -0.000000 -6.100000
vt 0.125000 -6.133494
vt 0.216506 -6.225000
vt 0.250000 -6.350000
vt 0.216506 -6.475000
vt 0.125000 -6.566506
vt -0.000000 -6.600000
vt -0.000000 -6.600000
vt 0.125000 -6.566506
vt 0.216506 -6.475000
vt 0.250000 -6.350000
vt 0.216506 -6.225000
vt 0.125000 -6.133494
vt -0.000000 -6.100000
vt -0.125000 -6.133494
vt -0.216506 -6.225000
vt -0.250000 -6.350000
vt -0.216506 -6.475000
vt -0.125000 -6.566506
vt 4.800000 119.800000
vt 4.925000 119.800000
vt 4.925000 120.200000
vt 4.800000 120.200000
vt -0.216506 119.800000
vt -0.125000 119.800000
vt -0.125000 120.200000
vt -0.216506 120.200000
vt -0.125000 119.800000
vt -0.000000 119.800000
vt -0.000000 120.200000
vt -0.125000 120.200000
vt -0.000000 119.800000
vt 0.125000 119.800000
vt 0.125000 120.200000
vt -0.000000 120.200000
vt 0.125000 119.800000
vt 0.216506 119.800000
vt 0.216506 120.200000
vt 0.125000 120.200000
vt 4.925000 119.800000
vt 4.800000 119.800000
vt 4.800000 120.200000
vt 4.925000 120.200000
vt 4.800000 119.800000
vt 4.675000 119.800000
vt 4.675000 120.200000
vt 4.800000 120.200000
vt 0.216506 119.800000
vt 0.125000 119.800000
vt 0.125000 120.200000
vt 0.216506 120.200000
vt 0.125000 119.800000
vt 0.000000 119.800000
vt 0.000000 120.200000
vt 0.125000 120.200000
vt 0.000000 119.800000
vt -0.125000 119.800000
vt -0.125000 120.200000
vt 0.000000 120.200000
vt -0.125000 119.800000
vt -0.216506 119.800000
vt -0.216506 120.200000
vt -0.125000 120.200000
vt 4.675000 119.800000
vt 4.800000 119.800000
vt 4.800000 120.200000
vt 4.675000 120.200000
vt 4.675000 -0.216506
vt 4.583494 -0.125000
vt 4.550000 0.000000
vt 4.583494 0.125000
vt 4.675000 0.216506
vt 4.800000 0.250000
vt 4.925000 0.216506
vt 5.016506 0.125000
vt 5.050000 -0.000000
vt 5.016506 -0.125000
vt 4.925000 -0.216506
vt 4.800000 -0.250000
vt 4.800000 -0.250000
vt 4.925000 -0.216506
vt 5.016506 -0.125000
vt 5.050000 -0.000000
vt 5.016506 0.125000
vt 4.925000 0.216506
vt 4.800000 0.250000
vt 4.675000 0.216506
vt 4.583494 0.125000
vt 4.550000 0.000000
vt 4.583494 -0.125000
vt 4.675000 -0.216506
vt 0.000000 119.800000
vt 0.125000 119.800000
vt 0.125000 120.200000
vt 0.000000 120.200000
vt 4.583494 119.800000
vt 4.675000 119.800000
vt 4.675000 120.200000
vt 4.583494 120.200000
vt 4.675000 119.800000
vt 4.800000 119.800000
vt 4.800000 120.200000
vt 4.675000 120.200000
vt 4.800000 119.800000
vt 4.925000 119.800000
vt 4.925000 120.200000
vt 4.800000 120.200000
vt 4.925000 119.800000
vt 5.016506 119.800000
vt 5.016506 120.200000
vt 4.925000 120.200000
vt 0.125000 119.800000
vt 0.000000 119.800000
vt 0.000000 120.200000
vt 0.125000 120.200000
vt 0.000000 119.800000
vt -0.125000 119.800000
vt -0.125000 120.200000
vt 0.000000 120.200000
vt 5.016506 119.800000
vt 4.925000 119.800000
vt 4.925000 120.200000
vt 5.016506 120.200000
vt 4.925000 119.800000
vt 4.800000 119.800000
vt 4.800000 120.200000
vt 4.925000 120.200000
vt 4.800000 119.800000
vt 4.675000 119.800000
vt 4.675000 120.200000
vt 4.800000 120.200000
vt 4.675000 119.800000
vt 4.583494 119.800000
vt 4.583494 120.200000
vt 4.675000 120.200000
vt -0.125000 119.800000
vt 0.000000 119.800000
vt 0.000000 120.200000
vt -0.125000 120.200000
vt -0.125000 4.583494
vt -0.216506 4.675000
vt -0.250000 4.800000
vt -0.216506 4.925000
vt -0.125000 5.016506
vt 0.000000 5.050000
vt 0.125000 5.016506
vt 0.216506 4.925000
vt 0.250000 4.800000
vt 0.216506 4.675000
vt 0.125000 4.583494
vt 0.000000 4.550000
vt 0.000000 4.550000
vt 0.125000 4.583494
vt 0.216506 4.675000
vt 0.250000 4.800000
vt 0.216506 4.925000
vt 0.125000 5.016506
vt 0.000000 5.050000
vt -0.125000 5.016506
vt -0.216506 4.925000
vt -0.250000 4.800000
vt -0.216506 4.675000
vt -0.125000 4.583494
vt -4.800000 119.800000
vt -4.675000 119.800000
vt -4.675000 120.200000
vt -4.800000 120.200000
vt -4.675000 119.800000
vt -4.583494 119.800000
vt -4.583494 120.200000
vt -4.675000 120.200000
vt -0.125000 119.800000
vt 0.000000 119.800000
vt 0.000000 120.200000
vt -0.125000 120.200000
vt 0.000000 119.800000
vt 0.125000 119.800000
vt 0.125000 120.200000
vt 0.000000 120.200000
vt 0.125000 119.800000
vt 0.216506 119.800000
vt 0.216506 120.200000
vt 0.125000 120.200000
vt -4.675000 119.800000
vt -4.800000 119.800000
vt -4.800000 120.200000
vt -4.675000 120.200000
vt -4.800000 119.800000
vt -4.925000 119.800000
vt -4.925000 120.200000
vt -4.800000 120.200000
vt -4.925000 119.800000
vt -5.016506 119.800000
vt -5.016506 120.200000
vt -4.925000 120.200000
vt 0.125000 119.800000
vt 0.000000 119.800000
vt 0.000000 120.200000
vt 0.125000 120.200000
vt 0.000000 119.800000
vt -0.125000 119.800000
vt -0.125000 120.200000
vt 0.000000 120.200000
vt -5.016506 119.800000
vt -4.925000 119.800000
vt -4.925000 120.200000
vt -5.016506 120.200000
vt -4.925000 119.800000
vt -4.800000 119.800000
vt -4.800000 120.200000
vt -4.925000 120.200000
vt -4.925000 -0.216506
vt -5.016506 -0.125000
vt -5.050000 0.000000
vt -5.016506 0.125000
vt -4.925000 0.216506
vt -4.800000 0.250000
vt -4.675000 0.216506
vt -4.583494 0.125000
vt -4.550000 0.000000
vt -4.583494 -0.125000
vt -4.675000 -0.216506
vt -4.800000 -0.250000
vt -4.800000 -0.250000
vt -4.675000 -0.216506
vt -4.583494 -0.125000
vt -4.550000 0.000000
vt -4.583494 0.125000
vt -4.675000 0.216506
vt -4.800000 0.250000
vt -4.925000 0.216506
vt -5.016506 0.125000
vt -5.050000 0.000000
vt -5.016506 -0.125000
vt -4.925000 -0.216506
vt -0.000000 119.800000
vt 0.125000 119.800000
vt 0.125000 120.200000
vt -0.000000 120.200000
vt -5.016506 119.800000
vt -4.925000 119.800000
vt -4.925000 120.200000
vt -5.016506 120.200000
vt -4.925000 119.800000
vt -4.800000 119.800000
vt -4.800000 120.200000
vt -4.925000 120.200000
vt -4.800000 119.800000
vt -4.675000 119.800000
vt -4.675000 120.200000
vt -4.800000 120.200000
vt -4.675000 119.800000
vt -4.583494 119.800000
vt -4.583494 120.200000
vt -4.675000 120.200000
vt 0.125000 119.800000
vt -0.000000 119.800000
vt -0.000000 120.200000
vt 0.125000 120.200000
vt -0.000000 119.800000
vt -0.125000 119.800000
vt -0.125000 120.200000
vt -0.000000 120.200000
vt -4.583494 119.800000
vt -4.675000 119.800000
vt -4.675000 120.200000
vt -4.583494 120.200000
vt -4.675000 119.800000
vt -4.800000 119.800000
vt -4.800000 120.200000
vt -4.675000 120.200000
vt -4.800000 119.800000
vt -4.925000 119.800000
vt -4.925000 120.200000
vt -4.800000 120.200000
vt -4.925000 119.800000
vt -5.016506 119.800000
vt -5.016506 120.200000
vt -4.925000 120.200000
vt -0.125000 119.800000
vt -0.000000 119.800000
vt -0.000000 120.200000
vt -0.125000 120.200000
vt -0.125000 -5.016506
vt -0.216506 -4.925000
vt -0.250000 -4.800000
vt -0.216506 -4.675000
vt -0.125000 -4.583494
vt -0.000000 -4.550000
vt 0.125000 -4.583494
vt 0.216506 -4.675000
vt 0.250000 -4.800000
vt 0.216506 -4.925000
vt 0.125000 -5.016506
vt -0.000000 -5.050000
vt -0.000000 -5.050000
vt 0.125000 -5.016506
vt 0.216506 -4.925000
vt 0.250000 -4.800000
vt 0.216506 -4.675000
vt 0.125000 -4.583494
vt -0.000000 -4.550000
vt -0.125000 -4.583494
vt -0.216506 -4.675000
vt -0.250000 -4.800000
vt -0.216506 -4.925000
vt -0.125000 -5.016506
vt 3.350000 177.300000
vt 3.475000 177.300000
vt 3.475000 177.700000
vt 3.350000 177.700000
vt -0.216506 177.300000
vt -0.125000 177.300000
vt -0.125000 177.700000
vt -0.216506 177.700000
vt -0.125000 177.300000
vt -0.000000 177.300000
vt -0.000000 177.700000
vt -0.125000 177.700000
vt -0.000000 177.300000
vt 0.125000 177.300000
vt 0.125000 177.700000
vt -0.000000 177.700000
vt 0.125000 177.300000
vt 0.216506 177.300000
vt 0.216506 177.700000
vt 0.125000 177.700000
vt 3.475000 177.300000
vt 3.350000 177.300000
vt 3.350000 177.700000
vt 3.475000 177.700000
vt 3.350000 177.300000
vt 3.225000 177.300000
vt 3.225000 177.700000
vt 3.350000 177.700000
vt 0.216506 177.300000
vt 0.125000 177.300000
vt 0.125000 177.700000
vt 0.216506 177.700000
vt 0.125000 177.300000
vt 0.000000 177.300000
vt 0.000000 177.700000
vt 0.125000 177.700000
vt 0.000000 177.300000
vt -0.125000 177.300000
vt -0.125000 177.700000
vt 0.000000 177.700000
vt -0.125000 177.300000
vt -0.216506 177.300000
vt -0.216506 177.700000
vt -0.125000 177.700000
vt 3.225000 177.300000
vt 3.350000 177.300000
vt 3.350000 177.700000
vt 3.225000 177.700000
vt 3.225000 -0.216506
vt 3.133494 -0.125000
vt 3.100000 0.000000
vt 3.133494 0.125000
vt 3.225000 0.216506
vt 3.350000 0.250000
vt 3.475000 0.216506
vt 3.566506 0.125000
vt 3.600000 -0.000000
vt 3.566506 -0.125000
vt 3.475000 -0.216506
vt 3.350000 -0.250000
vt 3.350000 -0.250000
vt 3.475000 -0.216506
vt 3.566506 -0.125000
vt 3.600000 -0.000000
vt 3.566506 0.125000
vt 3.475000 0.216506
vt 3.350000 0.250000
vt 3.225000 0.216506
vt 3.133494 0.125000
vt 3.100000 0.000000
vt 3.133494 -0.125000
vt 3.225000 -0.216506
vt 0.000000 177.300000
vt 0.125000 177.300000
vt 0.125000 177.700000
vt 0.000000 177.700000
vt 3.133494 177.300000
vt 3.225000 177.300000
vt 3.225000 177.700000
vt 3.133494 177.700000
vt 3.225000 177.300000
vt 3.350000 177.300000
vt 3.350000 177.700000
vt 3.225000 177.700000
vt 3.350000 177.300000
vt 3.475000 177.300000
vt 3.475000 177.700000
vt 3.350000 177.700000
vt 3.475000 177.300000
vt 3.566506 177.300000
vt 3.566506 177.700000
vt 3.475000 177.700000
vt 0.125000 177.300000
vt 0.000000 177.300000
vt 0.000000 177.700000
vt 0.125000 177.700000
vt 0.000000 177.300000
vt -0.125000 177.300000
vt -0.125000 177.700000
vt 0.000000 177.700000
vt 3.566506 177.300000
vt 3.475000 177.300000
vt 3.475000 177.700000
vt 3.566506 177.700000
vt 3.475000 177.300000
vt 3.350000 177.300000
vt 3.350000 177.700000
vt 3.475000 177.700000
vt 3.350000 177.300000
vt 3.225000 177.300000
vt 3.225000 177.700000
vt 3.350000 177.700000
vt 3.225000 177.300000
vt 3.133494 177.300000
vt 3.133494 177.700000
vt 3.225000 177.700000
vt -0.125000 177.300000
vt 0.000000 177.300000
vt 0.000000 177.700000
vt -0.125000 177.700000
vt -0.125000 3.133494
vt -0.216506 3.225000
vt -0.250000 3.350000
vt -0.216506 3.475000
vt -0.125000 3.566506
vt 0.000000 3.600000
vt 0.125000 3.566506
vt 0.216506 3.475000
vt 0.250000 3.350000
vt 0.216506 3.225000
vt 0.125000 3.133494
vt 0.000000 3.100000
vt 0.000000 3.100000
vt 0.125000 3.133494
vt 0.216506 3.225000
vt 0.250000 3.350000
vt 0.216506 3.475000
vt 0.125000 3.566506
vt 0.000000 3.600000
vt -0.125000 3.566506
vt -0.216506 3.475000
vt -0.250000 3.350000
vt -0.216506 3.225000
vt -0.125000 3.133494
vt -3.350000 177.300000
vt -3.225000 177.300000
vt -3.225000 177.700000
vt -3.350000 177.700000
vt -0.216506 177.300000
vt -0.125000 177.300000
vt -0.125000 177.700000
vt -0.216506 177.700000
vt -0.125000 177.300000
vt 0.000000 177.300000
vt 0.000000 177.700000
vt -0.125000 177.700000
vt 0.000000 177.300000
vt 0.125000 177.300000
vt 0.125000 177.700000
vt 0.000000 177.700000
vt 0.125000 177.300000
vt 0.216506 177.300000
vt 0.216506 177.700000
vt 0.125000 177.700000
vt -3.225000 177.300000
vt -3.350000 177.300000
vt -3.350000 177.700000
vt -3.225000 177.700000
vt -3.350000 177.300000
vt -3.475000 177.300000
vt -3.475000 177.700000
vt -3.350000 177.700000
vt 0.216506 177.300000
vt 0.125000 177.300000
vt 0.125000 177.700000
vt 0.216506 177.700000
vt 0.125000 177.300000
vt 0.000000 177.300000
vt 0.000000 177.700000
vt 0.125000 177.700000
vt 0.000000 177.300000
vt -0.125000 177.300000
vt -0.125000 177.700000
vt 0.000000 177.700000
vt -0.125000 177.300000
vt -0.216506 177.300000
vt -0.216506 177.700000
vt -0.125000 177.700000
vt -3.475000 177.300000
vt -3.350000 177.300000
vt -3.350000 177.700000
vt -3.475000 177.700000
vt -3.475000 -0.216506
vt -3.566506 -0.125000
vt -3.600000 0.000000
vt -3.566506 0.125000
vt -3.475000 0.216506
vt -3.350000 0.250000
vt -3.225000 0.216506
vt -3.133494 0.125000
vt -3.100000 0.000000
vt -3.133494 -0.125000
vt -3.225000 -0.216506
vt -3.350000 -0.250000
vt -3.350000 -0.250000
vt -3.225000 -0.216506
vt -3.133494 -0.125000
vt -3.100000 0.000000
vt -3.133494 0.125000
vt -3.225000 0.216506
vt -3.350000 0.250000
vt -3.475000 0.216506
vt -3.566506 0.125000
vt -3.600000 0.000000
vt -3.566506 -0.125000
vt -3.475000 -0.216506
vt -0.000000 177.300000
vt 0.125000 177.300000
vt 0.125000 177.700000
vt -0.000000 177.700000
vt -3.566506 177.300000
vt -3.475000 177.300000
vt -3.475000 177.700000
vt -3.566506 177.700000
vt -3.475000 177.300000
vt -3.350000 177.300000
vt -3.350000 177.700000
vt -3.475000 177.700000
vt -3.350000 177.300000
vt -3.225000 177.300000
vt -3.225000 177.700000
vt -3.350000 177.700000
vt -3.225000 177.300000
vt -3.133494 177.300000
vt -3.133494 177.700000
vt -3.225000 177.700000
vt 0.125000 177.300000
vt -0.000000 177.300000
vt -0.000000 177.700000
vt 0.125000 177.700000
vt -0.000000 177.300000
vt -0.125000 177.300000
vt -0.125000 177.700000
vt -0.000000 177.700000
vt -3.133494 177.300000
vt -3.225000 177.300000
vt -3.225000 177.700000
vt -3.133494 177.700000
vt -3.225000 177.300000
vt -3.350000 177.300000
vt -3.350000 177.700000
vt -3.225000 177.700000
vt -3.350000 177.300000
vt -3.475000 177.300000
vt -3.475000 177.700000
vt -3.350000 177.700000
vt -3.475000 177.300000
vt -3.566506 177.300000
vt -3.566506 177.700000
vt -3.475000 177.700000
vt -0.125000 177.300000
vt -0.000000 177.300000
vt -0.000000 177.700000
vt -0.125000 177.700000
vt -0.125000 -3.566506
vt -0.216506 -3.475000
vt -0.250000 -3.350000
vt -0.216506 -3.225000
vt -0.125000 -3.133494
vt -0.000000 -3.100000
vt 0.125000 -3.133494
vt 0.216506 -3.225000
vt 0.250000 -3.350000
vt 0.216506 -3.475000
vt 0.125000 -3.566506
vt -0.000000 -3.600000
vt -0.000000 -3.600000
vt 0.125000 -3.566506
vt 0.216506 -3.475000
vt 0.250000 -3.350000
vt 0.216506 -3.225000
vt 0.125000 -3.133494
vt -0.000000 -3.100000
vt -0.125000 -3.133494
vt -0.216506 -3.225000
vt -0.250000 -3.350000
vt -0.216506 -3.475000
vt -0.125000 -3.566506
usemtl M_Spire_WarningLens
s 1
f 1/1 2/2 14/3 13/4
f 2/5 3/6 15/7 14/8
f 3/9 4/10 16/11 15/12
f 4/13 5/14 17/15 16/16
f 5/17 6/18 18/19 17/20
f 6/21 7/22 19/23 18/24
f 7/25 8/26 20/27 19/28
f 8/29 9/30 21/31 20/32
f 9/33 10/34 22/35 21/36
f 10/37 11/38 23/39 22/40
f 11/41 12/42 24/43 23/44
f 12/45 1/46 13/47 24/48
f 12/49 11/50 10/51 9/52 8/53 7/54 6/55 5/56 4/57 3/58 2/59 1/60
f 13/61 14/62 15/63 16/64 17/65 18/66 19/67 20/68 21/69 22/70 23/71 24/72
f 25/73 26/74 38/75 37/76
f 26/77 27/78 39/79 38/80
f 27/81 28/82 40/83 39/84
f 28/85 29/86 41/87 40/88
f 29/89 30/90 42/91 41/92
f 30/93 31/94 43/95 42/96
f 31/97 32/98 44/99 43/100
f 32/101 33/102 45/103 44/104
f 33/105 34/106 46/107 45/108
f 34/109 35/110 47/111 46/112
f 35/113 36/114 48/115 47/116
f 36/117 25/118 37/119 48/120
f 36/121 35/122 34/123 33/124 32/125 31/126 30/127 29/128 28/129 27/130 26/131 25/132
f 37/133 38/134 39/135 40/136 41/137 42/138 43/139 44/140 45/141 46/142 47/143 48/144
f 49/145 50/146 62/147 61/148
f 50/149 51/150 63/151 62/152
f 51/153 52/154 64/155 63/156
f 52/157 53/158 65/159 64/160
f 53/161 54/162 66/163 65/164
f 54/165 55/166 67/167 66/168
f 55/169 56/170 68/171 67/172
f 56/173 57/174 69/175 68/176
f 57/177 58/178 70/179 69/180
f 58/181 59/182 71/183 70/184
f 59/185 60/186 72/187 71/188
f 60/189 49/190 61/191 72/192
f 60/193 59/194 58/195 57/196 56/197 55/198 54/199 53/200 52/201 51/202 50/203 49/204
f 61/205 62/206 63/207 64/208 65/209 66/210 67/211 68/212 69/213 70/214 71/215 72/216
f 73/217 74/218 86/219 85/220
f 74/221 75/222 87/223 86/224
f 75/225 76/226 88/227 87/228
f 76/229 77/230 89/231 88/232
f 77/233 78/234 90/235 89/236
f 78/237 79/238 91/239 90/240
f 79/241 80/242 92/243 91/244
f 80/245 81/246 93/247 92/248
f 81/249 82/250 94/251 93/252
f 82/253 83/254 95/255 94/256
f 83/257 84/258 96/259 95/260
f 84/261 73/262 85/263 96/264
f 84/265 83/266 82/267 81/268 80/269 79/270 78/271 77/272 76/273 75/274 74/275 73/276
f 85/277 86/278 87/279 88/280 89/281 90/282 91/283 92/284 93/285 94/286 95/287 96/288
f 97/289 98/290 110/291 109/292
f 98/293 99/294 111/295 110/296
f 99/297 100/298 112/299 111/300
f 100/301 101/302 113/303 112/304
f 101/305 102/306 114/307 113/308
f 102/309 103/310 115/311 114/312
f 103/313 104/314 116/315 115/316
f 104/317 105/318 117/319 116/320
f 105/321 106/322 118/323 117/324
f 106/325 107/326 119/327 118/328
f 107/329 108/330 120/331 119/332
f 108/333 97/334 109/335 120/336
f 108/337 107/338 106/339 105/340 104/341 103/342 102/343 101/344 100/345 99/346 98/347 97/348
f 109/349 110/350 111/351 112/352 113/353 114/354 115/355 116/356 117/357 118/358 119/359 120/360
f 121/361 122/362 134/363 133/364
f 122/365 123/366 135/367 134/368
f 123/369 124/370 136/371 135/372
f 124/373 125/374 137/375 136/376
f 125/377 126/378 138/379 137/380
f 126/381 127/382 139/383 138/384
f 127/385 128/386 140/387 139/388
f 128/389 129/390 141/391 140/392
f 129/393 130/394 142/395 141/396
f 130/397 131/398 143/399 142/400
f 131/401 132/402 144/403 143/404
f 132/405 121/406 133/407 144/408
f 132/409 131/410 130/411 129/412 128/413 127/414 126/415 125/416 124/417 123/418 122/419 121/420
f 133/421 134/422 135/423 136/424 137/425 138/426 139/427 140/428 141/429 142/430 143/431 144/432
f 145/433 146/434 158/435 157/436
f 146/437 147/438 159/439 158/440
f 147/441 148/442 160/443 159/444
f 148/445 149/446 161/447 160/448
f 149/449 150/450 162/451 161/452
f 150/453 151/454 163/455 162/456
f 151/457 152/458 164/459 163/460
f 152/461 153/462 165/463 164/464
f 153/465 154/466 166/467 165/468
f 154/469 155/470 167/471 166/472
f 155/473 156/474 168/475 167/476
f 156/477 145/478 157/479 168/480
f 156/481 155/482 154/483 153/484 152/485 151/486 150/487 149/488 148/489 147/490 146/491 145/492
f 157/493 158/494 159/495 160/496 161/497 162/498 163/499 164/500 165/501 166/502 167/503 168/504
f 169/505 170/506 182/507 181/508
f 170/509 171/510 183/511 182/512
f 171/513 172/514 184/515 183/516
f 172/517 173/518 185/519 184/520
f 173/521 174/522 186/523 185/524
f 174/525 175/526 187/527 186/528
f 175/529 176/530 188/531 187/532
f 176/533 177/534 189/535 188/536
f 177/537 178/538 190/539 189/540
f 178/541 179/542 191/543 190/544
f 179/545 180/546 192/547 191/548
f 180/549 169/550 181/551 192/552
f 180/553 179/554 178/555 177/556 176/557 175/558 174/559 173/560 172/561 171/562 170/563 169/564
f 181/565 182/566 183/567 184/568 185/569 186/570 187/571 188/572 189/573 190/574 191/575 192/576
f 193/577 194/578 206/579 205/580
f 194/581 195/582 207/583 206/584
f 195/585 196/586 208/587 207/588
f 196/589 197/590 209/591 208/592
f 197/593 198/594 210/595 209/596
f 198/597 199/598 211/599 210/600
f 199/601 200/602 212/603 211/604
f 200/605 201/606 213/607 212/608
f 201/609 202/610 214/611 213/612
f 202/613 203/614 215/615 214/616
f 203/617 204/618 216/619 215/620
f 204/621 193/622 205/623 216/624
f 204/625 203/626 202/627 201/628 200/629 199/630 198/631 197/632 196/633 195/634 194/635 193/636
f 205/637 206/638 207/639 208/640 209/641 210/642 211/643 212/644 213/645 214/646 215/647 216/648
f 217/649 218/650 230/651 229/652
f 218/653 219/654 231/655 230/656
f 219/657 220/658 232/659 231/660
f 220/661 221/662 233/663 232/664
f 221/665 222/666 234/667 233/668
f 222/669 223/670 235/671 234/672
f 223/673 224/674 236/675 235/676
f 224/677 225/678 237/679 236/680
f 225/681 226/682 238/683 237/684
f 226/685 227/686 239/687 238/688
f 227/689 228/690 240/691 239/692
f 228/693 217/694 229/695 240/696
f 228/697 227/698 226/699 225/700 224/701 223/702 222/703 221/704 220/705 219/706 218/707 217/708
f 229/709 230/710 231/711 232/712 233/713 234/714 235/715 236/716 237/717 238/718 239/719 240/720
f 241/721 242/722 254/723 253/724
f 242/725 243/726 255/727 254/728
f 243/729 244/730 256/731 255/732
f 244/733 245/734 257/735 256/736
f 245/737 246/738 258/739 257/740
f 246/741 247/742 259/743 258/744
f 247/745 248/746 260/747 259/748
f 248/749 249/750 261/751 260/752
f 249/753 250/754 262/755 261/756
f 250/757 251/758 263/759 262/760
f 251/761 252/762 264/763 263/764
f 252/765 241/766 253/767 264/768
f 252/769 251/770 250/771 249/772 248/773 247/774 246/775 245/776 244/777 243/778 242/779 241/780
f 253/781 254/782 255/783 256/784 257/785 258/786 259/787 260/788 261/789 262/790 263/791 264/792
f 265/793 266/794 278/795 277/796
f 266/797 267/798 279/799 278/800
f 267/801 268/802 280/803 279/804
f 268/805 269/806 281/807 280/808
f 269/809 270/810 282/811 281/812
f 270/813 271/814 283/815 282/816
f 271/817 272/818 284/819 283/820
f 272/821 273/822 285/823 284/824
f 273/825 274/826 286/827 285/828
f 274/829 275/830 287/831 286/832
f 275/833 276/834 288/835 287/836
f 276/837 265/838 277/839 288/840
f 276/841 275/842 274/843 273/844 272/845 271/846 270/847 269/848 268/849 267/850 266/851 265/852
f 277/853 278/854 279/855 280/856 281/857 282/858 283/859 284/860 285/861 286/862 287/863 288/864
