# Generated by scripts/generate_spire_landmark.py
mtllib VD_Spire_Landmark.mtl
o VD_SpireBase
v 180.000000 74.558441 0.000000
v 74.558441 180.000000 0.000000
v -74.558441 180.000000 0.000000
v -180.000000 74.558441 0.000000
v -180.000000 -74.558441 0.000000
v -74.558441 -180.000000 0.000000
v 74.558441 -180.000000 0.000000
v 180.000000 -74.558441 0.000000
v 180.000000 74.558441 24.000000
v 74.558441 180.000000 24.000000
v -74.558441 180.000000 24.000000
v -180.000000 74.558441 24.000000
v -180.000000 -74.558441 24.000000
v -74.558441 -180.000000 24.000000
v 74.558441 -180.000000 24.000000
v 180.000000 -74.558441 24.000000
v 180.000000 74.558441 24.000000
v 74.558441 180.000000 24.000000
v -74.558441 180.000000 24.000000
v -180.000000 74.558441 24.000000
v -180.000000 -74.558441 24.000000
v -74.558441 -180.000000 24.000000
v 74.558441 -180.000000 24.000000
v 180.000000 -74.558441 24.000000
v 145.972966 60.463982 38.000000
v 60.463982 145.972966 38.000000
v -60.463982 145.972966 38.000000
v -145.972966 60.463982 38.000000
v -145.972966 -60.463982 38.000000
v -60.463982 -145.972966 38.000000
v 60.463982 -145.972966 38.000000
v 145.972966 -60.463982 38.000000
v 145.972966 60.463982 38.000000
v 60.463982 145.972966 38.000000
v -60.463982 145.972966 38.000000
v -145.972966 60.463982 38.000000
v -145.972966 -60.463982 38.000000
v -60.463982 -145.972966 38.000000
v 60.463982 -145.972966 38.000000
v 145.972966 -60.463982 38.000000
v 133.962532 55.489098 82.000000
v 55.489098 133.962532 82.000000
v -55.489098 133.962532 82.000000
v -133.962532 55.489098 82.000000
v -133.962532 -55.489098 82.000000
v -55.489098 -133.962532 82.000000
v 55.489098 -133.962532 82.000000
v 133.962532 -55.489098 82.000000
v 133.962532 55.489098 82.000000
v 55.489098 133.962532 82.000000
v -55.489098 133.962532 82.000000
v -133.962532 55.489098 82.000000
v -133.962532 -55.489098 82.000000
v -55.489098 -133.962532 82.000000
v 55.489098 -133.962532 82.000000
v 133.962532 -55.489098 82.000000
v 109.017785 45.156645 110.000000
v 45.156645 109.017785 110.000000
v -45.156645 109.017785 110.000000
v -109.017785 45.156645 110.000000
v -109.017785 -45.156645 110.000000
v -45.156645 -109.017785 110.000000
v 45.156645 -109.017785 110.000000
v 109.017785 -45.156645 110.000000
v 148.000000 -36.000000 44.000000
v 152.000000 -36.000000 44.000000
v 148.000000 36.000000 44.000000
v 152.000000 36.000000 44.000000
v 148.000000 -36.000000 78.000000
v 152.000000 -36.000000 78.000000
v 148.000000 36.000000 78.000000
v 152.000000 36.000000 78.000000
v 151.000000 -22.600000 49.000000
v 151.000000 -23.302944 50.697056
v 151.000000 -25.000000 51.400000
v 151.000000 -26.697056 50.697056
v 151.000000 -27.400000 49.000000
v 151.000000 -26.697056 47.302944
v 151.000000 -25.000000 46.600000
v 151.000000 -23.302944 47.302944
v 156.000000 -22.600000 49.000000
v 156.000000 -23.302944 50.697056
v 156.000000 -25.000000 51.400000
v 156.000000 -26.697056 50.697056
v 156.000000 -27.400000 49.000000
v 156.000000 -26.697056 47.302944
v 156.000000 -25.000000 46.600000
v 156.000000 -23.302944 47.302944
v 151.000000 -22.600000 73.000000
v 151.000000 -23.302944 74.697056
v 151.000000 -25.000000 75.400000
v 151.000000 -26.697056 74.697056
v 151.000000 -27.400000 73.000000
v 151.000000 -26.697056 71.302944
v 151.000000 -25.000000 70.600000
v 151.000000 -23.302944 71.302944
v 156.000000 -22.600000 73.000000
v 156.000000 -23.302944 74.697056
v 156.000000 -25.000000 75.400000
v 156.000000 -26.697056 74.697056
v 156.000000 -27.400000 73.000000
v 156.000000 -26.697056 71.302944
v 156.000000 -25.000000 70.600000
v 156.000000 -23.302944 71.302944
v 151.000000 2.400000 49.000000
v 151.000000 1.697056 50.697056
v 151.000000 0.000000 51.400000
v 151.000000 -1.697056 50.697056
v 151.000000 -2.400000 49.000000
v 151.000000 -1.697056 47.302944
v 151.000000 -0.000000 46.600000
v 151.000000 1.697056 47.302944
v 156.000000 2.400000 49.000000
v 156.000000 1.697056 50.697056
v 156.000000 0.000000 51.400000
v 156.000000 -1.697056 50.697056
v 156.000000 -2.400000 49.000000
v 156.000000 -1.697056 47.302944
v 156.000000 -0.000000 46.600000
v 156.000000 1.697056 47.302944
v 151.000000 2.400000 73.000000
v 151.000000 1.697056 74.697056
v 151.000000 0.000000 75.400000
v 151.000000 -1.697056 74.697056
v 151.000000 -2.400000 73.000000
v 151.000000 -1.697056 71.302944
v 151.000000 -0.000000 70.600000
v 151.000000 1.697056 71.302944
v 156.000000 2.400000 73.000000
v 156.000000 1.697056 74.697056
v 156.000000 0.000000 75.400000
v 156.000000 -1.697056 74.697056
v 156.000000 -2.400000 73.000000
v 156.000000 -1.697056 71.302944
v 156.000000 -0.000000 70.600000
v 156.000000 1.697056 71.302944
v 151.000000 27.400000 49.000000
v 151.000000 26.697056 50.697056
v 151.000000 25.000000 51.400000
v 151.000000 23.302944 50.697056
v 151.000000 22.600000 49.000000
v 151.000000 23.302944 47.302944
v 151.000000 25.000000 46.600000
v 151.000000 26.697056 47.302944
v 156.000000 27.400000 49.000000
v 156.000000 26.697056 50.697056
v 156.000000 25.000000 51.400000
v 156.000000 23.302944 50.697056
v 156.000000 22.600000 49.000000
v 156.000000 23.302944 47.302944
v 156.000000 25.000000 46.600000
v 156.000000 26.697056 47.302944
v 151.000000 27.400000 73.000000
v 151.000000 26.697056 74.697056
v 151.000000 25.000000 75.400000
v 151.000000 23.302944 74.697056
v 151.000000 22.600000 73.000000
v 151.000000 23.302944 71.302944
v 151.000000 25.000000 70.600000
v 151.000000 26.697056 71.302944
v 156.000000 27.400000 73.000000
v 156.000000 26.697056 74.697056
v 156.000000 25.000000 75.400000
v 156.000000 23.302944 74.697056
v 156.000000 22.600000 73.000000
v 156.000000 23.302944 71.302944
v 156.000000 25.000000 70.600000
v 156.000000 26.697056 71.302944
v 36.000000 148.000000 44.000000
v 36.000000 152.000000 44.000000
v -36.000000 148.000000 44.000000
v -36.000000 152.000000 44.000000
v 36.000000 148.000000 78.000000
v 36.000000 152.000000 78.000000
v -36.000000 148.000000 78.000000
v -36.000000 152.000000 78.000000
v 22.600000 151.000000 49.000000
v 23.302944 151.000000 50.697056
v 25.000000 151.000000 51.400000
v 26.697056 151.000000 50.697056
v 27.400000 151.000000 49.000000
v 26.697056 151.000000 47.302944
v 25.000000 151.000000 46.600000
v 23.302944 151.000000 47.302944
v 22.600000 156.000000 49.000000
v 23.302944 156.000000 50.697056
v 25.000000 156.000000 51.400000
v 26.697056 156.000000 50.697056
v 27.400000 156.000000 49.000000
v 26.697056 156.000000 47.302944
v 25.000000 156.000000 46.600000
v 23.302944 156.000000 47.302944
v 22.600000 151.000000 73.000000
v 23.302944 151.000000 74.697056
v 25.000000 151.000000 75.400000
v 26.697056 151.000000 74.697056
v 27.400000 151.000000 73.000000
v 26.697056 151.000000 71.302944
v 25.000000 151.000000 70.600000
v 23.302944 151.000000 71.302944
v 22.600000 156.000000 73.000000
v 23.302944 156.000000 74.697056
v 25.000000 156.000000 75.400000
v 26.697056 156.000000 74.697056
v 27.400000 156.000000 73.000000
v 26.697056 156.000000 71.302944
v 25.000000 156.000000 70.600000
v 23.302944 156.000000 71.302944
v -2.400000 151.000000 49.000000
v -1.697056 151.000000 50.697056
v 0.000000 151.000000 51.400000
v 1.697056 151.000000 50.697056
v 2.400000 151.000000 49.000000
v 1.697056 151.000000 47.302944
v 0.000000 151.000000 46.600000
v -1.697056 151.000000 47.302944
v -2.400000 156.000000 49.000000
v -1.697056 156.000000 50.697056
v 0.000000 156.000000 51.400000
v 1.697056 156.000000 50.697056
v 2.400000 156.000000 49.000000
v 1.697056 156.000000 47.302944
v 0.000000 156.000000 46.600000
v -1.697056 156.000000 47.302944
v -2.400000 151.000000 73.000000
v -1.697056 151.000000 74.697056
v 0.000000 151.000000 75.400000
v 1.697056 151.000000 74.697056
v 2.400000 151.000000 73.000000
v 1.697056 151.000000 71.302944
v 0.000000 151.000000 70.600000
v -1.697056 151.000000 71.302944
v -2.400000 156.000000 73.000000
v -1.697056 156.000000 74.697056
v 0.000000 156.000000 75.400000
v 1.697056 156.000000 74.697056
v 2.400000 156.000000 73.000000
v 1.697056 156.000000 71.302944
v 0.000000 156.000000 70.600000
v -1.697056 156.000000 71.302944
v -27.400000 151.000000 49.000000
v -26.697056 151.000000 50.697056
v -25.000000 151.000000 51.400000
v -23.302944 151.000000 50.697056
v -22.600000 151.000000 49.000000
v -23.302944 151.000000 47.302944
v -25.000000 151.000000 46.600000
v -26.697056 151.000000 47.302944
v -27.400000 156.000000 49.000000
v -26.697056 156.000000 50.697056
v -25.000000 156.000000 51.400000
v -23.302944 156.000000 50.697056
v -22.600000 156.000000 49.000000
v -23.302944 156.000000 47.302944
v -25.000000 156.000000 46.600000
v -26.697056 156.000000 47.302944
v -27.400000 151.000000 73.000000
v -26.697056 151.000000 74.697056
v -25.000000 151.000000 75.400000
v -23.302944 151.000000 74.697056
v -22.600000 151.000000 73.000000
v -23.302944 151.000000 71.302944
v -25.000000 151.000000 70.600000
v -26.697056 151.000000 71.302944
v -27.400000 156.000000 73.000000
v -26.697056 156.000000 74.697056
v -25.000000 156.000000 75.400000
v -23.302944 156.000000 74.697056
v -22.600000 156.000000 73.000000
v -23.302944 156.000000 71.302944
v -25.000000 156.000000 70.600000
v -26.697056 156.000000 71.302944
v -148.000000 36.000000 44.000000
v -152.000000 36.000000 44.000000
v -148.000000 -36.000000 44.000000
v -152.000000 -36.000000 44.000000
v -148.000000 36.000000 78.000000
v -152.000000 36.000000 78.000000
v -148.000000 -36.000000 78.000000
v -152.000000 -36.000000 78.000000
v -151.000000 22.600000 49.000000
v -151.000000 23.302944 50.697056
v -151.000000 25.000000 51.400000
v -151.000000 26.697056 50.697056
v -151.000000 27.400000 49.000000
v -151.000000 26.697056 47.302944
v -151.000000 25.000000 46.600000
v -151.000000 23.302944 47.302944
v -156.000000 22.600000 49.000000
v -156.000000 23.302944 50.697056
v -156.000000 25.000000 51.400000
v -156.000000 26.697056 50.697056
v -156.000000 27.400000 49.000000
v -156.000000 26.697056 47.302944
v -156.000000 25.000000 46.600000
v -156.000000 23.302944 47.302944
v -151.000000 22.600000 73.000000
v -151.000000 23.302944 74.697056
v -151.000000 25.000000 75.400000
v -151.000000 26.697056 74.697056
v -151.000000 27.400000 73.000000
v -151.000000 26.697056 71.302944
v -151.000000 25.000000 70.600000
v -151.000000 23.302944 71.302944
v -156.000000 22.600000 73.000000
v -156.000000 23.302944 74.697056
v -156.000000 25.000000 75.400000
v -156.000000 26.697056 74.697056
v -156.000000 27.400000 73.000000
v -156.000000 26.697056 71.302944
v -156.000000 25.000000 70.600000
v -156.000000 23.302944 71.302944
v -151.000000 -2.400000 49.000000
v -151.000000 -1.697056 50.697056
v -151.000000 0.000000 51.400000
v -151.000000 1.697056 50.697056
v -151.000000 2.400000 49.000000
v -151.000000 1.697056 47.302944
v -151.000000 0.000000 46.600000
v -151.000000 -1.697056 47.302944
v -156.000000 -2.400000 49.000000
v -156.000000 -1.697056 50.697056
v -156.000000 0.000000 51.400000
v -156.000000 1.697056 50.697056
v -156.000000 2.400000 49.000000
v -156.000000 1.697056 47.302944
v -156.000000 0.000000 46.600000
v -156.000000 -1.697056 47.302944
v -151.000000 -2.400000 73.000000
v -151.000000 -1.697056 74.697056
v -151.000000 0.000000 75.400000
v -151.000000 1.697056 74.697056
v -151.000000 2.400000 73.000000
v -151.000000 1.697056 71.302944
v -151.000000 0.000000 70.600000
v -151.000000 -1.697056 71.302944
v -156.000000 -2.400000 73.000000
v -156.000000 -1.697056 74.697056
v -156.000000 0.000000 75.400000
v -156.000000 1.697056 74.697056
v -156.000000 2.400000 73.000000
v -156.000000 1.697056 71.302944
v -156.000000 0.000000 70.600000
v -156.000000 -1.697056 71.302944
v -151.000000 -27.400000 49.000000
v -151.000000 -26.697056 50.697056
v -151.000000 -25.000000 51.400000
v -151.000000 -23.302944 50.697056
v -151.000000 -22.600000 49.000000
v -151.000000 -23.302944 47.302944
v -151.000000 -25.000000 46.600000
v -151.000000 -26.697056 47.302944
v -156.000000 -27.400000 49.000000
v -156.000000 -26.697056 50.697056
v -156.000000 -25.000000 51.400000
v -156.000000 -23.302944 50.697056
v -156.000000 -22.600000 49.000000
v -156.000000 -23.302944 47.302944
v -156.000000 -25.000000 46.600000
v -156.000000 -26.697056 47.302944
v -151.000000 -27.400000 73.000000
v -151.000000 -26.697056 74.697056
v -151.000000 -25.000000 75.400000
v -151.000000 -23.302944 74.697056
v -151.000000 -22.600000 73.000000
v -151.000000 -23.302944 71.302944
v -151.000000 -25.000000 70.600000
v -151.000000 -26.697056 71.302944
v -156.000000 -27.400000 73.000000
v -156.000000 -26.697056 74.697056
v -156.000000 -25.000000 75.400000
v -156.000000 -23.302944 74.697056
v -156.000000 -22.600000 73.000000
v -156.000000 -23.302944 71.302944
v -156.000000 -25.000000 70.600000
v -156.000000 -26.697056 71.302944
v -36.000000 -148.000000 44.000000
v -36.000000 -152.000000 44.000000
v 36.000000 -148.000000 44.000000
v 36.000000 -152.000000 44.000000
v -36.000000 -148.000000 78.000000
v -36.000000 -152.000000 78.000000
v 36.000000 -148.000000 78.000000
v 36.000000 -152.000000 78.000000
v -22.600000 -151.000000 49.000000
v -23.302944 -151.000000 50.697056
v -25.000000 -151.000000 51.400000
v -26.697056 -151.000000 50.697056
v -27.400000 -151.000000 49.000000
v -26.697056 -151.000000 47.302944
v -25.000000 -151.000000 46.600000
v -23.302944 -151.000000 47.302944
v -22.600000 -156.000000 49.000000
v -23.302944 -156.000000 50.697056
v -25.000000 -156.000000 51.400000
v -26.697056 -156.000000 50.697056
v -27.400000 -156.000000 49.000000
v -26.697056 -156.000000 47.302944
v -25.000000 -156.000000 46.600000
v -23.302944 -156.000000 47.302944
v -22.600000 -151.000000 73.000000
v -23.302944 -151.000000 74.697056
v -25.000000 -151.000000 75.400000
v -26.697056 -151.000000 74.697056
v -27.400000 -151.000000 73.000000
v -26.697056 -151.000000 71.302944
v -25.000000 -151.000000 70.600000
v -23.302944 -151.000000 71.302944
v -22.600000 -156.000000 73.000000
v -23.302944 -156.000000 74.697056
v -25.000000 -156.000000 75.400000
v -26.697056 -156.000000 74.697056
v -27.400000 -156.000000 73.000000
v -26.697056 -156.000000 71.302944
v -25.000000 -156.000000 70.600000
v -23.302944 -156.000000 71.302944
v 2.400000 -151.000000 49.000000
v 1.697056 -151.000000 50.697056
v -0.000000 -151.000000 51.400000
v -1.697056 -151.000000 50.697056
v -2.400000 -151.000000 49.000000
v -1.697056 -151.000000 47.302944
v -0.000000 -151.000000 46.600000
v 1.697056 -151.000000 47.302944
v 2.400000 -156.000000 49.000000
v 1.697056 -156.000000 50.697056
v -0.000000 -156.000000 51.400000
v -1.697056 -156.000000 50.697056
v -2.400000 -156.000000 49.000000
v -1.697056 -156.000000 47.302944
v -0.000000 -156.000000 46.600000
v 1.697056 -156.000000 47.302944
v 2.400000 -151.000000 73.000000
v 1.697056 -151.000000 74.697056
v -0.000000 -151.000000 75.400000
v -1.697056 -151.000000 74.697056
v -2.400000 -151.000000 73.000000
v -1.697056 -151.000000 71.302944
v -0.000000 -151.000000 70.600000
v 1.697056 -151.000000 71.302944
v 2.400000 -156.000000 73.000000
v 1.697056 -156.000000 74.697056
v -0.000000 -156.000000 75.400000
v -1.697056 -156.000000 74.697056
v -2.400000 -156.000000 73.000000
v -1.697056 -156.000000 71.302944
v -0.000000 -156.000000 70.600000
v 1.697056 -156.000000 71.302944
v 27.400000 -151.000000 49.000000
v 26.697056 -151.000000 50.697056
v 25.000000 -151.000000 51.400000
v 23.302944 -151.000000 50.697056
v 22.600000 -151.000000 49.000000
v 23.302944 -151.000000 47.302944
v 25.000000 -151.000000 46.600000
v 26.697056 -151.000000 47.302944
v 27.400000 -156.000000 49.000000
v 26.697056 -156.000000 50.697056
v 25.000000 -156.000000 51.400000
v 23.302944 -156.000000 50.697056
v 22.600000 -156.000000 49.000000
v 23.302944 -156.000000 47.302944
v 25.000000 -156.000000 46.600000
v 26.697056 -156.000000 47.302944
v 27.400000 -151.000000 73.000000
v 26.697056 -151.000000 74.697056
v 25.000000 -151.000000 75.400000
v 23.302944 -151.000000 74.697056
v 22.600000 -151.000000 73.000000
v 23.302944 -151.000000 71.302944
v 25.000000 -151.000000 70.600000
v 26.697056 -151.000000 71.302944
v 27.400000 -156.000000 73.000000
v 26.697056 -156.000000 74.697056
v 25.000000 -156.000000 75.400000
v 23.302944 -156.000000 74.697056
v 22.600000 -156.000000 73.000000
v 23.302944 -156.000000 71.302944
v 25.000000 -156.000000 70.600000
v 26.697056 -156.000000 71.302944
g VD_SpireBase_M_Spire_Concrete
usemtl M_Spire_Concrete
s 1
f 1 2 10 9
f 2 3 11 10
f 3 4 12 11
f 4 5 13 12
f 5 6 14 13
f 6 7 15 14
f 7 8 16 15
f 8 1 9 16
f 8 7 6 5 4 3 2 1
f 9 10 11 12 13 14 15 16
g VD_SpireBase_M_Spire_BareMetal
usemtl M_Spire_BareMetal
s 1
f 17 18 26 25
f 18 19 27 26
f 19 20 28 27
f 20 21 29 28
f 21 22 30 29
f 22 23 31 30
f 23 24 32 31
f 24 17 25 32
f 24 23 22 21 20 19 18 17
f 25 26 27 28 29 30 31 32
g VD_SpireBase_M_Spire_PaintedSteel
usemtl M_Spire_PaintedSteel
s 1
f 33 34 42 41
f 34 35 43 42
f 35 36 44 43
f 36 37 45 44
f 37 38 46 45
f 38 39 47 46
f 39 40 48 47
f 40 33 41 48
f 40 39 38 37 36 35 34 33
f 41 42 43 44 45 46 47 48
g VD_SpireBase_M_Spire_BareMetal
usemtl M_Spire_BareMetal
s 1
f 49 50 58 57
f 50 51 59 58
f 51 52 60 59
f 52 53 61 60
f 53 54 62 61
f 54 55 63 62
f 55 56 64 63
f 56 49 57 64
f 56 55 54 53 52 51 50 49
f 57 58 59 60 61 62 63 64
g VD_SpireBase_M_Spire_ServicePanel
usemtl M_Spire_ServicePanel
s 1
f 65 66 68 67
f 69 71 72 70
f 65 69 70 66
f 67 68 72 71
f 65 67 71 69
f 66 70 72 68
g VD_SpireBase_M_Spire_Fastener
usemtl M_Spire_Fastener
s 1
f 73 74 82 81
f 74 75 83 82
f 75 76 84 83
f 76 77 85 84
f 77 78 86 85
f 78 79 87 86
f 79 80 88 87
f 80 73 81 88
f 80 79 78 77 76 75 74 73
f 81 82 83 84 85 86 87 88
f 89 90 98 97
f 90 91 99 98
f 91 92 100 99
f 92 93 101 100
f 93 94 102 101
f 94 95 103 102
f 95 96 104 103
f 96 89 97 104
f 96 95 94 93 92 91 90 89
f 97 98 99 100 101 102 103 104
f 105 106 114 113
f 106 107 115 114
f 107 108 116 115
f 108 109 117 116
f 109 110 118 117
f 110 111 119 118
f 111 112 120 119
f 112 105 113 120
f 112 111 110 109 108 107 106 105
f 113 114 115 116 117 118 119 120
f 121 122 130 129
f 122 123 131 130
f 123 124 132 131
f 124 125 133 132
f 125 126 134 133
f 126 127 135 134
f 127 128 136 135
f 128 121 129 136
f 128 127 126 125 124 123 122 121
f 129 130 131 132 133 134 135 136
f 137 138 146 145
f 138 139 147 146
f 139 140 148 147
f 140 141 149 148
f 141 142 150 149
f 142 143 151 150
f 143 144 152 151
f 144 137 145 152
f 144 143 142 141 140 139 138 137
f 145 146 147 148 149 150 151 152
f 153 154 162 161
f 154 155 163 162
f 155 156 164 163
f 156 157 165 164
f 157 158 166 165
f 158 159 167 166
f 159 160 168 167
f 160 153 161 168
f 160 159 158 157 156 155 154 153
f 161 162 163 164 165 166 167 168
g VD_SpireBase_M_Spire_ServicePanel
usemtl M_Spire_ServicePanel
s 1
f 169 170 172 171
f 173 175 176 174
f 169 173 174 170
f 171 172 176 175
f 169 171 175 173
f 170 174 176 172
g VD_SpireBase_M_Spire_Fastener
usemtl M_Spire_Fastener
s 1
f 177 178 186 185
f 178 179 187 186
f 179 180 188 187
f 180 181 189 188
f 181 182 190 189
f 182 183 191 190
f 183 184 192 191
f 184 177 185 192
f 184 183 182 181 180 179 178 177
f 185 186 187 188 189 190 191 192
f 193 194 202 201
f 194 195 203 202
f 195 196 204 203
f 196 197 205 204
f 197 198 206 205
f 198 199 207 206
f 199 200 208 207
f 200 193 201 208
f 200 199 198 197 196 195 194 193
f 201 202 203 204 205 206 207 208
f 209 210 218 217
f 210 211 219 218
f 211 212 220 219
f 212 213 221 220
f 213 214 222 221
f 214 215 223 222
f 215 216 224 223
f 216 209 217 224
f 216 215 214 213 212 211 210 209
f 217 218 219 220 221 222 223 224
f 225 226 234 233
f 226 227 235 234
f 227 228 236 235
f 228 229 237 236
f 229 230 238 237
f 230 231 239 238
f 231 232 240 239
f 232 225 233 240
f 232 231 230 229 228 227 226 225
f 233 234 235 236 237 238 239 240
f 241 242 250 249
f 242 243 251 250
f 243 244 252 251
f 244 245 253 252
f 245 246 254 253
f 246 247 255 254
f 247 248 256 255
f 248 241 249 256
f 248 247 246 245 244 243 242 241
f 249 250 251 252 253 254 255 256
f 257 258 266 265
f 258 259 267 266
f 259 260 268 267
f 260 261 269 268
f 261 262 270 269
f 262 263 271 270
f 263 264 272 271
f 264 257 265 272
f 264 263 262 261 260 259 258 257
f 265 266 267 268 269 270 271 272
g VD_SpireBase_M_Spire_ServicePanel
usemtl M_Spire_ServicePanel
s 1
f 273 274 276 275
f 277 279 280 278
f 273 277 278 274
f 275 276 280 279
f 273 275 279 277
f 274 278 280 276
g VD_SpireBase_M_Spire_Fastener
usemtl M_Spire_Fastener
s 1
f 281 282 290 289
f 282 283 291 290
f 283 284 292 291
f 284 285 293 292
f 285 286 294 293
f 286 287 295 294
f 287 288 296 295
f 288 281 289 296
f 288 287 286 285 284 283 282 281
f 289 290 291 292 293 294 295 296
f 297 298 306 305
f 298 299 307 306
f 299 300 308 307
f 300 301 309 308
f 301 302 310 309
f 302 303 311 310
f 303 304 312 311
f 304 297 305 312
f 304 303 302 301 300 299 298 297
f 305 306 307 308 309 310 311 312
f 313 314 322 321
f 314 315 323 322
f 315 316 324 323
f 316 317 325 324
f 317 318 326 325
f 318 319 327 326
f 319 320 328 327
f 320 313 321 328
f 320 319 318 317 316 315 314 313
f 321 322 323 324 325 326 327 328
f 329 330 338 337
f 330 331 339 338
f 331 332 340 339
f 332 333 341 340
f 333 334 342 341
f 334 335 343 342
f 335 336 344 343
f 336 329 337 344
f 336 335 334 333 332 331 330 329
f 337 338 339 340 341 342 343 344
f 345 346 354 353
f 346 347 355 354
f 347 348 356 355
f 348 349 357 356
f 349 350 358 357
f 350 351 359 358
f 351 352 360 359
f 352 345 353 360
f 352 351 350 349 348 347 346 345
f 353 354 355 356 357 358 359 360
f 361 362 370 369
f 362 363 371 370
f 363 364 372 371
f 364 365 373 372
f 365 366 374 373
f 366 367 375 374
f 367 368 376 375
f 368 361 369 376
f 368 367 366 365 364 363 362 361
f 369 370 371 372 373 374 375 376
g VD_SpireBase_M_Spire_ServicePanel
usemtl M_Spire_ServicePanel
s 1
f 377 378 380 379
f 381 383 384 382
f 377 381 382 378
f 379 380 384 383
f 377 379 383 381
f 378 382 384 380
g VD_SpireBase_M_Spire_Fastener
usemtl M_Spire_Fastener
s 1
f 385 386 394 393
f 386 387 395 394
f 387 388 396 395
f 388 389 397 396
f 389 390 398 397
f 390 391 399 398
f 391 392 400 399
f 392 385 393 400
f 392 391 390 389 388 387 386 385
f 393 394 395 396 397 398 399 400
f 401 402 410 409
f 402 403 411 410
f 403 404 412 411
f 404 405 413 412
f 405 406 414 413
f 406 407 415 414
f 407 408 416 415
f 408 401 409 416
f 408 407 406 405 404 403 402 401
f 409 410 411 412 413 414 415 416
f 417 418 426 425
f 418 419 427 426
f 419 420 428 427
f 420 421 429 428
f 421 422 430 429
f 422 423 431 430
f 423 424 432 431
f 424 417 425 432
f 424 423 422 421 420 419 418 417
f 425 426 427 428 429 430 431 432
f 433 434 442 441
f 434 435 443 442
f 435 436 444 443
f 436 437 445 444
f 437 438 446 445
f 438 439 447 446
f 439 440 448 447
f 440 433 441 448
f 440 439 438 437 436 435 434 433
f 441 442 443 444 445 446 447 448
f 449 450 458 457
f 450 451 459 458
f 451 452 460 459
f 452 453 461 460
f 453 454 462 461
f 454 455 463 462
f 455 456 464 463
f 456 449 457 464
f 456 455 454 453 452 451 450 449
f 457 458 459 460 461 462 463 464
f 465 466 474 473
f 466 467 475 474
f 467 468 476 475
f 468 469 477 476
f 469 470 478 477
f 470 471 479 478
f 471 472 480 479
f 472 465 473 480
f 472 471 470 469 468 467 466 465
f 473 474 475 476 477 478 479 480
