# Generated by scripts/generate_entrance_terrace_reveal_kit.py
mtllib VD_EntranceTerraceReveal.mtl
o VD_Bench_Municipal_Intact
v -95.000000 28.754128 1.600000
v -96.555635 28.109763 1.600000
v -97.200000 26.554128 1.600000
v -96.555635 24.998493 1.600000
v -95.000000 24.354128 1.600000
v -93.444365 24.998493 1.600000
v -92.800000 26.554128 1.600000
v -93.444365 28.109763 1.600000
v -95.000000 28.754128 45.600000
v -96.555635 28.109763 45.600000
v -97.200000 26.554128 45.600000
v -96.555635 24.998493 45.600000
v -95.000000 24.354128 45.600000
v -93.444365 24.998493 45.600000
v -92.800000 26.554128 45.600000
v -93.444365 28.109763 45.600000
v -95.000000 28.721195 45.220763
v -96.555635 28.086475 45.331839
v -97.200000 26.554128 45.600000
v -96.555635 25.021780 45.868161
v -95.000000 24.387061 45.979237
v -93.444365 25.021780 45.868161
v -92.800000 26.554128 45.600000
v -93.444365 28.086475 45.331839
v -95.000000 32.221195 65.220763
v -96.555635 31.586475 65.331839
v -97.200000 30.054128 65.600000
v -96.555635 28.521780 65.868161
v -95.000000 27.887061 65.979237
v -93.444365 28.521780 65.868161
v -92.800000 30.054128 65.600000
v -93.444365 31.586475 65.331839
v -97.200000 30.054128 65.600000
v -96.555635 29.340647 64.217631
v -95.000000 29.045113 63.645035
v -93.444365 29.340647 64.217631
v -92.800000 30.054128 65.600000
v -93.444365 30.767609 66.982369
v -95.000000 31.063142 67.554965
v -96.555635 30.767609 66.982369
v -97.200000 14.554128 73.600000
v -96.555635 13.840647 72.217631
v -95.000000 13.545113 71.645035
v -93.444365 13.840647 72.217631
v -92.800000 14.554128 73.600000
v -93.444365 15.267609 74.982369
v -95.000000 15.563142 75.554965
v -96.555635 15.267609 74.982369
v -97.200000 14.554128 73.600000
v -96.555635 15.694087 72.541467
v -95.000000 16.166273 72.103008
v -93.444365 15.694087 72.541467
v -92.800000 14.554128 73.600000
v -93.444365 13.414168 74.658533
v -95.000000 12.941982 75.096992
v -96.555635 13.414168 74.658533
v -97.200000 1.554128 59.600000
v -96.555635 2.694087 58.541467
v -95.000000 3.166273 58.103008
v -93.444365 2.694087 58.541467
v -92.800000 1.554128 59.600000
v -93.444365 0.414168 60.658533
v -95.000000 -0.058018 61.096992
v -96.555635 0.414168 60.658533
v -95.000000 -13.445872 1.600000
v -96.414214 -14.031659 1.600000
v -97.000000 -15.445872 1.600000
v -96.414214 -16.860086 1.600000
v -95.000000 -17.445872 1.600000
v -93.585786 -16.860086 1.600000
v -93.000000 -15.445872 1.600000
v -93.585786 -14.031659 1.600000
v -95.000000 -13.445872 41.600000
v -96.414214 -14.031659 41.600000
v -97.000000 -15.445872 41.600000
v -96.414214 -16.860086 41.600000
v -95.000000 -17.445872 41.600000
v -93.585786 -16.860086 41.600000
v -93.000000 -15.445872 41.600000
v -93.585786 -14.031659 41.600000
v -95.000000 -13.445872 41.600000
v -96.414214 -14.031659 41.600000
v -97.000000 -15.445872 41.600000
v -96.414214 -16.860086 41.600000
v -95.000000 -17.445872 41.600000
v -93.585786 -16.860086 41.600000
v -93.000000 -15.445872 41.600000
v -93.585786 -14.031659 41.600000
v -95.000000 -13.445872 79.600000
v -96.414214 -14.031659 79.600000
v -97.000000 -15.445872 79.600000
v -96.414214 -16.860086 79.600000
v -95.000000 -17.445872 79.600000
v -93.585786 -16.860086 79.600000
v -93.000000 -15.445872 79.600000
v -93.585786 -14.031659 79.600000
v -96.600000 26.554128 45.600000
v -96.131371 26.373028 44.483218
v -95.000000 26.298014 44.020631
v -93.868629 26.373028 44.483218
v -93.400000 26.554128 45.600000
v -93.868629 26.735227 46.716782
v -95.000000 26.810241 47.179369
v -96.131371 26.735227 46.716782
v -96.600000 -10.445872 51.600000
v -96.131371 -10.626972 50.483218
v -95.000000 -10.701986 50.020631
v -93.868629 -10.626972 50.483218
v -93.400000 -10.445872 51.600000
v -93.868629 -10.264773 52.716782
v -95.000000 -10.189759 53.179369
v -96.131371 -10.264773 52.716782
v -96.600000 26.554128 1.600000
v -96.131371 26.554128 0.468629
v -95.000000 26.554128 0.000000
v -93.868629 26.554128 0.468629
v -93.400000 26.554128 1.600000
v -93.868629 26.554128 2.731371
v -95.000000 26.554128 3.200000
v -96.131371 26.554128 2.731371
v -96.600000 -15.445872 1.600000
v -96.131371 -15.445872 0.468629
v -95.000000 -15.445872 0.000000
v -93.868629 -15.445872 0.468629
v -93.400000 -15.445872 1.600000
v -93.868629 -15.445872 2.731371
v -95.000000 -15.445872 3.200000
v -96.131371 -15.445872 2.731371
v 95.000000 28.754128 1.600000
v 93.444365 28.109763 1.600000
v 92.800000 26.554128 1.600000
v 93.444365 24.998493 1.600000
v 95.000000 24.354128 1.600000
v 96.555635 24.998493 1.600000
v 97.200000 26.554128 1.600000
v 96.555635 28.109763 1.600000
v 95.000000 28.754128 45.600000
v 93.444365 28.109763 45.600000
v 92.800000 26.554128 45.600000
v 93.444365 24.998493 45.600000
v 95.000000 24.354128 45.600000
v 96.555635 24.998493 45.600000
v 97.200000 26.554128 45.600000
v 96.555635 28.109763 45.600000
v 95.000000 28.721195 45.220763
v 93.444365 28.086475 45.331839
v 92.800000 26.554128 45.600000
v 93.444365 25.021780 45.868161
v 95.000000 24.387061 45.979237
v 96.555635 25.021780 45.868161
v 97.200000 26.554128 45.600000
v 96.555635 28.086475 45.331839
v 95.000000 32.221195 65.220763
v 93.444365 31.586475 65.331839
v 92.800000 30.054128 65.600000
v 93.444365 28.521780 65.868161
v 95.000000 27.887061 65.979237
v 96.555635 28.521780 65.868161
v 97.200000 30.054128 65.600000
v 96.555635 31.586475 65.331839
v 92.800000 30.054128 65.600000
v 93.444365 29.340647 64.217631
v 95.000000 29.045113 63.645035
v 96.555635 29.340647 64.217631
v 97.200000 30.054128 65.600000
v 96.555635 30.767609 66.982369
v 95.000000 31.063142 67.554965
v 93.444365 30.767609 66.982369
v 92.800000 14.554128 73.600000
v 93.444365 13.840647 72.217631
v 95.000000 13.545113 71.645035
v 96.555635 13.840647 72.217631
v 97.200000 14.554128 73.600000
v 96.555635 15.267609 74.982369
v 95.000000 15.563142 75.554965
v 93.444365 15.267609 74.982369
v 92.800000 14.554128 73.600000
v 93.444365 15.694087 72.541467
v 95.000000 16.166273 72.103008
v 96.555635 15.694087 72.541467
v 97.200000 14.554128 73.600000
v 96.555635 13.414168 74.658533
v 95.000000 12.941982 75.096992
v 93.444365 13.414168 74.658533
v 92.800000 1.554128 59.600000
v 93.444365 2.694087 58.541467
v 95.000000 3.166273 58.103008
v 96.555635 2.694087 58.541467
v 97.200000 1.554128 59.600000
v 96.555635 0.414168 60.658533
v 95.000000 -0.058018 61.096992
v 93.444365 0.414168 60.658533
v 95.000000 -13.445872 1.600000
v 93.585786 -14.031659 1.600000
v 93.000000 -15.445872 1.600000
v 93.585786 -16.860086 1.600000
v 95.000000 -17.445872 1.600000
v 96.414214 -16.860086 1.600000
v 97.000000 -15.445872 1.600000
v 96.414214 -14.031659 1.600000
v 95.000000 -13.445872 41.600000
v 93.585786 -14.031659 41.600000
v 93.000000 -15.445872 41.600000
v 93.585786 -16.860086 41.600000
v 95.000000 -17.445872 41.600000
v 96.414214 -16.860086 41.600000
v 97.000000 -15.445872 41.600000
v 96.414214 -14.031659 41.600000
v 95.000000 -13.445872 41.600000
v 93.585786 -14.031659 41.600000
v 93.000000 -15.445872 41.600000
v 93.585786 -16.860086 41.600000
v 95.000000 -17.445872 41.600000
v 96.414214 -16.860086 41.600000
v 97.000000 -15.445872 41.600000
v 96.414214 -14.031659 41.600000
v 95.000000 -13.445872 79.600000
v 93.585786 -14.031659 79.600000
v 93.000000 -15.445872 79.600000
v 93.585786 -16.860086 79.600000
v 95.000000 -17.445872 79.600000
v 96.414214 -16.860086 79.600000
v 97.000000 -15.445872 79.600000
v 96.414214 -14.031659 79.600000
v 93.400000 26.554128 45.600000
v 93.868629 26.373028 44.483218
v 95.000000 26.298014 44.020631
v 96.131371 26.373028 44.483218
v 96.600000 26.554128 45.600000
v 96.131371 26.735227 46.716782
v 95.000000 26.810241 47.179369
v 93.868629 26.735227 46.716782
v 93.400000 -10.445872 51.600000
v 93.868629 -10.626972 50.483218
v 95.000000 -10.701986 50.020631
v 96.131371 -10.626972 50.483218
v 96.600000 -10.445872 51.600000
v 96.131371 -10.264773 52.716782
v 95.000000 -10.189759 53.179369
v 93.868629 -10.264773 52.716782
v 93.400000 26.554128 1.600000
v 93.868629 26.554128 0.468629
v 95.000000 26.554128 0.000000
v 96.131371 26.554128 0.468629
v 96.600000 26.554128 1.600000
v 96.131371 26.554128 2.731371
v 95.000000 26.554128 3.200000
v 93.868629 26.554128 2.731371
v 93.400000 -15.445872 1.600000
v 93.868629 -15.445872 0.468629
v 95.000000 -15.445872 0.000000
v 96.131371 -15.445872 0.468629
v 96.600000 -15.445872 1.600000
v 96.131371 -15.445872 2.731371
v 95.000000 -15.445872 3.200000
v 93.868629 -15.445872 2.731371
v -93.000000 21.754128 45.600000
v -93.000000 27.354128 45.600000
v -93.000000 27.354128 49.000000
v -93.000000 21.754128 49.000000
v -55.800000 21.754128 45.600000
v -55.800000 27.354128 45.600000
v -55.800000 27.354128 49.000000
v -55.800000 21.754128 49.000000
v -18.600000 21.754128 45.600000
v -18.600000 27.354128 45.600000
v -18.600000 27.354128 49.000000
v -18.600000 21.754128 49.000000
v 18.600000 21.754128 45.600000
v 18.600000 27.354128 45.600000
v 18.600000 27.354128 49.000000
v 18.600000 21.754128 49.000000
v 55.800000 21.754128 45.600000
v 55.800000 27.354128 45.600000
v 55.800000 27.354128 49.000000
v 55.800000 21.754128 49.000000
v 93.000000 21.754128 45.600000
v 93.000000 27.354128 45.600000
v 93.000000 27.354128 49.000000
v 93.000000 21.754128 49.000000
v -93.000000 15.154128 45.600000
v -93.000000 20.754128 45.600000
v -93.000000 20.754128 49.000000
v -93.000000 15.154128 49.000000
v -55.800000 15.154128 45.600000
v -55.800000 20.754128 45.600000
v -55.800000 20.754128 49.000000
v -55.800000 15.154128 49.000000
v -18.600000 15.154128 45.600000
v -18.600000 20.754128 45.600000
v -18.600000 20.754128 49.000000
v -18.600000 15.154128 49.000000
v 18.600000 15.154128 45.600000
v 18.600000 20.754128 45.600000
v 18.600000 20.754128 49.000000
v 18.600000 15.154128 49.000000
v 55.800000 15.154128 45.600000
v 55.800000 20.754128 45.600000
v 55.800000 20.754128 49.000000
v 55.800000 15.154128 49.000000
v 93.000000 15.154128 45.600000
v 93.000000 20.754128 45.600000
v 93.000000 20.754128 49.000000
v 93.000000 15.154128 49.000000
v -93.000000 8.554128 45.600000
v -93.000000 14.154128 45.600000
v -93.000000 14.154128 49.000000
v -93.000000 8.554128 49.000000
v -55.800000 8.554128 45.600000
v -55.800000 14.154128 45.600000
v -55.800000 14.154128 49.000000
v -55.800000 8.554128 49.000000
v -18.600000 8.554128 45.600000
v -18.600000 14.154128 45.600000
v -18.600000 14.154128 49.000000
v -18.600000 8.554128 49.000000
v 18.600000 8.554128 45.600000
v 18.600000 14.154128 45.600000
v 18.600000 14.154128 49.000000
v 18.600000 8.554128 49.000000
v 55.800000 8.554128 45.600000
v 55.800000 14.154128 45.600000
v 55.800000 14.154128 49.000000
v 55.800000 8.554128 49.000000
v 93.000000 8.554128 45.600000
v 93.000000 14.154128 45.600000
v 93.000000 14.154128 49.000000
v 93.000000 8.554128 49.000000
v -93.000000 1.954128 45.600000
v -93.000000 7.554128 45.600000
v -93.000000 7.554128 49.000000
v -93.000000 1.954128 49.000000
v -55.800000 1.954128 45.600000
v -55.800000 7.554128 45.600000
v -55.800000 7.554128 49.000000
v -55.800000 1.954128 49.000000
v -18.600000 1.954128 45.600000
v -18.600000 7.554128 45.600000
v -18.600000 7.554128 49.000000
v -18.600000 1.954128 49.000000
v 18.600000 1.954128 45.600000
v 18.600000 7.554128 45.600000
v 18.600000 7.554128 49.000000
v 18.600000 1.954128 49.000000
v 55.800000 1.954128 45.600000
v 55.800000 7.554128 45.600000
v 55.800000 7.554128 49.000000
v 55.800000 1.954128 49.000000
v 93.000000 1.954128 45.600000
v 93.000000 7.554128 45.600000
v 93.000000 7.554128 49.000000
v 93.000000 1.954128 49.000000
v -93.000000 -4.645872 45.600000
v -93.000000 0.954128 45.600000
v -93.000000 0.954128 49.000000
v -93.000000 -4.645872 49.000000
v -55.800000 -4.645872 45.600000
v -55.800000 0.954128 45.600000
v -55.800000 0.954128 49.000000
v -55.800000 -4.645872 49.000000
v -18.600000 -4.645872 45.600000
v -18.600000 0.954128 45.600000
v -18.600000 0.954128 49.000000
v -18.600000 -4.645872 49.000000
v 18.600000 -4.645872 45.600000
v 18.600000 0.954128 45.600000
v 18.600000 0.954128 49.000000
v 18.600000 -4.645872 49.000000
v 55.800000 -4.645872 45.600000
v 55.800000 0.954128 45.600000
v 55.800000 0.954128 49.000000
v 55.800000 -4.645872 49.000000
v 93.000000 -4.645872 45.600000
v 93.000000 0.954128 45.600000
v 93.000000 0.954128 49.000000
v 93.000000 -4.645872 49.000000
v -93.000000 -11.245872 45.600000
v -93.000000 -5.645872 45.600000
v -93.000000 -5.645872 49.000000
v -93.000000 -11.245872 49.000000
v -55.800000 -11.245872 45.600000
v -55.800000 -5.645872 45.600000
v -55.800000 -5.645872 49.000000
v -55.800000 -11.245872 49.000000
v -18.600000 -11.245872 45.600000
v -18.600000 -5.645872 45.600000
v -18.600000 -5.645872 49.000000
v -18.600000 -11.245872 49.000000
v 18.600000 -11.245872 45.600000
v 18.600000 -5.645872 45.600000
v 18.600000 -5.645872 49.000000
v 18.600000 -11.245872 49.000000
v 55.800000 -11.245872 45.600000
v 55.800000 -5.645872 45.600000
v 55.800000 -5.645872 49.000000
v 55.800000 -11.245872 49.000000
v 93.000000 -11.245872 45.600000
v 93.000000 -5.645872 45.600000
v 93.000000 -5.645872 49.000000
v 93.000000 -11.245872 49.000000
v -93.000000 -26.840381 52.358400
v -93.000000 -23.895499 52.930827
v -93.000000 -25.040353 58.820590
v -93.000000 -27.985235 58.248163
v -55.800000 -26.840381 52.358400
v -55.800000 -23.895499 52.930827
v -55.800000 -25.040353 58.820590
v -55.800000 -27.985235 58.248163
v -18.600000 -26.840381 52.358400
v -18.600000 -23.895499 52.930827
v -18.600000 -25.040353 58.820590
v -18.600000 -27.985235 58.248163
v 18.600000 -26.840381 52.358400
v 18.600000 -23.895499 52.930827
v 18.600000 -25.040353 58.820590
v 18.600000 -27.985235 58.248163
v 55.800000 -26.840381 52.358400
v 55.800000 -23.895499 52.930827
v 55.800000 -25.040353 58.820590
v 55.800000 -27.985235 58.248163
v 93.000000 -26.840381 52.358400
v 93.000000 -23.895499 52.930827
v 93.000000 -25.040353 58.820590
v 93.000000 -27.985235 58.248163
v -93.000000 -28.252368 59.622441
v -93.000000 -25.307486 60.194868
v -93.000000 -26.452340 66.084631
v -93.000000 -29.397221 65.512204
v -55.800000 -28.252368 59.622441
v -55.800000 -25.307486 60.194868
v -55.800000 -26.452340 66.084631
v -55.800000 -29.397221 65.512204
v -18.600000 -28.252368 59.622441
v -18.600000 -25.307486 60.194868
v -18.600000 -26.452340 66.084631
v -18.600000 -29.397221 65.512204
v 18.600000 -28.252368 59.622441
v 18.600000 -25.307486 60.194868
v 18.600000 -26.452340 66.084631
v 18.600000 -29.397221 65.512204
v 55.800000 -28.252368 59.622441
v 55.800000 -25.307486 60.194868
v 55.800000 -26.452340 66.084631
v 55.800000 -29.397221 65.512204
v 93.000000 -28.252368 59.622441
v 93.000000 -25.307486 60.194868
v 93.000000 -26.452340 66.084631
v 93.000000 -29.397221 65.512204
v -93.000000 -29.664354 66.886482
v -93.000000 -26.719473 67.458909
v -93.000000 -27.864326 73.348672
v -93.000000 -30.809208 72.776245
v -55.800000 -29.664354 66.886482
v -55.800000 -26.719473 67.458909
v -55.800000 -27.864326 73.348672
v -55.800000 -30.809208 72.776245
v -18.600000 -29.664354 66.886482
v -18.600000 -26.719473 67.458909
v -18.600000 -27.864326 73.348672
v -18.600000 -30.809208 72.776245
v 18.600000 -29.664354 66.886482
v 18.600000 -26.719473 67.458909
v 18.600000 -27.864326 73.348672
v 18.600000 -30.809208 72.776245
v 55.800000 -29.664354 66.886482
v 55.800000 -26.719473 67.458909
v 55.800000 -27.864326 73.348672
v 55.800000 -30.809208 72.776245
v 93.000000 -29.664354 66.886482
v 93.000000 -26.719473 67.458909
v 93.000000 -27.864326 73.348672
v 93.000000 -30.809208 72.776245
v -93.000000 -31.076341 74.150524
v -93.000000 -28.131459 74.722951
v -93.000000 -29.276313 80.612714
v -93.000000 -32.221195 80.040287
v -55.800000 -31.076341 74.150524
v -55.800000 -28.131459 74.722951
v -55.800000 -29.276313 80.612714
v -55.800000 -32.221195 80.040287
v -18.600000 -31.076341 74.150524
v -18.600000 -28.131459 74.722951
v -18.600000 -29.276313 80.612714
v -18.600000 -32.221195 80.040287
v 18.600000 -31.076341 74.150524
v 18.600000 -28.131459 74.722951
v 18.600000 -29.276313 80.612714
v 18.600000 -32.221195 80.040287
v 55.800000 -31.076341 74.150524
v 55.800000 -28.131459 74.722951
v 55.800000 -29.276313 80.612714
v 55.800000 -32.221195 80.040287
v 93.000000 -31.076341 74.150524
v 93.000000 -28.131459 74.722951
v 93.000000 -29.276313 80.612714
v 93.000000 -32.221195 80.040287
vt -0.950000 0.016000
vt -0.965556 0.016000
vt -0.965556 0.456000
vt -0.950000 0.456000
vt 0.281098 0.016000
vt 0.265541 0.016000
vt 0.265541 0.456000
vt 0.281098 0.456000
vt 0.265541 0.016000
vt 0.249985 0.016000
vt 0.249985 0.456000
vt 0.265541 0.456000
vt -0.965556 0.016000
vt -0.950000 0.016000
vt -0.950000 0.456000
vt -0.965556 0.456000
vt -0.950000 0.016000
vt -0.934444 0.016000
vt -0.934444 0.456000
vt -0.950000 0.456000
vt 0.249985 0.016000
vt 0.265541 0.016000
vt 0.265541 0.456000
vt 0.249985 0.456000
vt 0.265541 0.016000
vt 0.281098 0.016000
vt 0.281098 0.456000
vt 0.265541 0.456000
vt -0.934444 0.016000
vt -0.950000 0.016000
vt -0.950000 0.456000
vt -0.934444 0.456000
vt -0.950000 0.452208
vt -0.965556 0.453318
vt -0.965556 0.653318
vt -0.950000 0.652208
vt 0.280865 0.453318
vt 0.265541 0.456000
vt 0.300541 0.656000
vt 0.315865 0.653318
vt 0.265541 0.456000
vt 0.250218 0.458682
vt 0.285218 0.658682
vt 0.300541 0.656000
vt -0.965556 0.458682
vt -0.950000 0.459792
vt -0.950000 0.659792
vt -0.965556 0.658682
vt -0.950000 0.459792
vt -0.934444 0.458682
vt -0.934444 0.658682
vt -0.950000 0.659792
vt 0.250218 0.458682
vt 0.265541 0.456000
vt 0.300541 0.656000
vt 0.285218 0.658682
vt 0.265541 0.456000
vt 0.280865 0.453318
vt 0.315865 0.653318
vt 0.300541 0.656000
vt -0.934444 0.453318
vt -0.950000 0.452208
vt -0.950000 0.652208
vt -0.934444 0.653318
vt 0.300541 0.656000
vt 0.293406 0.642176
vt 0.138406 0.722176
vt 0.145541 0.736000
vt -0.965556 0.293406
vt -0.950000 0.290451
vt -0.950000 0.135451
vt -0.965556 0.138406
vt -0.950000 0.290451
vt -0.934444 0.293406
vt -0.934444 0.138406
vt -0.950000 0.135451
vt 0.293406 0.642176
vt 0.300541 0.656000
vt 0.145541 0.736000
vt 0.138406 0.722176
vt 0.300541 0.656000
vt 0.307676 0.669824
vt 0.152676 0.749824
vt 0.145541 0.736000
vt -0.934444 0.307676
vt -0.950000 0.310631
vt -0.950000 0.155631
vt -0.934444 0.152676
vt -0.950000 0.310631
vt -0.965556 0.307676
vt -0.965556 0.152676
vt -0.950000 0.155631
vt 0.307676 0.669824
vt 0.300541 0.656000
vt 0.145541 0.736000
vt 0.152676 0.749824
vt 0.145541 0.736000
vt 0.156941 0.725415
vt 0.026941 0.585415
vt 0.015541 0.596000
vt -0.965556 0.725415
vt -0.950000 0.721030
vt -0.950000 0.581030
vt -0.965556 0.585415
vt -0.950000 0.721030
vt -0.934444 0.725415
vt -0.934444 0.585415
vt -0.950000 0.581030
vt 0.156941 0.725415
vt 0.145541 0.736000
vt 0.015541 0.596000
vt 0.026941 0.585415
vt 0.145541 0.736000
vt 0.134142 0.746585
vt 0.004142 0.606585
vt 0.015541 0.596000
vt -0.934444 0.746585
vt -0.950000 0.750970
vt -0.950000 0.610970
vt -0.934444 0.606585
vt -0.950000 0.750970
vt -0.965556 0.746585
vt -0.965556 0.606585
vt -0.950000 0.610970
vt 0.134142 0.746585
vt 0.145541 0.736000
vt 0.015541 0.596000
vt 0.004142 0.606585
vt -0.950000 0.016000
vt -0.964142 0.016000
vt -0.964142 0.416000
vt -0.950000 0.416000
vt -0.140317 0.016000
vt -0.154459 0.016000
vt -0.154459 0.416000
vt -0.140317 0.416000
vt -0.154459 0.016000
vt -0.168601 0.016000
vt -0.168601 0.416000
vt -0.154459 0.416000
vt -0.964142 0.016000
vt -0.950000 0.016000
vt -0.950000 0.416000
vt -0.964142 0.416000
vt -0.950000 0.016000
vt -0.935858 0.016000
vt -0.935858 0.416000
vt -0.950000 0.416000
vt -0.168601 0.016000
vt -0.154459 0.016000
vt -0.154459 0.416000
vt -0.168601 0.416000
vt -0.154459 0.016000
vt -0.140317 0.016000
vt -0.140317 0.416000
vt -0.154459 0.416000
vt -0.935858 0.016000
vt -0.950000 0.016000
vt -0.950000 0.416000
vt -0.935858 0.416000
vt -0.950000 0.416000
vt -0.964142 0.416000
vt -0.964142 0.796000
vt -0.950000 0.796000
vt -0.140317 0.416000
vt -0.154459 0.416000
vt -0.154459 0.796000
vt -0.140317 0.796000
vt -0.154459 0.416000
vt -0.168601 0.416000
vt -0.168601 0.796000
vt -0.154459 0.796000
vt -0.964142 0.416000
vt -0.950000 0.416000
vt -0.950000 0.796000
vt -0.964142 0.796000
vt -0.950000 0.416000
vt -0.935858 0.416000
vt -0.935858 0.796000
vt -0.950000 0.796000
vt -0.168601 0.416000
vt -0.154459 0.416000
vt -0.154459 0.796000
vt -0.168601 0.796000
vt -0.154459 0.416000
vt -0.140317 0.416000
vt -0.140317 0.796000
vt -0.154459 0.796000
vt -0.935858 0.416000
vt -0.950000 0.416000
vt -0.950000 0.796000
vt -0.935858 0.796000
vt 0.265541 0.456000
vt 0.263730 0.444832
vt -0.106270 0.504832
vt -0.104459 0.516000
vt -0.961314 0.263730
vt -0.950000 0.262980
vt -0.950000 -0.107020
vt -0.961314 -0.106270
vt -0.950000 0.262980
vt -0.938686 0.263730
vt -0.938686 -0.106270
vt -0.950000 -0.107020
vt 0.263730 0.444832
vt 0.265541 0.456000
vt -0.104459 0.516000
vt -0.106270 0.504832
vt 0.265541 0.456000
vt 0.267352 0.467168
vt -0.102648 0.527168
vt -0.104459 0.516000
vt -0.938686 0.267352
vt -0.950000 0.268102
vt -0.950000 -0.101898
vt -0.938686 -0.102648
vt -0.950000 0.268102
vt -0.961314 0.267352
vt -0.961314 -0.102648
vt -0.950000 -0.101898
vt 0.267352 0.467168
vt 0.265541 0.456000
vt -0.104459 0.516000
vt -0.102648 0.527168
vt 0.265541 0.016000
vt 0.265541 0.004686
vt -0.154459 0.004686
vt -0.154459 0.016000
vt -0.961314 0.265541
vt -0.950000 0.265541
vt -0.950000 -0.154459
vt -0.961314 -0.154459
vt -0.950000 0.265541
vt -0.938686 0.265541
vt -0.938686 -0.154459
vt -0.950000 -0.154459
vt 0.265541 0.004686
vt 0.265541 0.016000
vt -0.154459 0.016000
vt -0.154459 0.004686
vt 0.265541 0.016000
vt 0.265541 0.027314
vt -0.154459 0.027314
vt -0.154459 0.016000
vt -0.938686 0.265541
vt -0.950000 0.265541
vt -0.950000 -0.154459
vt -0.938686 -0.154459
vt -0.950000 0.265541
vt -0.961314 0.265541
vt -0.961314 -0.154459
vt -0.950000 -0.154459
vt 0.265541 0.027314
vt 0.265541 0.016000
vt -0.154459 0.016000
vt -0.154459 0.027314
vt 0.950000 0.016000
vt 0.934444 0.016000
vt 0.934444 0.456000
vt 0.950000 0.456000
vt 0.281098 0.016000
vt 0.265541 0.016000
vt 0.265541 0.456000
vt 0.281098 0.456000
vt 0.265541 0.016000
vt 0.249985 0.016000
vt 0.249985 0.456000
vt 0.265541 0.456000
vt 0.934444 0.016000
vt 0.950000 0.016000
vt 0.950000 0.456000
vt 0.934444 0.456000
vt 0.950000 0.016000
vt 0.965556 0.016000
vt 0.965556 0.456000
vt 0.950000 0.456000
vt 0.249985 0.016000
vt 0.265541 0.016000
vt 0.265541 0.456000
vt 0.249985 0.456000
vt 0.265541 0.016000
vt 0.281098 0.016000
vt 0.281098 0.456000
vt 0.265541 0.456000
vt 0.965556 0.016000
vt 0.950000 0.016000
vt 0.950000 0.456000
vt 0.965556 0.456000
vt 0.950000 0.452208
vt 0.934444 0.453318
vt 0.934444 0.653318
vt 0.950000 0.652208
vt 0.280865 0.453318
vt 0.265541 0.456000
vt 0.300541 0.656000
vt 0.315865 0.653318
vt 0.265541 0.456000
vt 0.250218 0.458682
vt 0.285218 0.658682
vt 0.300541 0.656000
vt 0.934444 0.458682
vt 0.950000 0.459792
vt 0.950000 0.659792
vt 0.934444 0.658682
vt 0.950000 0.459792
vt 0.965556 0.458682
vt 0.965556 0.658682
vt 0.950000 0.659792
vt 0.250218 0.458682
vt 0.265541 0.456000
vt 0.300541 0.656000
vt 0.285218 0.658682
vt 0.265541 0.456000
vt 0.280865 0.453318
vt 0.315865 0.653318
vt 0.300541 0.656000
vt 0.965556 0.453318
vt 0.950000 0.452208
vt 0.950000 0.652208
vt 0.965556 0.653318
vt 0.300541 0.656000
vt 0.293406 0.642176
vt 0.138406 0.722176
vt 0.145541 0.736000
vt 0.934444 0.293406
vt 0.950000 0.290451
vt 0.950000 0.135451
vt 0.934444 0.138406
vt 0.950000 0.290451
vt 0.965556 0.293406
vt 0.965556 0.138406
vt 0.950000 0.135451
vt 0.293406 0.642176
vt 0.300541 0.656000
vt 0.145541 0.736000
vt 0.138406 0.722176
vt 0.300541 0.656000
vt 0.307676 0.669824
vt 0.152676 0.749824
vt 0.145541 0.736000
vt 0.965556 0.307676
vt 0.950000 0.310631
vt 0.950000 0.155631
vt 0.965556 0.152676
vt 0.950000 0.310631
vt 0.934444 0.307676
vt 0.934444 0.152676
vt 0.950000 0.155631
vt 0.307676 0.669824
vt 0.300541 0.656000
vt 0.145541 0.736000
vt 0.152676 0.749824
vt 0.145541 0.736000
vt 0.156941 0.725415
vt 0.026941 0.585415
vt 0.015541 0.596000
vt 0.934444 0.725415
vt 0.950000 0.721030
vt 0.950000 0.581030
vt 0.934444 0.585415
vt 0.950000 0.721030
vt 0.965556 0.725415
vt 0.965556 0.585415
vt 0.950000 0.581030
vt 0.156941 0.725415
vt 0.145541 0.736000
vt 0.015541 0.596000
vt 0.026941 0.585415
vt 0.145541 0.736000
vt 0.134142 0.746585
vt 0.004142 0.606585
vt 0.015541 0.596000
vt 0.965556 0.746585
vt 0.950000 0.750970
vt 0.950000 0.610970
vt 0.965556 0.606585
vt 0.950000 0.750970
vt 0.934444 0.746585
vt 0.934444 0.606585
vt 0.950000 0.610970
vt 0.134142 0.746585
vt 0.145541 0.736000
vt 0.015541 0.596000
vt 0.004142 0.606585
vt 0.950000 0.016000
vt 0.935858 0.016000
vt 0.935858 0.416000
vt 0.950000 0.416000
vt -0.140317 0.016000
vt -0.154459 0.016000
vt -0.154459 0.416000
vt -0.140317 0.416000
vt -0.154459 0.016000
vt -0.168601 0.016000
vt -0.168601 0.416000
vt -0.154459 0.416000
vt 0.935858 0.016000
vt 0.950000 0.016000
vt 0.950000 0.416000
vt 0.935858 0.416000
vt 0.950000 0.016000
vt 0.964142 0.016000
vt 0.964142 0.416000
vt 0.950000 0.416000
vt -0.168601 0.016000
vt -0.154459 0.016000
vt -0.154459 0.416000
vt -0.168601 0.416000
vt -0.154459 0.016000
vt -0.140317 0.016000
vt -0.140317 0.416000
vt -0.154459 0.416000
vt 0.964142 0.016000
vt 0.950000 0.016000
vt 0.950000 0.416000
vt 0.964142 0.416000
vt 0.950000 0.416000
vt 0.935858 0.416000
vt 0.935858 0.796000
vt 0.950000 0.796000
vt -0.140317 0.416000
vt -0.154459 0.416000
vt -0.154459 0.796000
vt -0.140317 0.796000
vt -0.154459 0.416000
vt -0.168601 0.416000
vt -0.168601 0.796000
vt -0.154459 0.796000
vt 0.935858 0.416000
vt 0.950000 0.416000
vt 0.950000 0.796000
vt 0.935858 0.796000
vt 0.950000 0.416000
vt 0.964142 0.416000
vt 0.964142 0.796000
vt 0.950000 0.796000
vt -0.168601 0.416000
vt -0.154459 0.416000
vt -0.154459 0.796000
vt -0.168601 0.796000
vt -0.154459 0.416000
vt -0.140317 0.416000
vt -0.140317 0.796000
vt -0.154459 0.796000
vt 0.964142 0.416000
vt 0.950000 0.416000
vt 0.950000 0.796000
vt 0.964142 0.796000
vt 0.265541 0.456000
vt 0.263730 0.444832
vt -0.106270 0.504832
vt -0.104459 0.516000
vt 0.938686 0.263730
vt 0.950000 0.262980
vt 0.950000 -0.107020
vt 0.938686 -0.106270
vt 0.950000 0.262980
vt 0.961314 0.263730
vt 0.961314 -0.106270
vt 0.950000 -0.107020
vt 0.263730 0.444832
vt 0.265541 0.456000
vt -0.104459 0.516000
vt -0.106270 0.504832
vt 0.265541 0.456000
vt 0.267352 0.467168
vt -0.102648 0.527168
vt -0.104459 0.516000
vt 0.961314 0.267352
vt 0.950000 0.268102
vt 0.950000 -0.101898
vt 0.961314 -0.102648
vt 0.950000 0.268102
vt 0.938686 0.267352
vt 0.938686 -0.102648
vt 0.950000 -0.101898
vt 0.267352 0.467168
vt 0.265541 0.456000
vt -0.104459 0.516000
vt -0.102648 0.527168
vt 0.265541 0.016000
vt 0.265541 0.004686
vt -0.154459 0.004686
vt -0.154459 0.016000
vt 0.938686 0.265541
vt 0.950000 0.265541
vt 0.950000 -0.154459
vt 0.938686 -0.154459
vt 0.950000 0.265541
vt 0.961314 0.265541
vt 0.961314 -0.154459
vt 0.950000 -0.154459
vt 0.265541 0.004686
vt 0.265541 0.016000
vt -0.154459 0.016000
vt -0.154459 0.004686
vt 0.265541 0.016000
vt 0.265541 0.027314
vt -0.154459 0.027314
vt -0.154459 0.016000
vt 0.961314 0.265541
vt 0.950000 0.265541
vt 0.950000 -0.154459
vt 0.961314 -0.154459
vt 0.950000 0.265541
vt 0.938686 0.265541
vt 0.938686 -0.154459
vt 0.950000 -0.154459
vt 0.265541 0.027314
vt 0.265541 0.016000
vt -0.154459 0.016000
vt -0.154459 0.027314
vt -0.930000 0.217541
vt -0.930000 0.273541
vt -0.558000 0.273541
vt -0.558000 0.217541
vt -0.930000 0.456000
vt -0.930000 0.490000
vt -0.558000 0.490000
vt -0.558000 0.456000
vt -0.930000 0.273541
vt -0.930000 0.217541
vt -0.558000 0.217541
vt -0.558000 0.273541
vt -0.930000 0.490000
vt -0.930000 0.456000
vt -0.558000 0.456000
vt -0.558000 0.490000
vt -0.558000 0.217541
vt -0.558000 0.273541
vt -0.186000 0.273541
vt -0.186000 0.217541
vt -0.558000 0.456000
vt -0.558000 0.490000
vt -0.186000 0.490000
vt -0.186000 0.456000
vt -0.558000 0.273541
vt -0.558000 0.217541
vt -0.186000 0.217541
vt -0.186000 0.273541
vt -0.558000 0.490000
vt -0.558000 0.456000
vt -0.186000 0.456000
vt -0.186000 0.490000
vt -0.186000 0.217541
vt -0.186000 0.273541
vt 0.186000 0.273541
vt 0.186000 0.217541
vt -0.186000 0.456000
vt -0.186000 0.490000
vt 0.186000 0.490000
vt 0.186000 0.456000
vt -0.186000 0.273541
vt -0.186000 0.217541
vt 0.186000 0.217541
vt 0.186000 0.273541
vt -0.186000 0.490000
vt -0.186000 0.456000
vt 0.186000 0.456000
vt 0.186000 0.490000
vt 0.186000 0.217541
vt 0.186000 0.273541
vt 0.558000 0.273541
vt 0.558000 0.217541
vt 0.186000 0.456000
vt 0.186000 0.490000
vt 0.558000 0.490000
vt 0.558000 0.456000
vt 0.186000 0.273541
vt 0.186000 0.217541
vt 0.558000 0.217541
vt 0.558000 0.273541
vt 0.186000 0.490000
vt 0.186000 0.456000
vt 0.558000 0.456000
vt 0.558000 0.490000
vt 0.558000 0.217541
vt 0.558000 0.273541
vt 0.930000 0.273541
vt 0.930000 0.217541
vt 0.558000 0.456000
vt 0.558000 0.490000
vt 0.930000 0.490000
vt 0.930000 0.456000
vt 0.558000 0.273541
vt 0.558000 0.217541
vt 0.930000 0.217541
vt 0.930000 0.273541
vt 0.558000 0.490000
vt 0.558000 0.456000
vt 0.930000 0.456000
vt 0.930000 0.490000
vt 0.217541 0.490000
vt 0.273541 0.490000
vt 0.273541 0.456000
vt 0.217541 0.456000
vt 0.217541 0.456000
vt 0.273541 0.456000
vt 0.273541 0.490000
vt 0.217541 0.490000
vt -0.930000 0.151541
vt -0.930000 0.207541
vt -0.558000 0.207541
vt -0.558000 0.151541
vt -0.930000 0.456000
vt -0.930000 0.490000
vt -0.558000 0.490000
vt -0.558000 0.456000
vt -0.930000 0.207541
vt -0.930000 0.151541
vt -0.558000 0.151541
vt -0.558000 0.207541
vt -0.930000 0.490000
vt -0.930000 0.456000
vt -0.558000 0.456000
vt -0.558000 0.490000
vt -0.558000 0.151541
vt -0.558000 0.207541
vt -0.186000 0.207541
vt -0.186000 0.151541
vt -0.558000 0.456000
vt -0.558000 0.490000
vt -0.186000 0.490000
vt -0.186000 0.456000
vt -0.558000 0.207541
vt -0.558000 0.151541
vt -0.186000 0.151541
vt -0.186000 0.207541
vt -0.558000 0.490000
vt -0.558000 0.456000
vt -0.186000 0.456000
vt -0.186000 0.490000
vt -0.186000 0.151541
vt -0.186000 0.207541
vt 0.186000 0.207541
vt 0.186000 0.151541
vt -0.186000 0.456000
vt -0.186000 0.490000
vt 0.186000 0.490000
vt 0.186000 0.456000
vt -0.186000 0.207541
vt -0.186000 0.151541
vt 0.186000 0.151541
vt 0.186000 0.207541
vt -0.186000 0.490000
vt -0.186000 0.456000
vt 0.186000 0.456000
vt 0.186000 0.490000
vt 0.186000 0.151541
vt 0.186000 0.207541
vt 0.558000 0.207541
vt 0.558000 0.151541
vt 0.186000 0.456000
vt 0.186000 0.490000
vt 0.558000 0.490000
vt 0.558000 0.456000
vt 0.186000 0.207541
vt 0.186000 0.151541
vt 0.558000 0.151541
vt 0.558000 0.207541
vt 0.186000 0.490000
vt 0.186000 0.456000
vt 0.558000 0.456000
vt 0.558000 0.490000
vt 0.558000 0.151541
vt 0.558000 0.207541
vt 0.930000 0.207541
vt 0.930000 0.151541
vt 0.558000 0.456000
vt 0.558000 0.490000
vt 0.930000 0.490000
vt 0.930000 0.456000
vt 0.558000 0.207541
vt 0.558000 0.151541
vt 0.930000 0.151541
vt 0.930000 0.207541
vt 0.558000 0.490000
vt 0.558000 0.456000
vt 0.930000 0.456000
vt 0.930000 0.490000
vt 0.151541 0.490000
vt 0.207541 0.490000
vt 0.207541 0.456000
vt 0.151541 0.456000
vt 0.151541 0.456000
vt 0.207541 0.456000
vt 0.207541 0.490000
vt 0.151541 0.490000
vt -0.930000 0.085541
vt -0.930000 0.141541
vt -0.558000 0.141541
vt -0.558000 0.085541
vt -0.930000 0.456000
vt -0.930000 0.490000
vt -0.558000 0.490000
vt -0.558000 0.456000
vt -0.930000 0.141541
vt -0.930000 0.085541
vt -0.558000 0.085541
vt -0.558000 0.141541
vt -0.930000 0.490000
vt -0.930000 0.456000
vt -0.558000 0.456000
vt -0.558000 0.490000
vt -0.558000 0.085541
vt -0.558000 0.141541
vt -0.186000 0.141541
vt -0.186000 0.085541
vt -0.558000 0.456000
vt -0.558000 0.490000
vt -0.186000 0.490000
vt -0.186000 0.456000
vt -0.558000 0.141541
vt -0.558000 0.085541
vt -0.186000 0.085541
vt -0.186000 0.141541
vt -0.558000 0.490000
vt -0.558000 0.456000
vt -0.186000 0.456000
vt -0.186000 0.490000
vt -0.186000 0.085541
vt -0.186000 0.141541
vt 0.186000 0.141541
vt 0.186000 0.085541
vt -0.186000 0.456000
vt -0.186000 0.490000
vt 0.186000 0.490000
vt 0.186000 0.456000
vt -0.186000 0.141541
vt -0.186000 0.085541
vt 0.186000 0.085541
vt 0.186000 0.141541
vt -0.186000 0.490000
vt -0.186000 0.456000
vt 0.186000 0.456000
vt 0.186000 0.490000
vt 0.186000 0.085541
vt 0.186000 0.141541
vt 0.558000 0.141541
vt 0.558000 0.085541
vt 0.186000 0.456000
vt 0.186000 0.490000
vt 0.558000 0.490000
vt 0.558000 0.456000
vt 0.186000 0.141541
vt 0.186000 0.085541
vt 0.558000 0.085541
vt 0.558000 0.141541
vt 0.186000 0.490000
vt 0.186000 0.456000
vt 0.558000 0.456000
vt 0.558000 0.490000
vt 0.558000 0.085541
vt 0.558000 0.141541
vt 0.930000 0.141541
vt 0.930000 0.085541
vt 0.558000 0.456000
vt 0.558000 0.490000
vt 0.930000 0.490000
vt 0.930000 0.456000
vt 0.558000 0.141541
vt 0.558000 0.085541
vt 0.930000 0.085541
vt 0.930000 0.141541
vt 0.558000 0.490000
vt 0.558000 0.456000
vt 0.930000 0.456000
vt 0.930000 0.490000
vt 0.085541 0.490000
vt 0.141541 0.490000
vt 0.141541 0.456000
vt 0.085541 0.456000
vt 0.085541 0.456000
vt 0.141541 0.456000
vt 0.141541 0.490000
vt 0.085541 0.490000
vt -0.930000 0.019541
vt -0.930000 0.075541
vt -0.558000 0.075541
vt -0.558000 0.019541
vt -0.930000 0.456000
vt -0.930000 0.490000
vt -0.558000 0.490000
vt -0.558000 0.456000
vt -0.930000 0.075541
vt -0.930000 0.019541
vt -0.558000 0.019541
vt -0.558000 0.075541
vt -0.930000 0.490000
vt -0.930000 0.456000
vt -0.558000 0.456000
vt -0.558000 0.490000
vt -0.558000 0.019541
vt -0.558000 0.075541
vt -0.186000 0.075541
vt -0.186000 0.019541
vt -0.558000 0.456000
vt -0.558000 0.490000
vt -0.186000 0.490000
vt -0.186000 0.456000
vt -0.558000 0.075541
vt -0.558000 0.019541
vt -0.186000 0.019541
vt -0.186000 0.075541
vt -0.558000 0.490000
vt -0.558000 0.456000
vt -0.186000 0.456000
vt -0.186000 0.490000
vt -0.186000 0.019541
vt -0.186000 0.075541
vt 0.186000 0.075541
vt 0.186000 0.019541
vt -0.186000 0.456000
vt -0.186000 0.490000
vt 0.186000 0.490000
vt 0.186000 0.456000
vt -0.186000 0.075541
vt -0.186000 0.019541
vt 0.186000 0.019541
vt 0.186000 0.075541
vt -0.186000 0.490000
vt -0.186000 0.456000
vt 0.186000 0.456000
vt 0.186000 0.490000
vt 0.186000 0.019541
vt 0.186000 0.075541
vt 0.558000 0.075541
vt 0.558000 0.019541
vt 0.186000 0.456000
vt 0.186000 0.490000
vt 0.558000 0.490000
vt 0.558000 0.456000
vt 0.186000 0.075541
vt 0.186000 0.019541
vt 0.558000 0.019541
vt 0.558000 0.075541
vt 0.186000 0.490000
vt 0.186000 0.456000
vt 0.558000 0.456000
vt 0.558000 0.490000
vt 0.558000 0.019541
vt 0.558000 0.075541
vt 0.930000 0.075541
vt 0.930000 0.019541
vt 0.558000 0.456000
vt 0.558000 0.490000
vt 0.930000 0.490000
vt 0.930000 0.456000
vt 0.558000 0.075541
vt 0.558000 0.019541
vt 0.930000 0.019541
vt 0.930000 0.075541
vt 0.558000 0.490000
vt 0.558000 0.456000
vt 0.930000 0.456000
vt 0.930000 0.490000
vt 0.019541 0.490000
vt 0.075541 0.490000
vt 0.075541 0.456000
vt 0.019541 0.456000
vt 0.019541 0.456000
vt 0.075541 0.456000
vt 0.075541 0.490000
vt 0.019541 0.490000
vt -0.930000 -0.046459
vt -0.930000 0.009541
vt -0.558000 0.009541
vt -0.558000 -0.046459
vt -0.930000 0.456000
vt -0.930000 0.490000
vt -0.558000 0.490000
vt -0.558000 0.456000
vt -0.930000 0.009541
vt -0.930000 -0.046459
vt -0.558000 -0.046459
vt -0.558000 0.009541
vt -0.930000 0.490000
vt -0.930000 0.456000
vt -0.558000 0.456000
vt -0.558000 0.490000
vt -0.558000 -0.046459
vt -0.558000 0.009541
vt -0.186000 0.009541
vt -0.186000 -0.046459
vt -0.558000 0.456000
vt -0.558000 0.490000
vt -0.186000 0.490000
vt -0.186000 0.456000
vt -0.558000 0.009541
vt -0.558000 -0.046459
vt -0.186000 -0.046459
vt -0.186000 0.009541
vt -0.558000 0.490000
vt -0.558000 0.456000
vt -0.186000 0.456000
vt -0.186000 0.490000
vt -0.186000 -0.046459
vt -0.186000 0.009541
vt 0.186000 0.009541
vt 0.186000 -0.046459
vt -0.186000 0.456000
vt -0.186000 0.490000
vt 0.186000 0.490000
vt 0.186000 0.456000
vt -0.186000 0.009541
vt -0.186000 -0.046459
vt 0.186000 -0.046459
vt 0.186000 0.009541
vt -0.186000 0.490000
vt -0.186000 0.456000
vt 0.186000 0.456000
vt 0.186000 0.490000
vt 0.186000 -0.046459
vt 0.186000 0.009541
vt 0.558000 0.009541
vt 0.558000 -0.046459
vt 0.186000 0.456000
vt 0.186000 0.490000
vt 0.558000 0.490000
vt 0.558000 0.456000
vt 0.186000 0.009541
vt 0.186000 -0.046459
vt 0.558000 -0.046459
vt 0.558000 0.009541
vt 0.186000 0.490000
vt 0.186000 0.456000
vt 0.558000 0.456000
vt 0.558000 0.490000
vt 0.558000 -0.046459
vt 0.558000 0.009541
vt 0.930000 0.009541
vt 0.930000 -0.046459
vt 0.558000 0.456000
vt 0.558000 0.490000
vt 0.930000 0.490000
vt 0.930000 0.456000
vt 0.558000 0.009541
vt 0.558000 -0.046459
vt 0.930000 -0.046459
vt 0.930000 0.009541
vt 0.558000 0.490000
vt 0.558000 0.456000
vt 0.930000 0.456000
vt 0.930000 0.490000
vt -0.046459 0.490000
vt 0.009541 0.490000
vt 0.009541 0.456000
vt -0.046459 0.456000
vt -0.046459 0.456000
vt 0.009541 0.456000
vt 0.009541 0.490000
vt -0.046459 0.490000
vt -0.930000 -0.112459
vt -0.930000 -0.056459
vt -0.558000 -0.056459
vt -0.558000 -0.112459
vt -0.930000 0.456000
vt -0.930000 0.490000
vt -0.558000 0.490000
vt -0.558000 0.456000
vt -0.930000 -0.056459
vt -0.930000 -0.112459
vt -0.558000 -0.112459
vt -0.558000 -0.056459
vt -0.930000 0.490000
vt -0.930000 0.456000
vt -0.558000 0.456000
vt -0.558000 0.490000
vt -0.558000 -0.112459
vt -0.558000 -0.056459
vt -0.186000 -0.056459
vt -0.186000 -0.112459
vt -0.558000 0.456000
vt -0.558000 0.490000
vt -0.186000 0.490000
vt -0.186000 0.456000
vt -0.558000 -0.056459
vt -0.558000 -0.112459
vt -0.186000 -0.112459
vt -0.186000 -0.056459
vt -0.558000 0.490000
vt -0.558000 0.456000
vt -0.186000 0.456000
vt -0.186000 0.490000
vt -0.186000 -0.112459
vt -0.186000 -0.056459
vt 0.186000 -0.056459
vt 0.186000 -0.112459
vt -0.186000 0.456000
vt -0.186000 0.490000
vt 0.186000 0.490000
vt 0.186000 0.456000
vt -0.186000 -0.056459
vt -0.186000 -0.112459
vt 0.186000 -0.112459
vt 0.186000 -0.056459
vt -0.186000 0.490000
vt -0.186000 0.456000
vt 0.186000 0.456000
vt 0.186000 0.490000
vt 0.186000 -0.112459
vt 0.186000 -0.056459
vt 0.558000 -0.056459
vt 0.558000 -0.112459
vt 0.186000 0.456000
vt 0.186000 0.490000
vt 0.558000 0.490000
vt 0.558000 0.456000
vt 0.186000 -0.056459
vt 0.186000 -0.112459
vt 0.558000 -0.112459
vt 0.558000 -0.056459
vt 0.186000 0.490000
vt 0.186000 0.456000
vt 0.558000 0.456000
vt 0.558000 0.490000
vt 0.558000 -0.112459
vt 0.558000 -0.056459
vt 0.930000 -0.056459
vt 0.930000 -0.112459
vt 0.558000 0.456000
vt 0.558000 0.490000
vt 0.930000 0.490000
vt 0.930000 0.456000
vt 0.558000 -0.056459
vt 0.558000 -0.112459
vt 0.930000 -0.112459
vt 0.930000 -0.056459
vt 0.558000 0.490000
vt 0.558000 0.456000
vt 0.930000 0.456000
vt 0.930000 0.490000
vt -0.112459 0.490000
vt -0.056459 0.490000
vt -0.056459 0.456000
vt -0.112459 0.456000
vt -0.112459 0.456000
vt -0.056459 0.456000
vt -0.056459 0.490000
vt -0.112459 0.490000
vt -0.930000 -0.268404
vt -0.930000 -0.238955
vt -0.558000 -0.238955
vt -0.558000 -0.268404
vt -0.930000 0.529308
vt -0.930000 0.588206
vt -0.558000 0.588206
vt -0.558000 0.529308
vt -0.930000 -0.250404
vt -0.930000 -0.279852
vt -0.558000 -0.279852
vt -0.558000 -0.250404
vt -0.930000 0.582482
vt -0.930000 0.523584
vt -0.558000 0.523584
vt -0.558000 0.582482
vt -0.558000 -0.268404
vt -0.558000 -0.238955
vt -0.186000 -0.238955
vt -0.186000 -0.268404
vt -0.558000 0.529308
vt -0.558000 0.588206
vt -0.186000 0.588206
vt -0.186000 0.529308
vt -0.558000 -0.250404
vt -0.558000 -0.279852
vt -0.186000 -0.279852
vt -0.186000 -0.250404
vt -0.558000 0.582482
vt -0.558000 0.523584
vt -0.186000 0.523584
vt -0.186000 0.582482
vt -0.186000 -0.268404
vt -0.186000 -0.238955
vt 0.186000 -0.238955
vt 0.186000 -0.268404
vt -0.186000 0.529308
vt -0.186000 0.588206
vt 0.186000 0.588206
vt 0.186000 0.529308
vt -0.186000 -0.250404
vt -0.186000 -0.279852
vt 0.186000 -0.279852
vt 0.186000 -0.250404
vt -0.186000 0.582482
vt -0.186000 0.523584
vt 0.186000 0.523584
vt 0.186000 0.582482
vt 0.186000 -0.268404
vt 0.186000 -0.238955
vt 0.558000 -0.238955
vt 0.558000 -0.268404
vt 0.186000 0.529308
vt 0.186000 0.588206
vt 0.558000 0.588206
vt 0.558000 0.529308
vt 0.186000 -0.250404
vt 0.186000 -0.279852
vt 0.558000 -0.279852
vt 0.558000 -0.250404
vt 0.186000 0.582482
vt 0.186000 0.523584
vt 0.558000 0.523584
vt 0.558000 0.582482
vt 0.558000 -0.268404
vt 0.558000 -0.238955
vt 0.930000 -0.238955
vt 0.930000 -0.268404
vt 0.558000 0.529308
vt 0.558000 0.588206
vt 0.930000 0.588206
vt 0.930000 0.529308
vt 0.558000 -0.250404
vt 0.558000 -0.279852
vt 0.930000 -0.279852
vt 0.930000 -0.250404
vt 0.558000 0.582482
vt 0.558000 0.523584
vt 0.930000 0.523584
vt 0.930000 0.582482
vt -0.279852 0.582482
vt -0.250404 0.588206
vt -0.238955 0.529308
vt -0.268404 0.523584
vt -0.268404 0.523584
vt -0.238955 0.529308
vt -0.250404 0.588206
vt -0.279852 0.582482
vt -0.930000 -0.282524
vt -0.930000 -0.253075
vt -0.558000 -0.253075
vt -0.558000 -0.282524
vt -0.930000 0.601949
vt -0.930000 0.660846
vt -0.558000 0.660846
vt -0.558000 0.601949
vt -0.930000 -0.264523
vt -0.930000 -0.293972
vt -0.558000 -0.293972
vt -0.558000 -0.264523
vt -0.930000 0.655122
vt -0.930000 0.596224
vt -0.558000 0.596224
vt -0.558000 0.655122
vt -0.558000 -0.282524
vt -0.558000 -0.253075
vt -0.186000 -0.253075
vt -0.186000 -0.282524
vt -0.558000 0.601949
vt -0.558000 0.660846
vt -0.186000 0.660846
vt -0.186000 0.601949
vt -0.558000 -0.264523
vt -0.558000 -0.293972
vt -0.186000 -0.293972
vt -0.186000 -0.264523
vt -0.558000 0.655122
vt -0.558000 0.596224
vt -0.186000 0.596224
vt -0.186000 0.655122
vt -0.186000 -0.282524
vt -0.186000 -0.253075
vt 0.186000 -0.253075
vt 0.186000 -0.282524
vt -0.186000 0.601949
vt -0.186000 0.660846
vt 0.186000 0.660846
vt 0.186000 0.601949
vt -0.186000 -0.264523
vt -0.186000 -0.293972
vt 0.186000 -0.293972
vt 0.186000 -0.264523
vt -0.186000 0.655122
vt -0.186000 0.596224
vt 0.186000 0.596224
vt 0.186000 0.655122
vt 0.186000 -0.282524
vt 0.186000 -0.253075
vt 0.558000 -0.253075
vt 0.558000 -0.282524
vt 0.186000 0.601949
vt 0.186000 0.660846
vt 0.558000 0.660846
vt 0.558000 0.601949
vt 0.186000 -0.264523
vt 0.186000 -0.293972
vt 0.558000 -0.293972
vt 0.558000 -0.264523
vt 0.186000 0.655122
vt 0.186000 0.596224
vt 0.558000 0.596224
vt 0.558000 0.655122
vt 0.558000 -0.282524
vt 0.558000 -0.253075
vt 0.930000 -0.253075
vt 0.930000 -0.282524
vt 0.558000 0.601949
vt 0.558000 0.660846
vt 0.930000 0.660846
vt 0.930000 0.601949
vt 0.558000 -0.264523
vt 0.558000 -0.293972
vt 0.930000 -0.293972
vt 0.930000 -0.264523
vt 0.558000 0.655122
vt 0.558000 0.596224
vt 0.930000 0.596224
vt 0.930000 0.655122
vt -0.293972 0.655122
vt -0.264523 0.660846
vt -0.253075 0.601949
vt -0.282524 0.596224
vt -0.282524 0.596224
vt -0.253075 0.601949
vt -0.264523 0.660846
vt -0.293972 0.655122
vt -0.930000 -0.296644
vt -0.930000 -0.267195
vt -0.558000 -0.267195
vt -0.558000 -0.296644
vt -0.930000 0.674589
vt -0.930000 0.733487
vt -0.558000 0.733487
vt -0.558000 0.674589
vt -0.930000 -0.278643
vt -0.930000 -0.308092
vt -0.558000 -0.308092
vt -0.558000 -0.278643
vt -0.930000 0.727762
vt -0.930000 0.668865
vt -0.558000 0.668865
vt -0.558000 0.727762
vt -0.558000 -0.296644
vt -0.558000 -0.267195
vt -0.186000 -0.267195
vt -0.186000 -0.296644
vt -0.558000 0.674589
vt -0.558000 0.733487
vt -0.186000 0.733487
vt -0.186000 0.674589
vt -0.558000 -0.278643
vt -0.558000 -0.308092
vt -0.186000 -0.308092
vt -0.186000 -0.278643
vt -0.558000 0.727762
vt -0.558000 0.668865
vt -0.186000 0.668865
vt -0.186000 0.727762
vt -0.186000 -0.296644
vt -0.186000 -0.267195
vt 0.186000 -0.267195
vt 0.186000 -0.296644
vt -0.186000 0.674589
vt -0.186000 0.733487
vt 0.186000 0.733487
vt 0.186000 0.674589
vt -0.186000 -0.278643
vt -0.186000 -0.308092
vt 0.186000 -0.308092
vt 0.186000 -0.278643
vt -0.186000 0.727762
vt -0.186000 0.668865
vt 0.186000 0.668865
vt 0.186000 0.727762
vt 0.186000 -0.296644
vt 0.186000 -0.267195
vt 0.558000 -0.267195
vt 0.558000 -0.296644
vt 0.186000 0.674589
vt 0.186000 0.733487
vt 0.558000 0.733487
vt 0.558000 0.674589
vt 0.186000 -0.278643
vt 0.186000 -0.308092
vt 0.558000 -0.308092
vt 0.558000 -0.278643
vt 0.186000 0.727762
vt 0.186000 0.668865
vt 0.558000 0.668865
vt 0.558000 0.727762
vt 0.558000 -0.296644
vt 0.558000 -0.267195
vt 0.930000 -0.267195
vt 0.930000 -0.296644
vt 0.558000 0.674589
vt 0.558000 0.733487
vt 0.930000 0.733487
vt 0.930000 0.674589
vt 0.558000 -0.278643
vt 0.558000 -0.308092
vt 0.930000 -0.308092
vt 0.930000 -0.278643
vt 0.558000 0.727762
vt 0.558000 0.668865
vt 0.930000 0.668865
vt 0.930000 0.727762
vt -0.308092 0.727762
vt -0.278643 0.733487
vt -0.267195 0.674589
vt -0.296644 0.668865
vt -0.296644 0.668865
vt -0.267195 0.674589
vt -0.278643 0.733487
vt -0.308092 0.727762
vt -0.930000 -0.310763
vt -0.930000 -0.281315
vt -0.558000 -0.281315
vt -0.558000 -0.310763
vt -0.930000 0.747230
vt -0.930000 0.806127
vt -0.558000 0.806127
vt -0.558000 0.747230
vt -0.930000 -0.292763
vt -0.930000 -0.322212
vt -0.558000 -0.322212
vt -0.558000 -0.292763
vt -0.930000 0.800403
vt -0.930000 0.741505
vt -0.558000 0.741505
vt -0.558000 0.800403
vt -0.558000 -0.310763
vt -0.558000 -0.281315
vt -0.186000 -0.281315
vt -0.186000 -0.310763
vt -0.558000 0.747230
vt -0.558000 0.806127
vt -0.186000 0.806127
vt -0.186000 0.747230
vt -0.558000 -0.292763
vt -0.558000 -0.322212
vt -0.186000 -0.322212
vt -0.186000 -0.292763
vt -0.558000 0.800403
vt -0.558000 0.741505
vt -0.186000 0.741505
vt -0.186000 0.800403
vt -0.186000 -0.310763
vt -0.186000 -0.281315
vt 0.186000 -0.281315
vt 0.186000 -0.310763
vt -0.186000 0.747230
vt -0.186000 0.806127
vt 0.186000 0.806127
vt 0.186000 0.747230
vt -0.186000 -0.292763
vt -0.186000 -0.322212
vt 0.186000 -0.322212
vt 0.186000 -0.292763
vt -0.186000 0.800403
vt -0.186000 0.741505
vt 0.186000 0.741505
vt 0.186000 0.800403
vt 0.186000 -0.310763
vt 0.186000 -0.281315
vt 0.558000 -0.281315
vt 0.558000 -0.310763
vt 0.186000 0.747230
vt 0.186000 0.806127
vt 0.558000 0.806127
vt 0.558000 0.747230
vt 0.186000 -0.292763
vt 0.186000 -0.322212
vt 0.558000 -0.322212
vt 0.558000 -0.292763
vt 0.186000 0.800403
vt 0.186000 0.741505
vt 0.558000 0.741505
vt 0.558000 0.800403
vt 0.558000 -0.310763
vt 0.558000 -0.281315
vt 0.930000 -0.281315
vt 0.930000 -0.310763
vt 0.558000 0.747230
vt 0.558000 0.806127
vt 0.930000 0.806127
vt 0.930000 0.747230
vt 0.558000 -0.292763
vt 0.558000 -0.322212
vt 0.930000 -0.322212
vt 0.930000 -0.292763
vt 0.558000 0.800403
vt 0.558000 0.741505
vt 0.930000 0.741505
vt 0.930000 0.800403
vt -0.322212 0.800403
vt -0.292763 0.806127
vt -0.281315 0.747230
vt -0.310763 0.741505
vt -0.310763 0.741505
vt -0.281315 0.747230
vt -0.292763 0.806127
vt -0.322212 0.800403
usemtl M_Bench_CastFrame_Intact
s 1
f 1/1 2/2 10/3 9/4
f 2/5 3/6 11/7 10/8
f 3/9 4/10 12/11 11/12
f 4/13 5/14 13/15 12/16
f 5/17 6/18 14/19 13/20
f 6/21 7/22 15/23 14/24
f 7/25 8/26 16/27 15/28
f 8/29 1/30 9/31 16/32
f 17/33 18/34 26/35 25/36
f 18/37 19/38 27/39 26/40
f 19/41 20/42 28/43 27/44
f 20/45 21/46 29/47 28/48
f 21/49 22/50 30/51 29/52
f 22/53 23/54 31/55 30/56
f 23/57 24/58 32/59 31/60
f 24/61 17/62 25/63 32/64
f 33/65 34/66 42/67 41/68
f 34/69 35/70 43/71 42/72
f 35/73 36/74 44/75 43/76
f 36/77 37/78 45/79 44/80
f 37/81 38/82 46/83 45/84
f 38/85 39/86 47/87 46/88
f 39/89 40/90 48/91 47/92
f 40/93 33/94 41/95 48/96
f 49/97 50/98 58/99 57/100
f 50/101 51/102 59/103 58/104
f 51/105 52/106 60/107 59/108
f 52/109 53/110 61/111 60/112
f 53/113 54/114 62/115 61/116
f 54/117 55/118 63/119 62/120
f 55/121 56/122 64/123 63/124
f 56/125 49/126 57/127 64/128
f 65/129 66/130 74/131 73/132
f 66/133 67/134 75/135 74/136
f 67/137 68/138 76/139 75/140
f 68/141 69/142 77/143 76/144
f 69/145 70/146 78/147 77/148
f 70/149 71/150 79/151 78/152
f 71/153 72/154 80/155 79/156
f 72/157 65/158 73/159 80/160
f 81/161 82/162 90/163 89/164
f 82/165 83/166 91/167 90/168
f 83/169 84/170 92/171 91/172
f 84/173 85/174 93/175 92/176
f 85/177 86/178 94/179 93/180
f 86/181 87/182 95/183 94/184
f 87/185 88/186 96/187 95/188
f 88/189 81/190 89/191 96/192
f 97/193 98/194 106/195 105/196
f 98/197 99/198 107/199 106/200
f 99/201 100/202 108/203 107/204
f 100/205 101/206 109/207 108/208
f 101/209 102/210 110/211 109/212
f 102/213 103/214 111/215 110/216
f 103/217 104/218 112/219 111/220
f 104/221 97/222 105/223 112/224
f 113/225 114/226 122/227 121/228
f 114/229 115/230 123/231 122/232
f 115/233 116/234 124/235 123/236
f 116/237 117/238 125/239 124/240
f 117/241 118/242 126/243 125/244
f 118/245 119/246 127/247 126/248
f 119/249 120/250 128/251 127/252
f 120/253 113/254 121/255 128/256
f 129/257 130/258 138/259 137/260
f 130/261 131/262 139/263 138/264
f 131/265 132/266 140/267 139/268
f 132/269 133/270 141/271 140/272
f 133/273 134/274 142/275 141/276
f 134/277 135/278 143/279 142/280
f 135/281 136/282 144/283 143/284
f 136/285 129/286 137/287 144/288
f 145/289 146/290 154/291 153/292
f 146/293 147/294 155/295 154/296
f 147/297 148/298 156/299 155/300
f 148/301 149/302 157/303 156/304
f 149/305 150/306 158/307 157/308
f 150/309 151/310 159/311 158/312
f 151/313 152/314 160/315 159/316
f 152/317 145/318 153/319 160/320
f 161/321 162/322 170/323 169/324
f 162/325 163/326 171/327 170/328
f 163/329 164/330 172/331 171/332
f 164/333 165/334 173/335 172/336
f 165/337 166/338 174/339 173/340
f 166/341 167/342 175/343 174/344
f 167/345 168/346 176/347 175/348
f 168/349 161/350 169/351 176/352
f 177/353 178/354 186/355 185/356
f 178/357 179/358 187/359 186/360
f 179/361 180/362 188/363 187/364
f 180/365 181/366 189/367 188/368
f 181/369 182/370 190/371 189/372
f 182/373 183/374 191/375 190/376
f 183/377 184/378 192/379 191/380
f 184/381 177/382 185/383 192/384
f 193/385 194/386 202/387 201/388
f 194/389 195/390 203/391 202/392
f 195/393 196/394 204/395 203/396
f 196/397 197/398 205/399 204/400
f 197/401 198/402 206/403 205/404
f 198/405 199/406 207/407 206/408
f 199/409 200/410 208/411 207/412
f 200/413 193/414 201/415 208/416
f 209/417 210/418 218/419 217/420
f 210/421 211/422 219/423 218/424
f 211/425 212/426 220/427 219/428
f 212/429 213/430 221/431 220/432
f 213/433 214/434 222/435 221/436
f 214/437 215/438 223/439 222/440
f 215/441 216/442 224/443 223/444
f 216/445 209/446 217/447 224/448
f 225/449 226/450 234/451 233/452
f 226/453 227/454 235/455 234/456
f 227/457 228/458 236/459 235/460
f 228/461 229/462 237/463 236/464
f 229/465 230/466 238/467 237/468
f 230/469 231/470 239/471 238/472
f 231/473 232/474 240/475 239/476
f 232/477 225/478 233/479 240/480
f 241/481 242/482 250/483 249/484
f 242/485 243/486 251/487 250/488
f 243/489 244/490 252/491 251/492
f 244/493 245/494 253/495 252/496
f 245/497 246/498 254/499 253/500
f 246/501 247/502 255/503 254/504
f 247/505 248/506 256/507 255/508
f 248/509 241/510 249/511 256/512
usemtl M_Bench_SeatSlat_Intact
s 1
f 257/513 258/514 262/515 261/516
f 258/517 259/518 263/519 262/520
f 259/521 260/522 264/523 263/524
f 260/525 257/526 261/527 264/528
f 261/529 262/530 266/531 265/532
f 262/533 263/534 267/535 266/536
f 263/537 264/538 268/539 267/540
f 264/541 261/542 265/543 268/544
f 265/545 266/546 270/547 269/548
f 266/549 267/550 271/551 270/552
f 267/553 268/554 272/555 271/556
f 268/557 265/558 269/559 272/560
f 269/561 270/562 274/563 273/564
f 270/565 271/566 275/567 274/568
f 271/569 272/570 276/571 275/572
f 272/573 269/574 273/575 276/576
f 273/577 274/578 278/579 277/580
f 274/581 275/582 279/583 278/584
f 275/585 276/586 280/587 279/588
f 276/589 273/590 277/591 280/592
f 260/593 259/594 258/595 257/596
f 277/597 278/598 279/599 280/600
f 281/601 282/602 286/603 285/604
f 282/605 283/606 287/607 286/608
f 283/609 284/610 288/611 287/612
f 284/613 281/614 285/615 288/616
f 285/617 286/618 290/619 289/620
f 286/621 287/622 291/623 290/624
f 287/625 288/626 292/627 291/628
f 288/629 285/630 289/631 292/632
f 289/633 290/634 294/635 293/636
f 290/637 291/638 295/639 294/640
f 291/641 292/642 296/643 295/644
f 292/645 289/646 293/647 296/648
f 293/649 294/650 298/651 297/652
f 294/653 295/654 299/655 298/656
f 295/657 296/658 300/659 299/660
f 296/661 293/662 297/663 300/664
f 297/665 298/666 302/667 301/668
f 298/669 299/670 303/671 302/672
f 299/673 300/674 304/675 303/676
f 300/677 297/678 301/679 304/680
f 284/681 283/682 282/683 281/684
f 301/685 302/686 303/687 304/688
f 305/689 306/690 310/691 309/692
f 306/693 307/694 311/695 310/696
f 307/697 308/698 312/699 311/700
f 308/701 305/702 309/703 312/704
f 309/705 310/706 314/707 313/708
f 310/709 311/710 315/711 314/712
f 311/713 312/714 316/715 315/716
f 312/717 309/718 313/719 316/720
f 313/721 314/722 318/723 317/724
f 314/725 315/726 319/727 318/728
f 315/729 316/730 320/731 319/732
f 316/733 313/734 317/735 320/736
f 317/737 318/738 322/739 321/740
f 318/741 319/742 323/743 322/744
f 319/745 320/746 324/747 323/748
f 320/749 317/750 321/751 324/752
f 321/753 322/754 326/755 325/756
f 322/757 323/758 327/759 326/760
f 323/761 324/762 328/763 327/764
f 324/765 321/766 325/767 328/768
f 308/769 307/770 306/771 305/772
f 325/773 326/774 327/775 328/776
f 329/777 330/778 334/779 333/780
f 330/781 331/782 335/783 334/784
f 331/785 332/786 336/787 335/788
f 332/789 329/790 333/791 336/792
f 333/793 334/794 338/795 337/796
f 334/797 335/798 339/799 338/800
f 335/801 336/802 340/803 339/804
f 336/805 333/806 337/807 340/808
f 337/809 338/810 342/811 341/812
f 338/813 339/814 343/815 342/816
f 339/817 340/818 344/819 343/820
f 340/821 337/822 341/823 344/824
f 341/825 342/826 346/827 345/828
f 342/829 343/830 347/831 346/832
f 343/833 344/834 348/835 347/836
f 344/837 341/838 345/839 348/840
f 345/841 346/842 350/843 349/844
f 346/845 347/846 351/847 350/848
f 347/849 348/850 352/851 351/852
f 348/853 345/854 349/855 352/856
f 332/857 331/858 330/859 329/860
f 349/861 350/862 351/863 352/864
f 353/865 354/866 358/867 357/868
f 354/869 355/870 359/871 358/872
f 355/873 356/874 360/875 359/876
f 356/877 353/878 357/879 360/880
f 357/881 358/882 362/883 361/884
f 358/885 359/886 363/887 362/888
f 359/889 360/890 364/891 363/892
f 360/893 357/894 361/895 364/896
f 361/897 362/898 366/899 365/900
f 362/901 363/902 367/903 366/904
f 363/905 364/906 368/907 367/908
f 364/909 361/910 365/911 368/912
f 365/913 366/914 370/915 369/916
f 366/917 367/918 371/919 370/920
f 367/921 368/922 372/923 371/924
f 368/925 365/926 369/927 372/928
f 369/929 370/930 374/931 373/932
f 370/933 371/934 375/935 374/936
f 371/937 372/938 376/939 375/940
f 372/941 369/942 373/943 376/944
f 356/945 355/946 354/947 353/948
f 373/949 374/950 375/951 376/952
f 377/953 378/954 382/955 381/956
f 378/957 379/958 383/959 382/960
f 379/961 380/962 384/963 383/964
f 380/965 377/966 381/967 384/968
f 381/969 382/970 386/971 385/972
f 382/973 383/974 387/975 386/976
f 383/977 384/978 388/979 387/980
f 384/981 381/982 385/983 388/984
f 385/985 386/986 390/987 389/988
f 386/989 387/990 391/991 390/992
f 387/993 388/994 392/995 391/996
f 388/997 385/998 389/999 392/1000
f 389/1001 390/1002 394/1003 393/1004
f 390/1005 391/1006 395/1007 394/1008
f 391/1009 392/1010 396/1011 395/1012
f 392/1013 389/1014 393/1015 396/1016
f 393/1017 394/1018 398/1019 397/1020
f 394/1021 395/1022 399/1023 398/1024
f 395/1025 396/1026 400/1027 399/1028
f 396/1029 393/1030 397/1031 400/1032
f 380/1033 379/1034 378/1035 377/1036
f 397/1037 398/1038 399/1039 400/1040
usemtl M_Bench_BackSlat_Intact
s 1
f 401/1041 402/1042 406/1043 405/1044
f 402/1045 403/1046 407/1047 406/1048
f 403/1049 404/1050 408/1051 407/1052
f 404/1053 401/1054 405/1055 408/1056
f 405/1057 406/1058 410/1059 409/1060
f 406/1061 407/1062 411/1063 410/1064
f 407/1065 408/1066 412/1067 411/1068
f 408/1069 405/1070 409/1071 412/1072
f 409/1073 410/1074 414/1075 413/1076
f 410/1077 411/1078 415/1079 414/1080
f 411/1081 412/1082 416/1083 415/1084
f 412/1085 409/1086 413/1087 416/1088
f 413/1089 414/1090 418/1091 417/1092
f 414/1093 415/1094 419/1095 418/1096
f 415/1097 416/1098 420/1099 419/1100
f 416/1101 413/1102 417/1103 420/1104
f 417/1105 418/1106 422/1107 421/1108
f 418/1109 419/1110 423/1111 422/1112
f 419/1113 420/1114 424/1115 423/1116
f 420/1117 417/1118 421/1119 424/1120
f 404/1121 403/1122 402/1123 401/1124
f 421/1125 422/1126 423/1127 424/1128
f 425/1129 426/1130 430/1131 429/1132
f 426/1133 427/1134 431/1135 430/1136
f 427/1137 428/1138 432/1139 431/1140
f 428/1141 425/1142 429/1143 432/1144
f 429/1145 430/1146 434/1147 433/1148
f 430/1149 431/1150 435/1151 434/1152
f 431/1153 432/1154 436/1155 435/1156
f 432/1157 429/1158 433/1159 436/1160
f 433/1161 434/1162 438/1163 437/1164
f 434/1165 435/1166 439/1167 438/1168
f 435/1169 436/1170 440/1171 439/1172
f 436/1173 433/1174 437/1175 440/1176
f 437/1177 438/1178 442/1179 441/1180
f 438/1181 439/1182 443/1183 442/1184
f 439/1185 440/1186 444/1187 443/1188
f 440/1189 437/1190 441/1191 444/1192
f 441/1193 442/1194 446/1195 445/1196
f 442/1197 443/1198 447/1199 446/1200
f 443/1201 444/1202 448/1203 447/1204
f 444/1205 441/1206 445/1207 448/1208
f 428/1209 427/1210 426/1211 425/1212
f 445/1213 446/1214 447/1215 448/1216
f 449/1217 450/1218 454/1219 453/1220
f 450/1221 451/1222 455/1223 454/1224
f 451/1225 452/1226 456/1227 455/1228
f 452/1229 449/1230 453/1231 456/1232
f 453/1233 454/1234 458/1235 457/1236
f 454/1237 455/1238 459/1239 458/1240
f 455/1241 456/1242 460/1243 459/1244
f 456/1245 453/1246 457/1247 460/1248
f 457/1249 458/1250 462/1251 461/1252
f 458/1253 459/1254 463/1255 462/1256
f 459/1257 460/1258 464/1259 463/1260
f 460/1261 457/1262 461/1263 464/1264
f 461/1265 462/1266 466/1267 465/1268
f 462/1269 463/1270 467/1271 466/1272
f 463/1273 464/1274 468/1275 467/1276
f 464/1277 461/1278 465/1279 468/1280
f 465/1281 466/1282 470/1283 469/1284
f 466/1285 467/1286 471/1287 470/1288
f 467/1289 468/1290 472/1291 471/1292
f 468/1293 465/1294 469/1295 472/1296
f 452/1297 451/1298 450/1299 449/1300
f 469/1301 470/1302 471/1303 472/1304
f 473/1305 474/1306 478/1307 477/1308
f 474/1309 475/1310 479/1311 478/1312
f 475/1313 476/1314 480/1315 479/1316
f 476/1317 473/1318 477/1319 480/1320
f 477/1321 478/1322 482/1323 481/1324
f 478/1325 479/1326 483/1327 482/1328
f 479/1329 480/1330 484/1331 483/1332
f 480/1333 477/1334 481/1335 484/1336
f 481/1337 482/1338 486/1339 485/1340
f 482/1341 483/1342 487/1343 486/1344
f 483/1345 484/1346 488/1347 487/1348
f 484/1349 481/1350 485/1351 488/1352
f 485/1353 486/1354 490/1355 489/1356
f 486/1357 487/1358 491/1359 490/1360
f 487/1361 488/1362 492/1363 491/1364
f 488/1365 485/1366 489/1367 492/1368
f 489/1369 490/1370 494/1371 493/1372
f 490/1373 491/1374 495/1375 494/1376
f 491/1377 492/1378 496/1379 495/1380
f 492/1381 489/1382 493/1383 496/1384
f 476/1385 475/1386 474/1387 473/1388
f 493/1389 494/1390 495/1391 496/1392
