# Generated by scripts/generate_entrance_terrace_reveal_kit.py
mtllib VD_EntranceTerraceReveal.mtl
o VD_BrochureStand_Institutional
v 2.854527 -2.642449 1.654461
v 1.443843 -3.100808 1.654461
v 0.571992 -4.300808 1.654461
v 0.571992 -5.784090 1.654461
v 1.443843 -6.984090 1.654461
v 2.854527 -7.442449 1.654461
v 4.265212 -6.984090 1.654461
v 5.137063 -5.784090 1.654461
v 5.137063 -4.300808 1.654461
v 4.265212 -3.100808 1.654461
v 2.854527 -2.642449 149.654461
v 1.443843 -3.100808 149.654461
v 0.571992 -4.300808 149.654461
v 0.571992 -5.784090 149.654461
v 1.443843 -6.984090 149.654461
v 2.854527 -7.442449 149.654461
v 4.265212 -6.984090 149.654461
v 5.137063 -5.784090 149.654461
v 5.137063 -4.300808 149.654461
v 4.265212 -3.100808 149.654461
v 4.413373 -5.942449 10.654461
v 3.706109 -6.113050 9.484580
v 2.500000 -5.656508 9.000000
v 1.501568 -4.840258 9.484580
v 1.295682 -4.142449 10.654461
v 2.002946 -3.971847 11.824342
v 3.209055 -4.428389 12.308922
v 4.207486 -5.244639 11.824342
v 14.913373 12.244085 1.654461
v 14.206109 12.073483 0.484580
v 13.000000 12.530025 0.000000
v 12.001568 13.346275 0.484580
v 11.795682 14.044085 1.654461
v 12.502946 14.214686 2.824342
v 13.709055 13.758144 3.308922
v 14.707486 12.941894 2.824342
v 2.854527 -3.242449 10.654461
v 3.355905 -3.769657 9.484580
v 3.563582 -5.042449 9.000000
v 3.355905 -6.315241 9.484580
v 2.854527 -6.842449 10.654461
v 2.353150 -6.315241 11.824342
v 2.145473 -5.042449 12.308922
v 2.353150 -3.769657 11.824342
v -18.145473 -3.242449 1.654461
v -17.644095 -3.769657 0.484580
v -17.436418 -5.042449 0.000000
v -17.644095 -6.315241 0.484580
v -18.145473 -6.842449 1.654461
v -18.646850 -6.315241 2.824342
v -18.854527 -5.042449 3.308922
v -18.646850 -3.769657 2.824342
v 1.295682 -5.942449 10.654461
v 1.501568 -5.244639 9.484580
v 2.500000 -4.428389 9.000000
v 3.706109 -3.971847 9.484580
v 4.413373 -4.142449 10.654461
v 4.207486 -4.840258 11.824342
v 3.209055 -5.656508 12.308922
v 2.002946 -6.113050 11.824342
v 11.795682 -24.128982 1.654461
v 12.001568 -23.431173 0.484580
v 13.000000 -22.614923 0.000000
v 14.206109 -22.158381 0.484580
v 14.913373 -22.328982 1.654461
v 14.707486 -23.026792 2.824342
v 13.709055 -23.843042 3.308922
v 12.502946 -24.299584 2.824342
v -13.145473 -5.042449 43.654461
v -13.145473 11.401369 36.333201
v 18.854527 11.401369 36.333201
v 18.854527 -5.042449 43.654461
v -13.145473 11.401369 36.333201
v -13.145473 13.231684 40.444156
v 18.854527 13.231684 40.444156
v 18.854527 11.401369 36.333201
v -3.218276 12.401369 36.833201
v 2.854527 11.746108 36.200423
v 8.927331 12.401369 36.833201
v -3.218276 16.626815 31.963312
v 2.854527 15.971553 31.330533
v 8.927331 16.626815 31.963312
v -3.218276 20.358249 26.616361
v 2.854527 19.702987 25.983582
v 8.927331 20.358249 26.616361
v -3.218276 23.595671 20.792349
v 2.854527 22.940409 20.159570
v 8.927331 23.595671 20.792349
v -13.145473 -5.042449 64.654461
v -13.145473 11.401369 57.333201
v 18.854527 11.401369 57.333201
v 18.854527 -5.042449 64.654461
v -13.145473 11.401369 57.333201
v -13.145473 13.231684 61.444156
v 18.854527 13.231684 61.444156
v 18.854527 11.401369 57.333201
v -4.101816 12.401369 57.833201
v 2.854527 11.650773 57.108359
v 9.810871 12.401369 57.833201
v -4.101816 16.570275 53.028474
v 2.854527 15.819679 52.303632
v 9.810871 16.570275 53.028474
v -4.101816 20.251780 47.753069
v 2.854527 19.501184 47.028227
v 9.810871 20.251780 47.753069
v -4.101816 23.445883 42.006986
v 2.854527 22.695287 41.282144
v 9.810871 23.445883 42.006986
v -13.145473 -5.042449 85.654461
v -13.145473 11.401369 78.333201
v 18.854527 11.401369 78.333201
v 18.854527 -5.042449 85.654461
v -13.145473 11.401369 78.333201
v -13.145473 13.231684 82.444156
v 18.854527 13.231684 82.444156
v 18.854527 11.401369 78.333201
v -4.001468 12.401369 78.833201
v 2.854527 11.661601 78.118815
v 9.710523 12.401369 78.833201
v -4.001468 16.892517 73.657087
v 2.854527 16.152748 72.942700
v 9.710523 16.892517 73.657087
v -4.001468 20.858588 67.973912
v 2.854527 20.118820 67.259526
v 9.710523 20.858588 67.973912
v -4.001468 24.299584 61.783677
v 2.854527 23.559815 61.069291
v 9.710523 24.299584 61.783677
v -13.145473 -5.042449 106.654461
v -13.145473 11.401369 99.333201
v 18.854527 11.401369 99.333201
v 18.854527 -5.042449 106.654461
v -13.145473 11.401369 99.333201
v -13.145473 13.231684 103.444156
v 18.854527 13.231684 103.444156
v 18.854527 11.401369 99.333201
v -3.535912 12.401369 99.833201
v 2.854527 11.711835 99.167326
v 9.244967 12.401369 99.833201
v -3.535912 16.650218 94.936339
v 2.854527 15.960683 94.270463
v 9.244967 16.650218 94.936339
v -3.535912 20.402319 89.559773
v 2.854527 19.712784 88.893898
v 9.244967 20.402319 89.559773
v -3.535912 23.657672 83.703504
v 2.854527 22.968138 83.037628
v 9.244967 23.657672 83.703504
v -13.145473 -5.042449 127.654461
v -13.145473 11.401369 120.333201
v 18.854527 11.401369 120.333201
v 18.854527 -5.042449 127.654461
v -13.145473 11.401369 120.333201
v -13.145473 13.231684 124.444156
v 18.854527 13.231684 124.444156
v 18.854527 11.401369 120.333201
v -3.598134 12.401369 120.833201
v 2.854527 11.705121 120.160842
v 9.307189 12.401369 120.833201
v -3.598134 16.695629 115.884002
v 2.854527 15.999381 115.211643
v 9.307189 16.695629 115.884002
v -3.598134 20.487832 110.449972
v 2.854527 19.791584 109.777613
v 9.307189 20.487832 110.449972
v -3.598134 23.777979 104.531111
v 2.854527 23.081730 103.858752
v 9.307189 23.777979 104.531111
vt 0.028545 0.016545
vt 0.014438 0.016545
vt 0.014438 1.496545
vt 0.028545 1.496545
vt -0.031008 0.016545
vt -0.043008 0.016545
vt -0.043008 1.496545
vt -0.031008 1.496545
vt -0.043008 0.016545
vt -0.057841 0.016545
vt -0.057841 1.496545
vt -0.043008 1.496545
vt -0.057841 0.016545
vt -0.069841 0.016545
vt -0.069841 1.496545
vt -0.057841 1.496545
vt 0.014438 0.016545
vt 0.028545 0.016545
vt 0.028545 1.496545
vt 0.014438 1.496545
vt 0.028545 0.016545
vt 0.042652 0.016545
vt 0.042652 1.496545
vt 0.028545 1.496545
vt -0.069841 0.016545
vt -0.057841 0.016545
vt -0.057841 1.496545
vt -0.069841 1.496545
vt -0.057841 0.016545
vt -0.043008 0.016545
vt -0.043008 1.496545
vt -0.057841 1.496545
vt -0.043008 0.016545
vt -0.031008 0.016545
vt -0.031008 1.496545
vt -0.043008 1.496545
vt 0.042652 0.016545
vt 0.028545 0.016545
vt 0.028545 1.496545
vt 0.042652 1.496545
vt -0.059424 0.106545
vt -0.061131 0.094846
vt 0.120735 0.004846
vt 0.122441 0.016545
vt 0.037061 -0.061131
vt 0.025000 -0.056565
vt 0.130000 0.125300
vt 0.142061 0.120735
vt 0.025000 -0.056565
vt 0.015016 -0.048403
vt 0.120016 0.133463
vt 0.130000 0.125300
vt -0.048403 0.094846
vt -0.041424 0.106545
vt 0.140441 0.016545
vt 0.133463 0.004846
vt -0.041424 0.106545
vt -0.039718 0.118243
vt 0.142147 0.028243
vt 0.140441 0.016545
vt 0.020029 -0.039718
vt 0.032091 -0.044284
vt 0.137091 0.137581
vt 0.125029 0.142147
vt 0.032091 -0.044284
vt 0.042075 -0.052446
vt 0.147075 0.129419
vt 0.137091 0.137581
vt -0.052446 0.118243
vt -0.059424 0.106545
vt 0.122441 0.016545
vt 0.129419 0.028243
vt 0.028545 0.106545
vt 0.033559 0.094846
vt -0.176441 0.004846
vt -0.181455 0.016545
vt 0.033559 -0.037697
vt 0.035636 -0.050424
vt -0.174364 -0.050424
vt -0.176441 -0.037697
vt 0.035636 -0.050424
vt 0.033559 -0.063152
vt -0.176441 -0.063152
vt -0.174364 -0.050424
vt 0.033559 0.094846
vt 0.028545 0.106545
vt -0.181455 0.016545
vt -0.176441 0.004846
vt 0.028545 0.106545
vt 0.023531 0.118243
vt -0.186469 0.028243
vt -0.181455 0.016545
vt 0.023531 -0.063152
vt 0.021455 -0.050424
vt -0.188545 -0.050424
vt -0.186469 -0.063152
vt 0.021455 -0.050424
vt 0.023531 -0.037697
vt -0.186469 -0.037697
vt -0.188545 -0.050424
vt 0.023531 0.118243
vt 0.028545 0.106545
vt -0.181455 0.016545
vt -0.186469 0.028243
vt -0.059424 0.106545
vt -0.052446 0.094846
vt -0.234312 0.004846
vt -0.241290 0.016545
vt 0.015016 -0.052446
vt 0.025000 -0.044284
vt 0.130000 -0.226149
vt 0.120016 -0.234312
vt 0.025000 -0.044284
vt 0.037061 -0.039718
vt 0.142061 -0.221584
vt 0.130000 -0.226149
vt -0.039718 0.094846
vt -0.041424 0.106545
vt -0.223290 0.016545
vt -0.221584 0.004846
vt -0.041424 0.106545
vt -0.048403 0.118243
vt -0.230268 0.028243
vt -0.223290 0.016545
vt 0.042075 -0.048403
vt 0.032091 -0.056565
vt 0.137091 -0.238430
vt 0.147075 -0.230268
vt 0.032091 -0.056565
vt 0.020029 -0.061131
vt 0.125029 -0.242996
vt 0.137091 -0.238430
vt -0.061131 0.118243
vt -0.059424 0.106545
vt -0.241290 0.016545
vt -0.242996 0.028243
vt 0.000000 0.000000
vt 0.000000 1.000000
vt 1.000000 1.000000
vt 1.000000 0.000000
vt 0.000000 0.000000
vt 0.000000 1.000000
vt 1.000000 1.000000
vt 1.000000 0.000000
vt 0.000000 0.000000
vt 0.000000 0.333333
vt 0.500000 0.333333
vt 0.500000 0.000000
vt 0.500000 0.000000
vt 0.500000 0.333333
vt 1.000000 0.333333
vt 1.000000 0.000000
vt 0.000000 0.333333
vt 0.000000 0.666667
vt 0.500000 0.666667
vt 0.500000 0.333333
vt 0.500000 0.333333
vt 0.500000 0.666667
vt 1.000000 0.666667
vt 1.000000 0.333333
vt 0.000000 0.666667
vt 0.000000 1.000000
vt 0.500000 1.000000
vt 0.500000 0.666667
vt 0.500000 0.666667
vt 0.500000 1.000000
vt 1.000000 1.000000
vt 1.000000 0.666667
vt 0.000000 0.000000
vt 0.000000 1.000000
vt 1.000000 1.000000
vt 1.000000 0.000000
vt 0.000000 0.000000
vt 0.000000 1.000000
vt 1.000000 1.000000
vt 1.000000 0.000000
vt 0.000000 0.000000
vt 0.000000 0.333333
vt 0.500000 0.333333
vt 0.500000 0.000000
vt 0.500000 0.000000
vt 0.500000 0.333333
vt 1.000000 0.333333
vt 1.000000 0.000000
vt 0.000000 0.333333
vt 0.000000 0.666667
vt 0.500000 0.666667
vt 0.500000 0.333333
vt 0.500000 0.333333
vt 0.500000 0.666667
vt 1.000000 0.666667
vt 1.000000 0.333333
vt 0.000000 0.666667
vt 0.000000 1.000000
vt 0.500000 1.000000
vt 0.500000 0.666667
vt 0.500000 0.666667
vt 0.500000 1.000000
vt 1.000000 1.000000
vt 1.000000 0.666667
vt 0.000000 0.000000
vt 0.000000 1.000000
vt 1.000000 1.000000
vt 1.000000 0.000000
vt 0.000000 0.000000
vt 0.000000 1.000000
vt 1.000000 1.000000
vt 1.000000 0.000000
vt 0.000000 0.000000
vt 0.000000 0.333333
vt 0.500000 0.333333
vt 0.500000 0.000000
vt 0.500000 0.000000
vt 0.500000 0.333333
vt 1.000000 0.333333
vt 1.000000 0.000000
vt 0.000000 0.333333
vt 0.000000 0.666667
vt 0.500000 0.666667
vt 0.500000 0.333333
vt 0.500000 0.333333
vt 0.500000 0.666667
vt 1.000000 0.666667
vt 1.000000 0.333333
vt 0.000000 0.666667
vt 0.000000 1.000000
vt 0.500000 1.000000
vt 0.500000 0.666667
vt 0.500000 0.666667
vt 0.500000 1.000000
vt 1.000000 1.000000
vt 1.000000 0.666667
vt 0.000000 0.000000
vt 0.000000 1.000000
vt 1.000000 1.000000
vt 1.000000 0.000000
vt 0.000000 0.000000
vt 0.000000 1.000000
vt 1.000000 1.000000
vt 1.000000 0.000000
vt 0.000000 0.000000
vt 0.000000 0.333333
vt 0.500000 0.333333
vt 0.500000 0.000000
vt 0.500000 0.000000
vt 0.500000 0.333333
vt 1.000000 0.333333
vt 1.000000 0.000000
vt 0.000000 0.333333
vt 0.000000 0.666667
vt 0.500000 0.666667
vt 0.500000 0.333333
vt 0.500000 0.333333
vt 0.500000 0.666667
vt 1.000000 0.666667
vt 1.000000 0.333333
vt 0.000000 0.666667
vt 0.000000 1.000000
vt 0.500000 1.000000
vt 0.500000 0.666667
vt 0.500000 0.666667
vt 0.500000 1.000000
vt 1.000000 1.000000
vt 1.000000 0.666667
vt 0.000000 0.000000
vt 0.000000 1.000000
vt 1.000000 1.000000
vt 1.000000 0.000000
vt 0.000000 0.000000
vt 0.000000 1.000000
vt 1.000000 1.000000
vt 1.000000 0.000000
vt 0.000000 0.000000
vt 0.000000 0.333333
vt 0.500000 0.333333
vt 0.500000 0.000000
vt 0.500000 0.000000
vt 0.500000 0.333333
vt 1.000000 0.333333
vt 1.000000 0.000000
vt 0.000000 0.333333
vt 0.000000 0.666667
vt 0.500000 0.666667
vt 0.500000 0.333333
vt 0.500000 0.333333
vt 0.500000 0.666667
vt 1.000000 0.666667
vt 1.000000 0.333333
vt 0.000000 0.666667
vt 0.000000 1.000000
vt 0.500000 1.000000
vt 0.500000 0.666667
vt 0.500000 0.666667
vt 0.500000 1.000000
vt 1.000000 1.000000
vt 1.000000 0.666667
usemtl M_BrochureStand_Frame
s 1
f 1/1 2/2 12/3 11/4
f 2/5 3/6 13/7 12/8
f 3/9 4/10 14/11 13/12
f 4/13 5/14 15/15 14/16
f 5/17 6/18 16/19 15/20
f 6/21 7/22 17/23 16/24
f 7/25 8/26 18/27 17/28
f 8/29 9/30 19/31 18/32
f 9/33 10/34 20/35 19/36
f 10/37 1/38 11/39 20/40
f 21/41 22/42 30/43 29/44
f 22/45 23/46 31/47 30/48
f 23/49 24/50 32/51 31/52
f 24/53 25/54 33/55 32/56
f 25/57 26/58 34/59 33/60
f 26/61 27/62 35/63 34/64
f 27/65 28/66 36/67 35/68
f 28/69 21/70 29/71 36/72
f 37/73 38/74 46/75 45/76
f 38/77 39/78 47/79 46/80
f 39/81 40/82 48/83 47/84
f 40/85 41/86 49/87 48/88
f 41/89 42/90 50/91 49/92
f 42/93 43/94 51/95 50/96
f 43/97 44/98 52/99 51/100
f 44/101 37/102 45/103 52/104
f 53/105 54/106 62/107 61/108
f 54/109 55/110 63/111 62/112
f 55/113 56/114 64/115 63/116
f 56/117 57/118 65/119 64/120
f 57/121 58/122 66/123 65/124
f 58/125 59/126 67/127 66/128
f 59/129 60/130 68/131 67/132
f 60/133 53/134 61/135 68/136
usemtl M_BrochureStand_Pocket
s 1
f 69/137 70/138 71/139 72/140
f 73/141 74/142 75/143 76/144
usemtl M_BrochureStand_Paper
s 1
f 77/145 80/146 81/147 78/148
f 78/149 81/150 82/151 79/152
f 80/153 83/154 84/155 81/156
f 81/157 84/158 85/159 82/160
f 83/161 86/162 87/163 84/164
f 84/165 87/166 88/167 85/168
usemtl M_BrochureStand_Pocket
s 1
f 89/169 90/170 91/171 92/172
f 93/173 94/174 95/175 96/176
usemtl M_BrochureStand_Paper
s 1
f 97/177 100/178 101/179 98/180
f 98/181 101/182 102/183 99/184
f 100/185 103/186 104/187 101/188
f 101/189 104/190 105/191 102/192
f 103/193 106/194 107/195 104/196
f 104/197 107/198 108/199 105/200
usemtl M_BrochureStand_Pocket
s 1
f 109/201 110/202 111/203 112/204
f 113/205 114/206 115/207 116/208
usemtl M_BrochureStand_Paper
s 1
f 117/209 120/210 121/211 118/212
f 118/213 121/214 122/215 119/216
f 120/217 123/218 124/219 121/220
f 121/221 124/222 125/223 122/224
f 123/225 126/226 127/227 124/228
f 124/229 127/230 128/231 125/232
usemtl M_BrochureStand_Pocket
s 1
f 129/233 130/234 131/235 132/236
f 133/237 134/238 135/239 136/240
usemtl M_BrochureStand_Paper
s 1
f 137/241 140/242 141/243 138/244
f 138/245 141/246 142/247 139/248
f 140/249 143/250 144/251 141/252
f 141/253 144/254 145/255 142/256
f 143/257 146/258 147/259 144/260
f 144/261 147/262 148/263 145/264
usemtl M_BrochureStand_Pocket
s 1
f 149/265 150/266 151/267 152/268
f 153/269 154/270 155/271 156/272
usemtl M_BrochureStand_Paper
s 1
f 157/273 160/274 161/275 158/276
f 158/277 161/278 162/279 159/280
f 160/281 163/282 164/283 161/284
f 161/285 164/286 165/287 162/288
f 163/289 166/290 167/291 164/292
f 164/293 167/294 168/295 165/296
