# Generated by scripts/generate_entrance_terrace_reveal_kit.py
mtllib VD_EntranceTerraceReveal.mtl
o VD_Fountain_DryBasin
v 190.000000 0.000000 0.000000
v 134.350288 134.350288 0.000000
v 0.000000 190.000000 0.000000
v -134.350288 134.350288 0.000000
v -190.000000 0.000000 0.000000
v -134.350288 -134.350288 0.000000
v -0.000000 -190.000000 0.000000
v 134.350288 -134.350288 0.000000
v 190.000000 0.000000 22.400000
v 134.350288 134.350288 22.400000
v 0.000000 190.000000 22.400000
v -134.350288 134.350288 22.400000
v -190.000000 0.000000 22.400000
v -134.350288 -134.350288 22.400000
v -0.000000 -190.000000 22.400000
v 134.350288 -134.350288 22.400000
v 190.000000 0.000000 44.800000
v 134.350288 134.350288 44.800000
v 0.000000 190.000000 44.800000
v -134.350288 134.350288 44.800000
v -190.000000 0.000000 44.800000
v -134.350288 -134.350288 44.800000
v -0.000000 -190.000000 44.800000
v 134.350288 -134.350288 44.800000
v 190.000000 0.000000 67.200000
v 134.350288 134.350288 67.200000
v 0.000000 190.000000 67.200000
v -134.350288 134.350288 67.200000
v -190.000000 0.000000 67.200000
v -134.350288 -134.350288 67.200000
v -0.000000 -190.000000 67.200000
v 134.350288 -134.350288 67.200000
v 190.000000 0.000000 89.600000
v 134.350288 134.350288 89.600000
v 0.000000 190.000000 89.600000
v -134.350288 134.350288 89.600000
v -190.000000 0.000000 89.600000
v -134.350288 -134.350288 89.600000
v -0.000000 -190.000000 89.600000
v 134.350288 -134.350288 89.600000
v 190.000000 0.000000 112.000000
v 134.350288 134.350288 112.000000
v 0.000000 190.000000 112.000000
v -134.350288 134.350288 112.000000
v -190.000000 0.000000 112.000000
v -134.350288 -134.350288 112.000000
v -0.000000 -190.000000 112.000000
v 134.350288 -134.350288 112.000000
v 0.000000 0.000000 0.000000
v 175.000000 0.000000 112.000000
v 123.743687 123.743687 112.000000
v 0.000000 175.000000 112.000000
v -123.743687 123.743687 112.000000
v -175.000000 0.000000 112.000000
v -123.743687 -123.743687 112.000000
v -0.000000 -175.000000 112.000000
v 123.743687 -123.743687 112.000000
v 164.500000 0.000000 46.000000
v 116.319066 116.319066 46.000000
v 0.000000 164.500000 46.000000
v -116.319066 116.319066 46.000000
v -164.500000 0.000000 46.000000
v -116.319066 -116.319066 46.000000
v -0.000000 -164.500000 46.000000
v 116.319066 -116.319066 46.000000
v 52.640000 0.000000 46.000000
v 37.222101 37.222101 46.000000
v 0.000000 52.640000 46.000000
v -37.222101 37.222101 46.000000
v -52.640000 0.000000 46.000000
v -37.222101 -37.222101 46.000000
v -0.000000 -52.640000 46.000000
v 37.222101 -37.222101 46.000000
v 39.480000 0.000000 74.000000
v 27.916576 27.916576 74.000000
v 0.000000 39.480000 74.000000
v -27.916576 27.916576 74.000000
v -39.480000 0.000000 74.000000
v -27.916576 -27.916576 74.000000
v -0.000000 -39.480000 74.000000
v 27.916576 -27.916576 74.000000
v 26.320000 0.000000 86.000000
v 18.611050 18.611050 86.000000
v 0.000000 26.320000 86.000000
v -18.611050 18.611050 86.000000
v -26.320000 0.000000 86.000000
v -18.611050 -18.611050 86.000000
v -0.000000 -26.320000 86.000000
v 18.611050 -18.611050 86.000000
v 0.000000 0.000000 86.000000
v -10.348887 -114.080461 46.400000
v -19.910240 -135.286584 46.400000
v -41.116363 -125.725231 46.400000
v -31.555010 -104.519108 46.400000
v 63.477392 138.156744 46.680000
v 80.727113 124.062582 46.680000
v 66.632951 106.812862 46.680000
v 49.383230 120.907023 46.680000
v 40.428789 53.116262 46.960000
v 23.797329 58.656858 46.960000
v 29.337925 75.288318 46.960000
v 45.969384 69.747722 46.960000
v -27.772269 -84.077327 47.240000
v -36.862523 -96.119875 47.240000
v -48.905072 -87.029621 47.240000
v -39.814817 -74.987072 47.240000
v 44.730113 145.305362 47.520000
v 42.265146 120.218589 47.520000
v 17.178373 122.683555 47.520000
v 19.643339 147.770329 47.520000
v -74.301083 -63.681133 47.800000
v -93.730774 -66.727014 47.800000
v -96.776655 -47.297322 47.800000
v -77.346964 -44.251441 47.800000
v -14.350963 134.854902 48.080000
v -3.592958 124.428701 48.080000
v -14.019159 113.670696 48.080000
v -24.777164 124.096897 48.080000
v 5.282285 -149.102687 48.360000
v -7.744391 -160.692139 48.360000
v -19.333843 -147.665462 48.360000
v -6.307166 -136.076011 48.360000
v -26.252145 80.512177 48.640000
v -46.893336 70.834597 48.640000
v -56.570917 91.475789 48.640000
v -35.929725 101.153369 48.640000
v -74.472904 -81.551838 48.920000
v -66.007734 -67.850457 48.920000
v -52.306353 -76.315628 48.920000
v -60.771523 -90.017009 48.920000
vt 0.000000 0.000000
vt 1.343503 0.000000
vt 1.343503 0.224000
vt 0.000000 0.224000
vt 1.343503 0.000000
vt 0.000000 0.000000
vt 0.000000 0.224000
vt 1.343503 0.224000
vt 0.000000 0.000000
vt -1.343503 0.000000
vt -1.343503 0.224000
vt 0.000000 0.224000
vt 1.343503 0.000000
vt 0.000000 0.000000
vt 0.000000 0.224000
vt 1.343503 0.224000
vt 0.000000 0.000000
vt -1.343503 0.000000
vt -1.343503 0.224000
vt 0.000000 0.224000
vt -1.343503 0.000000
vt -0.000000 0.000000
vt -0.000000 0.224000
vt -1.343503 0.224000
vt -0.000000 0.000000
vt 1.343503 0.000000
vt 1.343503 0.224000
vt -0.000000 0.224000
vt -1.343503 0.000000
vt 0.000000 0.000000
vt 0.000000 0.224000
vt -1.343503 0.224000
vt 0.000000 0.224000
vt 1.343503 0.224000
vt 1.343503 0.448000
vt 0.000000 0.448000
vt 1.343503 0.224000
vt 0.000000 0.224000
vt 0.000000 0.448000
vt 1.343503 0.448000
vt 0.000000 0.224000
vt -1.343503 0.224000
vt -1.343503 0.448000
vt 0.000000 0.448000
vt 1.343503 0.224000
vt 0.000000 0.224000
vt 0.000000 0.448000
vt 1.343503 0.448000
vt 0.000000 0.224000
vt -1.343503 0.224000
vt -1.343503 0.448000
vt 0.000000 0.448000
vt -1.343503 0.224000
vt -0.000000 0.224000
vt -0.000000 0.448000
vt -1.343503 0.448000
vt -0.000000 0.224000
vt 1.343503 0.224000
vt 1.343503 0.448000
vt -0.000000 0.448000
vt -1.343503 0.224000
vt 0.000000 0.224000
vt 0.000000 0.448000
vt -1.343503 0.448000
vt 0.000000 0.448000
vt 1.343503 0.448000
vt 1.343503 0.672000
vt 0.000000 0.672000
vt 1.343503 0.448000
vt 0.000000 0.448000
vt 0.000000 0.672000
vt 1.343503 0.672000
vt 0.000000 0.448000
vt -1.343503 0.448000
vt -1.343503 0.672000
vt 0.000000 0.672000
vt 1.343503 0.448000
vt 0.000000 0.448000
vt 0.000000 0.672000
vt 1.343503 0.672000
vt 0.000000 0.448000
vt -1.343503 0.448000
vt -1.343503 0.672000
vt 0.000000 0.672000
vt -1.343503 0.448000
vt -0.000000 0.448000
vt -0.000000 0.672000
vt -1.343503 0.672000
vt -0.000000 0.448000
vt 1.343503 0.448000
vt 1.343503 0.672000
vt -0.000000 0.672000
vt -1.343503 0.448000
vt 0.000000 0.448000
vt 0.000000 0.672000
vt -1.343503 0.672000
vt 0.000000 0.672000
vt 1.343503 0.672000
vt 1.343503 0.896000
vt 0.000000 0.896000
vt 1.343503 0.672000
vt 0.000000 0.672000
vt 0.000000 0.896000
vt 1.343503 0.896000
vt 0.000000 0.672000
vt -1.343503 0.672000
vt -1.343503 0.896000
vt 0.000000 0.896000
vt 1.343503 0.672000
vt 0.000000 0.672000
vt 0.000000 0.896000
vt 1.343503 0.896000
vt 0.000000 0.672000
vt -1.343503 0.672000
vt -1.343503 0.896000
vt 0.000000 0.896000
vt -1.343503 0.672000
vt -0.000000 0.672000
vt -0.000000 0.896000
vt -1.343503 0.896000
vt -0.000000 0.672000
vt 1.343503 0.672000
vt 1.343503 0.896000
vt -0.000000 0.896000
vt -1.343503 0.672000
vt 0.000000 0.672000
vt 0.000000 0.896000
vt -1.343503 0.896000
vt 0.000000 0.896000
vt 1.343503 0.896000
vt 1.343503 1.120000
vt 0.000000 1.120000
vt 1.343503 0.896000
vt 0.000000 0.896000
vt 0.000000 1.120000
vt 1.343503 1.120000
vt 0.000000 0.896000
vt -1.343503 0.896000
vt -1.343503 1.120000
vt 0.000000 1.120000
vt 1.343503 0.896000
vt 0.000000 0.896000
vt 0.000000 1.120000
vt 1.343503 1.120000
vt 0.000000 0.896000
vt -1.343503 0.896000
vt -1.343503 1.120000
vt 0.000000 1.120000
vt -1.343503 0.896000
vt -0.000000 0.896000
vt -0.000000 1.120000
vt -1.343503 1.120000
vt -0.000000 0.896000
vt 1.343503 0.896000
vt 1.343503 1.120000
vt -0.000000 1.120000
vt -1.343503 0.896000
vt 0.000000 0.896000
vt 0.000000 1.120000
vt -1.343503 1.120000
vt 0.000000 0.000000
vt 1.343503 1.343503
vt 1.900000 0.000000
vt 0.000000 0.000000
vt 0.000000 1.900000
vt 1.343503 1.343503
vt 0.000000 0.000000
vt -1.343503 1.343503
vt 0.000000 1.900000
vt 0.000000 0.000000
vt -1.900000 0.000000
vt -1.343503 1.343503
vt 0.000000 0.000000
vt -1.343503 -1.343503
vt -1.900000 0.000000
vt 0.000000 0.000000
vt -0.000000 -1.900000
vt -1.343503 -1.343503
vt 0.000000 0.000000
vt 1.343503 -1.343503
vt -0.000000 -1.900000
vt 0.000000 0.000000
vt 1.900000 0.000000
vt 1.343503 -1.343503
vt 1.900000 0.000000
vt 1.343503 1.343503
vt 1.237437 1.237437
vt 1.750000 0.000000
vt 1.343503 1.343503
vt 0.000000 1.900000
vt 0.000000 1.750000
vt 1.237437 1.237437
vt 0.000000 1.900000
vt -1.343503 1.343503
vt -1.237437 1.237437
vt 0.000000 1.750000
vt -1.343503 1.343503
vt -1.900000 0.000000
vt -1.750000 0.000000
vt -1.237437 1.237437
vt -1.900000 0.000000
vt -1.343503 -1.343503
vt -1.237437 -1.237437
vt -1.750000 0.000000
vt -1.343503 -1.343503
vt -0.000000 -1.900000
vt -0.000000 -1.750000
vt -1.237437 -1.237437
vt -0.000000 -1.900000
vt 1.343503 -1.343503
vt 1.237437 -1.237437
vt -0.000000 -1.750000
vt 1.343503 -1.343503
vt 1.900000 0.000000
vt 1.750000 0.000000
vt 1.237437 -1.237437
vt 0.000000 1.120000
vt 0.000000 0.460000
vt 1.163191 0.460000
vt 1.237437 1.120000
vt 1.237437 1.120000
vt 1.163191 0.460000
vt 0.000000 0.460000
vt 0.000000 1.120000
vt 0.000000 1.120000
vt 0.000000 0.460000
vt -1.163191 0.460000
vt -1.237437 1.120000
vt 1.237437 1.120000
vt 1.163191 0.460000
vt 0.000000 0.460000
vt 0.000000 1.120000
vt 0.000000 1.120000
vt 0.000000 0.460000
vt -1.163191 0.460000
vt -1.237437 1.120000
vt -1.237437 1.120000
vt -1.163191 0.460000
vt -0.000000 0.460000
vt -0.000000 1.120000
vt -0.000000 1.120000
vt -0.000000 0.460000
vt 1.163191 0.460000
vt 1.237437 1.120000
vt -1.237437 1.120000
vt -1.163191 0.460000
vt 0.000000 0.460000
vt 0.000000 1.120000
vt 1.645000 0.000000
vt 0.526400 0.000000
vt 0.372221 0.372221
vt 1.163191 1.163191
vt 1.163191 1.163191
vt 0.372221 0.372221
vt 0.000000 0.526400
vt 0.000000 1.645000
vt 0.000000 1.645000
vt 0.000000 0.526400
vt -0.372221 0.372221
vt -1.163191 1.163191
vt -1.163191 1.163191
vt -0.372221 0.372221
vt -0.526400 0.000000
vt -1.645000 0.000000
vt -1.645000 0.000000
vt -0.526400 0.000000
vt -0.372221 -0.372221
vt -1.163191 -1.163191
vt -1.163191 -1.163191
vt -0.372221 -0.372221
vt -0.000000 -0.526400
vt -0.000000 -1.645000
vt -0.000000 -1.645000
vt -0.000000 -0.526400
vt 0.372221 -0.372221
vt 1.163191 -1.163191
vt 1.163191 -1.163191
vt 0.372221 -0.372221
vt 0.526400 0.000000
vt 1.645000 0.000000
vt 0.000000 0.460000
vt 0.372221 0.460000
vt 0.279166 0.740000
vt 0.000000 0.740000
vt 0.372221 0.460000
vt 0.000000 0.460000
vt 0.000000 0.740000
vt 0.279166 0.740000
vt 0.000000 0.460000
vt -0.372221 0.460000
vt -0.279166 0.740000
vt 0.000000 0.740000
vt 0.372221 0.460000
vt 0.000000 0.460000
vt 0.000000 0.740000
vt 0.279166 0.740000
vt 0.000000 0.460000
vt -0.372221 0.460000
vt -0.279166 0.740000
vt 0.000000 0.740000
vt -0.372221 0.460000
vt -0.000000 0.460000
vt -0.000000 0.740000
vt -0.279166 0.740000
vt -0.000000 0.460000
vt 0.372221 0.460000
vt 0.279166 0.740000
vt -0.000000 0.740000
vt -0.372221 0.460000
vt 0.000000 0.460000
vt 0.000000 0.740000
vt -0.279166 0.740000
vt 0.394800 0.000000
vt 0.279166 0.279166
vt 0.186111 0.186111
vt 0.263200 0.000000
vt 0.279166 0.279166
vt 0.000000 0.394800
vt 0.000000 0.263200
vt 0.186111 0.186111
vt 0.000000 0.394800
vt -0.279166 0.279166
vt -0.186111 0.186111
vt 0.000000 0.263200
vt -0.279166 0.279166
vt -0.394800 0.000000
vt -0.263200 0.000000
vt -0.186111 0.186111
vt -0.394800 0.000000
vt -0.279166 -0.279166
vt -0.186111 -0.186111
vt -0.263200 0.000000
vt -0.279166 -0.279166
vt -0.000000 -0.394800
vt -0.000000 -0.263200
vt -0.186111 -0.186111
vt -0.000000 -0.394800
vt 0.279166 -0.279166
vt 0.186111 -0.186111
vt -0.000000 -0.263200
vt 0.279166 -0.279166
vt 0.394800 0.000000
vt 0.263200 0.000000
vt 0.186111 -0.186111
vt 0.000000 0.000000
vt 0.263200 0.000000
vt 0.186111 0.186111
vt 0.000000 0.000000
vt 0.186111 0.186111
vt 0.000000 0.263200
vt 0.000000 0.000000
vt 0.000000 0.263200
vt -0.186111 0.186111
vt 0.000000 0.000000
vt -0.186111 0.186111
vt -0.263200 0.000000
vt 0.000000 0.000000
vt -0.263200 0.000000
vt -0.186111 -0.186111
vt 0.000000 0.000000
vt -0.186111 -0.186111
vt -0.000000 -0.263200
vt 0.000000 0.000000
vt -0.000000 -0.263200
vt 0.186111 -0.186111
vt 0.000000 0.000000
vt 0.186111 -0.186111
vt 0.263200 0.000000
vt 0.000000 0.000000
vt 0.000000 0.500000
vt 0.500000 0.500000
vt 0.500000 0.000000
vt 0.500000 0.000000
vt 0.500000 0.500000
vt 1.000000 0.500000
vt 1.000000 0.000000
vt 0.000000 0.500000
vt 0.000000 1.000000
vt 0.500000 1.000000
vt 0.500000 0.500000
vt 0.500000 0.500000
vt 0.500000 1.000000
vt 1.000000 1.000000
vt 1.000000 0.500000
vt 0.000000 0.000000
vt 0.000000 0.500000
vt 0.500000 0.500000
vt 0.500000 0.000000
vt 0.500000 0.000000
vt 0.500000 0.500000
vt 1.000000 0.500000
vt 1.000000 0.000000
vt 0.000000 0.500000
vt 0.000000 1.000000
vt 0.500000 1.000000
vt 0.500000 0.500000
vt 0.500000 0.500000
vt 0.500000 1.000000
vt 1.000000 1.000000
vt 1.000000 0.500000
vt 0.000000 0.000000
vt 0.000000 0.500000
vt 0.500000 0.500000
vt 0.500000 0.000000
vt 0.500000 0.000000
vt 0.500000 0.500000
vt 1.000000 0.500000
vt 1.000000 0.000000
usemtl M_Fountain_BasinWall
s 1
f 1/1 2/2 10/3 9/4
f 2/5 3/6 11/7 10/8
f 3/9 4/10 12/11 11/12
f 4/13 5/14 13/15 12/16
f 5/17 6/18 14/19 13/20
f 6/21 7/22 15/23 14/24
f 7/25 8/26 16/27 15/28
f 8/29 1/30 9/31 16/32
f 9/33 10/34 18/35 17/36
f 10/37 11/38 19/39 18/40
f 11/41 12/42 20/43 19/44
f 12/45 13/46 21/47 20/48
f 13/49 14/50 22/51 21/52
f 14/53 15/54 23/55 22/56
f 15/57 16/58 24/59 23/60
f 16/61 9/62 17/63 24/64
f 17/65 18/66 26/67 25/68
f 18/69 19/70 27/71 26/72
f 19/73 20/74 28/75 27/76
f 20/77 21/78 29/79 28/80
f 21/81 22/82 30/83 29/84
f 22/85 23/86 31/87 30/88
f 23/89 24/90 32/91 31/92
f 24/93 17/94 25/95 32/96
f 25/97 26/98 34/99 33/100
f 26/101 27/102 35/103 34/104
f 27/105 28/106 36/107 35/108
f 28/109 29/110 37/111 36/112
f 29/113 30/114 38/115 37/116
f 30/117 31/118 39/119 38/120
f 31/121 32/122 40/123 39/124
f 32/125 25/126 33/127 40/128
f 33/129 34/130 42/131 41/132
f 34/133 35/134 43/135 42/136
f 35/137 36/138 44/139 43/140
f 36/141 37/142 45/143 44/144
f 37/145 38/146 46/147 45/148
f 38/149 39/150 47/151 46/152
f 39/153 40/154 48/155 47/156
f 40/157 33/158 41/159 48/160
f 49/161 2/162 1/163
f 49/164 3/165 2/166
f 49/167 4/168 3/169
f 49/170 5/171 4/172
f 49/173 6/174 5/175
f 49/176 7/177 6/178
f 49/179 8/180 7/181
f 49/182 1/183 8/184
f 41/185 42/186 51/187 50/188
f 42/189 43/190 52/191 51/192
f 43/193 44/194 53/195 52/196
f 44/197 45/198 54/199 53/200
f 45/201 46/202 55/203 54/204
f 46/205 47/206 56/207 55/208
f 47/209 48/210 57/211 56/212
f 48/213 41/214 50/215 57/216
f 50/217 58/218 59/219 51/220
f 51/221 59/222 60/223 52/224
f 52/225 60/226 61/227 53/228
f 53/229 61/230 62/231 54/232
f 54/233 62/234 63/235 55/236
f 55/237 63/238 64/239 56/240
f 56/241 64/242 65/243 57/244
f 57/245 65/246 58/247 50/248
usemtl M_Fountain_BasinFloor
s 1
f 58/249 66/250 67/251 59/252
f 59/253 67/254 68/255 60/256
f 60/257 68/258 69/259 61/260
f 61/261 69/262 70/263 62/264
f 62/265 70/266 71/267 63/268
f 63/269 71/270 72/271 64/272
f 64/273 72/274 73/275 65/276
f 65/277 73/278 66/279 58/280
usemtl M_Fountain_Pedestal
s 1
f 66/281 67/282 75/283 74/284
f 67/285 68/286 76/287 75/288
f 68/289 69/290 77/291 76/292
f 69/293 70/294 78/295 77/296
f 70/297 71/298 79/299 78/300
f 71/301 72/302 80/303 79/304
f 72/305 73/306 81/307 80/308
f 73/309 66/310 74/311 81/312
f 74/313 75/314 83/315 82/316
f 75/317 76/318 84/319 83/320
f 76/321 77/322 85/323 84/324
f 77/325 78/326 86/327 85/328
f 78/329 79/330 87/331 86/332
f 79/333 80/334 88/335 87/336
f 80/337 81/338 89/339 88/340
f 81/341 74/342 82/343 89/344
f 90/345 82/346 83/347
f 90/348 83/349 84/350
f 90/351 84/352 85/353
f 90/354 85/355 86/356
f 90/357 86/358 87/359
f 90/360 87/361 88/362
f 90/363 88/364 89/365
f 90/366 89/367 82/368
usemtl M_Fountain_LeafLitter
s 1
f 91/369 92/370 93/371 94/372
f 95/373 96/374 97/375 98/376
f 99/377 100/378 101/379 102/380
f 103/381 104/382 105/383 106/384
f 107/385 108/386 109/387 110/388
f 111/389 112/390 113/391 114/392
f 115/393 116/394 117/395 118/396
f 119/397 120/398 121/399 122/400
f 123/401 124/402 125/403 126/404
f 127/405 128/406 129/407 130/408
