# Generated by scripts/generate_entrance_terrace_reveal_kit.py
mtllib VD_EntranceTerraceReveal.mtl
o VD_Pennant_BotanicalTerrace
v -65.000000 -4.826276 280.000000
v -52.000000 -4.957716 280.000000
v -39.000000 -4.936736 280.000000
v -26.000000 -4.368313 280.000000
v -13.000000 -5.003361 280.000000
v 0.000000 -4.544155 280.000000
v 13.000000 -4.957624 280.000000
v 26.000000 -5.218715 280.000000
v 39.000000 -4.802943 280.000000
v 52.000000 -5.391157 280.000000
v 65.000000 -4.707130 280.000000
v -62.272727 -4.643019 267.272727
v -49.818182 -4.735439 267.272727
v -37.363636 -4.692822 267.272727
v -24.909091 -4.110464 267.272727
v -12.454545 -4.782202 267.272727
v 0.000000 -4.353981 267.272727
v 12.454545 -4.735344 267.272727
v 24.909091 -4.981714 267.272727
v 37.363636 -4.555749 267.272727
v 49.818182 -5.179506 267.272727
v 62.272727 -4.520952 267.272727
v -59.545455 -4.458843 254.545455
v -47.636364 -4.487307 254.545455
v -35.727273 -4.409228 254.545455
v -23.818182 -3.804030 254.545455
v -11.909091 -4.535905 254.545455
v 0.000000 -4.158469 254.545455
v 11.909091 -4.487208 254.545455
v 23.818182 -4.709451 254.545455
v 35.727273 -4.266779 254.545455
v 47.636364 -4.948791 254.545455
v 59.545455 -4.331989 254.545455
v -56.818182 -4.274124 241.818182
v -45.454545 -4.223901 241.818182
v -34.090909 -4.102193 241.818182
v -22.727273 -3.468894 241.818182
v -11.363636 -4.274756 241.818182
v 0.000000 -3.959803 241.818182
v 11.363636 -4.223798 241.818182
v 22.727273 -4.416356 241.818182
v 34.090909 -3.953130 241.818182
v 45.454545 -4.706814 241.818182
v 56.818182 -4.141379 241.818182
v -54.090909 -4.088985 229.090909
v -43.272727 -3.948668 229.090909
v -32.454545 -3.777005 229.090909
v -21.636364 -3.111530 229.090909
v -10.818182 -4.002106 229.090909
v 0.000000 -3.758694 229.090909
v 10.818182 -3.948559 229.090909
v 21.636364 -4.107129 229.090909
v 32.454545 -3.620368 229.090909
v 43.272727 -4.456115 229.090909
v 54.090909 -3.949496 229.090909
v -51.363636 -3.903493 216.363636
v -41.090909 -3.663522 216.363636
v -30.818182 -3.436603 216.363636
v -20.545455 -2.735539 216.363636
v -10.272727 -3.719818 216.363636
v 0.000000 -3.555538 216.363636
v 10.272727 -3.663408 216.363636
v 20.545455 -3.784383 216.363636
v 30.818182 -3.271590 216.363636
v 41.090909 -4.198107 216.363636
v 51.363636 -3.756544 216.363636
v -48.636364 -3.717693 203.636364
v -38.909091 -3.369721 203.636364
v -29.181818 -3.082920 203.636364
v -19.454545 -2.343285 203.636364
v -9.727273 -3.429114 203.636364
v 0.000000 -3.350595 203.636364
v 9.727273 -3.369601 203.636364
v 19.454545 -3.449833 203.636364
v 29.181818 -2.908827 203.636364
v 38.909091 -3.933718 203.636364
v 48.636364 -3.562660 203.636364
v -45.909091 -3.531618 190.909091
v -36.727273 -3.068171 190.909091
v -27.545455 -2.717342 190.909091
v -18.363636 -1.936467 190.909091
v -9.181818 -3.130876 190.909091
v 0.000000 -3.144051 190.909091
v 9.181818 -3.068044 190.909091
v 18.363636 -3.104712 190.909091
v 27.545455 -2.533543 190.909091
v 36.727273 -3.663615 190.909091
v 45.909091 -3.367940 190.909091
v -43.181818 -3.345292 178.181818
v -34.545455 -2.759560 178.181818
v -25.909091 -2.340927 178.181818
v -17.272727 -1.516381 178.181818
v -8.636364 -2.825772 178.181818
v 0.000000 -2.936050 178.181818
v 8.636364 -2.759426 178.181818
v 17.272727 -2.749962 178.181818
v 25.909091 -2.146849 178.181818
v 34.545455 -3.388305 178.181818
v 43.181818 -3.172460 178.181818
v -40.454545 -3.158734 165.454545
v -32.363636 -2.444434 165.454545
v -24.272727 -1.954514 165.454545
v -16.181818 -1.084052 165.454545
v -8.090909 -2.514333 165.454545
v 0.000000 -2.726703 165.454545
v 8.090909 -2.444292 165.454545
v 16.181818 -2.386326 165.454545
v 24.272727 -1.749628 165.454545
v 32.363636 -3.108191 165.454545
v 40.454545 -2.976278 165.454545
v -37.727273 -2.971960 152.727273
v -30.181818 -2.123240 152.727273
v -22.636364 -1.558786 152.727273
v -15.090909 -0.640319 152.727273
v -7.545455 -2.196993 152.727273
v 0.000000 -2.516103 152.727273
v 7.545455 -2.123090 152.727273
v 15.090909 -2.014413 152.727273
v 22.636364 -1.342601 152.727273
v 30.181818 -2.823602 152.727273
v 37.727273 -2.779442 152.727273
v -35.000000 -2.784984 140.000000
v -28.000000 -1.796349 140.000000
v -21.000000 -1.154317 140.000000
v -14.000000 -0.185882 140.000000
v -7.000000 -1.874115 140.000000
v 0.000000 -2.304327 140.000000
v 7.000000 -1.796192 140.000000
v 14.000000 -1.634732 140.000000
v 21.000000 -0.926371 140.000000
v 28.000000 -2.534814 140.000000
v 35.000000 -2.581992 140.000000
v -32.272727 -2.597817 127.272727
v -25.818182 -1.464080 127.272727
v -19.363636 -0.741594 127.272727
v -12.909091 0.278662 127.272727
v -6.454545 -1.546008 127.272727
v 0.000000 -2.091440 127.272727
v 6.454545 -1.463914 127.272727
v 12.909091 -1.247715 127.272727
v 19.363636 -0.501451 127.272727
v 25.818182 -2.242060 127.272727
v 32.272727 -2.383963 127.272727
v -29.545455 -2.410468 114.545455
v -23.636364 -1.126707 114.545455
v -17.727273 -0.321036 114.545455
v -11.818182 0.752798 114.545455
v -5.909091 -1.212937 114.545455
v 0.000000 -1.877499 114.545455
v 5.909091 -1.126533 114.545455
v 11.818182 -0.853736 114.545455
v 17.727273 -0.068282 114.545455
v 23.636364 -1.945542 114.545455
v 29.545455 -2.185383 114.545455
v -26.818182 -2.222946 101.818182
v -21.454545 -0.784469 101.818182
v -16.090909 0.106987 101.818182
v -10.727273 1.236075 101.818182
v -5.363636 -0.875136 101.818182
v 0.000000 -1.662553 101.818182
v 5.363636 -0.784286 101.818182
v 10.727273 -0.453123 101.818182
v 16.090909 0.372747 101.818182
v 21.454545 -1.645437 101.818182
v 26.818182 -1.986280 101.818182
v -24.090909 -2.035259 89.090909
v -19.272727 -0.437579 89.090909
v -14.454545 0.542152 89.090909
v -9.636364 1.728096 89.090909
v -4.818182 -0.532811 89.090909
v 0.000000 -1.446647 89.090909
v 4.818182 -0.437386 89.090909
v 9.636364 -0.046163 89.090909
v 14.454545 0.821294 89.090909
v 19.272727 -1.341902 89.090909
v 24.090909 -1.786675 89.090909
v -21.363636 -1.847413 76.363636
v -17.090909 -0.086225 76.363636
v -12.818182 0.984167 76.363636
v -8.545455 2.228505 76.363636
v -4.272727 -0.186146 76.363636
v 0.000000 -1.229819 76.363636
v 4.272727 -0.086022 76.363636
v 8.545455 0.366885 76.363636
v 12.818182 1.277054 76.363636
v 17.090909 -1.035075 76.363636
v 21.363636 -1.586589 76.363636
v -18.636364 -1.659415 63.636364
v -14.909091 0.269424 63.636364
v -11.181818 1.432773 63.636364
v -7.454545 2.736983 63.636364
v -3.727273 0.164695 63.636364
v 0.000000 -1.012104 63.636364
v 3.727273 0.269636 63.636364
v 7.454545 0.785789 63.636364
v 11.181818 1.739752 63.636364
v 14.909091 -0.725081 63.636364
v 18.636364 -1.386041 63.636364
v -15.909091 -1.471269 50.909091
v -12.727273 0.629213 50.909091
v -9.545455 1.887733 50.909091
v -6.363636 3.253243 50.909091
v -3.181818 0.519561 50.909091
v 0.000000 -0.793534 50.909091
v 3.181818 0.629435 50.909091
v 6.363636 1.210341 50.909091
v 9.545455 2.209141 50.909091
v 12.727273 -0.412035 50.909091
v 15.909091 -1.185046 50.909091
v -13.181818 -1.282981 38.181818
v -10.545455 0.993003 38.181818
v -7.909091 2.348834 38.181818
v -5.272727 3.777021 38.181818
v -2.636364 0.878318 38.181818
v 0.000000 -0.574138 38.181818
v 2.636364 0.993235 38.181818
v 5.272727 1.640349 38.181818
v 7.909091 2.684994 38.181818
v 10.545455 -0.096038 38.181818
v 13.181818 -0.983621 38.181818
v -10.454545 -1.094555 25.454545
v -8.363636 1.360666 25.454545
v -6.272727 2.815879 25.454545
v -4.181818 4.308077 25.454545
v -2.090909 1.240841 25.454545
v 0.000000 -0.353942 25.454545
v 2.090909 1.360908 25.454545
v 4.181818 2.075640 25.454545
v 6.272727 3.167106 25.454545
v 8.363636 0.222814 25.454545
v 10.454545 -0.781778 25.454545
v -7.727273 -0.905996 12.727273
v -6.181818 1.732084 12.727273
v -4.636364 3.288688 12.727273
v -3.090909 4.846190 12.727273
v -1.545455 1.607015 12.727273
v 0.000000 -0.132970 12.727273
v 1.545455 1.732337 12.727273
v 3.090909 2.516053 12.727273
v 4.636364 3.655286 12.727273
v 6.181818 0.544435 12.727273
v 7.727273 -0.579530 12.727273
v -5.000000 -0.717307 0.000000
v -4.000000 2.107150 0.000000
v -3.000000 3.767094 0.000000
v -2.000000 5.391157 0.000000
v -1.000000 1.976736 0.000000
v 0.000000 0.088754 0.000000
v 1.000000 2.107414 0.000000
v 2.000000 2.961440 0.000000
v 3.000000 4.149359 0.000000
v 4.000000 0.868746 0.000000
v 5.000000 -0.376889 0.000000
vt 0.000000 0.000000
vt 0.100000 0.000000
vt 0.100000 0.045455
vt 0.000000 0.045455
vt 0.000000 0.045455
vt 0.100000 0.045455
vt 0.100000 0.000000
vt 0.000000 0.000000
vt 0.100000 0.000000
vt 0.200000 0.000000
vt 0.200000 0.045455
vt 0.100000 0.045455
vt 0.100000 0.045455
vt 0.200000 0.045455
vt 0.200000 0.000000
vt 0.100000 0.000000
vt 0.200000 0.000000
vt 0.300000 0.000000
vt 0.300000 0.045455
vt 0.200000 0.045455
vt 0.200000 0.045455
vt 0.300000 0.045455
vt 0.300000 0.000000
vt 0.200000 0.000000
vt 0.300000 0.000000
vt 0.400000 0.000000
vt 0.400000 0.045455
vt 0.300000 0.045455
vt 0.300000 0.045455
vt 0.400000 0.045455
vt 0.400000 0.000000
vt 0.300000 0.000000
vt 0.400000 0.000000
vt 0.500000 0.000000
vt 0.500000 0.045455
vt 0.400000 0.045455
vt 0.400000 0.045455
vt 0.500000 0.045455
vt 0.500000 0.000000
vt 0.400000 0.000000
vt 0.500000 0.000000
vt 0.600000 0.000000
vt 0.600000 0.045455
vt 0.500000 0.045455
vt 0.500000 0.045455
vt 0.600000 0.045455
vt 0.600000 0.000000
vt 0.500000 0.000000
vt 0.600000 0.000000
vt 0.700000 0.000000
vt 0.700000 0.045455
vt 0.600000 0.045455
vt 0.600000 0.045455
vt 0.700000 0.045455
vt 0.700000 0.000000
vt 0.600000 0.000000
vt 0.700000 0.000000
vt 0.800000 0.000000
vt 0.800000 0.045455
vt 0.700000 0.045455
vt 0.700000 0.045455
vt 0.800000 0.045455
vt 0.800000 0.000000
vt 0.700000 0.000000
vt 0.800000 0.000000
vt 0.900000 0.000000
vt 0.900000 0.045455
vt 0.800000 0.045455
vt 0.800000 0.045455
vt 0.900000 0.045455
vt 0.900000 0.000000
vt 0.800000 0.000000
vt 0.900000 0.000000
vt 1.000000 0.000000
vt 1.000000 0.045455
vt 0.900000 0.045455
vt 0.900000 0.045455
vt 1.000000 0.045455
vt 1.000000 0.000000
vt 0.900000 0.000000
vt 0.000000 0.045455
vt 0.100000 0.045455
vt 0.100000 0.090909
vt 0.000000 0.090909
vt 0.000000 0.090909
vt 0.100000 0.090909
vt 0.100000 0.045455
vt 0.000000 0.045455
vt 0.100000 0.045455
vt 0.200000 0.045455
vt 0.200000 0.090909
vt 0.100000 0.090909
vt 0.100000 0.090909
vt 0.200000 0.090909
vt 0.200000 0.045455
vt 0.100000 0.045455
vt 0.200000 0.045455
vt 0.300000 0.045455
vt 0.300000 0.090909
vt 0.200000 0.090909
vt 0.200000 0.090909
vt 0.300000 0.090909
vt 0.300000 0.045455
vt 0.200000 0.045455
vt 0.300000 0.045455
vt 0.400000 0.045455
vt 0.400000 0.090909
vt 0.300000 0.090909
vt 0.300000 0.090909
vt 0.400000 0.090909
vt 0.400000 0.045455
vt 0.300000 0.045455
vt 0.400000 0.045455
vt 0.500000 0.045455
vt 0.500000 0.090909
vt 0.400000 0.090909
vt 0.400000 0.090909
vt 0.500000 0.090909
vt 0.500000 0.045455
vt 0.400000 0.045455
vt 0.500000 0.045455
vt 0.600000 0.045455
vt 0.600000 0.090909
vt 0.500000 0.090909
vt 0.500000 0.090909
vt 0.600000 0.090909
vt 0.600000 0.045455
vt 0.500000 0.045455
vt 0.600000 0.045455
vt 0.700000 0.045455
vt 0.700000 0.090909
vt 0.600000 0.090909
vt 0.600000 0.090909
vt 0.700000 0.090909
vt 0.700000 0.045455
vt 0.600000 0.045455
vt 0.700000 0.045455
vt 0.800000 0.045455
vt 0.800000 0.090909
vt 0.700000 0.090909
vt 0.700000 0.090909
vt 0.800000 0.090909
vt 0.800000 0.045455
vt 0.700000 0.045455
vt 0.800000 0.045455
vt 0.900000 0.045455
vt 0.900000 0.090909
vt 0.800000 0.090909
vt 0.800000 0.090909
vt 0.900000 0.090909
vt 0.900000 0.045455
vt 0.800000 0.045455
vt 0.900000 0.045455
vt 1.000000 0.045455
vt 1.000000 0.090909
vt 0.900000 0.090909
vt 0.900000 0.090909
vt 1.000000 0.090909
vt 1.000000 0.045455
vt 0.900000 0.045455
vt 0.000000 0.090909
vt 0.100000 0.090909
vt 0.100000 0.136364
vt 0.000000 0.136364
vt 0.000000 0.136364
vt 0.100000 0.136364
vt 0.100000 0.090909
vt 0.000000 0.090909
vt 0.100000 0.090909
vt 0.200000 0.090909
vt 0.200000 0.136364
vt 0.100000 0.136364
vt 0.100000 0.136364
vt 0.200000 0.136364
vt 0.200000 0.090909
vt 0.100000 0.090909
vt 0.200000 0.090909
vt 0.300000 0.090909
vt 0.300000 0.136364
vt 0.200000 0.136364
vt 0.200000 0.136364
vt 0.300000 0.136364
vt 0.300000 0.090909
vt 0.200000 0.090909
vt 0.300000 0.090909
vt 0.400000 0.090909
vt 0.400000 0.136364
vt 0.300000 0.136364
vt 0.300000 0.136364
vt 0.400000 0.136364
vt 0.400000 0.090909
vt 0.300000 0.090909
vt 0.400000 0.090909
vt 0.500000 0.090909
vt 0.500000 0.136364
vt 0.400000 0.136364
vt 0.400000 0.136364
vt 0.500000 0.136364
vt 0.500000 0.090909
vt 0.400000 0.090909
vt 0.500000 0.090909
vt 0.600000 0.090909
vt 0.600000 0.136364
vt 0.500000 0.136364
vt 0.500000 0.136364
vt 0.600000 0.136364
vt 0.600000 0.090909
vt 0.500000 0.090909
vt 0.600000 0.090909
vt 0.700000 0.090909
vt 0.700000 0.136364
vt 0.600000 0.136364
vt 0.600000 0.136364
vt 0.700000 0.136364
vt 0.700000 0.090909
vt 0.600000 0.090909
vt 0.700000 0.090909
vt 0.800000 0.090909
vt 0.800000 0.136364
vt 0.700000 0.136364
vt 0.700000 0.136364
vt 0.800000 0.136364
vt 0.800000 0.090909
vt 0.700000 0.090909
vt 0.800000 0.090909
vt 0.900000 0.090909
vt 0.900000 0.136364
vt 0.800000 0.136364
vt 0.800000 0.136364
vt 0.900000 0.136364
vt 0.900000 0.090909
vt 0.800000 0.090909
vt 0.900000 0.090909
vt 1.000000 0.090909
vt 1.000000 0.136364
vt 0.900000 0.136364
vt 0.900000 0.136364
vt 1.000000 0.136364
vt 1.000000 0.090909
vt 0.900000 0.090909
vt 0.000000 0.136364
vt 0.100000 0.136364
vt 0.100000 0.181818
vt 0.000000 0.181818
vt 0.000000 0.181818
vt 0.100000 0.181818
vt 0.100000 0.136364
vt 0.000000 0.136364
vt 0.100000 0.136364
vt 0.200000 0.136364
vt 0.200000 0.181818
vt 0.100000 0.181818
vt 0.100000 0.181818
vt 0.200000 0.181818
vt 0.200000 0.136364
vt 0.100000 0.136364
vt 0.200000 0.136364
vt 0.300000 0.136364
vt 0.300000 0.181818
vt 0.200000 0.181818
vt 0.200000 0.181818
vt 0.300000 0.181818
vt 0.300000 0.136364
vt 0.200000 0.136364
vt 0.300000 0.136364
vt 0.400000 0.136364
vt 0.400000 0.181818
vt 0.300000 0.181818
vt 0.300000 0.181818
vt 0.400000 0.181818
vt 0.400000 0.136364
vt 0.300000 0.136364
vt 0.400000 0.136364
vt 0.500000 0.136364
vt 0.500000 0.181818
vt 0.400000 0.181818
vt 0.400000 0.181818
vt 0.500000 0.181818
vt 0.500000 0.136364
vt 0.400000 0.136364
vt 0.500000 0.136364
vt 0.600000 0.136364
vt 0.600000 0.181818
vt 0.500000 0.181818
vt 0.500000 0.181818
vt 0.600000 0.181818
vt 0.600000 0.136364
vt 0.500000 0.136364
vt 0.600000 0.136364
vt 0.700000 0.136364
vt 0.700000 0.181818
vt 0.600000 0.181818
vt 0.600000 0.181818
vt 0.700000 0.181818
vt 0.700000 0.136364
vt 0.600000 0.136364
vt 0.700000 0.136364
vt 0.800000 0.136364
vt 0.800000 0.181818
vt 0.700000 0.181818
vt 0.700000 0.181818
vt 0.800000 0.181818
vt 0.800000 0.136364
vt 0.700000 0.136364
vt 0.800000 0.136364
vt 0.900000 0.136364
vt 0.900000 0.181818
vt 0.800000 0.181818
vt 0.800000 0.181818
vt 0.900000 0.181818
vt 0.900000 0.136364
vt 0.800000 0.136364
vt 0.900000 0.136364
vt 1.000000 0.136364
vt 1.000000 0.181818
vt 0.900000 0.181818
vt 0.900000 0.181818
vt 1.000000 0.181818
vt 1.000000 0.136364
vt 0.900000 0.136364
vt 0.000000 0.181818
vt 0.100000 0.181818
vt 0.100000 0.227273
vt 0.000000 0.227273
vt 0.000000 0.227273
vt 0.100000 0.227273
vt 0.100000 0.181818
vt 0.000000 0.181818
vt 0.100000 0.181818
vt 0.200000 0.181818
vt 0.200000 0.227273
vt 0.100000 0.227273
vt 0.100000 0.227273
vt 0.200000 0.227273
vt 0.200000 0.181818
vt 0.100000 0.181818
vt 0.200000 0.181818
vt 0.300000 0.181818
vt 0.300000 0.227273
vt 0.200000 0.227273
vt 0.200000 0.227273
vt 0.300000 0.227273
vt 0.300000 0.181818
vt 0.200000 0.181818
vt 0.300000 0.181818
vt 0.400000 0.181818
vt 0.400000 0.227273
vt 0.300000 0.227273
vt 0.300000 0.227273
vt 0.400000 0.227273
vt 0.400000 0.181818
vt 0.300000 0.181818
vt 0.400000 0.181818
vt 0.500000 0.181818
vt 0.500000 0.227273
vt 0.400000 0.227273
vt 0.400000 0.227273
vt 0.500000 0.227273
vt 0.500000 0.181818
vt 0.400000 0.181818
vt 0.500000 0.181818
vt 0.600000 0.181818
vt 0.600000 0.227273
vt 0.500000 0.227273
vt 0.500000 0.227273
vt 0.600000 0.227273
vt 0.600000 0.181818
vt 0.500000 0.181818
vt 0.600000 0.181818
vt 0.700000 0.181818
vt 0.700000 0.227273
vt 0.600000 0.227273
vt 0.600000 0.227273
vt 0.700000 0.227273
vt 0.700000 0.181818
vt 0.600000 0.181818
vt 0.700000 0.181818
vt 0.800000 0.181818
vt 0.800000 0.227273
vt 0.700000 0.227273
vt 0.700000 0.227273
vt 0.800000 0.227273
vt 0.800000 0.181818
vt 0.700000 0.181818
vt 0.800000 0.181818
vt 0.900000 0.181818
vt 0.900000 0.227273
vt 0.800000 0.227273
vt 0.800000 0.227273
vt 0.900000 0.227273
vt 0.900000 0.181818
vt 0.800000 0.181818
vt 0.900000 0.181818
vt 1.000000 0.181818
vt 1.000000 0.227273
vt 0.900000 0.227273
vt 0.900000 0.227273
vt 1.000000 0.227273
vt 1.000000 0.181818
vt 0.900000 0.181818
vt 0.000000 0.227273
vt 0.100000 0.227273
vt 0.100000 0.272727
vt 0.000000 0.272727
vt 0.000000 0.272727
vt 0.100000 0.272727
vt 0.100000 0.227273
vt 0.000000 0.227273
vt 0.100000 0.227273
vt 0.200000 0.227273
vt 0.200000 0.272727
vt 0.100000 0.272727
vt 0.100000 0.272727
vt 0.200000 0.272727
vt 0.200000 0.227273
vt 0.100000 0.227273
vt 0.200000 0.227273
vt 0.300000 0.227273
vt 0.300000 0.272727
vt 0.200000 0.272727
vt 0.200000 0.272727
vt 0.300000 0.272727
vt 0.300000 0.227273
vt 0.200000 0.227273
vt 0.300000 0.227273
vt 0.400000 0.227273
vt 0.400000 0.272727
vt 0.300000 0.272727
vt 0.300000 0.272727
vt 0.400000 0.272727
vt 0.400000 0.227273
vt 0.300000 0.227273
vt 0.400000 0.227273
vt 0.500000 0.227273
vt 0.500000 0.272727
vt 0.400000 0.272727
vt 0.400000 0.272727
vt 0.500000 0.272727
vt 0.500000 0.227273
vt 0.400000 0.227273
vt 0.500000 0.227273
vt 0.600000 0.227273
vt 0.600000 0.272727
vt 0.500000 0.272727
vt 0.500000 0.272727
vt 0.600000 0.272727
vt 0.600000 0.227273
vt 0.500000 0.227273
vt 0.600000 0.227273
vt 0.700000 0.227273
vt 0.700000 0.272727
vt 0.600000 0.272727
vt 0.600000 0.272727
vt 0.700000 0.272727
vt 0.700000 0.227273
vt 0.600000 0.227273
vt 0.700000 0.227273
vt 0.800000 0.227273
vt 0.800000 0.272727
vt 0.700000 0.272727
vt 0.700000 0.272727
vt 0.800000 0.272727
vt 0.800000 0.227273
vt 0.700000 0.227273
vt 0.800000 0.227273
vt 0.900000 0.227273
vt 0.900000 0.272727
vt 0.800000 0.272727
vt 0.800000 0.272727
vt 0.900000 0.272727
vt 0.900000 0.227273
vt 0.800000 0.227273
vt 0.900000 0.227273
vt 1.000000 0.227273
vt 1.000000 0.272727
vt 0.900000 0.272727
vt 0.900000 0.272727
vt 1.000000 0.272727
vt 1.000000 0.227273
vt 0.900000 0.227273
vt 0.000000 0.272727
vt 0.100000 0.272727
vt 0.100000 0.318182
vt 0.000000 0.318182
vt 0.000000 0.318182
vt 0.100000 0.318182
vt 0.100000 0.272727
vt 0.000000 0.272727
vt 0.100000 0.272727
vt 0.200000 0.272727
vt 0.200000 0.318182
vt 0.100000 0.318182
vt 0.100000 0.318182
vt 0.200000 0.318182
vt 0.200000 0.272727
vt 0.100000 0.272727
vt 0.200000 0.272727
vt 0.300000 0.272727
vt 0.300000 0.318182
vt 0.200000 0.318182
vt 0.200000 0.318182
vt 0.300000 0.318182
vt 0.300000 0.272727
vt 0.200000 0.272727
vt 0.300000 0.272727
vt 0.400000 0.272727
vt 0.400000 0.318182
vt 0.300000 0.318182
vt 0.300000 0.318182
vt 0.400000 0.318182
vt 0.400000 0.272727
vt 0.300000 0.272727
vt 0.400000 0.272727
vt 0.500000 0.272727
vt 0.500000 0.318182
vt 0.400000 0.318182
vt 0.400000 0.318182
vt 0.500000 0.318182
vt 0.500000 0.272727
vt 0.400000 0.272727
vt 0.500000 0.272727
vt 0.600000 0.272727
vt 0.600000 0.318182
vt 0.500000 0.318182
vt 0.500000 0.318182
vt 0.600000 0.318182
vt 0.600000 0.272727
vt 0.500000 0.272727
vt 0.600000 0.272727
vt 0.700000 0.272727
vt 0.700000 0.318182
vt 0.600000 0.318182
vt 0.600000 0.318182
vt 0.700000 0.318182
vt 0.700000 0.272727
vt 0.600000 0.272727
vt 0.700000 0.272727
vt 0.800000 0.272727
vt 0.800000 0.318182
vt 0.700000 0.318182
vt 0.700000 0.318182
vt 0.800000 0.318182
vt 0.800000 0.272727
vt 0.700000 0.272727
vt 0.800000 0.272727
vt 0.900000 0.272727
vt 0.900000 0.318182
vt 0.800000 0.318182
vt 0.800000 0.318182
vt 0.900000 0.318182
vt 0.900000 0.272727
vt 0.800000 0.272727
vt 0.900000 0.272727
vt 1.000000 0.272727
vt 1.000000 0.318182
vt 0.900000 0.318182
vt 0.900000 0.318182
vt 1.000000 0.318182
vt 1.000000 0.272727
vt 0.900000 0.272727
vt 0.000000 0.318182
vt 0.100000 0.318182
vt 0.100000 0.363636
vt 0.000000 0.363636
vt 0.000000 0.363636
vt 0.100000 0.363636
vt 0.100000 0.318182
vt 0.000000 0.318182
vt 0.100000 0.318182
vt 0.200000 0.318182
vt 0.200000 0.363636
vt 0.100000 0.363636
vt 0.100000 0.363636
vt 0.200000 0.363636
vt 0.200000 0.318182
vt 0.100000 0.318182
vt 0.200000 0.318182
vt 0.300000 0.318182
vt 0.300000 0.363636
vt 0.200000 0.363636
vt 0.200000 0.363636
vt 0.300000 0.363636
vt 0.300000 0.318182
vt 0.200000 0.318182
vt 0.300000 0.318182
vt 0.400000 0.318182
vt 0.400000 0.363636
vt 0.300000 0.363636
vt 0.300000 0.363636
vt 0.400000 0.363636
vt 0.400000 0.318182
vt 0.300000 0.318182
vt 0.400000 0.318182
vt 0.500000 0.318182
vt 0.500000 0.363636
vt 0.400000 0.363636
vt 0.400000 0.363636
vt 0.500000 0.363636
vt 0.500000 0.318182
vt 0.400000 0.318182
vt 0.500000 0.318182
vt 0.600000 0.318182
vt 0.600000 0.363636
vt 0.500000 0.363636
vt 0.500000 0.363636
vt 0.600000 0.363636
vt 0.600000 0.318182
vt 0.500000 0.318182
vt 0.600000 0.318182
vt 0.700000 0.318182
vt 0.700000 0.363636
vt 0.600000 0.363636
vt 0.600000 0.363636
vt 0.700000 0.363636
vt 0.700000 0.318182
vt 0.600000 0.318182
vt 0.700000 0.318182
vt 0.800000 0.318182
vt 0.800000 0.363636
vt 0.700000 0.363636
vt 0.700000 0.363636
vt 0.800000 0.363636
vt 0.800000 0.318182
vt 0.700000 0.318182
vt 0.800000 0.318182
vt 0.900000 0.318182
vt 0.900000 0.363636
vt 0.800000 0.363636
vt 0.800000 0.363636
vt 0.900000 0.363636
vt 0.900000 0.318182
vt 0.800000 0.318182
vt 0.900000 0.318182
vt 1.000000 0.318182
vt 1.000000 0.363636
vt 0.900000 0.363636
vt 0.900000 0.363636
vt 1.000000 0.363636
vt 1.000000 0.318182
vt 0.900000 0.318182
vt 0.000000 0.363636
vt 0.100000 0.363636
vt 0.100000 0.409091
vt 0.000000 0.409091
vt 0.000000 0.409091
vt 0.100000 0.409091
vt 0.100000 0.363636
vt 0.000000 0.363636
vt 0.100000 0.363636
vt 0.200000 0.363636
vt 0.200000 0.409091
vt 0.100000 0.409091
vt 0.100000 0.409091
vt 0.200000 0.409091
vt 0.200000 0.363636
vt 0.100000 0.363636
vt 0.200000 0.363636
vt 0.300000 0.363636
vt 0.300000 0.409091
vt 0.200000 0.409091
vt 0.200000 0.409091
vt 0.300000 0.409091
vt 0.300000 0.363636
vt 0.200000 0.363636
vt 0.300000 0.363636
vt 0.400000 0.363636
vt 0.400000 0.409091
vt 0.300000 0.409091
vt 0.300000 0.409091
vt 0.400000 0.409091
vt 0.400000 0.363636
vt 0.300000 0.363636
vt 0.400000 0.363636
vt 0.500000 0.363636
vt 0.500000 0.409091
vt 0.400000 0.409091
vt 0.400000 0.409091
vt 0.500000 0.409091
vt 0.500000 0.363636
vt 0.400000 0.363636
vt 0.500000 0.363636
vt 0.600000 0.363636
vt 0.600000 0.409091
vt 0.500000 0.409091
vt 0.500000 0.409091
vt 0.600000 0.409091
vt 0.600000 0.363636
vt 0.500000 0.363636
vt 0.600000 0.363636
vt 0.700000 0.363636
vt 0.700000 0.409091
vt 0.600000 0.409091
vt 0.600000 0.409091
vt 0.700000 0.409091
vt 0.700000 0.363636
vt 0.600000 0.363636
vt 0.700000 0.363636
vt 0.800000 0.363636
vt 0.800000 0.409091
vt 0.700000 0.409091
vt 0.700000 0.409091
vt 0.800000 0.409091
vt 0.800000 0.363636
vt 0.700000 0.363636
vt 0.800000 0.363636
vt 0.900000 0.363636
vt 0.900000 0.409091
vt 0.800000 0.409091
vt 0.800000 0.409091
vt 0.900000 0.409091
vt 0.900000 0.363636
vt 0.800000 0.363636
vt 0.900000 0.363636
vt 1.000000 0.363636
vt 1.000000 0.409091
vt 0.900000 0.409091
vt 0.900000 0.409091
vt 1.000000 0.409091
vt 1.000000 0.363636
vt 0.900000 0.363636
vt 0.000000 0.409091
vt 0.100000 0.409091
vt 0.100000 0.454545
vt 0.000000 0.454545
vt 0.000000 0.454545
vt 0.100000 0.454545
vt 0.100000 0.409091
vt 0.000000 0.409091
vt 0.100000 0.409091
vt 0.200000 0.409091
vt 0.200000 0.454545
vt 0.100000 0.454545
vt 0.100000 0.454545
vt 0.200000 0.454545
vt 0.200000 0.409091
vt 0.100000 0.409091
vt 0.200000 0.409091
vt 0.300000 0.409091
vt 0.300000 0.454545
vt 0.200000 0.454545
vt 0.200000 0.454545
vt 0.300000 0.454545
vt 0.300000 0.409091
vt 0.200000 0.409091
vt 0.300000 0.409091
vt 0.400000 0.409091
vt 0.400000 0.454545
vt 0.300000 0.454545
vt 0.300000 0.454545
vt 0.400000 0.454545
vt 0.400000 0.409091
vt 0.300000 0.409091
vt 0.400000 0.409091
vt 0.500000 0.409091
vt 0.500000 0.454545
vt 0.400000 0.454545
vt 0.400000 0.454545
vt 0.500000 0.454545
vt 0.500000 0.409091
vt 0.400000 0.409091
vt 0.500000 0.409091
vt 0.600000 0.409091
vt 0.600000 0.454545
vt 0.500000 0.454545
vt 0.500000 0.454545
vt 0.600000 0.454545
vt 0.600000 0.409091
vt 0.500000 0.409091
vt 0.600000 0.409091
vt 0.700000 0.409091
vt 0.700000 0.454545
vt 0.600000 0.454545
vt 0.600000 0.454545
vt 0.700000 0.454545
vt 0.700000 0.409091
vt 0.600000 0.409091
vt 0.700000 0.409091
vt 0.800000 0.409091
vt 0.800000 0.454545
vt 0.700000 0.454545
vt 0.700000 0.454545
vt 0.800000 0.454545
vt 0.800000 0.409091
vt 0.700000 0.409091
vt 0.800000 0.409091
vt 0.900000 0.409091
vt 0.900000 0.454545
vt 0.800000 0.454545
vt 0.800000 0.454545
vt 0.900000 0.454545
vt 0.900000 0.409091
vt 0.800000 0.409091
vt 0.900000 0.409091
vt 1.000000 0.409091
vt 1.000000 0.454545
vt 0.900000 0.454545
vt 0.900000 0.454545
vt 1.000000 0.454545
vt 1.000000 0.409091
vt 0.900000 0.409091
vt 0.000000 0.454545
vt 0.100000 0.454545
vt 0.100000 0.500000
vt 0.000000 0.500000
vt 0.000000 0.500000
vt 0.100000 0.500000
vt 0.100000 0.454545
vt 0.000000 0.454545
vt 0.100000 0.454545
vt 0.200000 0.454545
vt 0.200000 0.500000
vt 0.100000 0.500000
vt 0.100000 0.500000
vt 0.200000 0.500000
vt 0.200000 0.454545
vt 0.100000 0.454545
vt 0.200000 0.454545
vt 0.300000 0.454545
vt 0.300000 0.500000
vt 0.200000 0.500000
vt 0.200000 0.500000
vt 0.300000 0.500000
vt 0.300000 0.454545
vt 0.200000 0.454545
vt 0.300000 0.454545
vt 0.400000 0.454545
vt 0.400000 0.500000
vt 0.300000 0.500000
vt 0.300000 0.500000
vt 0.400000 0.500000
vt 0.400000 0.454545
vt 0.300000 0.454545
vt 0.400000 0.454545
vt 0.500000 0.454545
vt 0.500000 0.500000
vt 0.400000 0.500000
vt 0.400000 0.500000
vt 0.500000 0.500000
vt 0.500000 0.454545
vt 0.400000 0.454545
vt 0.500000 0.454545
vt 0.600000 0.454545
vt 0.600000 0.500000
vt 0.500000 0.500000
vt 0.500000 0.500000
vt 0.600000 0.500000
vt 0.600000 0.454545
vt 0.500000 0.454545
vt 0.600000 0.454545
vt 0.700000 0.454545
vt 0.700000 0.500000
vt 0.600000 0.500000
vt 0.600000 0.500000
vt 0.700000 0.500000
vt 0.700000 0.454545
vt 0.600000 0.454545
vt 0.700000 0.454545
vt 0.800000 0.454545
vt 0.800000 0.500000
vt 0.700000 0.500000
vt 0.700000 0.500000
vt 0.800000 0.500000
vt 0.800000 0.454545
vt 0.700000 0.454545
vt 0.800000 0.454545
vt 0.900000 0.454545
vt 0.900000 0.500000
vt 0.800000 0.500000
vt 0.800000 0.500000
vt 0.900000 0.500000
vt 0.900000 0.454545
vt 0.800000 0.454545
vt 0.900000 0.454545
vt 1.000000 0.454545
vt 1.000000 0.500000
vt 0.900000 0.500000
vt 0.900000 0.500000
vt 1.000000 0.500000
vt 1.000000 0.454545
vt 0.900000 0.454545
vt 0.000000 0.500000
vt 0.100000 0.500000
vt 0.100000 0.545455
vt 0.000000 0.545455
vt 0.000000 0.545455
vt 0.100000 0.545455
vt 0.100000 0.500000
vt 0.000000 0.500000
vt 0.100000 0.500000
vt 0.200000 0.500000
vt 0.200000 0.545455
vt 0.100000 0.545455
vt 0.100000 0.545455
vt 0.200000 0.545455
vt 0.200000 0.500000
vt 0.100000 0.500000
vt 0.200000 0.500000
vt 0.300000 0.500000
vt 0.300000 0.545455
vt 0.200000 0.545455
vt 0.200000 0.545455
vt 0.300000 0.545455
vt 0.300000 0.500000
vt 0.200000 0.500000
vt 0.300000 0.500000
vt 0.400000 0.500000
vt 0.400000 0.545455
vt 0.300000 0.545455
vt 0.300000 0.545455
vt 0.400000 0.545455
vt 0.400000 0.500000
vt 0.300000 0.500000
vt 0.400000 0.500000
vt 0.500000 0.500000
vt 0.500000 0.545455
vt 0.400000 0.545455
vt 0.400000 0.545455
vt 0.500000 0.545455
vt 0.500000 0.500000
vt 0.400000 0.500000
vt 0.500000 0.500000
vt 0.600000 0.500000
vt 0.600000 0.545455
vt 0.500000 0.545455
vt 0.500000 0.545455
vt 0.600000 0.545455
vt 0.600000 0.500000
vt 0.500000 0.500000
vt 0.600000 0.500000
vt 0.700000 0.500000
vt 0.700000 0.545455
vt 0.600000 0.545455
vt 0.600000 0.545455
vt 0.700000 0.545455
vt 0.700000 0.500000
vt 0.600000 0.500000
vt 0.700000 0.500000
vt 0.800000 0.500000
vt 0.800000 0.545455
vt 0.700000 0.545455
vt 0.700000 0.545455
vt 0.800000 0.545455
vt 0.800000 0.500000
vt 0.700000 0.500000
vt 0.800000 0.500000
vt 0.900000 0.500000
vt 0.900000 0.545455
vt 0.800000 0.545455
vt 0.800000 0.545455
vt 0.900000 0.545455
vt 0.900000 0.500000
vt 0.800000 0.500000
vt 0.900000 0.500000
vt 1.000000 0.500000
vt 1.000000 0.545455
vt 0.900000 0.545455
vt 0.900000 0.545455
vt 1.000000 0.545455
vt 1.000000 0.500000
vt 0.900000 0.500000
vt 0.000000 0.545455
vt 0.100000 0.545455
vt 0.100000 0.590909
vt 0.000000 0.590909
vt 0.000000 0.590909
vt 0.100000 0.590909
vt 0.100000 0.545455
vt 0.000000 0.545455
vt 0.100000 0.545455
vt 0.200000 0.545455
vt 0.200000 0.590909
vt 0.100000 0.590909
vt 0.100000 0.590909
vt 0.200000 0.590909
vt 0.200000 0.545455
vt 0.100000 0.545455
vt 0.200000 0.545455
vt 0.300000 0.545455
vt 0.300000 0.590909
vt 0.200000 0.590909
vt 0.200000 0.590909
vt 0.300000 0.590909
vt 0.300000 0.545455
vt 0.200000 0.545455
vt 0.300000 0.545455
vt 0.400000 0.545455
vt 0.400000 0.590909
vt 0.300000 0.590909
vt 0.300000 0.590909
vt 0.400000 0.590909
vt 0.400000 0.545455
vt 0.300000 0.545455
vt 0.400000 0.545455
vt 0.500000 0.545455
vt 0.500000 0.590909
vt 0.400000 0.590909
vt 0.400000 0.590909
vt 0.500000 0.590909
vt 0.500000 0.545455
vt 0.400000 0.545455
vt 0.500000 0.545455
vt 0.600000 0.545455
vt 0.600000 0.590909
vt 0.500000 0.590909
vt 0.500000 0.590909
vt 0.600000 0.590909
vt 0.600000 0.545455
vt 0.500000 0.545455
vt 0.600000 0.545455
vt 0.700000 0.545455
vt 0.700000 0.590909
vt 0.600000 0.590909
vt 0.600000 0.590909
vt 0.700000 0.590909
vt 0.700000 0.545455
vt 0.600000 0.545455
vt 0.700000 0.545455
vt 0.800000 0.545455
vt 0.800000 0.590909
vt 0.700000 0.590909
vt 0.700000 0.590909
vt 0.800000 0.590909
vt 0.800000 0.545455
vt 0.700000 0.545455
vt 0.800000 0.545455
vt 0.900000 0.545455
vt 0.900000 0.590909
vt 0.800000 0.590909
vt 0.800000 0.590909
vt 0.900000 0.590909
vt 0.900000 0.545455
vt 0.800000 0.545455
vt 0.900000 0.545455
vt 1.000000 0.545455
vt 1.000000 0.590909
vt 0.900000 0.590909
vt 0.900000 0.590909
vt 1.000000 0.590909
vt 1.000000 0.545455
vt 0.900000 0.545455
vt 0.000000 0.590909
vt 0.100000 0.590909
vt 0.100000 0.636364
vt 0.000000 0.636364
vt 0.000000 0.636364
vt 0.100000 0.636364
vt 0.100000 0.590909
vt 0.000000 0.590909
vt 0.100000 0.590909
vt 0.200000 0.590909
vt 0.200000 0.636364
vt 0.100000 0.636364
vt 0.100000 0.636364
vt 0.200000 0.636364
vt 0.200000 0.590909
vt 0.100000 0.590909
vt 0.200000 0.590909
vt 0.300000 0.590909
vt 0.300000 0.636364
vt 0.200000 0.636364
vt 0.200000 0.636364
vt 0.300000 0.636364
vt 0.300000 0.590909
vt 0.200000 0.590909
vt 0.300000 0.590909
vt 0.400000 0.590909
vt 0.400000 0.636364
vt 0.300000 0.636364
vt 0.300000 0.636364
vt 0.400000 0.636364
vt 0.400000 0.590909
vt 0.300000 0.590909
vt 0.400000 0.590909
vt 0.500000 0.590909
vt 0.500000 0.636364
vt 0.400000 0.636364
vt 0.400000 0.636364
vt 0.500000 0.636364
vt 0.500000 0.590909
vt 0.400000 0.590909
vt 0.500000 0.590909
vt 0.600000 0.590909
vt 0.600000 0.636364
vt 0.500000 0.636364
vt 0.500000 0.636364
vt 0.600000 0.636364
vt 0.600000 0.590909
vt 0.500000 0.590909
vt 0.600000 0.590909
vt 0.700000 0.590909
vt 0.700000 0.636364
vt 0.600000 0.636364
vt 0.600000 0.636364
vt 0.700000 0.636364
vt 0.700000 0.590909
vt 0.600000 0.590909
vt 0.700000 0.590909
vt 0.800000 0.590909
vt 0.800000 0.636364
vt 0.700000 0.636364
vt 0.700000 0.636364
vt 0.800000 0.636364
vt 0.800000 0.590909
vt 0.700000 0.590909
vt 0.800000 0.590909
vt 0.900000 0.590909
vt 0.900000 0.636364
vt 0.800000 0.636364
vt 0.800000 0.636364
vt 0.900000 0.636364
vt 0.900000 0.590909
vt 0.800000 0.590909
vt 0.900000 0.590909
vt 1.000000 0.590909
vt 1.000000 0.636364
vt 0.900000 0.636364
vt 0.900000 0.636364
vt 1.000000 0.636364
vt 1.000000 0.590909
vt 0.900000 0.590909
vt 0.000000 0.636364
vt 0.100000 0.636364
vt 0.100000 0.681818
vt 0.000000 0.681818
vt 0.000000 0.681818
vt 0.100000 0.681818
vt 0.100000 0.636364
vt 0.000000 0.636364
vt 0.100000 0.636364
vt 0.200000 0.636364
vt 0.200000 0.681818
vt 0.100000 0.681818
vt 0.100000 0.681818
vt 0.200000 0.681818
vt 0.200000 0.636364
vt 0.100000 0.636364
vt 0.200000 0.636364
vt 0.300000 0.636364
vt 0.300000 0.681818
vt 0.200000 0.681818
vt 0.200000 0.681818
vt 0.300000 0.681818
vt 0.300000 0.636364
vt 0.200000 0.636364
vt 0.300000 0.636364
vt 0.400000 0.636364
vt 0.400000 0.681818
vt 0.300000 0.681818
vt 0.300000 0.681818
vt 0.400000 0.681818
vt 0.400000 0.636364
vt 0.300000 0.636364
vt 0.400000 0.636364
vt 0.500000 0.636364
vt 0.500000 0.681818
vt 0.400000 0.681818
vt 0.400000 0.681818
vt 0.500000 0.681818
vt 0.500000 0.636364
vt 0.400000 0.636364
vt 0.500000 0.636364
vt 0.600000 0.636364
vt 0.600000 0.681818
vt 0.500000 0.681818
vt 0.500000 0.681818
vt 0.600000 0.681818
vt 0.600000 0.636364
vt 0.500000 0.636364
vt 0.600000 0.636364
vt 0.700000 0.636364
vt 0.700000 0.681818
vt 0.600000 0.681818
vt 0.600000 0.681818
vt 0.700000 0.681818
vt 0.700000 0.636364
vt 0.600000 0.636364
vt 0.700000 0.636364
vt 0.800000 0.636364
vt 0.800000 0.681818
vt 0.700000 0.681818
vt 0.700000 0.681818
vt 0.800000 0.681818
vt 0.800000 0.636364
vt 0.700000 0.636364
vt 0.800000 0.636364
vt 0.900000 0.636364
vt 0.900000 0.681818
vt 0.800000 0.681818
vt 0.800000 0.681818
vt 0.900000 0.681818
vt 0.900000 0.636364
vt 0.800000 0.636364
vt 0.900000 0.636364
vt 1.000000 0.636364
vt 1.000000 0.681818
vt 0.900000 0.681818
vt 0.900000 0.681818
vt 1.000000 0.681818
vt 1.000000 0.636364
vt 0.900000 0.636364
vt 0.000000 0.681818
vt 0.100000 0.681818
vt 0.100000 0.727273
vt 0.000000 0.727273
vt 0.000000 0.727273
vt 0.100000 0.727273
vt 0.100000 0.681818
vt 0.000000 0.681818
vt 0.100000 0.681818
vt 0.200000 0.681818
vt 0.200000 0.727273
vt 0.100000 0.727273
vt 0.100000 0.727273
vt 0.200000 0.727273
vt 0.200000 0.681818
vt 0.100000 0.681818
vt 0.200000 0.681818
vt 0.300000 0.681818
vt 0.300000 0.727273
vt 0.200000 0.727273
vt 0.200000 0.727273
vt 0.300000 0.727273
vt 0.300000 0.681818
vt 0.200000 0.681818
vt 0.300000 0.681818
vt 0.400000 0.681818
vt 0.400000 0.727273
vt 0.300000 0.727273
vt 0.300000 0.727273
vt 0.400000 0.727273
vt 0.400000 0.681818
vt 0.300000 0.681818
vt 0.400000 0.681818
vt 0.500000 0.681818
vt 0.500000 0.727273
vt 0.400000 0.727273
vt 0.400000 0.727273
vt 0.500000 0.727273
vt 0.500000 0.681818
vt 0.400000 0.681818
vt 0.500000 0.681818
vt 0.600000 0.681818
vt 0.600000 0.727273
vt 0.500000 0.727273
vt 0.500000 0.727273
vt 0.600000 0.727273
vt 0.600000 0.681818
vt 0.500000 0.681818
vt 0.600000 0.681818
vt 0.700000 0.681818
vt 0.700000 0.727273
vt 0.600000 0.727273
vt 0.600000 0.727273
vt 0.700000 0.727273
vt 0.700000 0.681818
vt 0.600000 0.681818
vt 0.700000 0.681818
vt 0.800000 0.681818
vt 0.800000 0.727273
vt 0.700000 0.727273
vt 0.700000 0.727273
vt 0.800000 0.727273
vt 0.800000 0.681818
vt 0.700000 0.681818
vt 0.800000 0.681818
vt 0.900000 0.681818
vt 0.900000 0.727273
vt 0.800000 0.727273
vt 0.800000 0.727273
vt 0.900000 0.727273
vt 0.900000 0.681818
vt 0.800000 0.681818
vt 0.900000 0.681818
vt 1.000000 0.681818
vt 1.000000 0.727273
vt 0.900000 0.727273
vt 0.900000 0.727273
vt 1.000000 0.727273
vt 1.000000 0.681818
vt 0.900000 0.681818
vt 0.000000 0.727273
vt 0.100000 0.727273
vt 0.100000 0.772727
vt 0.000000 0.772727
vt 0.000000 0.772727
vt 0.100000 0.772727
vt 0.100000 0.727273
vt 0.000000 0.727273
vt 0.100000 0.727273
vt 0.200000 0.727273
vt 0.200000 0.772727
vt 0.100000 0.772727
vt 0.100000 0.772727
vt 0.200000 0.772727
vt 0.200000 0.727273
vt 0.100000 0.727273
vt 0.200000 0.727273
vt 0.300000 0.727273
vt 0.300000 0.772727
vt 0.200000 0.772727
vt 0.200000 0.772727
vt 0.300000 0.772727
vt 0.300000 0.727273
vt 0.200000 0.727273
vt 0.300000 0.727273
vt 0.400000 0.727273
vt 0.400000 0.772727
vt 0.300000 0.772727
vt 0.300000 0.772727
vt 0.400000 0.772727
vt 0.400000 0.727273
vt 0.300000 0.727273
vt 0.400000 0.727273
vt 0.500000 0.727273
vt 0.500000 0.772727
vt 0.400000 0.772727
vt 0.400000 0.772727
vt 0.500000 0.772727
vt 0.500000 0.727273
vt 0.400000 0.727273
vt 0.500000 0.727273
vt 0.600000 0.727273
vt 0.600000 0.772727
vt 0.500000 0.772727
vt 0.500000 0.772727
vt 0.600000 0.772727
vt 0.600000 0.727273
vt 0.500000 0.727273
vt 0.600000 0.727273
vt 0.700000 0.727273
vt 0.700000 0.772727
vt 0.600000 0.772727
vt 0.600000 0.772727
vt 0.700000 0.772727
vt 0.700000 0.727273
vt 0.600000 0.727273
vt 0.700000 0.727273
vt 0.800000 0.727273
vt 0.800000 0.772727
vt 0.700000 0.772727
vt 0.700000 0.772727
vt 0.800000 0.772727
vt 0.800000 0.727273
vt 0.700000 0.727273
vt 0.800000 0.727273
vt 0.900000 0.727273
vt 0.900000 0.772727
vt 0.800000 0.772727
vt 0.800000 0.772727
vt 0.900000 0.772727
vt 0.900000 0.727273
vt 0.800000 0.727273
vt 0.900000 0.727273
vt 1.000000 0.727273
vt 1.000000 0.772727
vt 0.900000 0.772727
vt 0.900000 0.772727
vt 1.000000 0.772727
vt 1.000000 0.727273
vt 0.900000 0.727273
vt 0.000000 0.772727
vt 0.100000 0.772727
vt 0.100000 0.818182
vt 0.000000 0.818182
vt 0.000000 0.818182
vt 0.100000 0.818182
vt 0.100000 0.772727
vt 0.000000 0.772727
vt 0.100000 0.772727
vt 0.200000 0.772727
vt 0.200000 0.818182
vt 0.100000 0.818182
vt 0.100000 0.818182
vt 0.200000 0.818182
vt 0.200000 0.772727
vt 0.100000 0.772727
vt 0.200000 0.772727
vt 0.300000 0.772727
vt 0.300000 0.818182
vt 0.200000 0.818182
vt 0.200000 0.818182
vt 0.300000 0.818182
vt 0.300000 0.772727
vt 0.200000 0.772727
vt 0.300000 0.772727
vt 0.400000 0.772727
vt 0.400000 0.818182
vt 0.300000 0.818182
vt 0.300000 0.818182
vt 0.400000 0.818182
vt 0.400000 0.772727
vt 0.300000 0.772727
vt 0.400000 0.772727
vt 0.500000 0.772727
vt 0.500000 0.818182
vt 0.400000 0.818182
vt 0.400000 0.818182
vt 0.500000 0.818182
vt 0.500000 0.772727
vt 0.400000 0.772727
vt 0.500000 0.772727
vt 0.600000 0.772727
vt 0.600000 0.818182
vt 0.500000 0.818182
vt 0.500000 0.818182
vt 0.600000 0.818182
vt 0.600000 0.772727
vt 0.500000 0.772727
vt 0.600000 0.772727
vt 0.700000 0.772727
vt 0.700000 0.818182
vt 0.600000 0.818182
vt 0.600000 0.818182
vt 0.700000 0.818182
vt 0.700000 0.772727
vt 0.600000 0.772727
vt 0.700000 0.772727
vt 0.800000 0.772727
vt 0.800000 0.818182
vt 0.700000 0.818182
vt 0.700000 0.818182
vt 0.800000 0.818182
vt 0.800000 0.772727
vt 0.700000 0.772727
vt 0.800000 0.772727
vt 0.900000 0.772727
vt 0.900000 0.818182
vt 0.800000 0.818182
vt 0.800000 0.818182
vt 0.900000 0.818182
vt 0.900000 0.772727
vt 0.800000 0.772727
vt 0.900000 0.772727
vt 1.000000 0.772727
vt 1.000000 0.818182
vt 0.900000 0.818182
vt 0.900000 0.818182
vt 1.000000 0.818182
vt 1.000000 0.772727
vt 0.900000 0.772727
vt 0.000000 0.818182
vt 0.100000 0.818182
vt 0.100000 0.863636
vt 0.000000 0.863636
vt 0.000000 0.863636
vt 0.100000 0.863636
vt 0.100000 0.818182
vt 0.000000 0.818182
vt 0.100000 0.818182
vt 0.200000 0.818182
vt 0.200000 0.863636
vt 0.100000 0.863636
vt 0.100000 0.863636
vt 0.200000 0.863636
vt 0.200000 0.818182
vt 0.100000 0.818182
vt 0.200000 0.818182
vt 0.300000 0.818182
vt 0.300000 0.863636
vt 0.200000 0.863636
vt 0.200000 0.863636
vt 0.300000 0.863636
vt 0.300000 0.818182
vt 0.200000 0.818182
vt 0.300000 0.818182
vt 0.400000 0.818182
vt 0.400000 0.863636
vt 0.300000 0.863636
vt 0.300000 0.863636
vt 0.400000 0.863636
vt 0.400000 0.818182
vt 0.300000 0.818182
vt 0.400000 0.818182
vt 0.500000 0.818182
vt 0.500000 0.863636
vt 0.400000 0.863636
vt 0.400000 0.863636
vt 0.500000 0.863636
vt 0.500000 0.818182
vt 0.400000 0.818182
vt 0.500000 0.818182
vt 0.600000 0.818182
vt 0.600000 0.863636
vt 0.500000 0.863636
vt 0.500000 0.863636
vt 0.600000 0.863636
vt 0.600000 0.818182
vt 0.500000 0.818182
vt 0.600000 0.818182
vt 0.700000 0.818182
vt 0.700000 0.863636
vt 0.600000 0.863636
vt 0.600000 0.863636
vt 0.700000 0.863636
vt 0.700000 0.818182
vt 0.600000 0.818182
vt 0.700000 0.818182
vt 0.800000 0.818182
vt 0.800000 0.863636
vt 0.700000 0.863636
vt 0.700000 0.863636
vt 0.800000 0.863636
vt 0.800000 0.818182
vt 0.700000 0.818182
vt 0.800000 0.818182
vt 0.900000 0.818182
vt 0.900000 0.863636
vt 0.800000 0.863636
vt 0.800000 0.863636
vt 0.900000 0.863636
vt 0.900000 0.818182
vt 0.800000 0.818182
vt 0.900000 0.818182
vt 1.000000 0.818182
vt 1.000000 0.863636
vt 0.900000 0.863636
vt 0.900000 0.863636
vt 1.000000 0.863636
vt 1.000000 0.818182
vt 0.900000 0.818182
vt 0.000000 0.863636
vt 0.100000 0.863636
vt 0.100000 0.909091
vt 0.000000 0.909091
vt 0.000000 0.909091
vt 0.100000 0.909091
vt 0.100000 0.863636
vt 0.000000 0.863636
vt 0.100000 0.863636
vt 0.200000 0.863636
vt 0.200000 0.909091
vt 0.100000 0.909091
vt 0.100000 0.909091
vt 0.200000 0.909091
vt 0.200000 0.863636
vt 0.100000 0.863636
vt 0.200000 0.863636
vt 0.300000 0.863636
vt 0.300000 0.909091
vt 0.200000 0.909091
vt 0.200000 0.909091
vt 0.300000 0.909091
vt 0.300000 0.863636
vt 0.200000 0.863636
vt 0.300000 0.863636
vt 0.400000 0.863636
vt 0.400000 0.909091
vt 0.300000 0.909091
vt 0.300000 0.909091
vt 0.400000 0.909091
vt 0.400000 0.863636
vt 0.300000 0.863636
vt 0.400000 0.863636
vt 0.500000 0.863636
vt 0.500000 0.909091
vt 0.400000 0.909091
vt 0.400000 0.909091
vt 0.500000 0.909091
vt 0.500000 0.863636
vt 0.400000 0.863636
vt 0.500000 0.863636
vt 0.600000 0.863636
vt 0.600000 0.909091
vt 0.500000 0.909091
vt 0.500000 0.909091
vt 0.600000 0.909091
vt 0.600000 0.863636
vt 0.500000 0.863636
vt 0.600000 0.863636
vt 0.700000 0.863636
vt 0.700000 0.909091
vt 0.600000 0.909091
vt 0.600000 0.909091
vt 0.700000 0.909091
vt 0.700000 0.863636
vt 0.600000 0.863636
vt 0.700000 0.863636
vt 0.800000 0.863636
vt 0.800000 0.909091
vt 0.700000 0.909091
vt 0.700000 0.909091
vt 0.800000 0.909091
vt 0.800000 0.863636
vt 0.700000 0.863636
vt 0.800000 0.863636
vt 0.900000 0.863636
vt 0.900000 0.909091
vt 0.800000 0.909091
vt 0.800000 0.909091
vt 0.900000 0.909091
vt 0.900000 0.863636
vt 0.800000 0.863636
vt 0.900000 0.863636
vt 1.000000 0.863636
vt 1.000000 0.909091
vt 0.900000 0.909091
vt 0.900000 0.909091
vt 1.000000 0.909091
vt 1.000000 0.863636
vt 0.900000 0.863636
vt 0.000000 0.909091
vt 0.100000 0.909091
vt 0.100000 0.954545
vt 0.000000 0.954545
vt 0.000000 0.954545
vt 0.100000 0.954545
vt 0.100000 0.909091
vt 0.000000 0.909091
vt 0.100000 0.909091
vt 0.200000 0.909091
vt 0.200000 0.954545
vt 0.100000 0.954545
vt 0.100000 0.954545
vt 0.200000 0.954545
vt 0.200000 0.909091
vt 0.100000 0.909091
vt 0.200000 0.909091
vt 0.300000 0.909091
vt 0.300000 0.954545
vt 0.200000 0.954545
vt 0.200000 0.954545
vt 0.300000 0.954545
vt 0.300000 0.909091
vt 0.200000 0.909091
vt 0.300000 0.909091
vt 0.400000 0.909091
vt 0.400000 0.954545
vt 0.300000 0.954545
vt 0.300000 0.954545
vt 0.400000 0.954545
vt 0.400000 0.909091
vt 0.300000 0.909091
vt 0.400000 0.909091
vt 0.500000 0.909091
vt 0.500000 0.954545
vt 0.400000 0.954545
vt 0.400000 0.954545
vt 0.500000 0.954545
vt 0.500000 0.909091
vt 0.400000 0.909091
vt 0.500000 0.909091
vt 0.600000 0.909091
vt 0.600000 0.954545
vt 0.500000 0.954545
vt 0.500000 0.954545
vt 0.600000 0.954545
vt 0.600000 0.909091
vt 0.500000 0.909091
vt 0.600000 0.909091
vt 0.700000 0.909091
vt 0.700000 0.954545
vt 0.600000 0.954545
vt 0.600000 0.954545
vt 0.700000 0.954545
vt 0.700000 0.909091
vt 0.600000 0.909091
vt 0.700000 0.909091
vt 0.800000 0.909091
vt 0.800000 0.954545
vt 0.700000 0.954545
vt 0.700000 0.954545
vt 0.800000 0.954545
vt 0.800000 0.909091
vt 0.700000 0.909091
vt 0.800000 0.909091
vt 0.900000 0.909091
vt 0.900000 0.954545
vt 0.800000 0.954545
vt 0.800000 0.954545
vt 0.900000 0.954545
vt 0.900000 0.909091
vt 0.800000 0.909091
vt 0.900000 0.909091
vt 1.000000 0.909091
vt 1.000000 0.954545
vt 0.900000 0.954545
vt 0.900000 0.954545
vt 1.000000 0.954545
vt 1.000000 0.909091
vt 0.900000 0.909091
vt 0.000000 0.954545
vt 0.100000 0.954545
vt 0.100000 1.000000
vt 0.000000 1.000000
vt 0.000000 1.000000
vt 0.100000 1.000000
vt 0.100000 0.954545
vt 0.000000 0.954545
vt 0.100000 0.954545
vt 0.200000 0.954545
vt 0.200000 1.000000
vt 0.100000 1.000000
vt 0.100000 1.000000
vt 0.200000 1.000000
vt 0.200000 0.954545
vt 0.100000 0.954545
vt 0.200000 0.954545
vt 0.300000 0.954545
vt 0.300000 1.000000
vt 0.200000 1.000000
vt 0.200000 1.000000
vt 0.300000 1.000000
vt 0.300000 0.954545
vt 0.200000 0.954545
vt 0.300000 0.954545
vt 0.400000 0.954545
vt 0.400000 1.000000
vt 0.300000 1.000000
vt 0.300000 1.000000
vt 0.400000 1.000000
vt 0.400000 0.954545
vt 0.300000 0.954545
vt 0.400000 0.954545
vt 0.500000 0.954545
vt 0.500000 1.000000
vt 0.400000 1.000000
vt 0.400000 1.000000
vt 0.500000 1.000000
vt 0.500000 0.954545
vt 0.400000 0.954545
vt 0.500000 0.954545
vt 0.600000 0.954545
vt 0.600000 1.000000
vt 0.500000 1.000000
vt 0.500000 1.000000
vt 0.600000 1.000000
vt 0.600000 0.954545
vt 0.500000 0.954545
vt 0.600000 0.954545
vt 0.700000 0.954545
vt 0.700000 1.000000
vt 0.600000 1.000000
vt 0.600000 1.000000
vt 0.700000 1.000000
vt 0.700000 0.954545
vt 0.600000 0.954545
vt 0.700000 0.954545
vt 0.800000 0.954545
vt 0.800000 1.000000
vt 0.700000 1.000000
vt 0.700000 1.000000
vt 0.800000 1.000000
vt 0.800000 0.954545
vt 0.700000 0.954545
vt 0.800000 0.954545
vt 0.900000 0.954545
vt 0.900000 1.000000
vt 0.800000 1.000000
vt 0.800000 1.000000
vt 0.900000 1.000000
vt 0.900000 0.954545
vt 0.800000 0.954545
vt 0.900000 0.954545
vt 1.000000 0.954545
vt 1.000000 1.000000
vt 0.900000 1.000000
vt 0.900000 1.000000
vt 1.000000 1.000000
vt 1.000000 0.954545
vt 0.900000 0.954545
usemtl M_Pennant_BotanicalTerrace
s 1
f 1/1 2/2 13/3 12/4
f 12/5 13/6 2/7 1/8
f 2/9 3/10 14/11 13/12
f 13/13 14/14 3/15 2/16
f 3/17 4/18 15/19 14/20
f 14/21 15/22 4/23 3/24
f 4/25 5/26 16/27 15/28
f 15/29 16/30 5/31 4/32
f 5/33 6/34 17/35 16/36
f 16/37 17/38 6/39 5/40
f 6/41 7/42 18/43 17/44
f 17/45 18/46 7/47 6/48
f 7/49 8/50 19/51 18/52
f 18/53 19/54 8/55 7/56
f 8/57 9/58 20/59 19/60
f 19/61 20/62 9/63 8/64
f 9/65 10/66 21/67 20/68
f 20/69 21/70 10/71 9/72
f 10/73 11/74 22/75 21/76
f 21/77 22/78 11/79 10/80
f 12/81 13/82 24/83 23/84
f 23/85 24/86 13/87 12/88
f 13/89 14/90 25/91 24/92
f 24/93 25/94 14/95 13/96
f 14/97 15/98 26/99 25/100
f 25/101 26/102 15/103 14/104
f 15/105 16/106 27/107 26/108
f 26/109 27/110 16/111 15/112
f 16/113 17/114 28/115 27/116
f 27/117 28/118 17/119 16/120
f 17/121 18/122 29/123 28/124
f 28/125 29/126 18/127 17/128
f 18/129 19/130 30/131 29/132
f 29/133 30/134 19/135 18/136
f 19/137 20/138 31/139 30/140
f 30/141 31/142 20/143 19/144
f 20/145 21/146 32/147 31/148
f 31/149 32/150 21/151 20/152
f 21/153 22/154 33/155 32/156
f 32/157 33/158 22/159 21/160
f 23/161 24/162 35/163 34/164
f 34/165 35/166 24/167 23/168
f 24/169 25/170 36/171 35/172
f 35/173 36/174 25/175 24/176
f 25/177 26/178 37/179 36/180
f 36/181 37/182 26/183 25/184
f 26/185 27/186 38/187 37/188
f 37/189 38/190 27/191 26/192
f 27/193 28/194 39/195 38/196
f 38/197 39/198 28/199 27/200
f 28/201 29/202 40/203 39/204
f 39/205 40/206 29/207 28/208
f 29/209 30/210 41/211 40/212
f 40/213 41/214 30/215 29/216
f 30/217 31/218 42/219 41/220
f 41/221 42/222 31/223 30/224
f 31/225 32/226 43/227 42/228
f 42/229 43/230 32/231 31/232
f 32/233 33/234 44/235 43/236
f 43/237 44/238 33/239 32/240
f 34/241 35/242 46/243 45/244
f 45/245 46/246 35/247 34/248
f 35/249 36/250 47/251 46/252
f 46/253 47/254 36/255 35/256
f 36/257 37/258 48/259 47/260
f 47/261 48/262 37/263 36/264
f 37/265 38/266 49/267 48/268
f 48/269 49/270 38/271 37/272
f 38/273 39/274 50/275 49/276
f 49/277 50/278 39/279 38/280
f 39/281 40/282 51/283 50/284
f 50/285 51/286 40/287 39/288
f 40/289 41/290 52/291 51/292
f 51/293 52/294 41/295 40/296
f 41/297 42/298 53/299 52/300
f 52/301 53/302 42/303 41/304
f 42/305 43/306 54/307 53/308
f 53/309 54/310 43/311 42/312
f 43/313 44/314 55/315 54/316
f 54/317 55/318 44/319 43/320
f 45/321 46/322 57/323 56/324
f 56/325 57/326 46/327 45/328
f 46/329 47/330 58/331 57/332
f 57/333 58/334 47/335 46/336
f 47/337 48/338 59/339 58/340
f 58/341 59/342 48/343 47/344
f 48/345 49/346 60/347 59/348
f 59/349 60/350 49/351 48/352
f 49/353 50/354 61/355 60/356
f 60/357 61/358 50/359 49/360
f 50/361 51/362 62/363 61/364
f 61/365 62/366 51/367 50/368
f 51/369 52/370 63/371 62/372
f 62/373 63/374 52/375 51/376
f 52/377 53/378 64/379 63/380
f 63/381 64/382 53/383 52/384
f 53/385 54/386 65/387 64/388
f 64/389 65/390 54/391 53/392
f 54/393 55/394 66/395 65/396
f 65/397 66/398 55/399 54/400
f 56/401 57/402 68/403 67/404
f 67/405 68/406 57/407 56/408
f 57/409 58/410 69/411 68/412
f 68/413 69/414 58/415 57/416
f 58/417 59/418 70/419 69/420
f 69/421 70/422 59/423 58/424
f 59/425 60/426 71/427 70/428
f 70/429 71/430 60/431 59/432
f 60/433 61/434 72/435 71/436
f 71/437 72/438 61/439 60/440
f 61/441 62/442 73/443 72/444
f 72/445 73/446 62/447 61/448
f 62/449 63/450 74/451 73/452
f 73/453 74/454 63/455 62/456
f 63/457 64/458 75/459 74/460
f 74/461 75/462 64/463 63/464
f 64/465 65/466 76/467 75/468
f 75/469 76/470 65/471 64/472
f 65/473 66/474 77/475 76/476
f 76/477 77/478 66/479 65/480
f 67/481 68/482 79/483 78/484
f 78/485 79/486 68/487 67/488
f 68/489 69/490 80/491 79/492
f 79/493 80/494 69/495 68/496
f 69/497 70/498 81/499 80/500
f 80/501 81/502 70/503 69/504
f 70/505 71/506 82/507 81/508
f 81/509 82/510 71/511 70/512
f 71/513 72/514 83/515 82/516
f 82/517 83/518 72/519 71/520
f 72/521 73/522 84/523 83/524
f 83/525 84/526 73/527 72/528
f 73/529 74/530 85/531 84/532
f 84/533 85/534 74/535 73/536
f 74/537 75/538 86/539 85/540
f 85/541 86/542 75/543 74/544
f 75/545 76/546 87/547 86/548
f 86/549 87/550 76/551 75/552
f 76/553 77/554 88/555 87/556
f 87/557 88/558 77/559 76/560
f 78/561 79/562 90/563 89/564
f 89/565 90/566 79/567 78/568
f 79/569 80/570 91/571 90/572
f 90/573 91/574 80/575 79/576
f 80/577 81/578 92/579 91/580
f 91/581 92/582 81/583 80/584
f 81/585 82/586 93/587 92/588
f 92/589 93/590 82/591 81/592
f 82/593 83/594 94/595 93/596
f 93/597 94/598 83/599 82/600
f 83/601 84/602 95/603 94/604
f 94/605 95/606 84/607 83/608
f 84/609 85/610 96/611 95/612
f 95/613 96/614 85/615 84/616
f 85/617 86/618 97/619 96/620
f 96/621 97/622 86/623 85/624
f 86/625 87/626 98/627 97/628
f 97/629 98/630 87/631 86/632
f 87/633 88/634 99/635 98/636
f 98/637 99/638 88/639 87/640
f 89/641 90/642 101/643 100/644
f 100/645 101/646 90/647 89/648
f 90/649 91/650 102/651 101/652
f 101/653 102/654 91/655 90/656
f 91/657 92/658 103/659 102/660
f 102/661 103/662 92/663 91/664
f 92/665 93/666 104/667 103/668
f 103/669 104/670 93/671 92/672
f 93/673 94/674 105/675 104/676
f 104/677 105/678 94/679 93/680
f 94/681 95/682 106/683 105/684
f 105/685 106/686 95/687 94/688
f 95/689 96/690 107/691 106/692
f 106/693 107/694 96/695 95/696
f 96/697 97/698 108/699 107/700
f 107/701 108/702 97/703 96/704
f 97/705 98/706 109/707 108/708
f 108/709 109/710 98/711 97/712
f 98/713 99/714 110/715 109/716
f 109/717 110/718 99/719 98/720
f 100/721 101/722 112/723 111/724
f 111/725 112/726 101/727 100/728
f 101/729 102/730 113/731 112/732
f 112/733 113/734 102/735 101/736
f 102/737 103/738 114/739 113/740
f 113/741 114/742 103/743 102/744
f 103/745 104/746 115/747 114/748
f 114/749 115/750 104/751 103/752
f 104/753 105/754 116/755 115/756
f 115/757 116/758 105/759 104/760
f 105/761 106/762 117/763 116/764
f 116/765 117/766 106/767 105/768
f 106/769 107/770 118/771 117/772
f 117/773 118/774 107/775 106/776
f 107/777 108/778 119/779 118/780
f 118/781 119/782 108/783 107/784
f 108/785 109/786 120/787 119/788
f 119/789 120/790 109/791 108/792
f 109/793 110/794 121/795 120/796
f 120/797 121/798 110/799 109/800
f 111/801 112/802 123/803 122/804
f 122/805 123/806 112/807 111/808
f 112/809 113/810 124/811 123/812
f 123/813 124/814 113/815 112/816
f 113/817 114/818 125/819 124/820
f 124/821 125/822 114/823 113/824
f 114/825 115/826 126/827 125/828
f 125/829 126/830 115/831 114/832
f 115/833 116/834 127/835 126/836
f 126/837 127/838 116/839 115/840
f 116/841 117/842 128/843 127/844
f 127/845 128/846 117/847 116/848
f 117/849 118/850 129/851 128/852
f 128/853 129/854 118/855 117/856
f 118/857 119/858 130/859 129/860
f 129/861 130/862 119/863 118/864
f 119/865 120/866 131/867 130/868
f 130/869 131/870 120/871 119/872
f 120/873 121/874 132/875 131/876
f 131/877 132/878 121/879 120/880
f 122/881 123/882 134/883 133/884
f 133/885 134/886 123/887 122/888
f 123/889 124/890 135/891 134/892
f 134/893 135/894 124/895 123/896
f 124/897 125/898 136/899 135/900
f 135/901 136/902 125/903 124/904
f 125/905 126/906 137/907 136/908
f 136/909 137/910 126/911 125/912
f 126/913 127/914 138/915 137/916
f 137/917 138/918 127/919 126/920
f 127/921 128/922 139/923 138/924
f 138/925 139/926 128/927 127/928
f 128/929 129/930 140/931 139/932
f 139/933 140/934 129/935 128/936
f 129/937 130/938 141/939 140/940
f 140/941 141/942 130/943 129/944
f 130/945 131/946 142/947 141/948
f 141/949 142/950 131/951 130/952
f 131/953 132/954 143/955 142/956
f 142/957 143/958 132/959 131/960
f 133/961 134/962 145/963 144/964
f 144/965 145/966 134/967 133/968
f 134/969 135/970 146/971 145/972
f 145/973 146/974 135/975 134/976
f 135/977 136/978 147/979 146/980
f 146/981 147/982 136/983 135/984
f 136/985 137/986 148/987 147/988
f 147/989 148/990 137/991 136/992
f 137/993 138/994 149/995 148/996
f 148/997 149/998 138/999 137/1000
f 138/1001 139/1002 150/1003 149/1004
f 149/1005 150/1006 139/1007 138/1008
f 139/1009 140/1010 151/1011 150/1012
f 150/1013 151/1014 140/1015 139/1016
f 140/1017 141/1018 152/1019 151/1020
f 151/1021 152/1022 141/1023 140/1024
f 141/1025 142/1026 153/1027 152/1028
f 152/1029 153/1030 142/1031 141/1032
f 142/1033 143/1034 154/1035 153/1036
f 153/1037 154/1038 143/1039 142/1040
f 144/1041 145/1042 156/1043 155/1044
f 155/1045 156/1046 145/1047 144/1048
f 145/1049 146/1050 157/1051 156/1052
f 156/1053 157/1054 146/1055 145/1056
f 146/1057 147/1058 158/1059 157/1060
f 157/1061 158/1062 147/1063 146/1064
f 147/1065 148/1066 159/1067 158/1068
f 158/1069 159/1070 148/1071 147/1072
f 148/1073 149/1074 160/1075 159/1076
f 159/1077 160/1078 149/1079 148/1080
f 149/1081 150/1082 161/1083 160/1084
f 160/1085 161/1086 150/1087 149/1088
f 150/1089 151/1090 162/1091 161/1092
f 161/1093 162/1094 151/1095 150/1096
f 151/1097 152/1098 163/1099 162/1100
f 162/1101 163/1102 152/1103 151/1104
f 152/1105 153/1106 164/1107 163/1108
f 163/1109 164/1110 153/1111 152/1112
f 153/1113 154/1114 165/1115 164/1116
f 164/1117 165/1118 154/1119 153/1120
f 155/1121 156/1122 167/1123 166/1124
f 166/1125 167/1126 156/1127 155/1128
f 156/1129 157/1130 168/1131 167/1132
f 167/1133 168/1134 157/1135 156/1136
f 157/1137 158/1138 169/1139 168/1140
f 168/1141 169/1142 158/1143 157/1144
f 158/1145 159/1146 170/1147 169/1148
f 169/1149 170/1150 159/1151 158/1152
f 159/1153 160/1154 171/1155 170/1156
f 170/1157 171/1158 160/1159 159/1160
f 160/1161 161/1162 172/1163 171/1164
f 171/1165 172/1166 161/1167 160/1168
f 161/1169 162/1170 173/1171 172/1172
f 172/1173 173/1174 162/1175 161/1176
f 162/1177 163/1178 174/1179 173/1180
f 173/1181 174/1182 163/1183 162/1184
f 163/1185 164/1186 175/1187 174/1188
f 174/1189 175/1190 164/1191 163/1192
f 164/1193 165/1194 176/1195 175/1196
f 175/1197 176/1198 165/1199 164/1200
f 166/1201 167/1202 178/1203 177/1204
f 177/1205 178/1206 167/1207 166/1208
f 167/1209 168/1210 179/1211 178/1212
f 178/1213 179/1214 168/1215 167/1216
f 168/1217 169/1218 180/1219 179/1220
f 179/1221 180/1222 169/1223 168/1224
f 169/1225 170/1226 181/1227 180/1228
f 180/1229 181/1230 170/1231 169/1232
f 170/1233 171/1234 182/1235 181/1236
f 181/1237 182/1238 171/1239 170/1240
f 171/1241 172/1242 183/1243 182/1244
f 182/1245 183/1246 172/1247 171/1248
f 172/1249 173/1250 184/1251 183/1252
f 183/1253 184/1254 173/1255 172/1256
f 173/1257 174/1258 185/1259 184/1260
f 184/1261 185/1262 174/1263 173/1264
f 174/1265 175/1266 186/1267 185/1268
f 185/1269 186/1270 175/1271 174/1272
f 175/1273 176/1274 187/1275 186/1276
f 186/1277 187/1278 176/1279 175/1280
f 177/1281 178/1282 189/1283 188/1284
f 188/1285 189/1286 178/1287 177/1288
f 178/1289 179/1290 190/1291 189/1292
f 189/1293 190/1294 179/1295 178/1296
f 179/1297 180/1298 191/1299 190/1300
f 190/1301 191/1302 180/1303 179/1304
f 180/1305 181/1306 192/1307 191/1308
f 191/1309 192/1310 181/1311 180/1312
f 181/1313 182/1314 193/1315 192/1316
f 192/1317 193/1318 182/1319 181/1320
f 182/1321 183/1322 194/1323 193/1324
f 193/1325 194/1326 183/1327 182/1328
f 183/1329 184/1330 195/1331 194/1332
f 194/1333 195/1334 184/1335 183/1336
f 184/1337 185/1338 196/1339 195/1340
f 195/1341 196/1342 185/1343 184/1344
f 185/1345 186/1346 197/1347 196/1348
f 196/1349 197/1350 186/1351 185/1352
f 186/1353 187/1354 198/1355 197/1356
f 197/1357 198/1358 187/1359 186/1360
f 188/1361 189/1362 200/1363 199/1364
f 199/1365 200/1366 189/1367 188/1368
f 189/1369 190/1370 201/1371 200/1372
f 200/1373 201/1374 190/1375 189/1376
f 190/1377 191/1378 202/1379 201/1380
f 201/1381 202/1382 191/1383 190/1384
f 191/1385 192/1386 203/1387 202/1388
f 202/1389 203/1390 192/1391 191/1392
f 192/1393 193/1394 204/1395 203/1396
f 203/1397 204/1398 193/1399 192/1400
f 193/1401 194/1402 205/1403 204/1404
f 204/1405 205/1406 194/1407 193/1408
f 194/1409 195/1410 206/1411 205/1412
f 205/1413 206/1414 195/1415 194/1416
f 195/1417 196/1418 207/1419 206/1420
f 206/1421 207/1422 196/1423 195/1424
f 196/1425 197/1426 208/1427 207/1428
f 207/1429 208/1430 197/1431 196/1432
f 197/1433 198/1434 209/1435 208/1436
f 208/1437 209/1438 198/1439 197/1440
f 199/1441 200/1442 211/1443 210/1444
f 210/1445 211/1446 200/1447 199/1448
f 200/1449 201/1450 212/1451 211/1452
f 211/1453 212/1454 201/1455 200/1456
f 201/1457 202/1458 213/1459 212/1460
f 212/1461 213/1462 202/1463 201/1464
f 202/1465 203/1466 214/1467 213/1468
f 213/1469 214/1470 203/1471 202/1472
f 203/1473 204/1474 215/1475 214/1476
f 214/1477 215/1478 204/1479 203/1480
f 204/1481 205/1482 216/1483 215/1484
f 215/1485 216/1486 205/1487 204/1488
f 205/1489 206/1490 217/1491 216/1492
f 216/1493 217/1494 206/1495 205/1496
f 206/1497 207/1498 218/1499 217/1500
f 217/1501 218/1502 207/1503 206/1504
f 207/1505 208/1506 219/1507 218/1508
f 218/1509 219/1510 208/1511 207/1512
f 208/1513 209/1514 220/1515 219/1516
f 219/1517 220/1518 209/1519 208/1520
f 210/1521 211/1522 222/1523 221/1524
f 221/1525 222/1526 211/1527 210/1528
f 211/1529 212/1530 223/1531 222/1532
f 222/1533 223/1534 212/1535 211/1536
f 212/1537 213/1538 224/1539 223/1540
f 223/1541 224/1542 213/1543 212/1544
f 213/1545 214/1546 225/1547 224/1548
f 224/1549 225/1550 214/1551 213/1552
f 214/1553 215/1554 226/1555 225/1556
f 225/1557 226/1558 215/1559 214/1560
f 215/1561 216/1562 227/1563 226/1564
f 226/1565 227/1566 216/1567 215/1568
f 216/1569 217/1570 228/1571 227/1572
f 227/1573 228/1574 217/1575 216/1576
f 217/1577 218/1578 229/1579 228/1580
f 228/1581 229/1582 218/1583 217/1584
f 218/1585 219/1586 230/1587 229/1588
f 229/1589 230/1590 219/1591 218/1592
f 219/1593 220/1594 231/1595 230/1596
f 230/1597 231/1598 220/1599 219/1600
f 221/1601 222/1602 233/1603 232/1604
f 232/1605 233/1606 222/1607 221/1608
f 222/1609 223/1610 234/1611 233/1612
f 233/1613 234/1614 223/1615 222/1616
f 223/1617 224/1618 235/1619 234/1620
f 234/1621 235/1622 224/1623 223/1624
f 224/1625 225/1626 236/1627 235/1628
f 235/1629 236/1630 225/1631 224/1632
f 225/1633 226/1634 237/1635 236/1636
f 236/1637 237/1638 226/1639 225/1640
f 226/1641 227/1642 238/1643 237/1644
f 237/1645 238/1646 227/1647 226/1648
f 227/1649 228/1650 239/1651 238/1652
f 238/1653 239/1654 228/1655 227/1656
f 228/1657 229/1658 240/1659 239/1660
f 239/1661 240/1662 229/1663 228/1664
f 229/1665 230/1666 241/1667 240/1668
f 240/1669 241/1670 230/1671 229/1672
f 230/1673 231/1674 242/1675 241/1676
f 241/1677 242/1678 231/1679 230/1680
f 232/1681 233/1682 244/1683 243/1684
f 243/1685 244/1686 233/1687 232/1688
f 233/1689 234/1690 245/1691 244/1692
f 244/1693 245/1694 234/1695 233/1696
f 234/1697 235/1698 246/1699 245/1700
f 245/1701 246/1702 235/1703 234/1704
f 235/1705 236/1706 247/1707 246/1708
f 246/1709 247/1710 236/1711 235/1712
f 236/1713 237/1714 248/1715 247/1716
f 247/1717 248/1718 237/1719 236/1720
f 237/1721 238/1722 249/1723 248/1724
f 248/1725 249/1726 238/1727 237/1728
f 238/1729 239/1730 250/1731 249/1732
f 249/1733 250/1734 239/1735 238/1736
f 239/1737 240/1738 251/1739 250/1740
f 250/1741 251/1742 240/1743 239/1744
f 240/1745 241/1746 252/1747 251/1748
f 251/1749 252/1750 241/1751 240/1752
f 241/1753 242/1754 253/1755 252/1756
f 252/1757 253/1758 242/1759 241/1760
