# Generated by scripts/generate_entrance_terrace_reveal_kit.py
mtllib VD_EntranceTerraceReveal.mtl
o VD_SoilDressing_Stones
v 34.706744 -4.220979 2.823095
v 31.118596 2.835146 3.107656
v 25.083973 0.438629 3.098469
v 23.287557 -7.090242 3.142527
v 29.466291 -8.539256 2.071223
v 28.006810 -2.313880 7.549656
v 28.664585 -3.195598 0.000000
v 11.536284 20.341424 2.776235
v 8.036011 25.907433 4.499234
v -0.685187 25.206939 2.939108
v 0.231332 17.472479 4.279303
v 9.475760 13.755058 2.996853
v 6.872696 20.697622 10.938353
v 6.114622 20.369087 0.000000
v -20.440167 22.170442 3.685156
v -26.425884 28.589801 3.707813
v -34.209695 27.718458 3.078301
v -34.706744 18.341882 3.946679
v -25.896208 14.972567 2.639790
v -29.921170 24.209324 8.278953
v -27.957277 22.770015 0.000000
v -11.599033 -2.263561 2.680971
v -16.540386 4.247293 3.306749
v -23.718626 2.335733 3.373880
v -22.918039 -5.987864 2.284909
v -16.645806 -6.157942 2.614997
v -19.860602 -1.431510 7.471497
v -18.583613 -1.802774 0.000000
v 2.745600 -20.421910 3.841651
v -1.687971 -13.699493 3.454485
v -12.441307 -14.726049 3.504026
v -13.454875 -26.434668 4.483363
v -3.774569 -28.589801 4.159833
v -5.445133 -22.604371 11.320861
v -5.382633 -21.590657 0.000000
v 26.284235 -16.661195 3.875508
v 21.615725 -6.851901 5.662964
v 10.081090 -13.948468 4.051202
v 9.997923 -21.372942 5.520610
v 19.922308 -24.197149 5.588367
v 16.415104 -18.943034 10.950556
v 17.055553 -17.264028 0.000000
vt 0.280068 -0.023139
vt 0.347067 -0.042210
vt 0.311186 0.028351
vt 0.286646 -0.031956
vt 0.311186 0.028351
vt 0.347067 -0.042210
vt 0.280068 0.075497
vt 0.311186 0.031077
vt 0.250840 0.030985
vt 0.286646 -0.031956
vt 0.250840 0.004386
vt 0.311186 0.028351
vt -0.023139 0.075497
vt 0.004386 0.030985
vt -0.070902 0.031425
vt 0.286646 -0.031956
vt 0.232876 -0.070902
vt 0.250840 0.004386
vt 0.280068 -0.023139
vt 0.232876 -0.070902
vt 0.294663 -0.085393
vt 0.286646 -0.031956
vt 0.294663 -0.085393
vt 0.232876 -0.070902
vt 0.280068 -0.023139
vt 0.294663 -0.085393
vt 0.347067 -0.042210
vt 0.286646 -0.031956
vt 0.347067 -0.042210
vt 0.294663 -0.085393
vt 0.206976 0.109384
vt 0.203414 0.027762
vt 0.259074 0.044992
vt 0.061146 0.203691
vt 0.080360 0.259074
vt 0.115363 0.203414
vt 0.068727 0.109384
vt 0.080360 0.044992
vt -0.006852 0.029391
vt 0.061146 0.203691
vt -0.006852 0.252069
vt 0.080360 0.259074
vt 0.206976 0.109384
vt 0.252069 0.029391
vt 0.174725 0.042793
vt 0.061146 0.203691
vt 0.002313 0.174725
vt -0.006852 0.252069
vt 0.068727 0.109384
vt 0.002313 0.042793
vt 0.094758 0.029969
vt 0.061146 0.203691
vt 0.094758 0.137551
vt 0.002313 0.174725
vt 0.206976 0.109384
vt 0.137551 0.029969
vt 0.203414 0.027762
vt 0.061146 0.203691
vt 0.115363 0.203414
vt 0.094758 0.137551
vt -0.299212 0.242093
vt -0.204402 0.221704
vt -0.264259 0.285898
vt -0.279573 0.227700
vt -0.264259 0.285898
vt -0.204402 0.221704
vt -0.299212 0.082790
vt -0.264259 0.037078
vt -0.342097 0.030783
vt -0.279573 0.227700
vt -0.342097 0.277185
vt -0.264259 0.285898
vt 0.242093 0.082790
vt 0.277185 0.030783
vt 0.183419 0.039467
vt -0.279573 0.227700
vt -0.347067 0.183419
vt -0.342097 0.277185
vt -0.299212 0.242093
vt -0.347067 0.183419
vt -0.258962 0.149726
vt -0.279573 0.227700
vt -0.258962 0.149726
vt -0.347067 0.183419
vt -0.299212 0.242093
vt -0.258962 0.149726
vt -0.204402 0.221704
vt -0.279573 0.227700
vt -0.204402 0.221704
vt -0.258962 0.149726
vt -0.198606 -0.014315
vt -0.115990 -0.022636
vt -0.165404 0.042473
vt -0.185836 -0.018028
vt -0.165404 0.042473
vt -0.115990 -0.022636
vt -0.198606 -0.014315
vt -0.165404 0.042473
vt -0.237186 0.023357
vt -0.185836 -0.018028
vt -0.237186 0.023357
vt -0.165404 0.042473
vt -0.014315 0.074715
vt 0.023357 0.033739
vt -0.059879 0.022849
vt -0.185836 -0.018028
vt -0.229180 -0.059879
vt -0.237186 0.023357
vt -0.198606 0.074715
vt -0.229180 0.022849
vt -0.166458 0.026150
vt -0.185836 -0.018028
vt -0.166458 -0.061579
vt -0.229180 -0.059879
vt -0.198606 -0.014315
vt -0.166458 -0.061579
vt -0.115990 -0.022636
vt -0.185836 -0.018028
vt -0.115990 -0.022636
vt -0.166458 -0.061579
vt -0.054451 -0.226044
vt 0.027456 -0.204219
vt -0.016880 -0.136995
vt -0.053826 -0.215907
vt -0.016880 -0.136995
vt 0.027456 -0.204219
vt -0.054451 -0.226044
vt -0.016880 -0.136995
vt -0.124413 -0.147260
vt -0.053826 -0.215907
vt -0.124413 -0.147260
vt -0.016880 -0.136995
vt -0.054451 -0.226044
vt -0.124413 -0.147260
vt -0.134549 -0.264347
vt -0.053826 -0.215907
vt -0.134549 -0.264347
vt -0.124413 -0.147260
vt -0.054451 0.113209
vt -0.134549 0.044834
vt -0.037746 0.041598
vt -0.053826 -0.215907
vt -0.037746 -0.285898
vt -0.134549 -0.264347
vt -0.226044 0.113209
vt -0.285898 0.041598
vt -0.204219 0.038417
vt -0.053826 -0.215907
vt 0.027456 -0.204219
vt -0.037746 -0.285898
vt 0.164151 -0.189430
vt 0.262842 -0.166612
vt 0.216157 -0.068519
vt 0.170556 -0.172640
vt 0.216157 -0.068519
vt 0.262842 -0.166612
vt 0.164151 -0.189430
vt 0.216157 -0.068519
vt 0.100811 -0.139485
vt 0.170556 -0.172640
vt 0.100811 -0.139485
vt 0.216157 -0.068519
vt 0.164151 -0.189430
vt 0.100811 -0.139485
vt 0.099979 -0.213729
vt 0.170556 -0.172640
vt 0.099979 -0.213729
vt 0.100811 -0.139485
vt 0.164151 0.109506
vt 0.099979 0.055206
vt 0.199223 0.055884
vt 0.170556 -0.172640
vt 0.199223 -0.241971
vt 0.099979 -0.213729
vt 0.164151 -0.189430
vt 0.199223 -0.241971
vt 0.262842 -0.166612
vt 0.170556 -0.172640
vt 0.262842 -0.166612
vt 0.199223 -0.241971
usemtl M_SoilDressing_Stone
s 1
f 6/1 1/2 2/3
f 7/4 2/5 1/6
f 6/7 2/8 3/9
f 7/10 3/11 2/12
f 6/13 3/14 4/15
f 7/16 4/17 3/18
f 6/19 4/20 5/21
f 7/22 5/23 4/24
f 6/25 5/26 1/27
f 7/28 1/29 5/30
f 13/31 8/32 9/33
f 14/34 9/35 8/36
f 13/37 9/38 10/39
f 14/40 10/41 9/42
f 13/43 10/44 11/45
f 14/46 11/47 10/48
f 13/49 11/50 12/51
f 14/52 12/53 11/54
f 13/55 12/56 8/57
f 14/58 8/59 12/60
f 20/61 15/62 16/63
f 21/64 16/65 15/66
f 20/67 16/68 17/69
f 21/70 17/71 16/72
f 20/73 17/74 18/75
f 21/76 18/77 17/78
f 20/79 18/80 19/81
f 21/82 19/83 18/84
f 20/85 19/86 15/87
f 21/88 15/89 19/90
f 27/91 22/92 23/93
f 28/94 23/95 22/96
f 27/97 23/98 24/99
f 28/100 24/101 23/102
f 27/103 24/104 25/105
f 28/106 25/107 24/108
f 27/109 25/110 26/111
f 28/112 26/113 25/114
f 27/115 26/116 22/117
f 28/118 22/119 26/120
f 34/121 29/122 30/123
f 35/124 30/125 29/126
f 34/127 30/128 31/129
f 35/130 31/131 30/132
f 34/133 31/134 32/135
f 35/136 32/137 31/138
f 34/139 32/140 33/141
f 35/142 33/143 32/144
f 34/145 33/146 29/147
f 35/148 29/149 33/150
f 41/151 36/152 37/153
f 42/154 37/155 36/156
f 41/157 37/158 38/159
f 42/160 38/161 37/162
f 41/163 38/164 39/165
f 42/166 39/167 38/168
f 41/169 39/170 40/171
f 42/172 40/173 39/174
f 41/175 40/176 36/177
f 42/178 36/179 40/180
