# Generated by scripts/generate_entrance_terrace_reveal_kit.py
mtllib VD_EntranceTerraceReveal.mtl
o VD_SoilDressing_Litter
v 4.232644 -41.395053 0.000000
v -8.155526 -42.726299 2.066897
v -9.504965 -30.168829 2.066897
v 2.883205 -28.837583 0.000000
v -20.955800 -40.366966 1.380076
v -35.204694 -36.231979 1.386821
v -31.069707 -21.983083 1.386821
v -16.820813 -26.118070 1.380076
v 15.558502 16.610200 0.978321
v 28.497509 6.584183 2.488576
v 18.428908 -6.409779 2.488576
v 5.489901 3.616238 0.978321
v 24.644003 -20.164367 1.232620
v 21.166611 -9.835559 2.934277
v 31.620562 -6.316035 2.934277
v 35.097954 -16.644842 1.232620
v 29.096335 -15.987734 1.430393
v 23.405740 -3.751424 3.436503
v 35.776517 2.001706 3.436503
v 41.467112 -10.234604 1.430393
v -20.968999 16.214455 2.128269
v -23.607409 25.910305 3.438628
v -13.829465 28.571054 3.438628
v -11.191056 18.875203 2.128269
v 16.927814 -7.127034 2.121118
v 16.967367 5.234698 4.145779
v 29.493804 5.194618 4.145779
v 29.454251 -7.167114 2.121118
v -34.154420 35.234612 2.608885
v -21.001291 42.726299 4.358012
v -13.459753 29.485648 4.358012
v -26.612883 21.993960 2.608885
v -22.033481 36.119861 3.594759
v -12.566689 41.323104 4.072138
v -7.358368 31.847073 4.072138
v -16.825160 26.643830 3.594759
v 25.748306 14.219019 2.938598
v 15.891793 2.313321 5.428299
v 3.832627 12.296887 5.428299
v 13.689139 24.202585 2.938598
v -27.826062 -38.250991 3.995288
v -41.391610 -38.326257 5.071608
v -41.467112 -24.718079 5.071608
v -27.901565 -24.642813 3.995288
v 0.074791 -27.400121 4.521910
v -2.690593 -17.699693 5.244987
v 7.034727 -14.927213 5.244987
v 9.800110 -24.627641 4.521910
v 30.396646 18.130777 4.035596
v 39.491317 6.139824 6.431301
v 27.349390 -3.069356 6.431301
v 18.254719 8.921597 4.035596
v 11.590057 -28.670453 5.377414
v 3.273733 -33.184299 5.789482
v -1.244391 -24.860093 5.789482
v 7.071933 -20.346247 5.377414
v 23.371518 18.175912 5.662396
v 12.734586 6.461742 6.204501
v 1.013543 17.104915 6.204501
v 11.650476 28.819085 5.662396
vt 0.000000 0.000000
vt 0.000000 0.500000
vt 0.500000 0.500000
vt 0.500000 0.000000
vt 0.500000 0.000000
vt 0.500000 0.500000
vt 1.000000 0.500000
vt 1.000000 0.000000
vt 0.000000 0.500000
vt 0.000000 1.000000
vt 0.500000 1.000000
vt 0.500000 0.500000
vt 0.500000 0.500000
vt 0.500000 1.000000
vt 1.000000 1.000000
vt 1.000000 0.500000
vt 0.000000 0.000000
vt 0.000000 0.500000
vt 0.500000 0.500000
vt 0.500000 0.000000
vt 0.500000 0.000000
vt 0.500000 0.500000
vt 1.000000 0.500000
vt 1.000000 0.000000
vt 0.000000 0.500000
vt 0.000000 1.000000
vt 0.500000 1.000000
vt 0.500000 0.500000
vt 0.500000 0.500000
vt 0.500000 1.000000
vt 1.000000 1.000000
vt 1.000000 0.500000
vt 0.000000 0.000000
vt 0.000000 0.500000
vt 0.500000 0.500000
vt 0.500000 0.000000
vt 0.500000 0.000000
vt 0.500000 0.500000
vt 1.000000 0.500000
vt 1.000000 0.000000
vt 0.000000 0.500000
vt 0.000000 1.000000
vt 0.500000 1.000000
vt 0.500000 0.500000
vt 0.500000 0.500000
vt 0.500000 1.000000
vt 1.000000 1.000000
vt 1.000000 0.500000
vt 0.000000 0.000000
vt 0.000000 0.500000
vt 0.500000 0.500000
vt 0.500000 0.000000
vt 0.500000 0.000000
vt 0.500000 0.500000
vt 1.000000 0.500000
vt 1.000000 0.000000
vt 0.000000 0.500000
vt 0.000000 1.000000
vt 0.500000 1.000000
vt 0.500000 0.500000
usemtl M_SoilDressing_Litter
s 1
f 1/1 2/2 3/3 4/4
f 5/5 6/6 7/7 8/8
f 9/9 10/10 11/11 12/12
f 13/13 14/14 15/15 16/16
f 17/17 18/18 19/19 20/20
f 21/21 22/22 23/23 24/24
f 25/25 26/26 27/27 28/28
f 29/29 30/30 31/31 32/32
f 33/33 34/34 35/35 36/36
f 37/37 38/38 39/39 40/40
f 41/41 42/42 43/43 44/44
f 45/45 46/46 47/47 48/48
f 49/49 50/50 51/51 52/52
f 53/53 54/54 55/55 56/56
f 57/57 58/58 59/59 60/60
