# Generated by scripts/generate_entrance_terrace_reveal_kit.py
mtllib VD_EntranceTerraceReveal.mtl
o VD_SoilDressing_Mound
v 46.143126 -0.986071 0.000000
v 27.778247 -0.986071 9.618356
v 43.943404 12.959478 0.000000
v 26.881166 7.415621 9.563773
v 43.389016 29.794337 0.000000
v 24.373092 15.978460 10.783926
v 28.846100 37.308564 0.000000
v 15.556064 19.016399 10.197947
v 16.931614 47.974319 0.000000
v 10.020322 26.703550 7.862753
v 1.023419 52.519551 0.000000
v 1.023419 26.502905 8.306316
v -14.416262 46.532383 0.000000
v -7.070764 23.925264 8.833917
v -29.136663 40.525722 0.000000
v -13.346837 18.792891 8.371968
v -40.468392 29.159495 0.000000
v -23.529543 16.852701 10.225977
v -42.671709 13.211337 0.000000
v -28.800764 8.704394 9.927997
v -51.920508 -0.986071 0.000000
v -28.944168 -0.986071 10.516305
v -45.689667 -16.164072 0.000000
v -25.792945 -9.699236 7.820120
v -43.418835 -33.275259 0.000000
v -23.666036 -18.924010 7.859137
v -29.132271 -42.491817 0.000000
v -14.353270 -22.150268 10.703857
v -14.394007 -48.436031 0.000000
v -8.244812 -29.510752 9.205939
v 1.023419 -47.828593 0.000000
v 1.023419 -29.167076 8.512304
v 17.767662 -52.519551 0.000000
v 8.625672 -24.383399 8.690702
v 32.640361 -44.503057 0.000000
v 17.107842 -23.124379 9.060043
v 40.953184 -29.996742 0.000000
v 21.077935 -15.556529 8.615416
v 51.920508 -17.523537 0.000000
v 29.350243 -10.190013 10.014275
v -0.675788 2.809637 15.000000
v 1.023419 -0.986071 0.000000
vt 0.461431 -0.009861
vt 0.439434 0.129595
vt 0.268812 0.074156
vt 0.277782 -0.009861
vt 0.439434 0.129595
vt 0.433890 0.297943
vt 0.243731 0.159785
vt 0.268812 0.074156
vt 0.433890 0.297943
vt 0.288461 0.373086
vt 0.155561 0.190164
vt 0.243731 0.159785
vt 0.288461 0.373086
vt 0.169316 0.479743
vt 0.100203 0.267035
vt 0.155561 0.190164
vt 0.169316 0.479743
vt 0.010234 0.525196
vt 0.010234 0.265029
vt 0.100203 0.267035
vt 0.010234 0.525196
vt -0.144163 0.465324
vt -0.070708 0.239253
vt 0.010234 0.265029
vt -0.144163 0.465324
vt -0.291367 0.405257
vt -0.133468 0.187929
vt -0.070708 0.239253
vt -0.291367 0.405257
vt -0.404684 0.291595
vt -0.235295 0.168527
vt -0.133468 0.187929
vt -0.404684 0.291595
vt -0.426717 0.132113
vt -0.288008 0.087044
vt -0.235295 0.168527
vt -0.426717 0.132113
vt -0.519205 -0.009861
vt -0.289442 -0.009861
vt -0.288008 0.087044
vt -0.519205 -0.009861
vt -0.456897 -0.161641
vt -0.257929 -0.096992
vt -0.289442 -0.009861
vt -0.456897 -0.161641
vt -0.434188 -0.332753
vt -0.236660 -0.189240
vt -0.257929 -0.096992
vt -0.434188 -0.332753
vt -0.291323 -0.424918
vt -0.143533 -0.221503
vt -0.236660 -0.189240
vt -0.291323 -0.424918
vt -0.143940 -0.484360
vt -0.082448 -0.295108
vt -0.143533 -0.221503
vt -0.143940 -0.484360
vt 0.010234 -0.478286
vt 0.010234 -0.291671
vt -0.082448 -0.295108
vt 0.010234 -0.478286
vt 0.177677 -0.525196
vt 0.086257 -0.243834
vt 0.010234 -0.291671
vt 0.177677 -0.525196
vt 0.326404 -0.445031
vt 0.171078 -0.231244
vt 0.086257 -0.243834
vt 0.326404 -0.445031
vt 0.409532 -0.299967
vt 0.210779 -0.155565
vt 0.171078 -0.231244
vt 0.409532 -0.299967
vt 0.519205 -0.175235
vt 0.293502 -0.101900
vt 0.210779 -0.155565
vt 0.519205 -0.175235
vt 0.461431 -0.009861
vt 0.277782 -0.009861
vt 0.293502 -0.101900
vt -0.006758 0.028096
vt 0.277782 -0.009861
vt 0.268812 0.074156
vt -0.006758 0.028096
vt 0.268812 0.074156
vt 0.243731 0.159785
vt -0.006758 0.028096
vt 0.243731 0.159785
vt 0.155561 0.190164
vt -0.006758 0.028096
vt 0.155561 0.190164
vt 0.100203 0.267035
vt -0.006758 0.028096
vt 0.100203 0.267035
vt 0.010234 0.265029
vt -0.006758 0.028096
vt 0.010234 0.265029
vt -0.070708 0.239253
vt -0.006758 0.028096
vt -0.070708 0.239253
vt -0.133468 0.187929
vt -0.006758 0.028096
vt -0.133468 0.187929
vt -0.235295 0.168527
vt -0.006758 0.028096
vt -0.235295 0.168527
vt -0.288008 0.087044
vt -0.006758 0.028096
vt -0.288008 0.087044
vt -0.289442 -0.009861
vt -0.006758 0.028096
vt -0.289442 -0.009861
vt -0.257929 -0.096992
vt -0.006758 0.028096
vt -0.257929 -0.096992
vt -0.236660 -0.189240
vt -0.006758 0.028096
vt -0.236660 -0.189240
vt -0.143533 -0.221503
vt -0.006758 0.028096
vt -0.143533 -0.221503
vt -0.082448 -0.295108
vt -0.006758 0.028096
vt -0.082448 -0.295108
vt 0.010234 -0.291671
vt -0.006758 0.028096
vt 0.010234 -0.291671
vt 0.086257 -0.243834
vt -0.006758 0.028096
vt 0.086257 -0.243834
vt 0.171078 -0.231244
vt -0.006758 0.028096
vt 0.171078 -0.231244
vt 0.210779 -0.155565
vt -0.006758 0.028096
vt 0.210779 -0.155565
vt 0.293502 -0.101900
vt -0.006758 0.028096
vt 0.293502 -0.101900
vt 0.277782 -0.009861
vt 0.010234 -0.009861
vt 0.439434 0.129595
vt 0.461431 -0.009861
vt 0.010234 -0.009861
vt 0.433890 0.297943
vt 0.439434 0.129595
vt 0.010234 -0.009861
vt 0.288461 0.373086
vt 0.433890 0.297943
vt 0.010234 -0.009861
vt 0.169316 0.479743
vt 0.288461 0.373086
vt 0.010234 -0.009861
vt 0.010234 0.525196
vt 0.169316 0.479743
vt 0.010234 -0.009861
vt -0.144163 0.465324
vt 0.010234 0.525196
vt 0.010234 -0.009861
vt -0.291367 0.405257
vt -0.144163 0.465324
vt 0.010234 -0.009861
vt -0.404684 0.291595
vt -0.291367 0.405257
vt 0.010234 -0.009861
vt -0.426717 0.132113
vt -0.404684 0.291595
vt 0.010234 -0.009861
vt -0.519205 -0.009861
vt -0.426717 0.132113
vt 0.010234 -0.009861
vt -0.456897 -0.161641
vt -0.519205 -0.009861
vt 0.010234 -0.009861
vt -0.434188 -0.332753
vt -0.456897 -0.161641
vt 0.010234 -0.009861
vt -0.291323 -0.424918
vt -0.434188 -0.332753
vt 0.010234 -0.009861
vt -0.143940 -0.484360
vt -0.291323 -0.424918
vt 0.010234 -0.009861
vt 0.010234 -0.478286
vt -0.143940 -0.484360
vt 0.010234 -0.009861
vt 0.177677 -0.525196
vt 0.010234 -0.478286
vt 0.010234 -0.009861
vt 0.326404 -0.445031
vt 0.177677 -0.525196
vt 0.010234 -0.009861
vt 0.409532 -0.299967
vt 0.326404 -0.445031
vt 0.010234 -0.009861
vt 0.519205 -0.175235
vt 0.409532 -0.299967
vt 0.010234 -0.009861
vt 0.461431 -0.009861
vt 0.519205 -0.175235
usemtl M_SoilDressing_Mound
s 1
f 1/1 3/2 4/3 2/4
f 3/5 5/6 6/7 4/8
f 5/9 7/10 8/11 6/12
f 7/13 9/14 10/15 8/16
f 9/17 11/18 12/19 10/20
f 11/21 13/22 14/23 12/24
f 13/25 15/26 16/27 14/28
f 15/29 17/30 18/31 16/32
f 17/33 19/34 20/35 18/36
f 19/37 21/38 22/39 20/40
f 21/41 23/42 24/43 22/44
f 23/45 25/46 26/47 24/48
f 25/49 27/50 28/51 26/52
f 27/53 29/54 30/55 28/56
f 29/57 31/58 32/59 30/60
f 31/61 33/62 34/63 32/64
f 33/65 35/66 36/67 34/68
f 35/69 37/70 38/71 36/72
f 37/73 39/74 40/75 38/76
f 39/77 1/78 2/79 40/80
f 41/81 2/82 4/83
f 41/84 4/85 6/86
f 41/87 6/88 8/89
f 41/90 8/91 10/92
f 41/93 10/94 12/95
f 41/96 12/97 14/98
f 41/99 14/100 16/101
f 41/102 16/103 18/104
f 41/105 18/106 20/107
f 41/108 20/109 22/110
f 41/111 22/112 24/113
f 41/114 24/115 26/116
f 41/117 26/118 28/119
f 41/120 28/121 30/122
f 41/123 30/124 32/125
f 41/126 32/127 34/128
f 41/129 34/130 36/131
f 41/132 36/133 38/134
f 41/135 38/136 40/137
f 41/138 40/139 2/140
f 42/141 3/142 1/143
f 42/144 5/145 3/146
f 42/147 7/148 5/149
f 42/150 9/151 7/152
f 42/153 11/154 9/155
f 42/156 13/157 11/158
f 42/159 15/160 13/161
f 42/162 17/163 15/164
f 42/165 19/166 17/167
f 42/168 21/169 19/170
f 42/171 23/172 21/173
f 42/174 25/175 23/176
f 42/177 27/178 25/179
f 42/180 29/181 27/182
f 42/183 31/184 29/185
f 42/186 33/187 31/188
f 42/189 35/190 33/191
f 42/192 37/193 35/194
f 42/195 39/196 37/197
f 42/198 1/199 39/200
