# Blender 5.0.1
# www.blender.org
o VD_VaultTube_Far
v -110.000000 12.000000 0.000005
v 110.000000 12.000000 -0.000005
v -110.000000 11.086554 -4.592196
v 110.000000 11.086554 -4.592206
v -110.000000 8.485281 -8.485276
v 110.000000 8.485281 -8.485286
v -110.000000 4.592201 -11.086549
v 110.000000 4.592201 -11.086558
v -110.000000 0.000000 -11.999995
v 110.000000 0.000000 -12.000005
v -110.000000 -4.592201 -11.086549
v 110.000000 -4.592201 -11.086558
v -110.000000 -8.485281 -8.485276
v 110.000000 -8.485281 -8.485286
v -110.000000 -11.086554 -4.592196
v 110.000000 -11.086554 -4.592206
v -110.000000 -12.000000 0.000005
v 110.000000 -12.000000 -0.000005
v -110.000000 -11.086554 4.592206
v 110.000000 -11.086554 4.592196
v -110.000000 -8.485281 8.485286
v 110.000000 -8.485281 8.485276
v -110.000000 -4.592201 11.086558
v 110.000000 -4.592201 11.086549
v -110.000000 0.000000 12.000005
v 110.000000 0.000000 11.999995
v -110.000000 4.592201 11.086558
v 110.000000 4.592201 11.086549
v -110.000000 8.485281 8.485286
v 110.000000 8.485281 8.485276
v -110.000000 11.086554 4.592206
v 110.000000 11.086554 4.592196
v 109.000000 10.500000 0.000000
v 131.000000 10.500000 -0.000000
v 109.000000 9.700735 -4.018176
v 131.000000 9.700735 -4.018177
v 109.000000 7.424621 -7.424621
v 131.000000 7.424621 -7.424622
v 109.000000 4.018176 -9.700734
v 131.000000 4.018176 -9.700735
v 109.000000 0.000000 -10.499999
v 131.000000 0.000000 -10.500000
v 109.000000 -4.018176 -9.700734
v 131.000000 -4.018176 -9.700735
v 109.000000 -7.424621 -7.424621
v 131.000000 -7.424621 -7.424622
v 109.000000 -9.700735 -4.018176
v 131.000000 -9.700735 -4.018177
v 109.000000 -10.500000 0.000000
v 131.000000 -10.500000 -0.000000
v 109.000000 -9.700735 4.018177
v 131.000000 -9.700735 4.018176
v 109.000000 -7.424621 7.424622
v 131.000000 -7.424621 7.424621
v 109.000000 -4.018176 9.700736
v 131.000000 -4.018176 9.700735
v 109.000000 0.000000 10.500001
v 131.000000 0.000000 10.500000
v 109.000000 4.018176 9.700736
v 131.000000 4.018176 9.700735
v 109.000000 7.424621 7.424622
v 131.000000 7.424621 7.424621
v 109.000000 9.700735 4.018177
v 131.000000 9.700735 4.018176
v 105.500000 14.200000 0.000000
v 110.500000 14.200000 -0.000000
v 105.500000 11.488041 -8.346550
v 110.500000 11.488041 -8.346550
v 105.500000 4.388041 -13.505003
v 110.500000 4.388041 -13.505003
v 105.500000 -4.388041 -13.505003
v 110.500000 -4.388041 -13.505003
v 105.500000 -11.488041 -8.346550
v 110.500000 -11.488041 -8.346550
v 105.500000 -14.200000 0.000000
v 110.500000 -14.200000 -0.000000
v 105.500000 -11.488041 8.346550
v 110.500000 -11.488041 8.346550
v 105.500000 -4.388041 13.505003
v 110.500000 -4.388041 13.505003
v 105.500000 4.388041 13.505003
v 110.500000 4.388041 13.505003
v 105.500000 11.488041 8.346550
v 110.500000 11.488041 8.346550
v -131.000000 10.500000 0.000000
v -109.000000 10.500000 -0.000000
v -131.000000 9.700735 -4.018176
v -109.000000 9.700735 -4.018177
v -131.000000 7.424621 -7.424621
v -109.000000 7.424621 -7.424622
v -131.000000 4.018176 -9.700735
v -109.000000 4.018176 -9.700736
v -131.000000 0.000000 -10.500000
v -109.000000 0.000000 -10.500001
v -131.000000 -4.018176 -9.700735
v -109.000000 -4.018176 -9.700736
v -131.000000 -7.424621 -7.424621
v -109.000000 -7.424621 -7.424622
v -131.000000 -9.700735 -4.018176
v -109.000000 -9.700735 -4.018177
v -131.000000 -10.500000 0.000000
v -109.000000 -10.500000 -0.000000
v -131.000000 -9.700735 4.018177
v -109.000000 -9.700735 4.018176
v -131.000000 -7.424621 7.424622
v -109.000000 -7.424621 7.424621
v -131.000000 -4.018176 9.700735
v -109.000000 -4.018176 9.700734
v -131.000000 0.000000 10.500000
v -109.000000 0.000000 10.499999
v -131.000000 4.018176 9.700735
v -109.000000 4.018176 9.700734
v -131.000000 7.424621 7.424622
v -109.000000 7.424621 7.424621
v -131.000000 9.700735 4.018177
v -109.000000 9.700735 4.018176
v -110.500000 14.200000 0.000000
v -105.500000 14.200000 -0.000000
v -110.500000 11.488041 -8.346550
v -105.500000 11.488041 -8.346550
v -110.500000 4.388041 -13.505003
v -105.500000 4.388041 -13.505003
v -110.500000 -4.388041 -13.505003
v -105.500000 -4.388041 -13.505003
v -110.500000 -11.488041 -8.346550
v -105.500000 -11.488041 -8.346550
v -110.500000 -14.200000 0.000000
v -105.500000 -14.200000 -0.000000
v -110.500000 -11.488041 8.346550
v -105.500000 -11.488041 8.346550
v -110.500000 -4.388041 13.505003
v -105.500000 -4.388041 13.505003
v -110.500000 4.388041 13.505003
v -105.500000 4.388041 13.505003
v -110.500000 11.488041 8.346550
v -105.500000 11.488041 8.346550
v -110.000000 12.000000 0.000005
v -110.000000 11.086554 -4.592196
v 110.000000 11.086554 -4.592206
v 110.000000 12.000000 -0.000005
v -110.000000 8.485281 -8.485276
v 110.000000 8.485281 -8.485286
v -110.000000 4.592201 -11.086549
v 110.000000 4.592201 -11.086558
v -110.000000 0.000000 -11.999995
v 110.000000 0.000000 -12.000005
v -110.000000 -4.592201 -11.086549
v 110.000000 -4.592201 -11.086558
v -110.000000 -8.485281 -8.485276
v 110.000000 -8.485281 -8.485286
v -110.000000 -11.086554 -4.592196
v 110.000000 -11.086554 -4.592206
v -110.000000 -12.000000 0.000005
v 110.000000 -12.000000 -0.000005
v -110.000000 -11.086554 4.592206
v 110.000000 -11.086554 4.592196
v -110.000000 -8.485281 8.485286
v 110.000000 -8.485281 8.485276
v -110.000000 -4.592201 11.086558
v 110.000000 -4.592201 11.086549
v -110.000000 0.000000 12.000005
v 110.000000 0.000000 11.999995
v -110.000000 4.592201 11.086558
v 110.000000 4.592201 11.086549
v -110.000000 8.485281 8.485286
v 110.000000 8.485281 8.485276
v -110.000000 11.086554 4.592206
v 110.000000 11.086554 4.592196
v 109.000000 10.500000 0.000000
v 109.000000 9.700735 -4.018176
v 131.000000 9.700735 -4.018177
v 131.000000 10.500000 -0.000000
v 109.000000 7.424621 -7.424621
v 131.000000 7.424621 -7.424622
v 109.000000 4.018176 -9.700734
v 131.000000 4.018176 -9.700735
v 109.000000 0.000000 -10.499999
v 131.000000 0.000000 -10.500000
v 109.000000 -4.018176 -9.700734
v 131.000000 -4.018176 -9.700735
v 109.000000 -7.424621 -7.424621
v 131.000000 -7.424621 -7.424622
v 109.000000 -9.700735 -4.018176
v 131.000000 -9.700735 -4.018177
v 109.000000 -10.500000 0.000000
v 131.000000 -10.500000 -0.000000
v 109.000000 -9.700735 4.018177
v 131.000000 -9.700735 4.018176
v 109.000000 -7.424621 7.424622
v 131.000000 -7.424621 7.424621
v 109.000000 -4.018176 9.700736
v 131.000000 -4.018176 9.700735
v 109.000000 0.000000 10.500001
v 131.000000 0.000000 10.500000
v 109.000000 4.018176 9.700736
v 131.000000 4.018176 9.700735
v 109.000000 7.424621 7.424622
v 131.000000 7.424621 7.424621
v 109.000000 9.700735 4.018177
v 131.000000 9.700735 4.018176
v 105.500000 14.200000 0.000000
v 105.500000 14.200000 0.000000
v 105.500000 11.488041 -8.346550
v 105.500000 11.488041 -8.346550
v 110.500000 11.488041 -8.346550
v 110.500000 11.488041 -8.346550
v 110.500000 14.200000 -0.000000
v 110.500000 14.200000 -0.000000
v 105.500000 4.388041 -13.505003
v 105.500000 4.388041 -13.505003
v 110.500000 4.388041 -13.505003
v 110.500000 4.388041 -13.505003
v 105.500000 -4.388041 -13.505003
v 105.500000 -4.388041 -13.505003
v 110.500000 -4.388041 -13.505003
v 110.500000 -4.388041 -13.505003
v 105.500000 -11.488041 -8.346550
v 105.500000 -11.488041 -8.346550
v 110.500000 -11.488041 -8.346550
v 110.500000 -11.488041 -8.346550
v 105.500000 -14.200000 0.000000
v 105.500000 -14.200000 0.000000
v 110.500000 -14.200000 -0.000000
v 110.500000 -14.200000 -0.000000
v 105.500000 -11.488041 8.346550
v 105.500000 -11.488041 8.346550
v 110.500000 -11.488041 8.346550
v 110.500000 -11.488041 8.346550
v 105.500000 -4.388041 13.505003
v 105.500000 -4.388041 13.505003
v 110.500000 -4.388041 13.505003
v 110.500000 -4.388041 13.505003
v 105.500000 4.388041 13.505003
v 105.500000 4.388041 13.505003
v 110.500000 4.388041 13.505003
v 110.500000 4.388041 13.505003
v 105.500000 11.488041 8.346550
v 105.500000 11.488041 8.346550
v 110.500000 11.488041 8.346550
v 110.500000 11.488041 8.346550
v -131.000000 10.500000 0.000000
v -131.000000 9.700735 -4.018176
v -109.000000 9.700735 -4.018177
v -109.000000 10.500000 -0.000000
v -131.000000 7.424621 -7.424621
v -109.000000 7.424621 -7.424622
v -131.000000 4.018176 -9.700735
v -109.000000 4.018176 -9.700736
v -131.000000 0.000000 -10.500000
v -109.000000 0.000000 -10.500001
v -131.000000 -4.018176 -9.700735
v -109.000000 -4.018176 -9.700736
v -131.000000 -7.424621 -7.424621
v -109.000000 -7.424621 -7.424622
v -131.000000 -9.700735 -4.018176
v -109.000000 -9.700735 -4.018177
v -131.000000 -10.500000 0.000000
v -109.000000 -10.500000 -0.000000
v -131.000000 -9.700735 4.018177
v -109.000000 -9.700735 4.018176
v -131.000000 -7.424621 7.424622
v -109.000000 -7.424621 7.424621
v -131.000000 -4.018176 9.700735
v -109.000000 -4.018176 9.700734
v -131.000000 0.000000 10.500000
v -109.000000 0.000000 10.499999
v -131.000000 4.018176 9.700735
v -109.000000 4.018176 9.700734
v -131.000000 7.424621 7.424622
v -109.000000 7.424621 7.424621
v -131.000000 9.700735 4.018177
v -109.000000 9.700735 4.018176
v -110.500000 14.200000 0.000000
v -110.500000 14.200000 0.000000
v -110.500000 11.488041 -8.346550
v -110.500000 11.488041 -8.346550
v -105.500000 11.488041 -8.346550
v -105.500000 11.488041 -8.346550
v -105.500000 14.200000 -0.000000
v -105.500000 14.200000 -0.000000
v -110.500000 4.388041 -13.505003
v -110.500000 4.388041 -13.505003
v -105.500000 4.388041 -13.505003
v -105.500000 4.388041 -13.505003
v -110.500000 -4.388041 -13.505003
v -110.500000 -4.388041 -13.505003
v -105.500000 -4.388041 -13.505003
v -105.500000 -4.388041 -13.505003
v -110.500000 -11.488041 -8.346550
v -110.500000 -11.488041 -8.346550
v -105.500000 -11.488041 -8.346550
v -105.500000 -11.488041 -8.346550
v -110.500000 -14.200000 0.000000
v -110.500000 -14.200000 0.000000
v -105.500000 -14.200000 -0.000000
v -105.500000 -14.200000 -0.000000
v -110.500000 -11.488041 8.346550
v -110.500000 -11.488041 8.346550
v -105.500000 -11.488041 8.346550
v -105.500000 -11.488041 8.346550
v -110.500000 -4.388041 13.505003
v -110.500000 -4.388041 13.505003
v -105.500000 -4.388041 13.505003
v -105.500000 -4.388041 13.505003
v -110.500000 4.388041 13.505003
v -110.500000 4.388041 13.505003
v -105.500000 4.388041 13.505003
v -105.500000 4.388041 13.505003
v -110.500000 11.488041 8.346550
v -110.500000 11.488041 8.346550
v -105.500000 11.488041 8.346550
v -105.500000 11.488041 8.346550
vn -1.0000 -0.0000 -0.0000
vn 1.0000 -0.0000 -0.0000
vn -0.0000 0.9239 0.3827
vn -0.0000 0.9511 0.3090
vn -0.0000 0.5878 0.8090
vn -0.0000 1.0000 -0.0000
vn -0.0000 0.9239 -0.3827
vn -0.0000 0.7071 -0.7071
vn -0.0000 0.3827 -0.9239
vn -0.0000 -0.0000 -1.0000
vn -0.0000 -0.3827 -0.9239
vn -0.0000 -0.7071 -0.7071
vn -0.0000 -0.9239 -0.3827
vn -0.0000 -1.0000 -0.0000
vn -0.0000 -0.9239 0.3827
vn -0.0000 -0.7071 0.7071
vn -0.0000 -0.3827 0.9239
vn -0.0000 -0.0000 1.0000
vn -0.0000 0.3827 0.9239
vn -0.0000 0.7071 0.7071
vn -0.0000 0.9511 -0.3090
vn -0.0000 0.5878 -0.8090
vn -0.0000 -0.5878 -0.8090
vn -0.0000 -0.9511 -0.3090
vn -0.0000 -0.9511 0.3090
vn -0.0000 -0.5878 0.8090
vt 0.042296 0.993267
vt 0.042296 0.006733
vt 0.063254 0.006733
vt 0.063254 0.993267
vt 0.082131 0.006733
vt 0.082131 0.993267
vt 0.184462 0.993267
vt 0.184462 0.006733
vt 0.198761 0.006733
vt 0.198761 0.993267
vt 0.217854 0.006733
vt 0.217854 0.993267
vt 0.238836 0.006733
vt 0.238836 0.993267
vt 0.258513 0.006733
vt 0.258513 0.993267
vt 0.095598 0.993267
vt 0.095598 0.006733
vt 0.111313 0.006733
vt 0.111313 0.993267
vt 0.131161 0.006733
vt 0.131161 0.993267
vt 0.152118 0.006733
vt 0.152118 0.993267
vt 0.170996 0.006733
vt 0.170996 0.993267
vt 0.271979 0.993267
vt 0.271979 0.006733
vt 0.286278 0.006733
vt 0.286278 0.993267
vt 0.305371 0.006733
vt 0.305371 0.993267
vt 0.326353 0.006733
vt 0.326353 0.993267
vt 0.346030 0.006733
vt 0.346030 0.993267
vt 0.367531 0.652683
vt 0.359497 0.633285
vt 0.359497 0.612289
vt 0.367531 0.592891
vt 0.382378 0.578045
vt 0.401776 0.570010
vt 0.422771 0.570010
vt 0.442169 0.578045
vt 0.457016 0.592891
vt 0.465050 0.612289
vt 0.465050 0.633285
vt 0.457016 0.652683
vt 0.442169 0.667529
vt 0.422771 0.675564
vt 0.401776 0.675564
vt 0.382378 0.667529
vt 0.006733 0.993267
vt 0.006733 0.006733
vt 0.022449 0.006733
vt 0.022449 0.993267
vt 0.359497 0.752306
vt 0.359497 0.731310
vt 0.367531 0.711912
vt 0.382378 0.697065
vt 0.401775 0.689031
vt 0.422771 0.689031
vt 0.442169 0.697065
vt 0.457016 0.711912
vt 0.465050 0.731310
vt 0.465050 0.752306
vt 0.457016 0.771703
vt 0.442169 0.786550
vt 0.422771 0.794585
vt 0.401776 0.794585
vt 0.382378 0.786550
vt 0.367531 0.771703
vt 0.525200 0.534986
vt 0.525200 0.436332
vt 0.543538 0.436332
vt 0.543538 0.534986
vt 0.560056 0.436332
vt 0.560056 0.534986
vt 0.494083 0.871346
vt 0.494083 0.772692
vt 0.506594 0.772692
vt 0.506594 0.871346
vt 0.523300 0.772692
vt 0.523300 0.871346
vt 0.541660 0.772692
vt 0.541660 0.871346
vt 0.558877 0.772692
vt 0.558877 0.871346
vt 0.494083 0.647106
vt 0.494083 0.548452
vt 0.507834 0.548452
vt 0.507834 0.647106
vt 0.525200 0.548452
vt 0.525200 0.647106
vt 0.543538 0.548452
vt 0.543538 0.647106
vt 0.560056 0.548452
vt 0.560056 0.647106
vt 0.494083 0.983466
vt 0.494083 0.884812
vt 0.506594 0.884812
vt 0.506594 0.983466
vt 0.523300 0.884812
vt 0.523300 0.983466
vt 0.541660 0.884812
vt 0.541660 0.983466
vt 0.558877 0.884812
vt 0.558877 0.983466
vt 0.396491 0.900411
vt 0.379518 0.893380
vt 0.366527 0.880390
vt 0.359497 0.863417
vt 0.359497 0.845045
vt 0.366527 0.828072
vt 0.379518 0.815082
vt 0.396491 0.808051
vt 0.414862 0.808051
vt 0.431835 0.815082
vt 0.444826 0.828072
vt 0.451856 0.845045
vt 0.451856 0.863417
vt 0.444826 0.880390
vt 0.431835 0.893380
vt 0.414862 0.900411
vt 0.494083 0.534986
vt 0.494083 0.436332
vt 0.507834 0.436332
vt 0.507834 0.534986
vt 0.514104 0.092063
vt 0.501113 0.079072
vt 0.494083 0.062099
vt 0.494083 0.043727
vt 0.501113 0.026754
vt 0.514104 0.013764
vt 0.531077 0.006733
vt 0.549448 0.006733
vt 0.566421 0.013764
vt 0.579412 0.026754
vt 0.586442 0.043727
vt 0.586442 0.062099
vt 0.579412 0.079072
vt 0.566421 0.092063
vt 0.549448 0.099093
vt 0.531077 0.099093
vt 0.622330 0.321902
vt 0.599909 0.321902
vt 0.599909 0.283171
vt 0.622330 0.283171
vt 0.700591 0.082868
vt 0.678170 0.082868
vt 0.678170 0.055634
vt 0.700591 0.055634
vt 0.622330 0.478058
vt 0.599909 0.478058
vt 0.599909 0.439764
vt 0.622330 0.439764
vt 0.622330 0.683120
vt 0.599909 0.683120
vt 0.599909 0.646807
vt 0.622330 0.646807
vt 0.622330 0.881360
vt 0.599909 0.881360
vt 0.599909 0.845926
vt 0.622330 0.845926
vt 0.622330 0.269704
vt 0.599909 0.269704
vt 0.599909 0.230973
vt 0.622330 0.230973
vt 0.700591 0.123568
vt 0.678170 0.123568
vt 0.678170 0.096335
vt 0.700591 0.096335
vt 0.622330 0.529819
vt 0.599909 0.529819
vt 0.599909 0.491524
vt 0.622330 0.491524
vt 0.420056 0.134086
vt 0.382628 0.121925
vt 0.359497 0.090087
vt 0.359497 0.050733
vt 0.382628 0.018894
vt 0.420056 0.006733
vt 0.457484 0.018894
vt 0.480616 0.050733
vt 0.480616 0.090087
vt 0.457484 0.121925
vt 0.622330 0.732900
vt 0.599909 0.732900
vt 0.599909 0.696587
vt 0.622330 0.696587
vt 0.622330 0.930261
vt 0.599909 0.930261
vt 0.599909 0.894827
vt 0.622330 0.894827
vt 0.382628 0.262744
vt 0.359497 0.230906
vt 0.359497 0.191552
vt 0.382628 0.159714
vt 0.420056 0.147553
vt 0.457484 0.159714
vt 0.480616 0.191552
vt 0.480616 0.230906
vt 0.457484 0.262744
vt 0.420056 0.274905
vt 0.525200 0.422866
vt 0.525200 0.324212
vt 0.543538 0.324212
vt 0.543538 0.422866
vt 0.560056 0.324212
vt 0.560056 0.422866
vt 0.599909 0.105387
vt 0.599909 0.006733
vt 0.612420 0.006733
vt 0.612420 0.105387
vt 0.629127 0.006733
vt 0.629127 0.105387
vt 0.647486 0.006733
vt 0.647486 0.105387
vt 0.664703 0.006733
vt 0.664703 0.105387
vt 0.494083 0.759226
vt 0.494083 0.660572
vt 0.507834 0.660572
vt 0.507834 0.759226
vt 0.525200 0.660572
vt 0.525200 0.759226
vt 0.543538 0.660572
vt 0.543538 0.759226
vt 0.560056 0.660572
vt 0.560056 0.759226
vt 0.599909 0.217507
vt 0.599909 0.118853
vt 0.612420 0.118853
vt 0.612420 0.217507
vt 0.629127 0.118853
vt 0.629127 0.217507
vt 0.647486 0.118853
vt 0.647486 0.217507
vt 0.664703 0.118853
vt 0.664703 0.217507
vt 0.531077 0.204919
vt 0.514104 0.197889
vt 0.501113 0.184898
vt 0.494083 0.167925
vt 0.494083 0.149554
vt 0.501113 0.132581
vt 0.514104 0.119590
vt 0.531077 0.112560
vt 0.549448 0.112560
vt 0.566421 0.119590
vt 0.579412 0.132581
vt 0.586442 0.149554
vt 0.586442 0.167925
vt 0.579412 0.184898
vt 0.566421 0.197889
vt 0.549448 0.204919
vt 0.494083 0.422866
vt 0.494083 0.324212
vt 0.507834 0.324212
vt 0.507834 0.422866
vt 0.514104 0.303715
vt 0.501113 0.290725
vt 0.494083 0.273752
vt 0.494083 0.255380
vt 0.501113 0.238407
vt 0.514104 0.225417
vt 0.531077 0.218386
vt 0.549448 0.218386
vt 0.566421 0.225417
vt 0.579412 0.238407
vt 0.586442 0.255380
vt 0.586442 0.273752
vt 0.579412 0.290725
vt 0.566421 0.303715
vt 0.549448 0.310746
vt 0.531077 0.310746
vt 0.622330 0.374099
vt 0.599909 0.374099
vt 0.599909 0.335369
vt 0.622330 0.335369
vt 0.700591 0.164269
vt 0.678170 0.164269
vt 0.678170 0.137035
vt 0.700591 0.137035
vt 0.622330 0.581579
vt 0.599909 0.581579
vt 0.599909 0.543285
vt 0.622330 0.543285
vt 0.622330 0.782680
vt 0.599909 0.782680
vt 0.599909 0.746367
vt 0.622330 0.746367
vt 0.622330 0.979162
vt 0.599909 0.979162
vt 0.599909 0.943728
vt 0.622330 0.943728
vt 0.622330 0.426297
vt 0.599909 0.426297
vt 0.599909 0.387566
vt 0.622330 0.387566
vt 0.700591 0.204969
vt 0.678170 0.204969
vt 0.678170 0.177735
vt 0.700591 0.177735
vt 0.622330 0.633340
vt 0.599909 0.633340
vt 0.599909 0.595046
vt 0.622330 0.595046
vt 0.420056 0.415724
vt 0.382628 0.403563
vt 0.359497 0.371725
vt 0.359497 0.332371
vt 0.382628 0.300533
vt 0.420056 0.288372
vt 0.457484 0.300533
vt 0.480616 0.332371
vt 0.480616 0.371725
vt 0.457484 0.403563
vt 0.622330 0.832460
vt 0.599909 0.832460
vt 0.599909 0.796146
vt 0.622330 0.796146
vt 0.700591 0.042168
vt 0.678170 0.042168
vt 0.678170 0.006733
vt 0.700591 0.006733
vt 0.382628 0.544382
vt 0.359497 0.512544
vt 0.359497 0.473190
vt 0.382628 0.441352
vt 0.420056 0.429191
vt 0.457484 0.441352
vt 0.480616 0.473190
vt 0.480616 0.512544
vt 0.457484 0.544382
vt 0.420056 0.556543
s 1
f 137/1/6 140/2/6 139/3/7 138/4/7
f 138/4/7 139/3/7 142/5/8 141/6/8
f 141/7/8 142/8/8 144/9/9 143/10/9
f 143/10/9 144/9/9 146/11/10 145/12/10
f 145/12/10 146/11/10 148/13/11 147/14/11
f 147/14/11 148/13/11 150/15/12 149/16/12
f 149/17/12 150/18/12 152/19/13 151/20/13
f 151/20/13 152/19/13 154/21/14 153/22/14
f 153/22/14 154/21/14 156/23/15 155/24/15
f 155/24/15 156/23/15 158/25/16 157/26/16
f 157/27/16 158/28/16 160/29/17 159/30/17
f 159/30/17 160/29/17 162/31/18 161/32/18
f 161/32/18 162/31/18 164/33/19 163/34/19
f 163/34/19 164/33/19 166/35/20 165/36/20
f 4/37/2 2/38/2 168/39/2 30/40/2 28/41/2 26/42/2 24/43/2 22/44/2 20/45/2 18/46/2 16/47/2 14/48/2 12/49/2 10/50/2 8/51/2 6/52/2
f 165/53/20 166/54/20 32/55/3 167/56/3
f 167/56/3 32/55/3 140/2/6 137/1/6
f 1/57/1 3/58/1 5/59/1 7/60/1 9/61/1 11/62/1 13/63/1 15/64/1 17/65/1 19/66/1 21/67/1 23/68/1 25/69/1 27/70/1 29/71/1 31/72/1
f 169/73/6 172/74/6 171/75/7 170/76/7
f 170/76/7 171/75/7 174/77/8 173/78/8
f 173/79/8 174/80/8 176/81/9 175/82/9
f 175/82/9 176/81/9 178/83/10 177/84/10
f 177/84/10 178/83/10 180/85/11 179/86/11
f 179/86/11 180/85/11 182/87/12 181/88/12
f 181/89/12 182/90/12 184/91/13 183/92/13
f 183/92/13 184/91/13 186/93/14 185/94/14
f 185/94/14 186/93/14 188/95/15 187/96/15
f 187/96/15 188/95/15 190/97/16 189/98/16
f 189/99/16 190/100/16 192/101/17 191/102/17
f 191/102/17 192/101/17 194/103/18 193/104/18
f 193/104/18 194/103/18 196/105/19 195/106/19
f 195/106/19 196/105/19 198/107/20 197/108/20
f 36/109/2 34/110/2 200/111/2 62/112/2 60/113/2 58/114/2 56/115/2 54/116/2 52/117/2 50/118/2 48/119/2 46/120/2 44/121/2 42/122/2 40/123/2 38/124/2
f 197/125/20 198/126/20 64/127/3 199/128/3
f 199/128/3 64/127/3 172/74/6 169/73/6
f 33/129/1 35/130/1 37/131/1 39/132/1 41/133/1 43/134/1 45/135/1 47/136/1 49/137/1 51/138/1 53/139/1 55/140/1 57/141/1 59/142/1 61/143/1 63/144/1
f 201/145/21 207/146/21 205/147/21 203/148/21
f 204/149/22 206/150/22 211/151/22 209/152/22
f 210/153/10 212/154/10 215/155/10 213/156/10
f 214/157/23 216/158/23 219/159/23 217/160/23
f 218/161/24 220/162/24 223/163/24 221/164/24
f 222/165/25 224/166/25 227/167/25 225/168/25
f 226/169/26 228/170/26 231/171/26 229/172/26
f 230/173/18 232/174/18 235/175/18 233/176/18
f 68/177/2 208/178/2 239/179/2 236/180/2 80/181/2 78/182/2 76/183/2 74/184/2 72/185/2 70/186/2
f 234/187/5 82/188/5 240/189/5 237/190/5
f 238/191/4 84/192/4 66/193/4 202/194/4
f 65/195/1 67/196/1 69/197/1 71/198/1 73/199/1 75/200/1 77/201/1 79/202/1 81/203/1 83/204/1
f 241/205/6 244/206/6 243/207/7 242/208/7
f 242/208/7 243/207/7 246/209/8 245/210/8
f 245/211/8 246/212/8 248/213/9 247/214/9
f 247/214/9 248/213/9 250/215/10 249/216/10
f 249/216/10 250/215/10 252/217/11 251/218/11
f 251/218/11 252/217/11 254/219/12 253/220/12
f 253/221/12 254/222/12 256/223/13 255/224/13
f 255/224/13 256/223/13 258/225/14 257/226/14
f 257/226/14 258/225/14 260/227/15 259/228/15
f 259/228/15 260/227/15 262/229/16 261/230/16
f 261/231/16 262/232/16 264/233/17 263/234/17
f 263/234/17 264/233/17 266/235/18 265/236/18
f 265/236/18 266/235/18 268/237/19 267/238/19
f 267/238/19 268/237/19 270/239/20 269/240/20
f 88/241/2 86/242/2 272/243/2 114/244/2 112/245/2 110/246/2 108/247/2 106/248/2 104/249/2 102/250/2 100/251/2 98/252/2 96/253/2 94/254/2 92/255/2 90/256/2
f 269/257/20 270/258/20 116/259/3 271/260/3
f 271/260/3 116/259/3 244/206/6 241/205/6
f 85/261/1 87/262/1 89/263/1 91/264/1 93/265/1 95/266/1 97/267/1 99/268/1 101/269/1 103/270/1 105/271/1 107/272/1 109/273/1 111/274/1 113/275/1 115/276/1
f 273/277/21 279/278/21 277/279/21 275/280/21
f 276/281/22 278/282/22 283/283/22 281/284/22
f 282/285/10 284/286/10 287/287/10 285/288/10
f 286/289/23 288/290/23 291/291/23 289/292/23
f 290/293/24 292/294/24 295/295/24 293/296/24
f 294/297/25 296/298/25 299/299/25 297/300/25
f 298/301/26 300/302/26 303/303/26 301/304/26
f 302/305/18 304/306/18 307/307/18 305/308/18
f 120/309/2 280/310/2 311/311/2 308/312/2 132/313/2 130/314/2 128/315/2 126/316/2 124/317/2 122/318/2
f 306/319/5 134/320/5 312/321/5 309/322/5
f 310/323/4 136/324/4 118/325/4 274/326/4
f 117/327/1 119/328/1 121/329/1 123/330/1 125/331/1 127/332/1 129/333/1 131/334/1 133/335/1 135/336/1
