# Blender 5.0.1
# www.blender.org
o VD_VaultNode_Far
v 0.000000 28.000000 -7.000000
v 0.000000 28.000000 7.000000
v 10.715137 25.868626 -7.000000
v 10.715137 25.868626 7.000000
v 19.798990 19.798990 -7.000000
v 19.798990 19.798990 7.000000
v 25.868626 10.715137 -7.000000
v 25.868626 10.715137 7.000000
v 28.000000 0.000000 -7.000000
v 28.000000 0.000000 7.000000
v 25.868626 -10.715137 -7.000000
v 25.868626 -10.715137 7.000000
v 19.798990 -19.798990 -7.000000
v 19.798990 -19.798990 7.000000
v 10.715137 -25.868626 -7.000000
v 10.715137 -25.868626 7.000000
v 0.000000 -28.000000 -7.000000
v 0.000000 -28.000000 7.000000
v -10.715137 -25.868626 -7.000000
v -10.715137 -25.868626 7.000000
v -19.798990 -19.798990 -7.000000
v -19.798990 -19.798990 7.000000
v -25.868626 -10.715137 -7.000000
v -25.868626 -10.715137 7.000000
v -28.000000 0.000000 -7.000000
v -28.000000 0.000000 7.000000
v -25.868626 10.715137 -7.000000
v -25.868626 10.715137 7.000000
v -19.798990 19.798990 -7.000000
v -19.798990 19.798990 7.000000
v -10.715137 25.868626 -7.000000
v -10.715137 25.868626 7.000000
v 0.000000 14.560000 6.000000
v 0.000000 14.560000 12.000000
v 5.571871 13.451686 6.000000
v 5.571871 13.451686 12.000000
v 10.295475 10.295475 6.000000
v 10.295475 10.295475 12.000000
v 13.451686 5.571871 6.000000
v 13.451686 5.571871 12.000000
v 14.560000 0.000000 6.000000
v 14.560000 0.000000 12.000000
v 13.451686 -5.571871 6.000000
v 13.451686 -5.571871 12.000000
v 10.295475 -10.295475 6.000000
v 10.295475 -10.295475 12.000000
v 5.571871 -13.451686 6.000000
v 5.571871 -13.451686 12.000000
v 0.000000 -14.560000 6.000000
v 0.000000 -14.560000 12.000000
v -5.571871 -13.451686 6.000000
v -5.571871 -13.451686 12.000000
v -10.295475 -10.295475 6.000000
v -10.295475 -10.295475 12.000000
v -13.451686 -5.571871 6.000000
v -13.451686 -5.571871 12.000000
v -14.560000 0.000000 6.000000
v -14.560000 0.000000 12.000000
v -13.451686 5.571871 6.000000
v -13.451686 5.571871 12.000000
v -10.295475 10.295475 6.000000
v -10.295475 10.295475 12.000000
v -5.571871 13.451686 6.000000
v -5.571871 13.451686 12.000000
v 0.000000 14.560000 -12.000000
v 0.000000 14.560000 -6.000000
v 5.571871 13.451686 -12.000000
v 5.571871 13.451686 -6.000000
v 10.295475 10.295475 -12.000000
v 10.295475 10.295475 -6.000000
v 13.451686 5.571871 -12.000000
v 13.451686 5.571871 -6.000000
v 14.560000 0.000000 -12.000000
v 14.560000 0.000000 -6.000000
v 13.451686 -5.571871 -12.000000
v 13.451686 -5.571871 -6.000000
v 10.295475 -10.295475 -12.000000
v 10.295475 -10.295475 -6.000000
v 5.571871 -13.451686 -12.000000
v 5.571871 -13.451686 -6.000000
v 0.000000 -14.560000 -12.000000
v 0.000000 -14.560000 -6.000000
v -5.571871 -13.451686 -12.000000
v -5.571871 -13.451686 -6.000000
v -10.295475 -10.295475 -12.000000
v -10.295475 -10.295475 -6.000000
v -13.451686 -5.571871 -12.000000
v -13.451686 -5.571871 -6.000000
v -14.560000 0.000000 -12.000000
v -14.560000 0.000000 -6.000000
v -13.451686 5.571871 -12.000000
v -13.451686 5.571871 -6.000000
v -10.295475 10.295475 -12.000000
v -10.295475 10.295475 -6.000000
v -5.571871 13.451686 -12.000000
v -5.571871 13.451686 -6.000000
v 0.000000 29.200001 -1.000000
v 0.000000 29.200001 1.000000
v 11.174357 26.977282 -1.000000
v 11.174357 26.977282 1.000000
v 20.647518 20.647518 -1.000000
v 20.647518 20.647518 1.000000
v 26.977282 11.174357 -1.000000
v 26.977282 11.174357 1.000000
v 29.200001 0.000000 -1.000000
v 29.200001 0.000000 1.000000
v 26.977282 -11.174357 -1.000000
v 26.977282 -11.174357 1.000000
v 20.647518 -20.647518 -1.000000
v 20.647518 -20.647518 1.000000
v 11.174357 -26.977282 -1.000000
v 11.174357 -26.977282 1.000000
v 0.000000 -29.200001 -1.000000
v 0.000000 -29.200001 1.000000
v -11.174357 -26.977282 -1.000000
v -11.174357 -26.977282 1.000000
v -20.647518 -20.647518 -1.000000
v -20.647518 -20.647518 1.000000
v -26.977282 -11.174357 -1.000000
v -26.977282 -11.174357 1.000000
v -29.200001 0.000000 -1.000000
v -29.200001 0.000000 1.000000
v -26.977282 11.174357 -1.000000
v -26.977282 11.174357 1.000000
v -20.647518 20.647518 -1.000000
v -20.647518 20.647518 1.000000
v -11.174357 26.977282 -1.000000
v -11.174357 26.977282 1.000000
v 24.000000 16.500000 0.000001
v 50.000000 16.500000 -0.000001
v 23.780193 13.729498 -9.698456
v 50.000000 13.348781 -9.698458
v 24.000000 5.098781 -15.692432
v 50.000000 5.098781 -15.692434
v 24.000000 -5.098781 -15.692432
v 50.000000 -5.098781 -15.692434
v 23.780193 -13.729500 -9.698456
v 50.000000 -13.348781 -9.698458
v 24.000000 -16.500000 0.000001
v 50.000000 -16.500000 -0.000001
v 23.780193 -13.729500 9.698458
v 50.000000 -13.348781 9.698456
v 24.000000 -5.098781 15.692434
v 50.000000 -5.098781 15.692432
v 24.000000 5.098781 15.692434
v 50.000000 5.098781 15.692432
v 23.780193 13.729500 9.698458
v 50.000000 13.348781 9.698456
v 43.500000 20.000000 0.000000
v 48.500000 20.000000 -0.000000
v 43.500000 16.180340 -11.755705
v 48.500000 16.180340 -11.755705
v 43.500000 6.180340 -19.021132
v 48.500000 6.180340 -19.021132
v 43.500000 -6.180340 -19.021132
v 48.500000 -6.180340 -19.021132
v 43.500000 -16.180340 -11.755705
v 48.500000 -16.180340 -11.755705
v 43.500000 -20.000000 0.000000
v 48.500000 -20.000000 -0.000000
v 43.500000 -16.180340 11.755705
v 48.500000 -16.180340 11.755705
v 43.500000 -6.180340 19.021132
v 48.500000 -6.180340 19.021132
v 43.500000 6.180340 19.021132
v 48.500000 6.180340 19.021132
v 43.500000 16.180340 11.755705
v 48.500000 16.180340 11.755705
v -2.289419 29.034607 0.000001
v 10.710579 51.551270 -0.000001
v 0.000000 27.458998 -9.698456
v 13.439615 49.975658 -9.698458
v 7.584326 23.333996 -15.692432
v 20.584326 45.850658 -15.692434
v 16.415674 18.235216 -15.692432
v 29.415672 40.751877 -15.692434
v 36.560383 36.626881 -9.698458
v 26.289421 12.534607 0.000001
v 39.289421 35.051270 -0.000001
v 36.560383 36.626881 9.698456
v 16.415674 18.235218 15.692434
v 29.415674 40.751881 15.692432
v 7.584328 23.333998 15.692434
v 20.584326 45.850662 15.692432
v 0.000000 27.459000 9.698458
v 13.439615 49.975662 9.698456
v 4.429491 47.672104 0.000000
v 6.929491 52.002232 -0.000000
v 7.737414 45.762276 -11.755705
v 10.237414 50.092403 -11.755705
v 16.397667 40.762276 -19.021132
v 18.897667 45.092403 -19.021132
v 27.102331 34.581936 -19.021132
v 29.602331 38.912064 -19.021132
v 35.762585 29.581936 -11.755705
v 38.262585 33.912064 -11.755705
v 39.070511 27.672108 0.000000
v 41.570511 32.002235 -0.000000
v 35.762585 29.581936 11.755705
v 38.262585 33.912064 11.755705
v 27.102333 34.581936 19.021132
v 29.602333 38.912064 19.021132
v 16.397669 40.762276 19.021132
v 18.897669 45.092403 19.021132
v 7.737414 45.762276 11.755705
v 10.237414 50.092403 11.755705
v -26.289417 12.534607 0.000001
v -39.289421 35.051270 -0.000001
v -23.780191 13.729499 -9.698456
v -36.560383 36.626877 -9.698458
v -16.415672 18.235218 -15.692432
v -29.415674 40.751877 -15.692434
v -7.584326 23.333998 -15.692432
v -20.584328 45.850658 -15.692434
v -13.439618 49.975658 -9.698458
v 2.289421 29.034609 0.000001
v -10.710582 51.551270 -0.000001
v -13.439618 49.975662 9.698456
v -7.584326 23.334000 15.692434
v -20.584328 45.850658 15.692432
v -16.415672 18.235218 15.692434
v -29.415674 40.751877 15.692432
v -23.780193 13.729500 9.698458
v -36.560383 36.626877 9.698456
v -39.070507 27.672106 0.000000
v -41.570507 32.002232 -0.000000
v -35.762585 29.581936 -11.755705
v -38.262585 33.912064 -11.755705
v -27.102331 34.581936 -19.021132
v -29.602331 38.912064 -19.021132
v -16.397669 40.762276 -19.021132
v -18.897669 45.092403 -19.021132
v -7.737415 45.762276 -11.755705
v -10.237415 50.092403 -11.755705
v -4.429493 47.672108 0.000000
v -6.929493 52.002235 -0.000000
v -7.737415 45.762276 11.755705
v -10.237415 50.092403 11.755705
v -16.397669 40.762276 19.021132
v -18.897669 45.092403 19.021132
v -27.102331 34.581936 19.021132
v -29.602331 38.912064 19.021132
v -35.762585 29.581936 11.755705
v -38.262585 33.912064 11.755705
v -23.999998 -16.499998 0.000001
v -50.000000 -16.500002 -0.000001
v -23.780191 -13.729499 -9.698456
v -50.000000 -13.348782 -9.698458
v -24.000000 -5.098780 -15.692432
v -50.000000 -5.098782 -15.692434
v -24.000000 5.098782 -15.692432
v -50.000000 5.098780 -15.692434
v -50.000000 13.348780 -9.698458
v -24.000002 16.500002 0.000001
v -50.000000 16.499998 -0.000001
v -50.000000 13.348780 9.698456
v -24.000000 5.098782 15.692434
v -50.000000 5.098780 15.692432
v -24.000000 -5.098780 15.692434
v -50.000000 -5.098782 15.692432
v -23.780193 -13.729499 9.698458
v -50.000000 -13.348782 9.698456
v -43.500000 -20.000000 0.000000
v -48.500000 -20.000000 -0.000000
v -43.500000 -16.180340 -11.755705
v -48.500000 -16.180340 -11.755705
v -43.500000 -6.180340 -19.021132
v -48.500000 -6.180340 -19.021132
v -43.500000 6.180340 -19.021132
v -48.500000 6.180340 -19.021132
v -43.500000 16.180340 -11.755705
v -48.500000 16.180340 -11.755705
v -43.500000 20.000000 0.000000
v -48.500000 20.000000 -0.000000
v -43.500000 16.180340 11.755705
v -48.500000 16.180340 11.755705
v -43.500000 6.180340 19.021132
v -48.500000 6.180340 19.021132
v -43.500000 -6.180340 19.021132
v -48.500000 -6.180340 19.021132
v -43.500000 -16.180340 11.755705
v -48.500000 -16.180340 11.755705
v 2.289419 -29.034605 0.000001
v -10.710579 -51.551270 -0.000001
v 0.000000 -27.458996 -9.698456
v -13.439615 -49.975658 -9.698458
v -7.584327 -23.333996 -15.692432
v -20.584324 -45.850658 -15.692434
v -16.415674 -18.235216 -15.692432
v -29.415672 -40.751877 -15.692434
v -36.560383 -36.626881 -9.698458
v -26.289421 -12.534609 0.000001
v -39.289421 -35.051270 -0.000001
v -36.560383 -36.626881 9.698456
v -16.415676 -18.235218 15.692434
v -29.415672 -40.751881 15.692432
v -7.584328 -23.333998 15.692434
v -20.584326 -45.850662 15.692432
v 0.000000 -27.458996 9.698458
v -13.439615 -49.975658 9.698456
v -4.429491 -47.672104 0.000000
v -6.929491 -52.002232 -0.000000
v -7.737414 -45.762276 -11.755705
v -10.237414 -50.092400 -11.755705
v -16.397667 -40.762276 -19.021132
v -18.897667 -45.092403 -19.021132
v -27.102331 -34.581936 -19.021132
v -29.602331 -38.912064 -19.021132
v -35.762585 -29.581938 -11.755705
v -38.262585 -33.912064 -11.755705
v -39.070511 -27.672108 0.000000
v -41.570511 -32.002235 -0.000000
v -35.762585 -29.581938 11.755705
v -38.262585 -33.912064 11.755705
v -27.102333 -34.581936 19.021132
v -29.602333 -38.912064 19.021132
v -16.397669 -40.762276 19.021132
v -18.897669 -45.092403 19.021132
v -7.737414 -45.762276 11.755705
v -10.237414 -50.092400 11.755705
v 26.289421 -12.534609 0.000001
v 39.289421 -35.051270 -0.000001
v 36.560383 -36.626881 -9.698458
v 16.415674 -18.235216 -15.692432
v 29.415672 -40.751877 -15.692434
v 7.584327 -23.333996 -15.692432
v 20.584324 -45.850658 -15.692434
v 13.439615 -49.975658 -9.698458
v -2.289419 -29.034605 0.000001
v 10.710579 -51.551270 -0.000001
v 13.439615 -49.975658 9.698456
v 7.584328 -23.333998 15.692434
v 20.584326 -45.850662 15.692432
v 16.415676 -18.235218 15.692434
v 29.415672 -40.751881 15.692432
v 36.560383 -36.626881 9.698456
v 39.070511 -27.672108 0.000000
v 41.570511 -32.002235 -0.000000
v 35.762585 -29.581938 -11.755705
v 38.262585 -33.912064 -11.755705
v 27.102331 -34.581936 -19.021132
v 29.602331 -38.912064 -19.021132
v 16.397667 -40.762276 -19.021132
v 18.897667 -45.092403 -19.021132
v 7.737414 -45.762276 -11.755705
v 10.237414 -50.092400 -11.755705
v 4.429491 -47.672104 0.000000
v 6.929491 -52.002232 -0.000000
v 7.737414 -45.762276 11.755705
v 10.237414 -50.092400 11.755705
v 16.397669 -40.762276 19.021132
v 18.897669 -45.092403 19.021132
v 27.102333 -34.581936 19.021132
v 29.602333 -38.912064 19.021132
v 35.762585 -29.581938 11.755705
v 38.262585 -33.912064 11.755705
v 0.000000 28.000000 -7.000000
v 10.715137 25.868626 -7.000000
v 10.715137 25.868626 7.000000
v 0.000000 28.000000 7.000000
v 19.798990 19.798990 -7.000000
v 19.798990 19.798990 7.000000
v 25.868626 10.715137 -7.000000
v 25.868626 10.715137 7.000000
v 28.000000 0.000000 -7.000000
v 28.000000 0.000000 7.000000
v 25.868626 -10.715137 -7.000000
v 25.868626 -10.715137 7.000000
v 19.798990 -19.798990 -7.000000
v 19.798990 -19.798990 7.000000
v 10.715137 -25.868626 -7.000000
v 10.715137 -25.868626 7.000000
v 0.000000 -28.000000 -7.000000
v 0.000000 -28.000000 7.000000
v -10.715137 -25.868626 -7.000000
v -10.715137 -25.868626 7.000000
v -19.798990 -19.798990 -7.000000
v -19.798990 -19.798990 7.000000
v -25.868626 -10.715137 -7.000000
v -25.868626 -10.715137 7.000000
v -28.000000 0.000000 -7.000000
v -28.000000 0.000000 7.000000
v -25.868626 10.715137 -7.000000
v -25.868626 10.715137 7.000000
v -19.798990 19.798990 -7.000000
v -19.798990 19.798990 7.000000
v -10.715137 25.868626 -7.000000
v -10.715137 25.868626 7.000000
v 0.000000 14.560000 6.000000
v 5.571871 13.451686 6.000000
v 5.571871 13.451686 12.000000
v 0.000000 14.560000 12.000000
v 10.295475 10.295475 6.000000
v 10.295475 10.295475 12.000000
v 13.451686 5.571871 6.000000
v 13.451686 5.571871 12.000000
v 14.560000 0.000000 6.000000
v 14.560000 0.000000 12.000000
v 13.451686 -5.571871 6.000000
v 13.451686 -5.571871 12.000000
v 10.295475 -10.295475 6.000000
v 10.295475 -10.295475 12.000000
v 5.571871 -13.451686 6.000000
v 5.571871 -13.451686 12.000000
v 0.000000 -14.560000 6.000000
v 0.000000 -14.560000 12.000000
v -5.571871 -13.451686 6.000000
v -5.571871 -13.451686 12.000000
v -10.295475 -10.295475 6.000000
v -10.295475 -10.295475 12.000000
v -13.451686 -5.571871 6.000000
v -13.451686 -5.571871 12.000000
v -14.560000 0.000000 6.000000
v -14.560000 0.000000 12.000000
v -13.451686 5.571871 6.000000
v -13.451686 5.571871 12.000000
v -10.295475 10.295475 6.000000
v -10.295475 10.295475 12.000000
v -5.571871 13.451686 6.000000
v -5.571871 13.451686 12.000000
v 0.000000 14.560000 -12.000000
v 5.571871 13.451686 -12.000000
v 5.571871 13.451686 -6.000000
v 0.000000 14.560000 -6.000000
v 10.295475 10.295475 -12.000000
v 10.295475 10.295475 -6.000000
v 13.451686 5.571871 -12.000000
v 13.451686 5.571871 -6.000000
v 14.560000 0.000000 -12.000000
v 14.560000 0.000000 -6.000000
v 13.451686 -5.571871 -12.000000
v 13.451686 -5.571871 -6.000000
v 10.295475 -10.295475 -12.000000
v 10.295475 -10.295475 -6.000000
v 5.571871 -13.451686 -12.000000
v 5.571871 -13.451686 -6.000000
v 0.000000 -14.560000 -12.000000
v 0.000000 -14.560000 -6.000000
v -5.571871 -13.451686 -12.000000
v -5.571871 -13.451686 -6.000000
v -10.295475 -10.295475 -12.000000
v -10.295475 -10.295475 -6.000000
v -13.451686 -5.571871 -12.000000
v -13.451686 -5.571871 -6.000000
v -14.560000 0.000000 -12.000000
v -14.560000 0.000000 -6.000000
v -13.451686 5.571871 -12.000000
v -13.451686 5.571871 -6.000000
v -10.295475 10.295475 -12.000000
v -10.295475 10.295475 -6.000000
v -5.571871 13.451686 -12.000000
v -5.571871 13.451686 -6.000000
v 0.000000 29.200001 -1.000000
v 11.174357 26.977282 -1.000000
v 11.174357 26.977282 1.000000
v 0.000000 29.200001 1.000000
v 20.647518 20.647518 -1.000000
v 20.647518 20.647518 1.000000
v 26.977282 11.174357 -1.000000
v 26.977282 11.174357 1.000000
v 29.200001 0.000000 -1.000000
v 29.200001 0.000000 1.000000
v 26.977282 -11.174357 -1.000000
v 26.977282 -11.174357 1.000000
v 20.647518 -20.647518 -1.000000
v 20.647518 -20.647518 1.000000
v 11.174357 -26.977282 -1.000000
v 11.174357 -26.977282 1.000000
v 0.000000 -29.200001 -1.000000
v 0.000000 -29.200001 1.000000
v -11.174357 -26.977282 -1.000000
v -11.174357 -26.977282 1.000000
v -20.647518 -20.647518 -1.000000
v -20.647518 -20.647518 1.000000
v -26.977282 -11.174357 -1.000000
v -26.977282 -11.174357 1.000000
v -29.200001 0.000000 -1.000000
v -29.200001 0.000000 1.000000
v -26.977282 11.174357 -1.000000
v -26.977282 11.174357 1.000000
v -20.647518 20.647518 -1.000000
v -20.647518 20.647518 1.000000
v -11.174357 26.977282 -1.000000
v -11.174357 26.977282 1.000000
v 24.000000 16.500000 0.000001
v 23.780193 13.729498 -9.698456
v 23.780193 13.729498 -9.698456
v 23.780193 13.729498 -9.698456
v 23.780193 13.729498 -9.698456
v 23.780193 13.729498 -9.698456
v 50.000000 13.348781 -9.698458
v 50.000000 13.348781 -9.698458
v 50.000000 16.500000 -0.000001
v 24.000000 5.098781 -15.692432
v 24.000000 5.098781 -15.692432
v 50.000000 5.098781 -15.692434
v 50.000000 5.098781 -15.692434
v 24.000000 -5.098781 -15.692432
v 24.000000 -5.098781 -15.692432
v 50.000000 -5.098781 -15.692434
v 50.000000 -5.098781 -15.692434
v 23.780193 -13.729500 -9.698456
v 23.780193 -13.729500 -9.698456
v 23.780193 -13.729500 -9.698456
v 23.780193 -13.729500 -9.698456
v 23.780193 -13.729500 -9.698456
v 50.000000 -13.348781 -9.698458
v 50.000000 -13.348781 -9.698458
v 24.000000 -16.500000 0.000001
v 50.000000 -16.500000 -0.000001
v 23.780193 -13.729500 9.698458
v 23.780193 -13.729500 9.698458
v 23.780193 -13.729500 9.698458
v 23.780193 -13.729500 9.698458
v 23.780193 -13.729500 9.698458
v 50.000000 -13.348781 9.698456
v 50.000000 -13.348781 9.698456
v 24.000000 -5.098781 15.692434
v 24.000000 -5.098781 15.692434
v 50.000000 -5.098781 15.692432
v 50.000000 -5.098781 15.692432
v 24.000000 5.098781 15.692434
v 24.000000 5.098781 15.692434
v 50.000000 5.098781 15.692432
v 50.000000 5.098781 15.692432
v 23.780193 13.729500 9.698458
v 23.780193 13.729500 9.698458
v 23.780193 13.729500 9.698458
v 23.780193 13.729500 9.698458
v 23.780193 13.729500 9.698458
v 50.000000 13.348781 9.698456
v 50.000000 13.348781 9.698456
v 43.500000 20.000000 0.000000
v 43.500000 20.000000 0.000000
v 43.500000 16.180340 -11.755705
v 43.500000 16.180340 -11.755705
v 48.500000 16.180340 -11.755705
v 48.500000 16.180340 -11.755705
v 48.500000 20.000000 -0.000000
v 48.500000 20.000000 -0.000000
v 43.500000 6.180340 -19.021132
v 43.500000 6.180340 -19.021132
v 48.500000 6.180340 -19.021132
v 48.500000 6.180340 -19.021132
v 43.500000 -6.180340 -19.021132
v 43.500000 -6.180340 -19.021132
v 48.500000 -6.180340 -19.021132
v 48.500000 -6.180340 -19.021132
v 43.500000 -16.180340 -11.755705
v 43.500000 -16.180340 -11.755705
v 48.500000 -16.180340 -11.755705
v 48.500000 -16.180340 -11.755705
v 43.500000 -20.000000 0.000000
v 43.500000 -20.000000 0.000000
v 48.500000 -20.000000 -0.000000
v 48.500000 -20.000000 -0.000000
v 43.500000 -16.180340 11.755705
v 43.500000 -16.180340 11.755705
v 48.500000 -16.180340 11.755705
v 48.500000 -16.180340 11.755705
v 43.500000 -6.180340 19.021132
v 43.500000 -6.180340 19.021132
v 48.500000 -6.180340 19.021132
v 48.500000 -6.180340 19.021132
v 43.500000 6.180340 19.021132
v 43.500000 6.180340 19.021132
v 48.500000 6.180340 19.021132
v 48.500000 6.180340 19.021132
v 43.500000 16.180340 11.755705
v 43.500000 16.180340 11.755705
v 48.500000 16.180340 11.755705
v 48.500000 16.180340 11.755705
v -2.289419 29.034607 0.000001
v 0.000000 27.458998 -9.698456
v 0.000000 27.458998 -9.698456
v 0.000000 27.458998 -9.698456
v 0.000000 27.458998 -9.698456
v 0.000000 27.458998 -9.698456
v 13.439615 49.975658 -9.698458
v 13.439615 49.975658 -9.698458
v 10.710579 51.551270 -0.000001
v 7.584326 23.333996 -15.692432
v 7.584326 23.333996 -15.692432
v 20.584326 45.850658 -15.692434
v 20.584326 45.850658 -15.692434
v 16.415674 18.235216 -15.692432
v 16.415674 18.235216 -15.692432
v 29.415672 40.751877 -15.692434
v 29.415672 40.751877 -15.692434
v 36.560383 36.626881 -9.698458
v 36.560383 36.626881 -9.698458
v 26.289421 12.534607 0.000001
v 39.289421 35.051270 -0.000001
v 36.560383 36.626881 9.698456
v 36.560383 36.626881 9.698456
v 16.415674 18.235218 15.692434
v 16.415674 18.235218 15.692434
v 29.415674 40.751881 15.692432
v 29.415674 40.751881 15.692432
v 7.584328 23.333998 15.692434
v 7.584328 23.333998 15.692434
v 20.584326 45.850662 15.692432
v 20.584326 45.850662 15.692432
v 0.000000 27.459000 9.698458
v 0.000000 27.459000 9.698458
v 0.000000 27.459000 9.698458
v 0.000000 27.459000 9.698458
v 0.000000 27.459000 9.698458
v 13.439615 49.975662 9.698456
v 13.439615 49.975662 9.698456
v 4.429491 47.672104 0.000000
v 4.429491 47.672104 0.000000
v 7.737414 45.762276 -11.755705
v 7.737414 45.762276 -11.755705
v 10.237414 50.092403 -11.755705
v 10.237414 50.092403 -11.755705
v 6.929491 52.002232 -0.000000
v 6.929491 52.002232 -0.000000
v 16.397667 40.762276 -19.021132
v 16.397667 40.762276 -19.021132
v 18.897667 45.092403 -19.021132
v 18.897667 45.092403 -19.021132
v 27.102331 34.581936 -19.021132
v 27.102331 34.581936 -19.021132
v 29.602331 38.912064 -19.021132
v 29.602331 38.912064 -19.021132
v 35.762585 29.581936 -11.755705
v 35.762585 29.581936 -11.755705
v 38.262585 33.912064 -11.755705
v 38.262585 33.912064 -11.755705
v 39.070511 27.672108 0.000000
v 39.070511 27.672108 0.000000
v 41.570511 32.002235 -0.000000
v 41.570511 32.002235 -0.000000
v 35.762585 29.581936 11.755705
v 35.762585 29.581936 11.755705
v 38.262585 33.912064 11.755705
v 38.262585 33.912064 11.755705
v 27.102333 34.581936 19.021132
v 27.102333 34.581936 19.021132
v 29.602333 38.912064 19.021132
v 29.602333 38.912064 19.021132
v 16.397669 40.762276 19.021132
v 16.397669 40.762276 19.021132
v 18.897669 45.092403 19.021132
v 18.897669 45.092403 19.021132
v 7.737414 45.762276 11.755705
v 7.737414 45.762276 11.755705
v 10.237414 50.092403 11.755705
v 10.237414 50.092403 11.755705
v -26.289417 12.534607 0.000001
v -23.780191 13.729499 -9.698456
v -23.780191 13.729499 -9.698456
v -23.780191 13.729499 -9.698456
v -23.780191 13.729499 -9.698456
v -23.780191 13.729499 -9.698456
v -36.560383 36.626877 -9.698458
v -36.560383 36.626877 -9.698458
v -39.289421 35.051270 -0.000001
v -16.415672 18.235218 -15.692432
v -16.415672 18.235218 -15.692432
v -29.415674 40.751877 -15.692434
v -29.415674 40.751877 -15.692434
v -7.584326 23.333998 -15.692432
v -7.584326 23.333998 -15.692432
v -20.584328 45.850658 -15.692434
v -20.584328 45.850658 -15.692434
v -13.439618 49.975658 -9.698458
v -13.439618 49.975658 -9.698458
v 2.289421 29.034609 0.000001
v -10.710582 51.551270 -0.000001
v -13.439618 49.975662 9.698456
v -13.439618 49.975662 9.698456
v -7.584326 23.334000 15.692434
v -7.584326 23.334000 15.692434
v -20.584328 45.850658 15.692432
v -20.584328 45.850658 15.692432
v -16.415672 18.235218 15.692434
v -16.415672 18.235218 15.692434
v -29.415674 40.751877 15.692432
v -29.415674 40.751877 15.692432
v -23.780193 13.729500 9.698458
v -23.780193 13.729500 9.698458
v -23.780193 13.729500 9.698458
v -23.780193 13.729500 9.698458
v -23.780193 13.729500 9.698458
v -36.560383 36.626877 9.698456
v -36.560383 36.626877 9.698456
v -39.070507 27.672106 0.000000
v -39.070507 27.672106 0.000000
v -35.762585 29.581936 -11.755705
v -35.762585 29.581936 -11.755705
v -38.262585 33.912064 -11.755705
v -38.262585 33.912064 -11.755705
v -41.570507 32.002232 -0.000000
v -41.570507 32.002232 -0.000000
v -27.102331 34.581936 -19.021132
v -27.102331 34.581936 -19.021132
v -29.602331 38.912064 -19.021132
v -29.602331 38.912064 -19.021132
v -16.397669 40.762276 -19.021132
v -16.397669 40.762276 -19.021132
v -18.897669 45.092403 -19.021132
v -18.897669 45.092403 -19.021132
v -7.737415 45.762276 -11.755705
v -7.737415 45.762276 -11.755705
v -10.237415 50.092403 -11.755705
v -10.237415 50.092403 -11.755705
v -4.429493 47.672108 0.000000
v -4.429493 47.672108 0.000000
v -6.929493 52.002235 -0.000000
v -6.929493 52.002235 -0.000000
v -7.737415 45.762276 11.755705
v -7.737415 45.762276 11.755705
v -10.237415 50.092403 11.755705
v -10.237415 50.092403 11.755705
v -16.397669 40.762276 19.021132
v -16.397669 40.762276 19.021132
v -18.897669 45.092403 19.021132
v -18.897669 45.092403 19.021132
v -27.102331 34.581936 19.021132
v -27.102331 34.581936 19.021132
v -29.602331 38.912064 19.021132
v -29.602331 38.912064 19.021132
v -35.762585 29.581936 11.755705
v -35.762585 29.581936 11.755705
v -38.262585 33.912064 11.755705
v -38.262585 33.912064 11.755705
v -23.999998 -16.499998 0.000001
v -23.780191 -13.729499 -9.698456
v -23.780191 -13.729499 -9.698456
v -23.780191 -13.729499 -9.698456
v -23.780191 -13.729499 -9.698456
v -23.780191 -13.729499 -9.698456
v -50.000000 -13.348782 -9.698458
v -50.000000 -13.348782 -9.698458
v -50.000000 -16.500002 -0.000001
v -24.000000 -5.098780 -15.692432
v -24.000000 -5.098780 -15.692432
v -50.000000 -5.098782 -15.692434
v -50.000000 -5.098782 -15.692434
v -24.000000 5.098782 -15.692432
v -24.000000 5.098782 -15.692432
v -50.000000 5.098780 -15.692434
v -50.000000 5.098780 -15.692434
v -50.000000 13.348780 -9.698458
v -50.000000 13.348780 -9.698458
v -24.000002 16.500002 0.000001
v -50.000000 16.499998 -0.000001
v -50.000000 13.348780 9.698456
v -50.000000 13.348780 9.698456
v -24.000000 5.098782 15.692434
v -24.000000 5.098782 15.692434
v -50.000000 5.098780 15.692432
v -50.000000 5.098780 15.692432
v -24.000000 -5.098780 15.692434
v -24.000000 -5.098780 15.692434
v -50.000000 -5.098782 15.692432
v -50.000000 -5.098782 15.692432
v -23.780193 -13.729499 9.698458
v -23.780193 -13.729499 9.698458
v -23.780193 -13.729499 9.698458
v -23.780193 -13.729499 9.698458
v -23.780193 -13.729499 9.698458
v -50.000000 -13.348782 9.698456
v -50.000000 -13.348782 9.698456
v -43.500000 -20.000000 0.000000
v -43.500000 -20.000000 0.000000
v -43.500000 -16.180340 -11.755705
v -43.500000 -16.180340 -11.755705
v -48.500000 -16.180340 -11.755705
v -48.500000 -16.180340 -11.755705
v -48.500000 -20.000000 -0.000000
v -48.500000 -20.000000 -0.000000
v -43.500000 -6.180340 -19.021132
v -43.500000 -6.180340 -19.021132
v -48.500000 -6.180340 -19.021132
v -48.500000 -6.180340 -19.021132
v -43.500000 6.180340 -19.021132
v -43.500000 6.180340 -19.021132
v -48.500000 6.180340 -19.021132
v -48.500000 6.180340 -19.021132
v -43.500000 16.180340 -11.755705
v -43.500000 16.180340 -11.755705
v -48.500000 16.180340 -11.755705
v -48.500000 16.180340 -11.755705
v -43.500000 20.000000 0.000000
v -43.500000 20.000000 0.000000
v -48.500000 20.000000 -0.000000
v -48.500000 20.000000 -0.000000
v -43.500000 16.180340 11.755705
v -43.500000 16.180340 11.755705
v -48.500000 16.180340 11.755705
v -48.500000 16.180340 11.755705
v -43.500000 6.180340 19.021132
v -43.500000 6.180340 19.021132
v -48.500000 6.180340 19.021132
v -48.500000 6.180340 19.021132
v -43.500000 -6.180340 19.021132
v -43.500000 -6.180340 19.021132
v -48.500000 -6.180340 19.021132
v -48.500000 -6.180340 19.021132
v -43.500000 -16.180340 11.755705
v -43.500000 -16.180340 11.755705
v -48.500000 -16.180340 11.755705
v -48.500000 -16.180340 11.755705
v 2.289419 -29.034605 0.000001
v 0.000000 -27.458996 -9.698456
v 0.000000 -27.458996 -9.698456
v 0.000000 -27.458996 -9.698456
v 0.000000 -27.458996 -9.698456
v 0.000000 -27.458996 -9.698456
v -13.439615 -49.975658 -9.698458
v -13.439615 -49.975658 -9.698458
v -10.710579 -51.551270 -0.000001
v -7.584327 -23.333996 -15.692432
v -7.584327 -23.333996 -15.692432
v -20.584324 -45.850658 -15.692434
v -20.584324 -45.850658 -15.692434
v -16.415674 -18.235216 -15.692432
v -16.415674 -18.235216 -15.692432
v -29.415672 -40.751877 -15.692434
v -29.415672 -40.751877 -15.692434
v -36.560383 -36.626881 -9.698458
v -36.560383 -36.626881 -9.698458
v -26.289421 -12.534609 0.000001
v -39.289421 -35.051270 -0.000001
v -36.560383 -36.626881 9.698456
v -36.560383 -36.626881 9.698456
v -16.415676 -18.235218 15.692434
v -16.415676 -18.235218 15.692434
v -29.415672 -40.751881 15.692432
v -29.415672 -40.751881 15.692432
v -7.584328 -23.333998 15.692434
v -7.584328 -23.333998 15.692434
v -20.584326 -45.850662 15.692432
v -20.584326 -45.850662 15.692432
v 0.000000 -27.458996 9.698458
v 0.000000 -27.458996 9.698458
v 0.000000 -27.458996 9.698458
v 0.000000 -27.458996 9.698458
v 0.000000 -27.458996 9.698458
v -13.439615 -49.975658 9.698456
v -13.439615 -49.975658 9.698456
v -4.429491 -47.672104 0.000000
v -4.429491 -47.672104 0.000000
v -7.737414 -45.762276 -11.755705
v -7.737414 -45.762276 -11.755705
v -10.237414 -50.092400 -11.755705
v -10.237414 -50.092400 -11.755705
v -6.929491 -52.002232 -0.000000
v -6.929491 -52.002232 -0.000000
v -16.397667 -40.762276 -19.021132
v -16.397667 -40.762276 -19.021132
v -18.897667 -45.092403 -19.021132
v -18.897667 -45.092403 -19.021132
v -27.102331 -34.581936 -19.021132
v -27.102331 -34.581936 -19.021132
v -29.602331 -38.912064 -19.021132
v -29.602331 -38.912064 -19.021132
v -35.762585 -29.581938 -11.755705
v -35.762585 -29.581938 -11.755705
v -38.262585 -33.912064 -11.755705
v -38.262585 -33.912064 -11.755705
v -39.070511 -27.672108 0.000000
v -39.070511 -27.672108 0.000000
v -41.570511 -32.002235 -0.000000
v -41.570511 -32.002235 -0.000000
v -35.762585 -29.581938 11.755705
v -35.762585 -29.581938 11.755705
v -38.262585 -33.912064 11.755705
v -38.262585 -33.912064 11.755705
v -27.102333 -34.581936 19.021132
v -27.102333 -34.581936 19.021132
v -29.602333 -38.912064 19.021132
v -29.602333 -38.912064 19.021132
v -16.397669 -40.762276 19.021132
v -16.397669 -40.762276 19.021132
v -18.897669 -45.092403 19.021132
v -18.897669 -45.092403 19.021132
v -7.737414 -45.762276 11.755705
v -7.737414 -45.762276 11.755705
v -10.237414 -50.092400 11.755705
v -10.237414 -50.092400 11.755705
v 26.289421 -12.534609 0.000001
v 36.560383 -36.626881 -9.698458
v 36.560383 -36.626881 -9.698458
v 39.289421 -35.051270 -0.000001
v 16.415674 -18.235216 -15.692432
v 16.415674 -18.235216 -15.692432
v 29.415672 -40.751877 -15.692434
v 29.415672 -40.751877 -15.692434
v 7.584327 -23.333996 -15.692432
v 7.584327 -23.333996 -15.692432
v 20.584324 -45.850658 -15.692434
v 20.584324 -45.850658 -15.692434
v 13.439615 -49.975658 -9.698458
v 13.439615 -49.975658 -9.698458
v -2.289419 -29.034605 0.000001
v 10.710579 -51.551270 -0.000001
v 13.439615 -49.975658 9.698456
v 13.439615 -49.975658 9.698456
v 7.584328 -23.333998 15.692434
v 7.584328 -23.333998 15.692434
v 20.584326 -45.850662 15.692432
v 20.584326 -45.850662 15.692432
v 16.415676 -18.235218 15.692434
v 16.415676 -18.235218 15.692434
v 29.415672 -40.751881 15.692432
v 29.415672 -40.751881 15.692432
v 36.560383 -36.626881 9.698456
v 36.560383 -36.626881 9.698456
v 39.070511 -27.672108 0.000000
v 39.070511 -27.672108 0.000000
v 35.762585 -29.581938 -11.755705
v 35.762585 -29.581938 -11.755705
v 38.262585 -33.912064 -11.755705
v 38.262585 -33.912064 -11.755705
v 41.570511 -32.002235 -0.000000
v 41.570511 -32.002235 -0.000000
v 27.102331 -34.581936 -19.021132
v 27.102331 -34.581936 -19.021132
v 29.602331 -38.912064 -19.021132
v 29.602331 -38.912064 -19.021132
v 16.397667 -40.762276 -19.021132
v 16.397667 -40.762276 -19.021132
v 18.897667 -45.092403 -19.021132
v 18.897667 -45.092403 -19.021132
v 7.737414 -45.762276 -11.755705
v 7.737414 -45.762276 -11.755705
v 10.237414 -50.092400 -11.755705
v 10.237414 -50.092400 -11.755705
v 4.429491 -47.672104 0.000000
v 4.429491 -47.672104 0.000000
v 6.929491 -52.002232 -0.000000
v 6.929491 -52.002232 -0.000000
v 7.737414 -45.762276 11.755705
v 7.737414 -45.762276 11.755705
v 10.237414 -50.092400 11.755705
v 10.237414 -50.092400 11.755705
v 16.397669 -40.762276 19.021132
v 16.397669 -40.762276 19.021132
v 18.897669 -45.092403 19.021132
v 18.897669 -45.092403 19.021132
v 27.102333 -34.581936 19.021132
v 27.102333 -34.581936 19.021132
v 29.602333 -38.912064 19.021132
v 29.602333 -38.912064 19.021132
v 35.762585 -29.581938 11.755705
v 35.762585 -29.581938 11.755705
v 38.262585 -33.912064 11.755705
v 38.262585 -33.912064 11.755705
vn -0.0000 -0.0000 -1.0000
vn -0.0000 -0.0000 1.0000
vn -0.3827 0.9239 -0.0000
vn -1.0000 -0.0000 -0.0000
vn 1.0000 -0.0000 -0.0000
vn -0.5000 -0.8660 -0.0000
vn -0.5000 0.8660 -0.0000
vn 0.0042 0.5790 0.8153
vn 0.0070 0.9564 0.2921
vn -0.0000 0.9511 0.3090
vn -0.0000 0.5878 0.8090
vn 0.5000 0.8660 -0.0000
vn 0.5000 -0.8660 -0.0000
vn -0.4994 0.2932 0.8153
vn -0.8248 0.4842 0.2921
vn -0.8236 0.4755 0.3090
vn -0.5090 0.2939 0.8090
vn -0.5036 -0.2859 0.8153
vn -0.8317 -0.4722 0.2921
vn -0.8236 -0.4755 0.3090
vn -0.5090 -0.2939 0.8090
vn -0.0042 -0.5790 0.8153
vn -0.0070 -0.9564 0.2921
vn -0.0000 -0.9511 0.3090
vn -0.0000 -0.5878 0.8090
vn 0.4994 -0.2932 0.8153
vn 0.8248 -0.4842 0.2921
vn 0.8236 -0.4755 0.3090
vn 0.5090 -0.2939 0.8090
vn 0.5036 0.2859 0.8153
vn 0.8317 0.4721 0.2921
vn 0.8236 0.4755 0.3090
vn 0.5090 0.2939 0.8090
vn -0.0000 1.0000 -0.0000
vn 0.3827 0.9239 -0.0000
vn 0.7071 0.7071 -0.0000
vn 0.9239 0.3827 -0.0000
vn 0.9239 -0.3827 -0.0000
vn 0.7071 -0.7071 -0.0000
vn 0.3827 -0.9239 -0.0000
vn -0.0000 -1.0000 -0.0000
vn -0.3827 -0.9239 -0.0000
vn -0.7071 -0.7071 -0.0000
vn -0.9239 -0.3827 -0.0000
vn -0.9239 0.3827 -0.0000
vn -0.7071 0.7071 -0.0000
vn 0.0073 1.0000 -0.0000
vn 0.0070 0.9564 -0.2921
vn 0.0042 0.5790 -0.8153
vn 0.5036 -0.2859 -0.8153
vn 0.8317 -0.4721 -0.2921
vn 0.0042 -0.5790 -0.8153
vn 0.0070 -0.9564 -0.2921
vn 0.8317 0.4721 -0.2921
vn 0.5036 0.2859 -0.8153
vn 0.0073 -1.0000 -0.0000
vn 0.0070 -0.9564 0.2921
vn 0.0042 -0.5790 0.8153
vn 0.8317 -0.4721 0.2921
vn 0.5036 -0.2859 0.8153
vn -0.0000 0.9511 -0.3090
vn -0.0000 0.5878 -0.8090
vn -0.0000 -0.5878 -0.8090
vn -0.0000 -0.9511 -0.3090
vn -0.8624 0.5063 -0.0000
vn -0.8248 0.4842 -0.2921
vn -0.4994 0.2932 -0.8153
vn 0.4994 0.2932 -0.8153
vn 0.8248 0.4842 -0.2921
vn 0.8696 -0.4937 -0.0000
vn 0.8317 -0.4722 0.2921
vn 0.8248 0.4842 0.2921
vn 0.4994 0.2932 0.8153
vn -0.8236 0.4755 -0.3090
vn -0.5090 0.2939 -0.8090
vn 0.5090 -0.2939 -0.8090
vn 0.8236 -0.4755 -0.3090
vn -0.8696 -0.4937 -0.0000
vn -0.8317 -0.4721 -0.2921
vn -0.5036 -0.2859 -0.8153
vn -0.0042 0.5790 -0.8153
vn -0.0070 0.9564 -0.2921
vn 0.8624 0.5063 -0.0000
vn -0.0070 0.9564 0.2921
vn -0.0042 0.5790 0.8153
vn -0.8236 -0.4755 -0.3090
vn -0.5090 -0.2939 -0.8090
vn 0.5090 0.2939 -0.8090
vn 0.8236 0.4755 -0.3090
vn -0.0073 -1.0000 -0.0000
vn -0.0070 -0.9564 -0.2921
vn -0.0042 -0.5790 -0.8153
vn -0.5036 0.2859 -0.8153
vn -0.8317 0.4721 -0.2921
vn -0.0073 1.0000 -0.0000
vn -0.8317 0.4721 0.2921
vn -0.5036 0.2859 0.8153
vn 0.8624 -0.5063 -0.0000
vn 0.8248 -0.4842 -0.2921
vn 0.4994 -0.2932 -0.8153
vn -0.4994 -0.2932 -0.8153
vn -0.8248 -0.4842 -0.2921
vn -0.8696 0.4937 -0.0000
vn -0.8248 -0.4842 0.2921
vn -0.4994 -0.2932 0.8153
vn 0.8696 0.4937 -0.0000
vn -0.8624 -0.5063 -0.0000
vt 0.217554 0.735844
vt 0.182566 0.735844
vt 0.182566 0.708542
vt 0.217554 0.708542
vt 0.182566 0.683412
vt 0.217554 0.683412
vt 0.152264 0.684750
vt 0.117276 0.684750
vt 0.117276 0.662049
vt 0.152264 0.662049
vt 0.117276 0.635270
vt 0.152264 0.635270
vt 0.117276 0.608492
vt 0.152264 0.608492
vt 0.117276 0.585790
vt 0.152264 0.585790
vt 0.278823 0.780639
vt 0.243835 0.780639
vt 0.243835 0.755509
vt 0.278823 0.755509
vt 0.243835 0.728207
vt 0.278823 0.728207
vt 0.243835 0.702890
vt 0.278823 0.702890
vt 0.243835 0.683412
vt 0.278823 0.683412
vt 0.773156 0.732158
vt 0.738168 0.732158
vt 0.738168 0.709457
vt 0.773156 0.709457
vt 0.738168 0.682678
vt 0.773156 0.682678
vt 0.738168 0.655900
vt 0.773156 0.655900
vt 0.738168 0.633198
vt 0.773156 0.633198
vt 0.212321 0.139954
vt 0.193015 0.120648
vt 0.182566 0.095423
vt 0.182566 0.068120
vt 0.193015 0.042895
vt 0.212321 0.023589
vt 0.237546 0.013141
vt 0.264849 0.013141
vt 0.290073 0.023589
vt 0.309379 0.042895
vt 0.319828 0.068120
vt 0.319828 0.095423
vt 0.309379 0.120648
vt 0.290073 0.139954
vt 0.264849 0.150402
vt 0.237545 0.150402
vt 0.217554 0.780639
vt 0.182566 0.780639
vt 0.182566 0.761161
vt 0.217554 0.761161
vt 0.193015 0.284191
vt 0.182566 0.258966
vt 0.182566 0.231663
vt 0.193015 0.206438
vt 0.212321 0.187132
vt 0.237545 0.176684
vt 0.264849 0.176684
vt 0.290073 0.187132
vt 0.309379 0.206438
vt 0.319828 0.231663
vt 0.319828 0.258966
vt 0.309379 0.284191
vt 0.290073 0.303497
vt 0.264849 0.313945
vt 0.237545 0.313945
vt 0.212321 0.303497
vt 0.320099 0.893523
vt 0.305104 0.893523
vt 0.305104 0.879326
vt 0.320099 0.879326
vt 0.305104 0.866258
vt 0.320099 0.866258
vt 0.482457 0.308573
vt 0.467463 0.308573
vt 0.467463 0.296768
vt 0.482457 0.296768
vt 0.467463 0.282844
vt 0.482457 0.282844
vt 0.467463 0.268919
vt 0.482457 0.268919
vt 0.467463 0.257114
vt 0.482457 0.257114
vt 0.607527 0.904621
vt 0.592533 0.904621
vt 0.592533 0.891553
vt 0.607527 0.891553
vt 0.592533 0.877356
vt 0.607527 0.877356
vt 0.592533 0.864191
vt 0.607527 0.864191
vt 0.592533 0.854063
vt 0.607527 0.854063
vt 0.523733 0.308573
vt 0.508738 0.308573
vt 0.508738 0.296768
vt 0.523733 0.296768
vt 0.508738 0.282844
vt 0.523733 0.282844
vt 0.508738 0.268919
vt 0.523733 0.268919
vt 0.508738 0.257114
vt 0.523733 0.257114
vt 0.592305 0.069044
vt 0.586872 0.055927
vt 0.586872 0.041730
vt 0.592305 0.028613
vt 0.602344 0.018574
vt 0.615461 0.013141
vt 0.629658 0.013141
vt 0.642775 0.018574
vt 0.652815 0.028613
vt 0.658248 0.041730
vt 0.658248 0.055927
vt 0.652815 0.069044
vt 0.642775 0.079084
vt 0.629658 0.084517
vt 0.615461 0.084517
vt 0.602344 0.079084
vt 0.320099 0.916816
vt 0.305104 0.916816
vt 0.305104 0.906688
vt 0.320099 0.906688
vt 0.649398 0.383013
vt 0.649398 0.368816
vt 0.654831 0.355699
vt 0.664870 0.345660
vt 0.677987 0.340226
vt 0.692185 0.340226
vt 0.705302 0.345660
vt 0.715341 0.355699
vt 0.720774 0.368816
vt 0.720774 0.383013
vt 0.715341 0.396130
vt 0.705302 0.406169
vt 0.692185 0.411603
vt 0.677987 0.411603
vt 0.664870 0.406169
vt 0.654831 0.396130
vt 0.361375 0.893523
vt 0.346380 0.893523
vt 0.346380 0.879326
vt 0.361375 0.879326
vt 0.346380 0.866258
vt 0.361375 0.866258
vt 0.515024 0.741642
vt 0.500029 0.741642
vt 0.500029 0.729837
vt 0.515024 0.729837
vt 0.500029 0.715912
vt 0.515024 0.715912
vt 0.500029 0.701987
vt 0.515024 0.701987
vt 0.500029 0.690182
vt 0.515024 0.690182
vt 0.914048 0.683757
vt 0.899054 0.683757
vt 0.899054 0.670689
vt 0.914048 0.670689
vt 0.899054 0.656492
vt 0.914048 0.656492
vt 0.899054 0.643327
vt 0.914048 0.643327
vt 0.899054 0.633198
vt 0.914048 0.633198
vt 0.884657 0.497561
vt 0.869662 0.497561
vt 0.869662 0.485756
vt 0.884657 0.485756
vt 0.869662 0.471831
vt 0.884657 0.471831
vt 0.869662 0.457906
vt 0.884657 0.457906
vt 0.869662 0.446101
vt 0.884657 0.446101
vt 0.654831 0.493787
vt 0.649398 0.480671
vt 0.649398 0.466473
vt 0.654831 0.453356
vt 0.664870 0.443317
vt 0.677987 0.437884
vt 0.692185 0.437884
vt 0.705302 0.443317
vt 0.715341 0.453356
vt 0.720774 0.466473
vt 0.720774 0.480671
vt 0.715341 0.493787
vt 0.705302 0.503827
vt 0.692185 0.509260
vt 0.677987 0.509260
vt 0.664870 0.503827
vt 0.361375 0.916816
vt 0.346380 0.916816
vt 0.346380 0.906688
vt 0.361375 0.906688
vt 0.649398 0.578328
vt 0.649398 0.564130
vt 0.654831 0.551013
vt 0.664870 0.540974
vt 0.677987 0.535541
vt 0.692185 0.535541
vt 0.705302 0.540974
vt 0.715341 0.551013
vt 0.720774 0.564130
vt 0.720774 0.578328
vt 0.715341 0.591445
vt 0.705302 0.601484
vt 0.692185 0.606917
vt 0.677987 0.606917
vt 0.664870 0.601484
vt 0.654831 0.591445
vt 0.922511 0.394906
vt 0.917512 0.394906
vt 0.917512 0.366434
vt 0.922511 0.366434
vt 0.917512 0.340226
vt 0.922511 0.340226
vt 0.393788 0.680852
vt 0.388790 0.680852
vt 0.388790 0.657178
vt 0.393788 0.657178
vt 0.388790 0.629252
vt 0.393788 0.629252
vt 0.388790 0.601325
vt 0.393788 0.601325
vt 0.388790 0.577651
vt 0.393788 0.577651
vt 0.922511 0.569296
vt 0.917513 0.569296
vt 0.917513 0.543089
vt 0.922511 0.543089
vt 0.917513 0.514617
vt 0.922511 0.514617
vt 0.917513 0.488215
vt 0.922511 0.488215
vt 0.917513 0.467902
vt 0.922511 0.467902
vt 0.069905 0.880198
vt 0.064907 0.880198
vt 0.064907 0.856523
vt 0.069905 0.856523
vt 0.064907 0.828597
vt 0.069905 0.828597
vt 0.064907 0.800671
vt 0.069905 0.800671
vt 0.064907 0.776997
vt 0.069905 0.776997
vt 0.024037 0.125255
vt 0.013141 0.098949
vt 0.013141 0.070476
vt 0.024037 0.044170
vt 0.044170 0.024037
vt 0.070476 0.013141
vt 0.098949 0.013141
vt 0.125255 0.024037
vt 0.145389 0.044170
vt 0.156285 0.070476
vt 0.156285 0.098949
vt 0.145389 0.125255
vt 0.125255 0.145389
vt 0.098949 0.156285
vt 0.070476 0.156285
vt 0.044170 0.145389
vt 0.922511 0.441621
vt 0.917512 0.441621
vt 0.917512 0.421308
vt 0.922511 0.421308
vt 0.013141 0.268375
vt 0.013141 0.239902
vt 0.024037 0.213596
vt 0.044170 0.193462
vt 0.070476 0.182566
vt 0.098949 0.182566
vt 0.125255 0.193462
vt 0.145389 0.213596
vt 0.156285 0.239902
vt 0.156285 0.268375
vt 0.145389 0.294681
vt 0.125255 0.314814
vt 0.098949 0.325711
vt 0.070476 0.325711
vt 0.044170 0.314814
vt 0.024037 0.294681
vt 0.449511 0.690182
vt 0.449511 0.754022
vt 0.425273 0.755489
vt 0.425273 0.690933
vt 0.911120 0.850247
vt 0.910169 0.915774
vt 0.889551 0.915774
vt 0.889551 0.850797
vt 0.570167 0.762804
vt 0.570167 0.827782
vt 0.544682 0.827782
vt 0.544682 0.762804
vt 0.870080 0.305454
vt 0.870080 0.240476
vt 0.890698 0.240476
vt 0.891649 0.306003
vt 0.305104 0.747968
vt 0.305104 0.683412
vt 0.329342 0.684879
vt 0.329342 0.748718
vt 0.353579 0.683412
vt 0.353579 0.747968
vt 0.903461 0.013141
vt 0.902510 0.078667
vt 0.881892 0.078667
vt 0.881892 0.013690
vt 0.596448 0.827782
vt 0.596448 0.762804
vt 0.621933 0.762804
vt 0.621933 0.827782
vt 0.608137 0.414822
vt 0.583899 0.422697
vt 0.559662 0.414822
vt 0.544682 0.394204
vt 0.544682 0.368719
vt 0.559662 0.348102
vt 0.583899 0.340226
vt 0.608137 0.348102
vt 0.623117 0.368719
vt 0.623117 0.394204
vt 0.885581 0.200738
vt 0.885581 0.135761
vt 0.906199 0.135761
vt 0.907150 0.201287
vt 0.473748 0.690933
vt 0.473748 0.755489
vt 0.583899 0.448979
vt 0.608137 0.455903
vt 0.623117 0.477472
vt 0.623117 0.502957
vt 0.608137 0.524526
vt 0.583899 0.531450
vt 0.559662 0.524526
vt 0.544682 0.502957
vt 0.544682 0.477472
vt 0.559662 0.455903
vt 0.182566 0.898728
vt 0.194821 0.899470
vt 0.194821 0.928903
vt 0.182566 0.928161
vt 0.854196 0.967046
vt 0.841700 0.967046
vt 0.841700 0.942055
vt 0.854196 0.942055
vt 0.515322 0.903919
vt 0.502827 0.903919
vt 0.502827 0.873029
vt 0.515322 0.873029
vt 0.892973 0.967046
vt 0.880477 0.967046
vt 0.880477 0.942055
vt 0.892973 0.942055
vt 0.233356 0.928161
vt 0.221102 0.928903
vt 0.221102 0.899470
vt 0.233356 0.898728
vt 0.271892 0.928903
vt 0.259637 0.928161
vt 0.259637 0.898728
vt 0.271892 0.899470
vt 0.305104 0.943097
vt 0.317600 0.943097
vt 0.317600 0.968089
vt 0.305104 0.968089
vt 0.697248 0.881577
vt 0.709744 0.881577
vt 0.709744 0.912468
vt 0.697248 0.912468
vt 0.259481 0.430646
vt 0.230102 0.440191
vt 0.200723 0.430646
vt 0.182566 0.405654
vt 0.182566 0.374763
vt 0.200723 0.349772
vt 0.230102 0.340226
vt 0.259481 0.349772
vt 0.277638 0.374763
vt 0.277638 0.405654
vt 0.343881 0.943097
vt 0.356376 0.943097
vt 0.356376 0.968089
vt 0.343881 0.968089
vt 0.917930 0.241218
vt 0.930185 0.240476
vt 0.930185 0.269909
vt 0.917930 0.270651
vt 0.351456 0.340226
vt 0.380835 0.349772
vt 0.398992 0.374763
vt 0.398992 0.405654
vt 0.380835 0.430646
vt 0.351456 0.440191
vt 0.322077 0.430646
vt 0.303920 0.405654
vt 0.303920 0.374763
vt 0.322077 0.349772
vt 0.771293 0.430655
vt 0.771293 0.486927
vt 0.747055 0.482989
vt 0.747055 0.426717
vt 0.863270 0.758440
vt 0.862318 0.823966
vt 0.841700 0.823966
vt 0.841700 0.758989
vt 0.763653 0.758440
vt 0.763653 0.823417
vt 0.738168 0.823417
vt 0.738168 0.758440
vt 0.204135 0.807470
vt 0.204135 0.872447
vt 0.183518 0.872447
vt 0.182566 0.806920
vt 0.013141 0.747729
vt 0.013141 0.690506
vt 0.037378 0.694444
vt 0.037378 0.750715
vt 0.061616 0.690506
vt 0.061616 0.747729
vt 0.154119 0.351992
vt 0.153167 0.417518
vt 0.132550 0.417518
vt 0.132550 0.352541
vt 0.330589 0.775000
vt 0.330589 0.839977
vt 0.305104 0.839977
vt 0.305104 0.775000
vt 0.324093 0.657130
vt 0.300351 0.648239
vt 0.285678 0.627565
vt 0.285678 0.603004
vt 0.300351 0.583939
vt 0.324093 0.577651
vt 0.347835 0.586542
vt 0.362508 0.607216
vt 0.362508 0.631777
vt 0.347835 0.650842
vt 0.843799 0.241026
vt 0.843799 0.306003
vt 0.823181 0.306003
vt 0.822230 0.240476
vt 0.795531 0.426717
vt 0.795531 0.482989
vt 0.711887 0.672416
vt 0.706999 0.696653
vt 0.690297 0.711633
vt 0.670987 0.711633
vt 0.655003 0.696653
vt 0.649398 0.672416
vt 0.655003 0.648178
vt 0.670987 0.633198
vt 0.690297 0.633198
vt 0.706999 0.648178
vt 0.937401 0.760175
vt 0.948083 0.758440
vt 0.948083 0.788204
vt 0.937401 0.789939
vt 0.968962 0.265468
vt 0.956466 0.265468
vt 0.956466 0.240476
vt 0.968962 0.240476
vt 0.358605 0.296524
vt 0.346109 0.296524
vt 0.346109 0.265633
vt 0.358605 0.265633
vt 0.557178 0.970862
vt 0.544682 0.970862
vt 0.544682 0.945871
vt 0.557178 0.945871
vt 0.023822 0.955191
vt 0.013141 0.956926
vt 0.013141 0.927162
vt 0.023822 0.925427
vt 0.959473 0.371726
vt 0.948792 0.369991
vt 0.948792 0.340226
vt 0.959473 0.341962
vt 0.738168 0.941506
vt 0.750664 0.941506
vt 0.750664 0.966497
vt 0.738168 0.966497
vt 0.384886 0.265633
vt 0.397382 0.265633
vt 0.397382 0.296524
vt 0.384886 0.296524
vt 0.471837 0.559185
vt 0.443059 0.548408
vt 0.425273 0.523348
vt 0.425273 0.493578
vt 0.443059 0.470468
vt 0.471837 0.462846
vt 0.500615 0.473624
vt 0.518401 0.498683
vt 0.518401 0.528454
vt 0.500615 0.551563
vt 0.499198 0.930201
vt 0.511694 0.930201
vt 0.511694 0.955192
vt 0.499198 0.955192
vt 0.937401 0.816220
vt 0.948083 0.817956
vt 0.948083 0.847720
vt 0.937401 0.845984
vt 0.251189 0.481585
vt 0.267388 0.507139
vt 0.267388 0.533374
vt 0.251189 0.550268
vt 0.224977 0.551370
vt 0.198766 0.536257
vt 0.182566 0.510703
vt 0.182566 0.484468
vt 0.198766 0.467574
vt 0.224977 0.466473
vt 0.771293 0.513208
vt 0.771293 0.569480
vt 0.747055 0.573417
vt 0.747055 0.516194
vt 0.251986 0.806920
vt 0.251034 0.872447
vt 0.230417 0.872447
vt 0.230417 0.807470
vt 0.038626 0.776997
vt 0.038626 0.841974
vt 0.013141 0.841974
vt 0.013141 0.776997
vt 0.872772 0.633748
vt 0.872772 0.698725
vt 0.852155 0.698725
vt 0.851203 0.633198
vt 0.649398 0.798124
vt 0.649398 0.741852
vt 0.673636 0.737914
vt 0.673636 0.794186
vt 0.697873 0.741852
vt 0.697873 0.798124
vt 0.855611 0.013141
vt 0.854660 0.078667
vt 0.834042 0.078667
vt 0.834042 0.013690
vt 0.382355 0.774999
vt 0.382355 0.839977
vt 0.356870 0.839977
vt 0.356870 0.774999
vt 0.674204 0.274026
vt 0.687568 0.252944
vt 0.709193 0.240476
vt 0.730817 0.241385
vt 0.744182 0.255323
vt 0.744182 0.276966
vt 0.730817 0.298049
vt 0.709193 0.310516
vt 0.687568 0.309608
vt 0.674204 0.295670
vt 0.843381 0.340776
vt 0.843381 0.405753
vt 0.822763 0.405753
vt 0.821812 0.340226
vt 0.795531 0.516194
vt 0.795531 0.573417
vt 0.503127 0.624684
vt 0.496410 0.648921
vt 0.476229 0.663901
vt 0.452171 0.663901
vt 0.431628 0.648921
vt 0.425273 0.624684
vt 0.431628 0.600446
vt 0.452171 0.585466
vt 0.476229 0.585466
vt 0.496410 0.600446
vt 0.387656 0.866258
vt 0.398337 0.867993
vt 0.398337 0.897757
vt 0.387656 0.896022
vt 0.103788 0.946502
vt 0.116284 0.946502
vt 0.116284 0.971493
vt 0.103788 0.971493
vt 0.423663 0.265633
vt 0.436158 0.265633
vt 0.436158 0.296524
vt 0.423663 0.296524
vt 0.592533 0.930902
vt 0.605028 0.930902
vt 0.605028 0.955894
vt 0.592533 0.955894
vt 0.959473 0.429506
vt 0.948792 0.427771
vt 0.948792 0.398007
vt 0.959473 0.399742
vt 0.959474 0.485552
vt 0.948792 0.487287
vt 0.948792 0.457523
vt 0.959474 0.455788
vt 0.949897 0.956773
vt 0.937401 0.956773
vt 0.937401 0.931781
vt 0.949897 0.931781
vt 0.393788 0.738024
vt 0.381292 0.738024
vt 0.381292 0.707133
vt 0.393788 0.707133
vt 0.474695 0.212676
vt 0.467463 0.183297
vt 0.474695 0.153918
vt 0.493632 0.135761
vt 0.517038 0.135761
vt 0.535974 0.153918
vt 0.543207 0.183297
vt 0.535974 0.212676
vt 0.517038 0.230833
vt 0.493632 0.230833
vt 0.155061 0.971493
vt 0.142565 0.971493
vt 0.142565 0.946502
vt 0.155061 0.946502
vt 0.649398 0.917948
vt 0.660079 0.916212
vt 0.660079 0.945977
vt 0.649398 0.947712
vt 0.500615 0.425788
vt 0.471837 0.436565
vt 0.443059 0.428943
vt 0.425273 0.405834
vt 0.425273 0.376063
vt 0.443059 0.351004
vt 0.471837 0.340226
vt 0.500615 0.347848
vt 0.518401 0.370958
vt 0.518401 0.400728
vt 0.593726 0.246342
vt 0.593726 0.310182
vt 0.569488 0.308715
vt 0.569488 0.244513
vt 0.911120 0.758440
vt 0.910169 0.823966
vt 0.889551 0.823966
vt 0.889551 0.758989
vt 0.450758 0.781770
vt 0.450758 0.846747
vt 0.425273 0.846747
vt 0.425273 0.781770
vt 0.738168 0.914675
vt 0.738168 0.849698
vt 0.758786 0.849698
vt 0.759737 0.915225
vt 0.684529 0.078810
vt 0.684529 0.014608
vt 0.708767 0.013141
vt 0.708767 0.076980
vt 0.733004 0.014608
vt 0.733004 0.078810
vt 0.786019 0.915225
vt 0.786970 0.849698
vt 0.807588 0.849698
vt 0.807588 0.914675
vt 0.477039 0.846747
vt 0.477039 0.781770
vt 0.502524 0.781770
vt 0.502524 0.846747
vt 0.608137 0.632327
vt 0.583899 0.640202
vt 0.559662 0.632327
vt 0.544682 0.611709
vt 0.544682 0.586224
vt 0.559662 0.565606
vt 0.583899 0.557731
vt 0.608137 0.565606
vt 0.623117 0.586224
vt 0.623117 0.611709
vt 0.544682 0.919040
vt 0.544682 0.854063
vt 0.565300 0.854063
vt 0.566251 0.919589
vt 0.617963 0.244513
vt 0.617963 0.308715
vt 0.608705 0.135761
vt 0.632943 0.142684
vt 0.647923 0.164254
vt 0.647923 0.189739
vt 0.632943 0.211308
vt 0.608705 0.218232
vt 0.584468 0.211308
vt 0.569488 0.189739
vt 0.569488 0.164254
vt 0.584468 0.142684
vt 0.064907 0.907221
vt 0.077161 0.906479
vt 0.077161 0.935912
vt 0.064907 0.936654
vt 0.182566 0.955184
vt 0.195062 0.955184
vt 0.195062 0.980175
vt 0.182566 0.980175
vt 0.103788 0.889330
vt 0.116284 0.889330
vt 0.116284 0.920221
vt 0.103788 0.920221
vt 0.221343 0.955184
vt 0.233839 0.955184
vt 0.233839 0.980175
vt 0.221343 0.980175
vt 0.941997 0.043315
vt 0.929743 0.042573
vt 0.929743 0.013141
vt 0.941997 0.013882
vt 0.941997 0.099029
vt 0.929743 0.099771
vt 0.929743 0.070338
vt 0.941997 0.069596
vt 0.272615 0.980175
vt 0.260120 0.980175
vt 0.260120 0.955184
vt 0.272615 0.955184
vt 0.155061 0.920221
vt 0.142565 0.920221
vt 0.142565 0.889330
vt 0.155061 0.889330
vt 0.423024 0.103560
vt 0.393645 0.113105
vt 0.364266 0.103560
vt 0.346109 0.078568
vt 0.346109 0.047678
vt 0.364266 0.022686
vt 0.393645 0.013141
vt 0.423024 0.022686
vt 0.441181 0.047678
vt 0.441181 0.078568
vt 0.980774 0.038132
vt 0.968278 0.038132
vt 0.968278 0.013141
vt 0.980774 0.013141
vt 0.933431 0.135761
vt 0.945685 0.136502
vt 0.945685 0.165935
vt 0.933431 0.165193
vt 0.393645 0.139387
vt 0.423024 0.148932
vt 0.441181 0.173924
vt 0.441181 0.204815
vt 0.423024 0.229806
vt 0.393645 0.239352
vt 0.364266 0.229806
vt 0.346109 0.204815
vt 0.346109 0.173924
vt 0.364266 0.148932
vt 0.128026 0.714969
vt 0.128026 0.771241
vt 0.103788 0.767303
vt 0.103788 0.711031
vt 0.837730 0.201287
vt 0.838682 0.135761
vt 0.859300 0.135761
vt 0.859300 0.200738
vt 0.124244 0.539589
vt 0.124244 0.474612
vt 0.149729 0.474612
vt 0.149729 0.539589
vt 0.649398 0.889382
vt 0.649398 0.824405
vt 0.670016 0.824405
vt 0.670967 0.889931
vt 0.759285 0.070364
vt 0.759285 0.013141
vt 0.783523 0.017078
vt 0.783523 0.073350
vt 0.807761 0.013141
vt 0.807761 0.070364
vt 0.869662 0.405753
vt 0.870614 0.340226
vt 0.891231 0.340226
vt 0.891231 0.405204
vt 0.789934 0.823417
vt 0.789934 0.758440
vt 0.815419 0.758440
vt 0.815419 0.823417
vt 0.579671 0.736523
vt 0.558047 0.724055
vt 0.544682 0.702973
vt 0.544682 0.681330
vt 0.558047 0.667392
vt 0.579671 0.666483
vt 0.601296 0.678951
vt 0.614661 0.700033
vt 0.614661 0.721677
vt 0.601296 0.735615
vt 0.821812 0.497011
vt 0.821812 0.432034
vt 0.842430 0.432034
vt 0.843381 0.497561
vt 0.152264 0.711031
vt 0.152264 0.767303
vt 0.090995 0.625007
vt 0.084640 0.649245
vt 0.064097 0.664225
vt 0.040039 0.664225
vt 0.019858 0.649245
vt 0.013141 0.625007
vt 0.019858 0.600770
vt 0.040039 0.585790
vt 0.064097 0.585790
vt 0.084640 0.600770
vt 0.937401 0.875736
vt 0.948083 0.874001
vt 0.948083 0.903765
vt 0.937401 0.905500
vt 0.968278 0.064413
vt 0.980774 0.064413
vt 0.980774 0.089404
vt 0.968278 0.089404
vt 0.697248 0.824405
vt 0.709744 0.824405
vt 0.709744 0.855296
vt 0.697248 0.855296
vt 0.974364 0.809712
vt 0.986860 0.809712
vt 0.986860 0.834703
vt 0.974364 0.834703
vt 0.435955 0.959965
vt 0.425273 0.961700
vt 0.425273 0.931936
vt 0.435955 0.930201
vt 0.472917 0.961700
vt 0.462236 0.959965
vt 0.462236 0.930201
vt 0.472917 0.931936
vt 0.789441 0.966497
vt 0.776945 0.966497
vt 0.776945 0.941506
vt 0.789441 0.941506
vt 0.025636 0.899146
vt 0.013141 0.899146
vt 0.013141 0.868255
vt 0.025636 0.868255
vt 0.293670 0.507139
vt 0.309869 0.481585
vt 0.336081 0.466472
vt 0.362292 0.467574
vt 0.378492 0.484468
vt 0.378492 0.510703
vt 0.362292 0.536257
vt 0.336081 0.551370
vt 0.309869 0.550268
vt 0.293670 0.533374
vt 0.709744 0.963740
vt 0.697248 0.963740
vt 0.697248 0.938749
vt 0.709744 0.938749
vt 0.940329 0.633198
vt 0.951011 0.634934
vt 0.951011 0.664698
vt 0.940329 0.662962
vt 0.542805 0.098702
vt 0.514026 0.109479
vt 0.485248 0.101858
vt 0.467463 0.078748
vt 0.467463 0.048978
vt 0.485248 0.023918
vt 0.514026 0.013141
vt 0.542805 0.020762
vt 0.560590 0.043872
vt 0.560590 0.073642
vt 0.787212 0.135761
vt 0.787212 0.192032
vt 0.762974 0.195970
vt 0.762974 0.138747
vt 0.841700 0.915774
vt 0.842652 0.850247
vt 0.863270 0.850247
vt 0.863270 0.915224
vt 0.770463 0.305454
vt 0.770463 0.240476
vt 0.795948 0.240476
vt 0.795948 0.305454
vt 0.103788 0.862499
vt 0.103788 0.797522
vt 0.124406 0.797522
vt 0.125357 0.863049
vt 0.747055 0.400436
vt 0.747055 0.344164
vt 0.771293 0.340226
vt 0.771293 0.396498
vt 0.795530 0.344164
vt 0.795530 0.400436
vt 0.821812 0.589368
vt 0.822763 0.523842
vt 0.843381 0.523842
vt 0.843381 0.588819
vt 0.799437 0.698175
vt 0.799437 0.633198
vt 0.824922 0.633198
vt 0.824922 0.698175
vt 0.182566 0.607216
vt 0.197239 0.586542
vt 0.220981 0.577651
vt 0.244723 0.583939
vt 0.259397 0.603004
vt 0.259397 0.627565
vt 0.244723 0.648239
vt 0.220981 0.657130
vt 0.197239 0.650842
vt 0.182566 0.631777
vt 0.869662 0.588819
vt 0.869662 0.523842
vt 0.890280 0.523842
vt 0.891231 0.589368
vt 0.811449 0.138747
vt 0.811449 0.195970
vt 0.736693 0.174978
vt 0.731088 0.199216
vt 0.715103 0.214195
vt 0.695793 0.214195
vt 0.679091 0.199216
vt 0.674204 0.174978
vt 0.679091 0.150740
vt 0.695793 0.135761
vt 0.715103 0.135761
vt 0.731088 0.150740
vt 0.948792 0.513568
vt 0.959474 0.515304
vt 0.959474 0.545068
vt 0.948792 0.543332
vt 0.984462 0.160752
vt 0.971967 0.160752
vt 0.971967 0.135761
vt 0.984462 0.135761
vt 0.437769 0.903919
vt 0.425273 0.903919
vt 0.425273 0.873029
vt 0.437769 0.873029
vt 0.984462 0.212024
vt 0.971967 0.212024
vt 0.971967 0.187033
vt 0.984462 0.187033
vt 0.951011 0.722478
vt 0.940330 0.720743
vt 0.940330 0.690979
vt 0.951011 0.692714
vt 0.398337 0.953803
vt 0.387656 0.955538
vt 0.387656 0.925774
vt 0.398337 0.924039
vt 0.974364 0.758439
vt 0.986859 0.758439
vt 0.986860 0.783431
vt 0.974364 0.783431
vt 0.464050 0.873029
vt 0.476546 0.873029
vt 0.476546 0.903919
vt 0.464050 0.903919
vt 0.013141 0.387829
vt 0.030926 0.362769
vt 0.059705 0.351992
vt 0.088483 0.359614
vt 0.106269 0.382723
vt 0.106269 0.412494
vt 0.088483 0.437553
vt 0.059705 0.448331
vt 0.030926 0.440709
vt 0.013141 0.417599
vt 0.974364 0.860984
vt 0.986860 0.860984
vt 0.986860 0.885976
vt 0.974364 0.885976
vt 0.948792 0.573084
vt 0.959473 0.571349
vt 0.959474 0.601113
vt 0.948792 0.602848
vt 0.081763 0.544396
vt 0.055552 0.559509
vt 0.029340 0.558408
vt 0.013141 0.541513
vt 0.013141 0.515278
vt 0.029340 0.489724
vt 0.055552 0.474612
vt 0.081763 0.475713
vt 0.097963 0.492607
vt 0.097963 0.518842
s 1
f 357/1/34 360/2/34 359/3/35 358/4/35
f 358/4/35 359/3/35 362/5/36 361/6/36
f 361/7/36 362/8/36 364/9/37 363/10/37
f 363/10/37 364/9/37 366/11/5 365/12/5
f 365/12/5 366/11/5 368/13/38 367/14/38
f 367/14/38 368/13/38 370/15/39 369/16/39
f 369/17/39 370/18/39 372/19/40 371/20/40
f 371/20/40 372/19/40 374/21/41 373/22/41
f 373/22/41 374/21/41 376/23/42 375/24/42
f 375/24/42 376/23/42 378/25/43 377/26/43
f 377/27/43 378/28/43 380/29/44 379/30/44
f 379/30/44 380/29/44 382/31/4 381/32/4
f 381/32/4 382/31/4 384/33/45 383/34/45
f 383/34/45 384/33/45 386/35/46 385/36/46
f 4/37/2 2/38/2 388/39/2 30/40/2 28/41/2 26/42/2 24/43/2 22/44/2 20/45/2 18/46/2 16/47/2 14/48/2 12/49/2 10/50/2 8/51/2 6/52/2
f 385/53/46 386/54/46 32/55/3 387/56/3
f 387/56/3 32/55/3 360/2/34 357/1/34
f 1/57/1 3/58/1 5/59/1 7/60/1 9/61/1 11/62/1 13/63/1 15/64/1 17/65/1 19/66/1 21/67/1 23/68/1 25/69/1 27/70/1 29/71/1 31/72/1
f 389/73/34 392/74/34 391/75/35 390/76/35
f 390/76/35 391/75/35 394/77/36 393/78/36
f 393/79/36 394/80/36 396/81/37 395/82/37
f 395/82/37 396/81/37 398/83/5 397/84/5
f 397/84/5 398/83/5 400/85/38 399/86/38
f 399/86/38 400/85/38 402/87/39 401/88/39
f 401/89/39 402/90/39 404/91/40 403/92/40
f 403/92/40 404/91/40 406/93/41 405/94/41
f 405/94/41 406/93/41 408/95/42 407/96/42
f 407/96/42 408/95/42 410/97/43 409/98/43
f 409/99/43 410/100/43 412/101/44 411/102/44
f 411/102/44 412/101/44 414/103/4 413/104/4
f 413/104/4 414/103/4 416/105/45 415/106/45
f 415/106/45 416/105/45 418/107/46 417/108/46
f 36/109/2 34/110/2 420/111/2 62/112/2 60/113/2 58/114/2 56/115/2 54/116/2 52/117/2 50/118/2 48/119/2 46/120/2 44/121/2 42/122/2 40/123/2 38/124/2
f 417/125/46 418/126/46 64/127/3 419/128/3
f 419/128/3 64/127/3 392/74/34 389/73/34
f 33/129/1 35/130/1 37/131/1 39/132/1 41/133/1 43/134/1 45/135/1 47/136/1 49/137/1 51/138/1 53/139/1 55/140/1 57/141/1 59/142/1 61/143/1 63/144/1
f 421/145/34 424/146/34 423/147/35 422/148/35
f 422/148/35 423/147/35 426/149/36 425/150/36
f 425/151/36 426/152/36 428/153/37 427/154/37
f 427/154/37 428/153/37 430/155/5 429/156/5
f 429/156/5 430/155/5 432/157/38 431/158/38
f 431/158/38 432/157/38 434/159/39 433/160/39
f 433/161/39 434/162/39 436/163/40 435/164/40
f 435/164/40 436/163/40 438/165/41 437/166/41
f 437/166/41 438/165/41 440/167/42 439/168/42
f 439/168/42 440/167/42 442/169/43 441/170/43
f 441/171/43 442/172/43 444/173/44 443/174/44
f 443/174/44 444/173/44 446/175/4 445/176/4
f 445/176/4 446/175/4 448/177/45 447/178/45
f 447/178/45 448/177/45 450/179/46 449/180/46
f 68/181/2 66/182/2 452/183/2 94/184/2 92/185/2 90/186/2 88/187/2 86/188/2 84/189/2 82/190/2 80/191/2 78/192/2 76/193/2 74/194/2 72/195/2 70/196/2
f 449/197/46 450/198/46 96/199/3 451/200/3
f 451/200/3 96/199/3 424/146/34 421/145/34
f 65/201/1 67/202/1 69/203/1 71/204/1 73/205/1 75/206/1 77/207/1 79/208/1 81/209/1 83/210/1 85/211/1 87/212/1 89/213/1 91/214/1 93/215/1 95/216/1
f 453/217/34 456/218/34 455/219/35 454/220/35
f 454/220/35 455/219/35 458/221/36 457/222/36
f 457/223/36 458/224/36 460/225/37 459/226/37
f 459/226/37 460/225/37 462/227/5 461/228/5
f 461/228/5 462/227/5 464/229/38 463/230/38
f 463/230/38 464/229/38 466/231/39 465/232/39
f 465/233/39 466/234/39 468/235/40 467/236/40
f 467/236/40 468/235/40 470/237/41 469/238/41
f 469/238/41 470/237/41 472/239/42 471/240/42
f 471/240/42 472/239/42 474/241/43 473/242/43
f 473/243/43 474/244/43 476/245/44 475/246/44
f 475/246/44 476/245/44 478/247/4 477/248/4
f 477/248/4 478/247/4 480/249/45 479/250/45
f 479/250/45 480/249/45 482/251/46 481/252/46
f 100/253/2 98/254/2 484/255/2 126/256/2 124/257/2 122/258/2 120/259/2 118/260/2 116/261/2 114/262/2 112/263/2 110/264/2 108/265/2 106/266/2 104/267/2 102/268/2
f 481/269/46 482/270/46 128/271/3 483/272/3
f 483/272/3 128/271/3 456/218/34 453/217/34
f 97/273/1 99/274/1 101/275/1 103/276/1 105/277/1 107/278/1 109/279/1 111/280/1 113/281/1 115/282/1 117/283/1 119/284/1 121/285/1 123/286/1 125/287/1 127/288/1
f 485/289/47 493/290/47 491/291/48 486/292/48
f 487/293/49 492/294/49 496/295/49 494/296/49
f 495/297/1 497/298/1 500/299/1 498/300/1
f 499/301/52 501/302/52 507/303/52 502/304/52
f 503/305/53 508/306/53 510/307/56 509/308/56
f 509/308/56 510/307/56 516/309/57 511/310/57
f 512/311/58 517/312/58 520/313/58 518/314/58
f 519/315/2 521/316/2 524/317/2 522/318/2
f 132/319/5 130/320/5 531/321/5 525/322/5 144/323/5 142/324/5 140/325/5 138/326/5 136/327/5 134/328/5
f 523/329/8 146/330/8 532/331/8 526/332/8
f 527/333/9 148/334/9 493/290/47 485/289/47
f 129/335/4 490/336/4 133/337/4 135/338/4 506/339/4 139/340/4 515/341/4 143/342/4 145/343/4 530/344/4
f 533/345/61 539/346/61 537/347/61 535/348/61
f 536/349/62 538/350/62 543/351/62 541/352/62
f 542/353/1 544/354/1 547/355/1 545/356/1
f 546/357/63 548/358/63 551/359/63 549/360/63
f 550/361/64 552/362/64 555/363/64 553/364/64
f 554/365/24 556/366/24 559/367/24 557/368/24
f 558/369/25 560/370/25 563/371/25 561/372/25
f 562/373/2 564/374/2 567/375/2 565/376/2
f 152/377/5 540/378/5 571/379/5 568/380/5 164/381/5 162/382/5 160/383/5 158/384/5 156/385/5 154/386/5
f 566/387/11 166/388/11 572/389/11 569/390/11
f 570/391/10 168/392/10 150/393/10 534/394/10
f 149/395/4 151/396/4 153/397/4 155/398/4 157/399/4 159/400/4 161/401/4 163/402/4 165/403/4 167/404/4
f 573/405/65 581/406/65 579/407/66 574/408/66
f 575/409/67 580/410/67 584/411/67 582/412/67
f 583/413/1 585/414/1 588/415/1 586/416/1
f 587/417/50 589/418/50 590/419/50 488/420/50
f 489/421/51 591/422/51 593/423/70 592/424/70
f 592/424/70 593/423/70 594/425/71 528/426/59
f 529/427/60 595/428/60 598/429/60 596/430/60
f 597/431/2 599/432/2 602/433/2 600/434/2
f 172/435/12 170/436/12 609/437/12 603/438/12 182/439/12 180/440/12 179/441/12 177/442/12 176/443/12 174/444/12
f 601/445/14 184/446/14 610/447/14 604/448/14
f 605/449/15 186/450/15 581/406/65 573/405/65
f 169/451/6 578/452/6 173/453/6 175/454/6 131/455/6 178/456/6 147/457/6 181/458/6 183/459/6 608/460/6
f 611/461/74 617/462/74 615/463/74 613/464/74
f 614/465/75 616/466/75 621/467/75 619/468/75
f 620/469/1 622/470/1 625/471/1 623/472/1
f 624/473/76 626/474/76 629/475/76 627/476/76
f 628/477/77 630/478/77 633/479/77 631/480/77
f 632/481/28 634/482/28 637/483/28 635/484/28
f 636/485/29 638/486/29 641/487/29 639/488/29
f 640/489/2 642/490/2 645/491/2 643/492/2
f 190/493/12 618/494/12 649/495/12 646/496/12 202/497/12 200/498/12 198/499/12 196/500/12 194/501/12 192/502/12
f 644/503/17 204/504/17 650/505/17 647/506/17
f 648/507/16 206/508/16 188/509/16 612/510/16
f 187/511/6 189/512/6 191/513/6 193/514/6 195/515/6 197/516/6 199/517/6 201/518/6 203/519/6 205/520/6
f 651/521/78 659/522/78 657/523/79 652/524/79
f 653/525/80 658/526/80 662/527/80 660/528/80
f 661/529/1 663/530/1 666/531/1 664/532/1
f 665/533/68 667/534/68 668/535/68 576/536/68
f 577/537/69 669/538/69 671/539/83 670/540/83
f 670/540/83 671/539/83 672/541/72 606/542/72
f 607/543/73 673/544/73 676/545/73 674/546/73
f 675/547/2 677/548/2 680/549/2 678/550/2
f 210/551/7 208/552/7 687/553/7 681/554/7 220/555/7 218/556/7 217/557/7 215/558/7 214/559/7 212/560/7
f 679/561/18 222/562/18 688/563/18 682/564/18
f 683/565/19 224/566/19 659/522/78 651/521/78
f 207/567/13 656/568/13 211/569/13 213/570/13 171/571/13 216/572/13 185/573/13 219/574/13 221/575/13 686/576/13
f 689/577/86 695/578/86 693/579/86 691/580/86
f 692/581/87 694/582/87 699/583/87 697/584/87
f 698/585/1 700/586/1 703/587/1 701/588/1
f 702/589/88 704/590/88 707/591/88 705/592/88
f 706/593/89 708/594/89 711/595/89 709/596/89
f 710/597/32 712/598/32 715/599/32 713/600/32
f 714/601/33 716/602/33 719/603/33 717/604/33
f 718/605/2 720/606/2 723/607/2 721/608/2
f 228/609/7 696/610/7 727/611/7 724/612/7 240/613/7 238/614/7 236/615/7 234/616/7 232/617/7 230/618/7
f 722/619/21 242/620/21 728/621/21 725/622/21
f 726/623/20 244/624/20 226/625/20 690/626/20
f 225/627/13 227/628/13 229/629/13 231/630/13 233/631/13 235/632/13 237/633/13 239/634/13 241/635/13 243/636/13
f 729/637/90 737/638/90 735/639/91 730/640/91
f 731/641/92 736/642/92 740/643/92 738/644/92
f 739/645/1 741/646/1 744/647/1 742/648/1
f 743/649/81 745/650/81 746/651/81 654/652/81
f 655/653/82 747/654/82 749/655/95 748/656/95
f 748/656/95 749/655/95 750/657/84 684/658/84
f 685/659/85 751/660/85 754/661/85 752/662/85
f 753/663/2 755/664/2 758/665/2 756/666/2
f 248/667/4 246/668/4 765/669/4 759/670/4 258/671/4 256/672/4 255/673/4 253/674/4 252/675/4 250/676/4
f 757/677/22 260/678/22 766/679/22 760/680/22
f 761/681/23 262/682/23 737/638/90 729/637/90
f 245/683/5 734/684/5 249/685/5 251/686/5 209/687/5 254/688/5 223/689/5 257/690/5 259/691/5 764/692/5
f 767/693/64 773/694/64 771/695/64 769/696/64
f 770/697/63 772/698/63 777/699/63 775/700/63
f 776/701/1 778/702/1 781/703/1 779/704/1
f 780/705/62 782/706/62 785/707/62 783/708/62
f 784/709/61 786/710/61 789/711/61 787/712/61
f 788/713/10 790/714/10 793/715/10 791/716/10
f 792/717/11 794/718/11 797/719/11 795/720/11
f 796/721/2 798/722/2 801/723/2 799/724/2
f 266/725/4 774/726/4 805/727/4 802/728/4 278/729/4 276/730/4 274/731/4 272/732/4 270/733/4 268/734/4
f 800/735/25 280/736/25 806/737/25 803/738/25
f 804/739/24 282/740/24 264/741/24 768/742/24
f 263/743/5 265/744/5 267/745/5 269/746/5 271/747/5 273/748/5 275/749/5 277/750/5 279/751/5 281/752/5
f 807/753/98 815/754/98 813/755/99 808/756/99
f 809/757/100 814/758/100 818/759/100 816/760/100
f 817/761/1 819/762/1 822/763/1 820/764/1
f 821/765/93 823/766/93 824/767/93 732/768/93
f 733/769/94 825/770/94 827/771/103 826/772/103
f 826/772/103 827/771/103 828/773/96 762/774/96
f 763/775/97 829/776/97 832/777/97 830/778/97
f 831/779/2 833/780/2 836/781/2 834/782/2
f 286/783/6 284/784/6 843/785/6 837/786/6 296/787/6 294/788/6 293/789/6 291/790/6 290/791/6 288/792/6
f 835/793/26 298/794/26 844/795/26 838/796/26
f 839/797/27 300/798/27 815/754/98 807/753/98
f 283/799/12 812/800/12 287/801/12 289/802/12 247/803/12 292/804/12 261/805/12 295/806/12 297/807/12 842/808/12
f 845/809/77 851/810/77 849/811/77 847/812/77
f 848/813/76 850/814/76 855/815/76 853/816/76
f 854/817/1 856/818/1 859/819/1 857/820/1
f 858/821/75 860/822/75 863/823/75 861/824/75
f 862/825/74 864/826/74 867/827/74 865/828/74
f 866/829/16 868/830/16 871/831/16 869/832/16
f 870/833/17 872/834/17 875/835/17 873/836/17
f 874/837/2 876/838/2 879/839/2 877/840/2
f 304/841/6 852/842/6 883/843/6 880/844/6 316/845/6 314/846/6 312/847/6 310/848/6 308/849/6 306/850/6
f 878/851/29 318/852/29 884/853/29 881/854/29
f 882/855/28 320/856/28 302/857/28 846/858/28
f 301/859/12 303/860/12 305/861/12 307/862/12 309/863/12 311/864/12 313/865/12 315/866/12 317/867/12 319/868/12
f 885/869/106 888/870/106 886/871/54 504/872/54
f 505/873/55 887/874/55 891/875/55 889/876/55
f 890/877/1 892/878/1 895/879/1 893/880/1
f 894/881/101 896/882/101 897/883/101 810/884/101
f 811/885/102 898/886/102 900/887/107 899/888/107
f 899/888/107 900/887/107 901/889/104 840/890/104
f 841/891/105 902/892/105 905/893/105 903/894/105
f 904/895/2 906/896/2 909/897/2 907/898/2
f 323/899/13 322/900/13 911/901/13 910/902/13 333/903/13 331/904/13 330/905/13 328/906/13 327/907/13 325/908/13
f 908/909/30 335/910/30 912/911/30 513/912/30
f 514/913/31 336/914/31 888/870/106 885/869/106
f 321/915/7 137/916/7 324/917/7 326/918/7 285/919/7 329/920/7 299/921/7 332/922/7 334/923/7 141/924/7
f 913/925/89 919/926/89 917/927/89 915/928/89
f 916/929/88 918/930/88 923/931/88 921/932/88
f 922/933/1 924/934/1 927/935/1 925/936/1
f 926/937/87 928/938/87 931/939/87 929/940/87
f 930/941/86 932/942/86 935/943/86 933/944/86
f 934/945/20 936/946/20 939/947/20 937/948/20
f 938/949/21 940/950/21 943/951/21 941/952/21
f 942/953/2 944/954/2 947/955/2 945/956/2
f 340/957/13 920/958/13 951/959/13 948/960/13 352/961/13 350/962/13 348/963/13 346/964/13 344/965/13 342/966/13
f 946/967/33 354/968/33 952/969/33 949/970/33
f 950/971/32 356/972/32 338/973/32 914/974/32
f 337/975/7 339/976/7 341/977/7 343/978/7 345/979/7 347/980/7 349/981/7 351/982/7 353/983/7 355/984/7
