# Generated by scripts/generate_terrace_planter_botanical_kit.py
mtllib VD_TerraceBotanical.mtl
o VD_DwarfMorningGlory_A
v -5.933780 -38.916626 6.336145
v -6.826378 -39.341496 6.472614
v -7.046832 -40.310496 6.563765
v -6.429135 -41.093949 6.540960
v -5.438426 -41.101900 6.421371
v -4.820728 -40.328361 6.295052
v -5.041182 -39.355822 6.257123
v 0.812341 -35.367094 61.987082
v 0.036169 -35.736546 62.105750
v -0.155530 -36.579154 62.185012
v 0.381598 -37.260419 62.165181
v 1.243084 -37.267332 62.061191
v 1.780212 -36.594689 61.951348
v 1.588513 -35.749004 61.918366
v 0.812341 -35.368339 61.970452
v 0.055257 -35.727360 62.196167
v -0.131728 -36.566455 62.314390
v 0.392191 -37.253768 62.236096
v 1.232491 -37.271739 62.020242
v 1.756410 -36.606835 61.829371
v 1.569426 -35.759742 61.807213
v 8.738686 -33.016408 92.631267
v 8.133018 -33.303624 92.811839
v 7.983430 -33.974901 92.906417
v 8.402565 -34.524751 92.843782
v 9.074806 -34.539128 92.671099
v 9.493941 -34.007204 92.518402
v 9.344353 -33.329530 92.500675
v -6.545690 -38.613132 25.820337
v -4.929076 -38.789310 25.023073
v -3.332117 -39.096232 25.820337
v -11.356187 -34.179588 26.124569
v -4.383618 -35.160933 25.327305
v 2.569297 -36.273022 26.124569
v -12.657948 -29.480147 26.493852
v -3.721528 -30.756720 25.696588
v 5.195238 -32.164037 26.493852
v -10.348020 -25.044418 26.886031
v -3.018387 -26.079441 26.088767
v 4.291592 -27.245207 26.886031
v -6.236506 -21.983289 27.187708
v -2.477509 -22.481534 26.390444
v 1.261832 -23.110522 27.187708
v -2.475241 -20.341193 27.368713
v -2.152983 -20.322790 26.571449
v -1.850380 -20.435129 27.368713
v -0.399855 -35.020217 49.902519
v -2.232818 -35.465366 49.120296
v -4.115645 -35.578816 49.902519
v 6.435899 -38.364920 50.829553
v -1.590047 -39.741066 50.047330
v -9.665857 -40.785515 50.829553
v 9.499730 -43.299045 51.973356
v -0.796976 -45.016558 51.191134
v -11.143547 -46.402372 51.973356
v 8.487137 -49.201281 53.192491
v 0.048326 -50.639495 52.410268
v -8.440350 -51.746010 53.192491
v 5.008715 -54.147283 54.130287
v 0.698559 -54.964831 53.348064
v -3.661461 -55.450680 54.130287
v 1.425024 -57.339875 54.692964
v 1.088699 -57.560032 53.910741
v 0.702509 -57.448491 54.692964
v 2.399757 -39.306425 55.853156
v -7.707077 -33.315512 54.803740
v 2.588714 -39.633020 54.768412
v -6.570781 -36.768488 50.514073
v 2.831240 -40.533449 54.098004
v -5.490826 -39.617954 45.788642
v 3.034699 -41.663777 54.098004
v -4.807113 -44.799208 47.862912
v 3.121377 -42.592259 54.768412
v -4.000578 -50.192749 49.232103
v 3.058165 -42.964244 55.853156
v -4.714316 -49.941964 54.803740
v 2.869208 -42.637649 56.937899
v -5.295806 -50.425890 60.375378
v 2.626682 -41.737220 57.608308
v -6.420633 -45.089642 61.744569
v 2.423223 -40.606892 57.608308
v -7.586548 -39.995184 63.818839
v 2.336546 -39.678411 56.937899
v -7.567992 -36.947986 59.093408
v -0.618502 -38.252118 68.577456
v 0.863655 -38.421517 67.779220
v 2.330006 -38.695925 68.577456
v -4.833385 -32.866529 68.889965
v 1.562952 -33.775605 68.091729
v 7.943484 -34.789690 68.889965
v -5.768201 -26.834904 69.277441
v 2.430003 -28.015195 68.479205
v 10.612401 -29.300495 69.277441
v -3.368800 -20.910426 69.690880
v 3.355150 -21.868815 68.892644
v 10.063294 -22.932211 69.690880
v 0.618972 -16.675560 70.008909
v 4.066801 -17.140830 69.210673
v 7.498825 -17.711108 70.008909
v 4.199229 -14.313395 70.199727
v 4.493792 -14.304039 69.401491
v 4.772550 -14.399690 70.199727
v 5.685526 -29.727840 80.164338
v 3.984511 -30.166088 79.384893
v 2.229859 -30.247984 80.164338
v 12.161378 -33.620520 81.276999
v 4.700919 -34.925673 80.497554
v -2.813178 -35.874474 81.276999
v 15.164577 -39.224849 82.661445
v 5.592321 -40.847868 81.882000
v -4.033572 -42.114534 82.661445
v 14.388605 -45.808782 84.139790
v 6.544182 -47.171729 83.360345
v -1.353878 -48.178324 84.139790
v 11.281175 -51.251228 85.276979
v 7.276383 -52.036238 84.497534
v 3.217953 -52.464896 85.276979
v 8.024852 -54.726197 85.959292
v 7.715703 -54.954943 85.179847
v 7.352917 -54.827336 85.959292
v 3.178467 -36.918777 81.030814
v -6.655809 -31.401476 80.003170
v 3.354779 -37.223516 80.018663
v -5.595557 -34.623371 76.000576
v 3.581074 -38.063686 79.393120
v -4.587874 -37.282144 71.591381
v 3.770917 -39.118370 79.393120
v -3.949916 -42.116658 73.526837
v 3.851794 -39.984716 80.018663
v -3.197357 -47.149251 74.804398
v 3.792813 -40.331807 81.030814
v -3.863330 -46.915249 80.003170
v 3.616502 -40.027068 82.042964
v -4.405905 -47.366789 85.201941
v 3.390206 -39.186898 82.668507
v -5.455457 -42.387655 86.479503
v 3.200363 -38.132214 82.668507
v -6.543346 -37.634129 88.414958
v 3.119486 -37.265869 82.042964
v -6.526032 -34.790857 84.005764
v 9.538686 -33.813649 92.697640
v 9.237477 -33.779067 92.073132
v 8.560669 -33.770526 91.918891
v 8.017910 -33.794458 92.351064
v 8.017910 -33.832841 93.044216
v 8.560669 -33.856773 93.476390
v 9.237477 -33.848232 93.322149
v 9.538686 -12.290887 93.889466
v 9.237477 -12.256305 93.264958
v 8.560669 -12.247764 93.110717
v 8.017910 -12.271695 93.542890
v 8.017910 -12.310079 94.236042
v 8.560669 -12.334010 94.668215
v 9.237477 -12.325469 94.513974
v -12.002962 -17.068192 8.115794
v -12.860083 -17.511660 8.369862
v -13.071774 -18.486472 8.398089
v -12.478628 -19.258576 8.179220
v -11.527296 -19.246561 7.878068
v -10.934151 -18.459475 7.721407
v -11.145842 -17.490009 7.827205
v 0.779449 -18.826538 48.424999
v 0.034127 -19.212162 48.645927
v -0.149952 -20.059825 48.670472
v 0.365827 -20.731219 48.480151
v 1.193072 -20.720771 48.218280
v 1.708851 -20.036349 48.082053
v 1.524772 -19.193335 48.174051
v 0.779449 -18.831238 48.280445
v 0.012253 -19.189917 48.469598
v -0.177229 -20.027386 48.595147
v 0.353687 -20.713014 48.562551
v 1.205211 -20.730508 48.396356
v 1.736128 -20.066696 48.221710
v 1.546646 -19.221441 48.170125
v 10.001178 -14.110943 95.032382
v 9.387420 -14.397887 95.183704
v 9.235835 -15.067862 95.284143
v 9.660568 -15.616364 95.258066
v 10.341787 -15.630360 95.125110
v 10.766521 -15.099310 94.985393
v 10.614935 -14.423106 94.944125
v -7.338446 -15.107767 21.715815
v -9.196720 -15.474389 20.920525
v -11.080734 -15.669557 21.715815
v -0.422218 -18.695060 22.214416
v -8.517639 -19.997998 21.419127
v -16.638799 -21.129483 22.214416
v 2.705241 -23.950661 22.831541
v -7.677134 -25.596914 22.036251
v -18.085247 -27.071715 22.831541
v 1.730576 -30.203327 23.489762
v -6.780655 -31.568685 22.694472
v -15.317625 -32.762591 23.489762
v -1.737923 -35.421207 23.996085
v -6.091057 -36.162355 23.200796
v -10.469928 -36.732050 23.996085
v -5.326333 -38.778212 24.299880
v -5.677297 -38.918557 23.504590
v -6.054000 -38.887449 24.299880
v -5.266734 -19.483198 39.581978
v -3.298394 -19.629285 38.795738
v -1.373921 -20.067584 39.581978
v -11.174712 -14.645325 40.316182
v -2.718349 -15.765390 39.529943
v 5.694148 -17.177667 40.316182
v -12.844457 -9.563980 41.213862
v -2.009152 -11.041170 40.427623
v 8.782286 -12.810572 41.213862
v -10.143663 -4.830923 42.168743
v -1.254765 -6.015920 41.382504
v 7.590266 -7.493129 42.168743
v -5.238016 -1.614665 42.903266
v -0.674467 -2.150344 42.117027
v 3.845216 -2.978234 42.903266
v -0.726690 0.079712 43.343981
v -0.326288 0.169002 42.557742
v 0.030246 -0.033919 43.343981
v -3.291155 -17.130581 45.238298
v -11.345330 -9.620378 44.144999
v -3.242104 -17.419232 44.396567
v -11.453256 -12.439076 40.816337
v -3.309364 -18.139707 43.876349
v -11.438857 -14.803616 37.149536
v -3.467242 -19.016810 43.876349
v -12.343574 -18.756772 38.759111
v -3.655436 -19.715517 44.396567
v -13.216409 -22.897551 39.821565
v -3.802061 -19.968946 45.238298
v -13.667629 -22.522038 44.144999
v -3.851111 -19.680296 46.080028
v -14.221469 -22.716640 48.468433
v -3.783852 -18.959821 46.600246
v -13.595621 -18.531404 49.530887
v -3.625973 -18.082717 46.600246
v -13.065079 -14.510896 51.140463
v -3.437780 -17.384010 46.080028
v -12.227063 -12.299790 47.473661
v 3.208263 -17.111893 58.450382
v 1.175165 -17.617150 57.674861
v -0.916512 -17.734028 58.450382
v 10.769249 -20.625602 59.615768
v 1.861526 -22.167750 58.840247
v -7.104775 -23.321519 59.615768
v 14.141479 -25.891108 61.061604
v 2.713060 -27.813450 60.286083
v -8.773936 -29.347412 61.061604
v 12.987804 -32.226968 62.604523
v 3.621773 -33.838242 61.829002
v -5.802837 -35.061138 62.604523
v 9.103730 -37.552685 63.791384
v 4.320782 -38.472698 63.015863
v -0.520745 -39.004332 63.791384
v 5.111918 -40.998697 64.503500
v 4.740188 -41.253371 63.727979
v 4.309878 -41.119667 64.503500
v 3.089172 -18.248820 77.794835
v 5.189109 -18.529137 76.995645
v 7.278306 -18.880662 77.794835
v -3.322469 -13.414980 77.967096
v 5.759358 -14.748368 77.167907
v 14.830445 -16.152962 77.967096
v -5.187719 -8.422467 78.176975
v 6.454134 -10.141980 77.377786
v 18.085247 -11.932700 78.176975
v -2.354682 -3.842306 78.400053
v 7.192604 -5.245899 77.600864
v 16.729150 -6.720697 78.400053
v 2.867965 -0.778136 78.571652
v 7.760658 -1.479682 77.772462
v 12.642611 -2.252434 78.571652
v 7.688843 0.805874 78.674611
v 8.101490 0.780048 77.875421
v 8.503397 0.683016 78.674611
v 6.172557 -13.887516 79.738951
v -0.113591 -5.083078 78.824079
v 6.234658 -14.252967 78.673264
v -0.250232 -8.651735 74.609774
v 6.149503 -15.165136 78.014634
v -0.232002 -11.645399 69.967361
v 5.949618 -16.275606 78.014634
v -1.377434 -16.650356 72.005190
v 5.711353 -17.160216 78.673264
v -2.482500 -21.892854 73.350326
v 5.525716 -17.481074 79.738951
v -3.053774 -21.417431 78.824079
v 5.463615 -17.115623 80.804637
v -3.754973 -21.663809 84.297832
v 5.548770 -16.203454 81.463268
v -2.962608 -16.365024 85.642968
v 5.748655 -15.092983 81.463268
v -2.290906 -11.274796 87.680797
v 5.986920 -14.208374 80.804637
v -1.229924 -8.475391 83.038384
v 10.801178 -14.906547 95.116132
v 10.499970 -14.864323 94.492094
v 9.823161 -14.853895 94.337969
v 9.280403 -14.883115 94.769817
v 9.280403 -14.929980 95.462447
v 9.823161 -14.959200 95.894295
v 10.499970 -14.948772 95.740170
v 10.801178 10.709113 96.849366
v 10.499970 10.751337 96.225328
v 9.823161 10.761766 96.071203
v 9.280403 10.732546 96.503051
v 9.280403 10.685680 97.195681
v 9.823161 10.656460 97.627529
v 10.499970 10.666889 97.473404
v -8.154144 7.127510 6.410846
v -9.044923 6.736603 6.633501
v -9.264927 5.799510 6.896795
v -8.648489 5.021880 7.002461
v -7.659800 4.989284 6.870932
v -7.043362 5.726269 6.601250
v -7.263366 6.677869 6.396493
v -2.849534 16.291633 44.013799
v -3.624124 15.951714 44.207412
v -3.815432 15.136850 44.436363
v -3.279399 14.460650 44.528247
v -2.419669 14.432307 44.413873
v -1.883637 15.073163 44.179368
v -2.074945 15.900641 44.001318
v -2.849534 16.315207 44.361770
v -3.609941 15.921347 44.502047
v -3.797746 15.075409 44.455795
v -3.271528 14.414402 44.257844
v -2.427541 14.436077 44.057254
v -1.901323 15.124112 44.005074
v -2.089128 15.960404 44.140597
v 9.063493 10.762649 93.886238
v 8.455168 10.447561 93.998460
v 8.304924 9.770811 93.961458
v 8.725898 9.242005 93.803097
v 9.401088 9.259345 93.642625
v 9.822062 9.809773 93.600882
v 9.671818 10.478806 93.709300
v -9.166758 7.894531 19.960056
v -7.729892 7.598173 19.163434
v -6.270595 7.446965 19.960056
v -13.425225 12.319013 19.616922
v -7.161420 11.276712 18.820300
v -0.875184 10.379562 19.616922
v -14.504055 17.064241 19.199801
v -6.470373 15.748428 18.403179
v 1.585741 14.577766 19.199801
v -12.321837 21.591001 18.756671
v -5.736237 20.498971 17.960049
v 0.871796 19.552092 18.756671
v -8.539158 24.747969 18.415802
v -5.171516 24.153234 17.619179
v -1.781443 23.703650 18.415802
v -5.103040 26.461881 18.211280
v -4.832684 26.345792 17.414658
v -4.539897 26.374854 18.211280
v -3.460659 15.958758 35.507186
v -5.417205 15.357294 34.763800
v -7.464040 15.340086 35.507186
v 3.785543 13.276207 37.001398
v -4.843304 11.643623 36.258012
v -13.562441 10.595295 37.001398
v 6.934811 9.106790 38.831104
v -4.140546 7.096128 38.087718
v -15.306193 5.669724 38.831104
v 5.680913 3.958549 40.778060
v -3.392755 2.257224 40.034674
v -12.556711 1.140155 40.778060
v 1.807936 -0.451099 42.275718
v -2.817530 -1.465011 41.532332
v -7.533286 -1.894667 42.275718
v -2.128323 -3.346075 43.174313
v -2.472396 -3.698352 42.430927
v -2.906758 -3.466372 43.174313
v -3.722795 14.215593 55.336053
v -1.580885 14.093106 54.561051
v 0.501820 13.578212 55.336053
v -10.159198 19.285376 56.373705
v -0.976264 18.100587 55.598703
v 8.147466 16.523391 56.373705
v -11.998336 24.596713 57.648107
v -0.233692 23.022415 56.873105
v 11.471747 21.055708 57.648107
v -9.095354 29.518681 59.005064
v 0.556982 28.263073 58.230062
v 10.150114 26.615057 59.005064
v -3.793126 32.841756 60.048877
v 1.165194 32.294349 59.273876
v 6.064309 31.354534 60.048877
v 1.089792 34.578878 60.675165
v 1.530120 34.713115 59.900163
v 1.911245 34.454943 60.675165
v 4.595300 12.667986 75.053665
v 3.011386 12.394793 74.254381
v 1.417376 12.188523 75.053665
v 10.559722 9.040303 75.243209
v 3.679270 7.968004 74.443925
v -3.211279 6.962628 75.243209
v 13.326716 3.865609 75.477323
v 4.504199 2.500305 74.678039
v -4.328414 1.201924 75.477323
v 12.617218 -2.203281 75.726914
v 5.383663 -3.328854 74.927630
v -1.859989 -4.387503 75.726914
v 9.762702 -7.219986 75.918906
v 6.060173 -7.812822 75.119622
v 2.347547 -8.338734 75.918906
v 6.769996 -10.423126 76.034102
v 6.466079 -10.503202 75.234818
v 6.152066 -10.516355 76.034102
v 4.532332 9.847135 75.733262
v -5.976948 15.970762 74.639846
v 4.726252 9.511961 74.620025
v -4.810804 12.427085 70.237498
v 4.975149 8.587880 73.932007
v -3.702481 9.502770 65.387941
v 5.183952 7.427861 73.932007
v -3.000808 4.185416 67.516698
v 5.272907 6.474990 74.620025
v -2.173088 -1.349800 68.921854
v 5.208034 6.093233 75.733262
v -2.905573 -1.092428 74.639846
v 5.014114 6.428408 76.846500
v -3.502338 -1.589065 80.357837
v 4.765218 7.352488 77.534518
v -4.656712 3.887353 81.762994
v 4.556414 8.512508 77.534518
v -5.853253 9.115631 83.891751
v 4.467460 9.465378 76.846500
v -5.834209 12.242872 79.042193
v 9.863493 9.967279 93.800294
v 9.562285 9.992893 93.175354
v 8.885477 9.999219 93.021006
v 8.342718 9.981493 93.453478
v 8.342718 9.953064 94.147110
v 8.885477 9.935338 94.579582
v 9.562285 9.941664 94.425235
v 9.863493 33.709113 94.773404
v 9.562285 33.734727 94.148464
v 8.885477 33.741054 93.994116
v 8.342718 33.723328 94.426588
v 8.342718 33.694898 95.120220
v 8.885477 33.677172 95.552692
v 9.562285 33.683498 95.398344
v -5.484927 28.885621 0.000000
v -6.384025 28.461823 0.088811
v -6.606084 27.508062 0.280903
v -5.983889 26.742539 0.431628
v -4.985965 26.741709 0.427485
v -4.363770 27.506197 0.271596
v -4.585829 28.460327 0.081347
v -5.214107 41.308454 62.753584
v -5.995931 40.939934 62.830811
v -6.189026 40.110577 62.997848
v -5.647986 39.444905 63.128913
v -4.780227 39.444183 63.125311
v -4.239187 40.108955 62.989755
v -4.432282 40.938633 62.824321
v -5.214107 41.322573 63.053622
v -5.922900 40.913922 63.342820
v -6.097958 40.064020 63.336275
v -5.607458 39.412862 63.038916
v -4.820756 39.450783 62.674659
v -4.330255 40.149227 62.517798
v -4.505313 40.982252 62.686453
v 8.921885 37.979411 93.235741
v 8.354850 37.652489 93.467100
v 8.214804 36.972568 93.461864
v 8.607204 36.451642 93.223976
v 9.236565 36.481978 92.932571
v 9.628966 37.040734 92.807082
v 9.488920 37.707154 92.942006
v -5.236776 30.755937 22.561062
v -6.795603 30.250573 21.805815
v -8.434222 30.266784 22.561062
v 0.630903 28.050518 23.805206
v -6.257002 26.729899 23.049959
v -13.224699 25.930856 23.805206
v 3.240217 24.065823 25.318963
v -5.601684 22.446277 24.563715
v -14.523376 21.348306 25.318963
v 2.337812 19.269620 26.927427
v -4.905365 17.894651 26.172180
v -12.228334 17.041257 26.927427
v -0.679277 15.224866 28.164707
v -4.369735 14.393400 27.409460
v -8.139986 14.083510 28.164707
v -3.777391 12.600994 28.907075
v -4.048358 12.292650 28.151828
v -4.399116 12.505881 28.907075
v -8.819903 37.993309 49.685192
v -6.820410 37.649530 48.886070
v -4.809588 37.379802 49.685192
v -14.911492 42.887304 49.501616
v -6.228141 41.521012 48.702493
v 2.466539 40.228772 49.501616
v -16.639014 47.989739 49.277449
v -5.504915 46.248526 48.478326
v 5.640513 44.581364 49.277449
v -13.864763 52.710325 49.039064
v -4.735821 51.275865 48.239942
v 4.404450 49.915458 49.039064
v -8.817246 55.895834 48.855692
v -4.144210 55.143049 48.056569
v 0.540155 54.464317 48.855692
v -4.173471 57.560032 48.745668
v -3.789243 57.463360 47.946545
v -3.393687 57.440739 48.745668
v -8.691114 40.541062 53.819608
v -14.673910 48.299608 52.961878
v -8.637036 40.222825 52.891600
v -14.792899 45.191996 49.292031
v -8.711190 39.428501 52.318060
v -14.777024 42.585093 45.249385
v -8.885251 38.461496 52.318060
v -15.774474 38.226741 47.023941
v -9.092734 37.691172 52.891600
v -16.736773 33.661536 48.195295
v -9.254388 37.411766 53.819608
v -17.234243 34.075538 52.961878
v -9.308466 37.730003 54.747615
v -17.844851 33.860990 57.728461
v -9.234312 38.524327 55.321155
v -17.154854 38.475209 58.899816
v -9.060251 39.491332 55.321155
v -16.569932 42.907816 60.674372
v -8.852768 40.261657 54.747615
v -15.646021 45.345558 56.631725
v -1.407042 41.938451 69.652754
v -3.378008 41.603883 68.853606
v -5.359981 41.342306 69.652754
v 5.774577 38.997366 69.836529
v -2.784619 37.669223 69.037381
v -11.354823 36.414070 69.836529
v 8.915901 34.550080 70.061262
v -2.058979 32.857626 69.262114
v -13.044867 31.238163 70.061262
v 7.711341 29.133611 70.300324
v -1.287070 27.739230 69.501176
v -10.296489 26.417839 70.300324
v 3.912963 24.534000 70.484219
v -0.693295 23.802002 69.685071
v -5.310560 23.142994 70.484219
v 0.041780 21.534119 70.594555
v -0.337029 21.439665 69.795407
v -0.726846 21.418202 70.594555
v 0.008204 33.758650 80.772885
v 2.035838 33.650608 79.997149
v 4.005153 33.155868 80.772885
v -5.974358 39.265750 81.920629
v 2.714857 38.153070 81.144893
v 11.345754 36.653693 81.920629
v -7.575204 45.215516 83.343410
v 3.556591 43.734469 82.567674
v 14.630068 41.866725 83.343410
v -4.678636 50.869232 84.861454
v 4.454685 49.689577 84.085718
v 13.529687 48.123223 84.861454
v 0.453260 54.780326 86.029181
v 5.145526 54.270428 85.253445
v 9.779474 53.373833 86.029181
v 5.142279 56.884194 86.729817
v 5.560031 57.018940 85.954081
v 5.919464 56.766987 86.729817
v 1.639937 42.775925 81.472130
v -5.140054 51.565716 80.500163
v 1.701201 42.415406 80.420824
v -5.274852 48.045215 76.342726
v 1.617195 41.515546 79.771081
v -5.256868 45.091948 71.762959
v 1.420007 40.420060 79.771081
v -6.386843 40.154528 73.773289
v 1.184957 39.547388 80.420824
v -7.476997 34.982773 75.100274
v 1.001826 39.230860 81.472130
v -8.040563 35.451781 80.500163
v 0.940562 39.591379 82.523436
v -8.732299 35.208727 85.900053
v 1.024568 40.491239 83.173179
v -7.950626 40.436009 87.227038
v 1.221755 41.586725 83.173179
v -7.287989 45.457549 89.237368
v 1.456806 42.459397 82.523436
v -6.241323 48.219179 84.657600
vt -0.050412 -0.393558
vt -0.048207 -0.403284
vt -0.054384 -0.411019
vt -0.064291 -0.410939
vt -0.070468 -0.403105
vt -0.068264 -0.393415
vt -0.059338 -0.389166
vt 0.008123 -0.353671
vt 0.000362 -0.357365
vt -0.001555 -0.365792
vt 0.003816 -0.372604
vt 0.012431 -0.372673
vt 0.017802 -0.365947
vt 0.015885 -0.357490
vt -0.059338 0.063361
vt -0.068264 0.064726
vt 0.000362 0.621058
vt 0.008123 0.619871
vt -0.393415 0.064726
vt -0.403105 0.065638
vt -0.365792 0.621850
vt -0.357365 0.621058
vt -0.403105 0.065638
vt -0.410939 0.065410
vt -0.372604 0.621652
vt -0.365792 0.621850
vt -0.064291 0.065410
vt -0.054384 0.064214
vt 0.012431 0.620612
vt 0.003816 0.621652
vt -0.411019 0.064214
vt -0.403284 0.062951
vt -0.365947 0.619513
vt -0.372673 0.620612
vt -0.403284 0.062951
vt -0.393558 0.062571
vt -0.357490 0.619184
vt -0.365947 0.619513
vt -0.050412 0.062571
vt -0.059338 0.063361
vt 0.008123 0.619871
vt 0.015885 0.619184
vt 0.015694 -0.357597
vt 0.017564 -0.366068
vt 0.012325 -0.372717
vt 0.003922 -0.372538
vt -0.001317 -0.365665
vt 0.000553 -0.357274
vt 0.008123 -0.353683
vt 0.087387 -0.330164
vt 0.081330 -0.333036
vt 0.079834 -0.339749
vt 0.084026 -0.345248
vt 0.090748 -0.345391
vt 0.094939 -0.340072
vt 0.093444 -0.333295
vt 0.008123 0.619705
vt 0.000553 0.621962
vt 0.081330 0.928118
vt 0.087387 0.926313
vt -0.357274 0.621962
vt -0.365665 0.623144
vt -0.339749 0.929064
vt -0.333036 0.928118
vt -0.365665 0.623144
vt -0.372538 0.622361
vt -0.345248 0.928438
vt -0.339749 0.929064
vt 0.003922 0.622361
vt 0.012325 0.620202
vt 0.090748 0.926711
vt 0.084026 0.928438
vt -0.372717 0.620202
vt -0.366068 0.618294
vt -0.340072 0.925184
vt -0.345391 0.926711
vt -0.366068 0.618294
vt -0.357597 0.618072
vt -0.333295 0.925007
vt -0.340072 0.925184
vt 0.015694 0.618072
vt 0.008123 0.619705
vt 0.087387 0.926313
vt 0.093444 0.925007
vt -0.065457 -0.386131
vt -0.113562 -0.341796
vt -0.043836 -0.351609
vt -0.049291 -0.387893
vt -0.049291 -0.387893
vt -0.043836 -0.351609
vt -0.113562 -0.341796
vt -0.065457 -0.386131
vt -0.049291 -0.387893
vt -0.043836 -0.351609
vt 0.025693 -0.362730
vt -0.033321 -0.390962
vt -0.033321 -0.390962
vt 0.025693 -0.362730
vt -0.043836 -0.351609
vt -0.049291 -0.387893
vt -0.113562 -0.341796
vt -0.126579 -0.294801
vt -0.037215 -0.307567
vt -0.043836 -0.351609
vt -0.043836 -0.351609
vt -0.037215 -0.307567
vt -0.126579 -0.294801
vt -0.113562 -0.341796
vt -0.043836 -0.351609
vt -0.037215 -0.307567
vt 0.051952 -0.321640
vt 0.025693 -0.362730
vt 0.025693 -0.362730
vt 0.051952 -0.321640
vt -0.037215 -0.307567
vt -0.043836 -0.351609
vt -0.126579 -0.294801
vt -0.103480 -0.250444
vt -0.030184 -0.260794
vt -0.037215 -0.307567
vt -0.037215 -0.307567
vt -0.030184 -0.260794
vt -0.103480 -0.250444
vt -0.126579 -0.294801
vt -0.037215 -0.307567
vt -0.030184 -0.260794
vt 0.042916 -0.272452
vt 0.051952 -0.321640
vt 0.051952 -0.321640
vt 0.042916 -0.272452
vt -0.030184 -0.260794
vt -0.037215 -0.307567
vt -0.103480 -0.250444
vt -0.062365 -0.219833
vt -0.024775 -0.224815
vt -0.030184 -0.260794
vt -0.030184 -0.260794
vt -0.024775 -0.224815
vt -0.062365 -0.219833
vt -0.103480 -0.250444
vt -0.030184 -0.260794
vt -0.024775 -0.224815
vt 0.012618 -0.231105
vt 0.042916 -0.272452
vt 0.042916 -0.272452
vt 0.012618 -0.231105
vt -0.024775 -0.224815
vt -0.030184 -0.260794
vt -0.062365 -0.219833
vt -0.024752 -0.203412
vt -0.021530 -0.203228
vt -0.024775 -0.224815
vt -0.024775 -0.224815
vt -0.021530 -0.203228
vt -0.024752 -0.203412
vt -0.062365 -0.219833
vt -0.024775 -0.224815
vt -0.021530 -0.203228
vt -0.018504 -0.204351
vt 0.012618 -0.231105
vt 0.012618 -0.231105
vt -0.018504 -0.204351
vt -0.021530 -0.203228
vt -0.024775 -0.224815
vt -0.003999 -0.350202
vt 0.064359 -0.383649
vt -0.015900 -0.397411
vt -0.022328 -0.354654
vt -0.022328 -0.354654
vt -0.015900 -0.397411
vt 0.064359 -0.383649
vt -0.003999 -0.350202
vt -0.022328 -0.354654
vt -0.015900 -0.397411
vt -0.096659 -0.407855
vt -0.041156 -0.355788
vt -0.041156 -0.355788
vt -0.096659 -0.407855
vt -0.015900 -0.397411
vt -0.022328 -0.354654
vt 0.064359 -0.383649
vt 0.094997 -0.432990
vt -0.007970 -0.450166
vt -0.015900 -0.397411
vt -0.015900 -0.397411
vt -0.007970 -0.450166
vt 0.094997 -0.432990
vt 0.064359 -0.383649
vt -0.015900 -0.397411
vt -0.007970 -0.450166
vt -0.111435 -0.464024
vt -0.096659 -0.407855
vt -0.096659 -0.407855
vt -0.111435 -0.464024
vt -0.007970 -0.450166
vt -0.015900 -0.397411
vt 0.094997 -0.432990
vt 0.084871 -0.492013
vt 0.000483 -0.506395
vt -0.007970 -0.450166
vt -0.007970 -0.450166
vt 0.000483 -0.506395
vt 0.084871 -0.492013
vt 0.094997 -0.432990
vt -0.007970 -0.450166
vt 0.000483 -0.506395
vt -0.084403 -0.517460
vt -0.111435 -0.464024
vt -0.111435 -0.464024
vt -0.084403 -0.517460
vt 0.000483 -0.506395
vt -0.007970 -0.450166
vt 0.084871 -0.492013
vt 0.050087 -0.541473
vt 0.006986 -0.549648
vt 0.000483 -0.506395
vt 0.000483 -0.506395
vt 0.006986 -0.549648
vt 0.050087 -0.541473
vt 0.084871 -0.492013
vt 0.000483 -0.506395
vt 0.006986 -0.549648
vt -0.036615 -0.554507
vt -0.084403 -0.517460
vt -0.084403 -0.517460
vt -0.036615 -0.554507
vt 0.006986 -0.549648
vt 0.000483 -0.506395
vt 0.050087 -0.541473
vt 0.014250 -0.573399
vt 0.010887 -0.575600
vt 0.006986 -0.549648
vt 0.006986 -0.549648
vt 0.010887 -0.575600
vt 0.014250 -0.573399
vt 0.050087 -0.541473
vt 0.006986 -0.549648
vt 0.010887 -0.575600
vt 0.007025 -0.574485
vt -0.036615 -0.554507
vt -0.036615 -0.554507
vt 0.007025 -0.574485
vt 0.010887 -0.575600
vt 0.006986 -0.549648
vt 0.023998 0.558532
vt 0.025887 0.547684
vt -0.065708 0.505141
vt -0.077071 0.548037
vt -0.077071 0.548037
vt -0.065708 0.505141
vt 0.025887 0.547684
vt 0.023998 0.558532
vt 0.025887 0.547684
vt 0.028312 0.540980
vt -0.054908 0.457886
vt -0.065708 0.505141
vt -0.065708 0.505141
vt -0.054908 0.457886
vt 0.028312 0.540980
vt 0.025887 0.547684
vt 0.028312 -0.405334
vt 0.030347 -0.416638
vt -0.048071 -0.447992
vt -0.054908 -0.396180
vt -0.054908 -0.396180
vt -0.048071 -0.447992
vt 0.030347 -0.416638
vt 0.028312 -0.405334
vt 0.030347 -0.416638
vt 0.031214 -0.425923
vt -0.040006 -0.501927
vt -0.048071 -0.447992
vt -0.048071 -0.447992
vt -0.040006 -0.501927
vt 0.031214 -0.425923
vt 0.030347 -0.416638
vt 0.031214 0.547684
vt 0.030582 0.558532
vt -0.047143 0.548037
vt -0.040006 0.492321
vt -0.040006 0.492321
vt -0.047143 0.548037
vt 0.030582 0.558532
vt 0.031214 0.547684
vt 0.030582 0.558532
vt 0.028692 0.569379
vt -0.052958 0.603754
vt -0.047143 0.548037
vt -0.047143 0.548037
vt -0.052958 0.603754
vt 0.028692 0.569379
vt 0.030582 0.558532
vt 0.028692 -0.426376
vt 0.026267 -0.417372
vt -0.064206 -0.450896
vt -0.052958 -0.504259
vt -0.052958 -0.504259
vt -0.064206 -0.450896
vt 0.026267 -0.417372
vt 0.028692 -0.426376
vt 0.026267 -0.417372
vt 0.024232 -0.406069
vt -0.075865 -0.399952
vt -0.064206 -0.450896
vt -0.064206 -0.450896
vt -0.075865 -0.399952
vt 0.024232 -0.406069
vt 0.026267 -0.417372
vt 0.024232 0.576083
vt 0.023365 0.569379
vt -0.075680 0.590934
vt -0.075865 0.638188
vt -0.075865 0.638188
vt -0.075680 0.590934
vt 0.023365 0.569379
vt 0.024232 0.576083
vt 0.023365 0.569379
vt 0.023998 0.558532
vt -0.077071 0.548037
vt -0.075680 0.590934
vt -0.075680 0.590934
vt -0.077071 0.548037
vt 0.023998 0.558532
vt 0.023365 0.569379
vt -0.006185 -0.382521
vt -0.048334 -0.328665
vt 0.015630 -0.337756
vt 0.008637 -0.384215
vt 0.008637 -0.384215
vt 0.015630 -0.337756
vt -0.048334 -0.328665
vt -0.006185 -0.382521
vt 0.008637 -0.384215
vt 0.015630 -0.337756
vt 0.079435 -0.347897
vt 0.023300 -0.386959
vt 0.023300 -0.386959
vt 0.079435 -0.347897
vt 0.015630 -0.337756
vt 0.008637 -0.384215
vt -0.048334 -0.328665
vt -0.057682 -0.268349
vt 0.024300 -0.280152
vt 0.015630 -0.337756
vt 0.015630 -0.337756
vt 0.024300 -0.280152
vt -0.057682 -0.268349
vt -0.048334 -0.328665
vt 0.015630 -0.337756
vt 0.024300 -0.280152
vt 0.106124 -0.293005
vt 0.079435 -0.347897
vt 0.079435 -0.347897
vt 0.106124 -0.293005
vt 0.024300 -0.280152
vt 0.015630 -0.337756
vt -0.057682 -0.268349
vt -0.033688 -0.209104
vt 0.033551 -0.218688
vt 0.024300 -0.280152
vt 0.024300 -0.280152
vt 0.033551 -0.218688
vt -0.033688 -0.209104
vt -0.057682 -0.268349
vt 0.024300 -0.280152
vt 0.033551 -0.218688
vt 0.100633 -0.229322
vt 0.106124 -0.293005
vt 0.106124 -0.293005
vt 0.100633 -0.229322
vt 0.033551 -0.218688
vt 0.024300 -0.280152
vt -0.033688 -0.209104
vt 0.006190 -0.166756
vt 0.040668 -0.171408
vt 0.033551 -0.218688
vt 0.033551 -0.218688
vt 0.040668 -0.171408
vt 0.006190 -0.166756
vt -0.033688 -0.209104
vt 0.033551 -0.218688
vt 0.040668 -0.171408
vt 0.074988 -0.177111
vt 0.100633 -0.229322
vt 0.100633 -0.229322
vt 0.074988 -0.177111
vt 0.040668 -0.171408
vt 0.033551 -0.218688
vt 0.006190 -0.166756
vt 0.041992 -0.143134
vt 0.044938 -0.143040
vt 0.040668 -0.171408
vt 0.040668 -0.171408
vt 0.044938 -0.143040
vt 0.041992 -0.143134
vt 0.006190 -0.166756
vt 0.040668 -0.171408
vt 0.044938 -0.143040
vt 0.047725 -0.143997
vt 0.074988 -0.177111
vt 0.074988 -0.177111
vt 0.047725 -0.143997
vt 0.044938 -0.143040
vt 0.040668 -0.171408
vt 0.056855 -0.297278
vt 0.121614 -0.336205
vt 0.047009 -0.349257
vt 0.039845 -0.301661
vt 0.039845 -0.301661
vt 0.047009 -0.349257
vt 0.121614 -0.336205
vt 0.056855 -0.297278
vt 0.039845 -0.301661
vt 0.047009 -0.349257
vt -0.028132 -0.358745
vt 0.022299 -0.302480
vt 0.022299 -0.302480
vt -0.028132 -0.358745
vt 0.047009 -0.349257
vt 0.039845 -0.301661
vt 0.121614 -0.336205
vt 0.151646 -0.392248
vt 0.055923 -0.408479
vt 0.047009 -0.349257
vt 0.047009 -0.349257
vt 0.055923 -0.408479
vt 0.151646 -0.392248
vt 0.121614 -0.336205
vt 0.047009 -0.349257
vt 0.055923 -0.408479
vt -0.040336 -0.421145
vt -0.028132 -0.358745
vt -0.028132 -0.358745
vt -0.040336 -0.421145
vt 0.055923 -0.408479
vt 0.047009 -0.349257
vt 0.151646 -0.392248
vt 0.143886 -0.458088
vt 0.065442 -0.471717
vt 0.055923 -0.408479
vt 0.055923 -0.408479
vt 0.065442 -0.471717
vt 0.143886 -0.458088
vt 0.151646 -0.392248
vt 0.055923 -0.408479
vt 0.065442 -0.471717
vt -0.013539 -0.481783
vt -0.040336 -0.421145
vt -0.040336 -0.421145
vt -0.013539 -0.481783
vt 0.065442 -0.471717
vt 0.055923 -0.408479
vt 0.143886 -0.458088
vt 0.112812 -0.512512
vt 0.072764 -0.520362
vt 0.065442 -0.471717
vt 0.065442 -0.471717
vt 0.072764 -0.520362
vt 0.112812 -0.512512
vt 0.143886 -0.458088
vt 0.065442 -0.471717
vt 0.072764 -0.520362
vt 0.032180 -0.524649
vt -0.013539 -0.481783
vt -0.013539 -0.481783
vt 0.032180 -0.524649
vt 0.072764 -0.520362
vt 0.065442 -0.471717
vt 0.112812 -0.512512
vt 0.080249 -0.547262
vt 0.077157 -0.549549
vt 0.072764 -0.520362
vt 0.072764 -0.520362
vt 0.077157 -0.549549
vt 0.080249 -0.547262
vt 0.112812 -0.512512
vt 0.072764 -0.520362
vt 0.077157 -0.549549
vt 0.073529 -0.548273
vt 0.032180 -0.524649
vt 0.032180 -0.524649
vt 0.073529 -0.548273
vt 0.077157 -0.549549
vt 0.072764 -0.520362
vt 0.031785 0.810308
vt 0.033548 0.800187
vt -0.055956 0.760006
vt -0.066558 0.800032
vt -0.066558 0.800032
vt -0.055956 0.760006
vt 0.033548 0.800187
vt 0.031785 0.810308
vt 0.033548 0.800187
vt 0.035811 0.793931
vt -0.045879 0.715914
vt -0.055956 0.760006
vt -0.055956 0.760006
vt -0.045879 0.715914
vt 0.035811 0.793931
vt 0.033548 0.800187
vt 0.035811 -0.380637
vt 0.037709 -0.391184
vt -0.039499 -0.421167
vt -0.045879 -0.372821
vt -0.045879 -0.372821
vt -0.039499 -0.421167
vt 0.037709 -0.391184
vt 0.035811 -0.380637
vt 0.037709 -0.391184
vt 0.038518 -0.399847
vt -0.031974 -0.471493
vt -0.039499 -0.421167
vt -0.039499 -0.421167
vt -0.031974 -0.471493
vt 0.038518 -0.399847
vt 0.037709 -0.391184
vt 0.038518 0.800187
vt 0.037928 0.810308
vt -0.038633 0.800032
vt -0.031974 0.748044
vt -0.031974 0.748044
vt -0.038633 0.800032
vt 0.037928 0.810308
vt 0.038518 0.800187
vt 0.037928 0.810308
vt 0.036165 0.820430
vt -0.044059 0.852019
vt -0.038633 0.800032
vt -0.038633 0.800032
vt -0.044059 0.852019
vt 0.036165 0.820430
vt 0.037928 0.810308
vt 0.036165 -0.400271
vt 0.033902 -0.391869
vt -0.054555 -0.423877
vt -0.044059 -0.473668
vt -0.044059 -0.473668
vt -0.054555 -0.423877
vt 0.033902 -0.391869
vt 0.036165 -0.400271
vt 0.033902 -0.391869
vt 0.032004 -0.381322
vt -0.065433 -0.376341
vt -0.054555 -0.423877
vt -0.054555 -0.423877
vt -0.065433 -0.376341
vt 0.032004 -0.381322
vt 0.033902 -0.391869
vt 0.032004 0.826685
vt 0.031195 0.820430
vt -0.065260 0.840058
vt -0.065433 0.884150
vt -0.065433 0.884150
vt -0.065260 0.840058
vt 0.031195 0.820430
vt 0.032004 0.826685
vt 0.031195 0.820430
vt 0.031785 0.810308
vt -0.066558 0.800032
vt -0.065260 0.840058
vt -0.065260 0.840058
vt -0.066558 0.800032
vt 0.031785 0.810308
vt 0.031195 0.820430
vt 0.092375 0.933221
vt 0.085607 0.934764
vt 0.080179 0.930442
vt 0.080179 0.923511
vt 0.085607 0.919189
vt 0.092375 0.920731
vt 0.095387 0.926976
vt 0.095387 0.938895
vt 0.092375 0.932650
vt 0.085607 0.931107
vt 0.080179 0.935429
vt 0.080179 0.942360
vt 0.085607 0.946682
vt 0.092375 0.945140
vt -0.338136 0.926976
vt -0.337791 0.920731
vt -0.122563 0.932650
vt -0.122909 0.938895
vt 0.092375 -0.337791
vt 0.085607 -0.337705
vt 0.085607 -0.122478
vt 0.092375 -0.122563
vt 0.085607 -0.337705
vt 0.080179 -0.337945
vt 0.080179 -0.122717
vt 0.085607 -0.122478
vt -0.337945 0.923511
vt -0.338328 0.930442
vt -0.123101 0.942360
vt -0.122717 0.935429
vt 0.080179 -0.338328
vt 0.085607 -0.338568
vt 0.085607 -0.123340
vt 0.080179 -0.123101
vt 0.085607 -0.338568
vt 0.092375 -0.338482
vt 0.092375 -0.123255
vt 0.085607 -0.123340
vt -0.338482 0.933221
vt -0.338136 0.926976
vt -0.122909 0.938895
vt -0.123255 0.945140
vt -0.111458 -0.174900
vt -0.109342 -0.184595
vt -0.115273 -0.192466
vt -0.124786 -0.192586
vt -0.130718 -0.184865
vt -0.128601 -0.175117
vt -0.120030 -0.170682
vt 0.007794 -0.188265
vt 0.000341 -0.192122
vt -0.001500 -0.200598
vt 0.003658 -0.207312
vt 0.011931 -0.207208
vt 0.017089 -0.200363
vt 0.015248 -0.191933
vt -0.120030 0.081158
vt -0.128601 0.083699
vt 0.000341 0.486459
vt 0.007794 0.484250
vt -0.175117 0.083699
vt -0.184865 0.083981
vt -0.200598 0.486705
vt -0.192122 0.486459
vt -0.184865 0.083981
vt -0.192586 0.081792
vt -0.207312 0.484802
vt -0.200598 0.486705
vt -0.124786 0.081792
vt -0.115273 0.078781
vt 0.011931 0.482183
vt 0.003658 0.484802
vt -0.192466 0.078781
vt -0.184595 0.077214
vt -0.200363 0.480821
vt -0.207208 0.482183
vt -0.184595 0.077214
vt -0.174900 0.078272
vt -0.191933 0.481741
vt -0.200363 0.480821
vt -0.111458 0.078272
vt -0.120030 0.081158
vt 0.007794 0.484250
vt 0.015248 0.481741
vt 0.015466 -0.192214
vt 0.017361 -0.200667
vt 0.012052 -0.207305
vt 0.003537 -0.207130
vt -0.001772 -0.200274
vt 0.000123 -0.191899
vt 0.007794 -0.188312
vt 0.100012 -0.141109
vt 0.093874 -0.143979
vt 0.092358 -0.150679
vt 0.096606 -0.156164
vt 0.103418 -0.156304
vt 0.107665 -0.150993
vt 0.106149 -0.144231
vt 0.007794 0.482804
vt 0.000123 0.484696
vt 0.093874 0.951837
vt 0.100012 0.950324
vt -0.191899 0.484696
vt -0.200274 0.485951
vt -0.150679 0.952841
vt -0.143979 0.951837
vt -0.200274 0.485951
vt -0.207130 0.485626
vt -0.156164 0.952581
vt -0.150679 0.952841
vt 0.003537 0.485626
vt 0.012052 0.483964
vt 0.103418 0.951251
vt 0.096606 0.952581
vt -0.207305 0.483964
vt -0.200667 0.482217
vt -0.150993 0.949854
vt -0.156304 0.951251
vt -0.200667 0.482217
vt -0.192214 0.481701
vt -0.144231 0.949441
vt -0.150993 0.949854
vt 0.015466 0.481701
vt 0.007794 0.482804
vt 0.100012 0.950324
vt 0.106149 0.949441
vt -0.073384 -0.151078
vt -0.004222 -0.186951
vt -0.085176 -0.199980
vt -0.091967 -0.154744
vt -0.091967 -0.154744
vt -0.085176 -0.199980
vt -0.004222 -0.186951
vt -0.073384 -0.151078
vt -0.091967 -0.154744
vt -0.085176 -0.199980
vt -0.166388 -0.211295
vt -0.110807 -0.156696
vt -0.110807 -0.156696
vt -0.166388 -0.211295
vt -0.085176 -0.199980
vt -0.091967 -0.154744
vt -0.004222 -0.186951
vt 0.027052 -0.239507
vt -0.076771 -0.255969
vt -0.085176 -0.199980
vt -0.085176 -0.199980
vt -0.076771 -0.255969
vt 0.027052 -0.239507
vt -0.004222 -0.186951
vt -0.085176 -0.199980
vt -0.076771 -0.255969
vt -0.180852 -0.270717
vt -0.166388 -0.211295
vt -0.166388 -0.211295
vt -0.180852 -0.270717
vt -0.076771 -0.255969
vt -0.085176 -0.199980
vt 0.027052 -0.239507
vt 0.017306 -0.302033
vt -0.067807 -0.315687
vt -0.076771 -0.255969
vt -0.076771 -0.255969
vt -0.067807 -0.315687
vt 0.017306 -0.302033
vt 0.027052 -0.239507
vt -0.076771 -0.255969
vt -0.067807 -0.315687
vt -0.153176 -0.327626
vt -0.180852 -0.270717
vt -0.180852 -0.270717
vt -0.153176 -0.327626
vt -0.067807 -0.315687
vt -0.076771 -0.255969
vt 0.017306 -0.302033
vt -0.017379 -0.354212
vt -0.060911 -0.361624
vt -0.067807 -0.315687
vt -0.067807 -0.315687
vt -0.060911 -0.361624
vt -0.017379 -0.354212
vt 0.017306 -0.302033
vt -0.067807 -0.315687
vt -0.060911 -0.361624
vt -0.104699 -0.367321
vt -0.153176 -0.327626
vt -0.153176 -0.327626
vt -0.104699 -0.367321
vt -0.060911 -0.361624
vt -0.067807 -0.315687
vt -0.017379 -0.354212
vt -0.053263 -0.387782
vt -0.056773 -0.389186
vt -0.060911 -0.361624
vt -0.060911 -0.361624
vt -0.056773 -0.389186
vt -0.053263 -0.387782
vt -0.017379 -0.354212
vt -0.060911 -0.361624
vt -0.056773 -0.389186
vt -0.060540 -0.388874
vt -0.104699 -0.367321
vt -0.104699 -0.367321
vt -0.060540 -0.388874
vt -0.056773 -0.389186
vt -0.060911 -0.361624
vt -0.052667 -0.194832
vt -0.111747 -0.146453
vt -0.027183 -0.157654
vt -0.032984 -0.196293
vt -0.032984 -0.196293
vt -0.027183 -0.157654
vt -0.111747 -0.146453
vt -0.052667 -0.194832
vt -0.032984 -0.196293
vt -0.027183 -0.157654
vt 0.056941 -0.171777
vt -0.013739 -0.200676
vt -0.013739 -0.200676
vt 0.056941 -0.171777
vt -0.027183 -0.157654
vt -0.032984 -0.196293
vt -0.111747 -0.146453
vt -0.128445 -0.095640
vt -0.020092 -0.110412
vt -0.027183 -0.157654
vt -0.027183 -0.157654
vt -0.020092 -0.110412
vt -0.128445 -0.095640
vt -0.111747 -0.146453
vt -0.027183 -0.157654
vt -0.020092 -0.110412
vt 0.087823 -0.128106
vt 0.056941 -0.171777
vt 0.056941 -0.171777
vt 0.087823 -0.128106
vt -0.020092 -0.110412
vt -0.027183 -0.157654
vt -0.128445 -0.095640
vt -0.101437 -0.048309
vt -0.012548 -0.060159
vt -0.020092 -0.110412
vt -0.020092 -0.110412
vt -0.012548 -0.060159
vt -0.101437 -0.048309
vt -0.128445 -0.095640
vt -0.020092 -0.110412
vt -0.012548 -0.060159
vt 0.075903 -0.074931
vt 0.087823 -0.128106
vt 0.087823 -0.128106
vt 0.075903 -0.074931
vt -0.012548 -0.060159
vt -0.020092 -0.110412
vt -0.101437 -0.048309
vt -0.052380 -0.016147
vt -0.006745 -0.021503
vt -0.012548 -0.060159
vt -0.012548 -0.060159
vt -0.006745 -0.021503
vt -0.052380 -0.016147
vt -0.101437 -0.048309
vt -0.012548 -0.060159
vt -0.006745 -0.021503
vt 0.038452 -0.029782
vt 0.075903 -0.074931
vt 0.075903 -0.074931
vt 0.038452 -0.029782
vt -0.006745 -0.021503
vt -0.012548 -0.060159
vt -0.052380 -0.016147
vt -0.007267 0.000797
vt -0.003263 0.001690
vt -0.006745 -0.021503
vt -0.006745 -0.021503
vt -0.003263 0.001690
vt -0.007267 0.000797
vt -0.052380 -0.016147
vt -0.006745 -0.021503
vt -0.003263 0.001690
vt 0.000302 -0.000339
vt 0.038452 -0.029782
vt 0.038452 -0.029782
vt 0.000302 -0.000339
vt -0.003263 0.001690
vt -0.006745 -0.021503
vt -0.032912 0.452383
vt -0.032421 0.443966
vt -0.114533 0.408163
vt -0.113453 0.441450
vt -0.113453 0.441450
vt -0.114533 0.408163
vt -0.032421 0.443966
vt -0.032912 0.452383
vt -0.032421 0.443966
vt -0.033094 0.438763
vt -0.114389 0.371495
vt -0.114533 0.408163
vt -0.114533 0.408163
vt -0.114389 0.371495
vt -0.033094 0.438763
vt -0.032421 0.443966
vt -0.033094 -0.181397
vt -0.034672 -0.190168
vt -0.123436 -0.187568
vt -0.114389 -0.148036
vt -0.114389 -0.148036
vt -0.123436 -0.187568
vt -0.034672 -0.190168
vt -0.033094 -0.181397
vt -0.034672 -0.190168
vt -0.036554 -0.197155
vt -0.132164 -0.228976
vt -0.123436 -0.187568
vt -0.123436 -0.187568
vt -0.132164 -0.228976
vt -0.036554 -0.197155
vt -0.034672 -0.190168
vt -0.036554 0.443966
vt -0.038021 0.452383
vt -0.136676 0.441450
vt -0.132164 0.398216
vt -0.132164 0.398216
vt -0.136676 0.441450
vt -0.038021 0.452383
vt -0.036554 0.443966
vt -0.038021 0.452383
vt -0.038511 0.460800
vt -0.142215 0.484684
vt -0.136676 0.441450
vt -0.136676 0.441450
vt -0.142215 0.484684
vt -0.038511 0.460800
vt -0.038021 0.452383
vt -0.038511 -0.196803
vt -0.037839 -0.189598
vt -0.135956 -0.185314
vt -0.142215 -0.227166
vt -0.142215 -0.227166
vt -0.135956 -0.185314
vt -0.037839 -0.189598
vt -0.038511 -0.196803
vt -0.037839 -0.189598
vt -0.036260 -0.180827
vt -0.130651 -0.145109
vt -0.135956 -0.185314
vt -0.135956 -0.185314
vt -0.130651 -0.145109
vt -0.036260 -0.180827
vt -0.037839 -0.189598
vt -0.036260 0.466002
vt -0.034378 0.460800
vt -0.122271 0.474737
vt -0.130651 0.511405
vt -0.130651 0.511405
vt -0.122271 0.474737
vt -0.034378 0.460800
vt -0.036260 0.466002
vt -0.034378 0.460800
vt -0.032912 0.452383
vt -0.113453 0.441450
vt -0.122271 0.474737
vt -0.122271 0.474737
vt -0.113453 0.441450
vt -0.032912 0.452383
vt -0.034378 0.460800
vt 0.032083 -0.171119
vt 0.107692 -0.206256
vt 0.018615 -0.221677
vt 0.011752 -0.176171
vt 0.011752 -0.176171
vt 0.018615 -0.221677
vt 0.107692 -0.206256
vt 0.032083 -0.171119
vt 0.011752 -0.176171
vt 0.018615 -0.221677
vt -0.071048 -0.233215
vt -0.009165 -0.177340
vt -0.009165 -0.177340
vt -0.071048 -0.233215
vt 0.018615 -0.221677
vt 0.011752 -0.176171
vt 0.107692 -0.206256
vt 0.141415 -0.258911
vt 0.027131 -0.278134
vt 0.018615 -0.221677
vt 0.018615 -0.221677
vt 0.027131 -0.278134
vt 0.141415 -0.258911
vt 0.107692 -0.206256
vt 0.018615 -0.221677
vt 0.027131 -0.278134
vt -0.087739 -0.293474
vt -0.071048 -0.233215
vt -0.071048 -0.233215
vt -0.087739 -0.293474
vt 0.027131 -0.278134
vt 0.018615 -0.221677
vt 0.141415 -0.258911
vt 0.129878 -0.322270
vt 0.036218 -0.338382
vt 0.027131 -0.278134
vt 0.027131 -0.278134
vt 0.036218 -0.338382
vt 0.129878 -0.322270
vt 0.141415 -0.258911
vt 0.027131 -0.278134
vt 0.036218 -0.338382
vt -0.058028 -0.350611
vt -0.087739 -0.293474
vt -0.087739 -0.293474
vt -0.058028 -0.350611
vt 0.036218 -0.338382
vt 0.027131 -0.278134
vt 0.129878 -0.322270
vt 0.091037 -0.375527
vt 0.043208 -0.384727
vt 0.036218 -0.338382
vt 0.036218 -0.338382
vt 0.043208 -0.384727
vt 0.091037 -0.375527
vt 0.129878 -0.322270
vt 0.036218 -0.338382
vt 0.043208 -0.384727
vt -0.005207 -0.390043
vt -0.058028 -0.350611
vt -0.058028 -0.350611
vt -0.005207 -0.390043
vt 0.043208 -0.384727
vt 0.036218 -0.338382
vt 0.091037 -0.375527
vt 0.051119 -0.409987
vt 0.047402 -0.412534
vt 0.043208 -0.384727
vt 0.043208 -0.384727
vt 0.047402 -0.412534
vt 0.051119 -0.409987
vt 0.091037 -0.375527
vt 0.043208 -0.384727
vt 0.047402 -0.412534
vt 0.043099 -0.411197
vt -0.005207 -0.390043
vt -0.005207 -0.390043
vt 0.043099 -0.411197
vt 0.047402 -0.412534
vt 0.043208 -0.384727
vt 0.030892 -0.182488
vt -0.033225 -0.134150
vt 0.057594 -0.147484
vt 0.051891 -0.185291
vt 0.051891 -0.185291
vt 0.057594 -0.147484
vt -0.033225 -0.134150
vt 0.030892 -0.182488
vt 0.051891 -0.185291
vt 0.057594 -0.147484
vt 0.148304 -0.161530
vt 0.072783 -0.188807
vt 0.072783 -0.188807
vt 0.148304 -0.161530
vt 0.057594 -0.147484
vt 0.051891 -0.185291
vt -0.033225 -0.134150
vt -0.051877 -0.084225
vt 0.064541 -0.101420
vt 0.057594 -0.147484
vt 0.057594 -0.147484
vt 0.064541 -0.101420
vt -0.051877 -0.084225
vt -0.033225 -0.134150
vt 0.057594 -0.147484
vt 0.064541 -0.101420
vt 0.180852 -0.119327
vt 0.148304 -0.161530
vt 0.148304 -0.161530
vt 0.180852 -0.119327
vt 0.064541 -0.101420
vt 0.057594 -0.147484
vt -0.051877 -0.084225
vt -0.023547 -0.038423
vt 0.071926 -0.052459
vt 0.064541 -0.101420
vt 0.064541 -0.101420
vt 0.071926 -0.052459
vt -0.023547 -0.038423
vt -0.051877 -0.084225
vt 0.064541 -0.101420
vt 0.071926 -0.052459
vt 0.167292 -0.067207
vt 0.180852 -0.119327
vt 0.180852 -0.119327
vt 0.167292 -0.067207
vt 0.071926 -0.052459
vt 0.064541 -0.101420
vt -0.023547 -0.038423
vt 0.028680 -0.007781
vt 0.077607 -0.014797
vt 0.071926 -0.052459
vt 0.071926 -0.052459
vt 0.077607 -0.014797
vt 0.028680 -0.007781
vt -0.023547 -0.038423
vt 0.071926 -0.052459
vt 0.077607 -0.014797
vt 0.126426 -0.022524
vt 0.167292 -0.067207
vt 0.167292 -0.067207
vt 0.126426 -0.022524
vt 0.077607 -0.014797
vt 0.071926 -0.052459
vt 0.028680 -0.007781
vt 0.076888 0.008059
vt 0.081015 0.007800
vt 0.077607 -0.014797
vt 0.077607 -0.014797
vt 0.081015 0.007800
vt 0.076888 0.008059
vt 0.028680 -0.007781
vt 0.077607 -0.014797
vt 0.081015 0.007800
vt 0.085034 0.006830
vt 0.126426 -0.022524
vt 0.126426 -0.022524
vt 0.085034 0.006830
vt 0.081015 0.007800
vt 0.077607 -0.014797
vt -0.138875 0.797390
vt -0.142530 0.786733
vt -0.086517 0.746098
vt -0.050831 0.788241
vt -0.050831 0.788241
vt -0.086517 0.746098
vt -0.142530 0.786733
vt -0.138875 0.797390
vt -0.142530 0.786733
vt -0.151651 0.780146
vt -0.116454 0.699674
vt -0.086517 0.746098
vt -0.086517 0.746098
vt -0.116454 0.699674
vt -0.151651 0.780146
vt -0.142530 0.786733
vt 0.061495 -0.151651
vt 0.059496 -0.162756
vt -0.013774 -0.166504
vt -0.002320 -0.116454
vt -0.002320 -0.116454
vt -0.013774 -0.166504
vt 0.059496 -0.162756
vt 0.061495 -0.151651
vt 0.059496 -0.162756
vt 0.057114 -0.171602
vt -0.024825 -0.218929
vt -0.013774 -0.166504
vt -0.013774 -0.166504
vt -0.024825 -0.218929
vt 0.057114 -0.171602
vt 0.059496 -0.162756
vt 0.057114 0.786733
vt 0.055257 0.797390
vt -0.030538 0.788241
vt -0.024825 0.733503
vt -0.024825 0.733503
vt -0.030538 0.788241
vt 0.055257 0.797390
vt 0.057114 0.786733
vt 0.055257 0.797390
vt 0.054636 0.808046
vt -0.037550 0.842978
vt -0.030538 0.788241
vt -0.030538 0.788241
vt -0.037550 0.842978
vt 0.054636 0.808046
vt 0.055257 0.797390
vt 0.054636 -0.171156
vt 0.055488 -0.162035
vt -0.029626 -0.163650
vt -0.037550 -0.216638
vt -0.037550 -0.216638
vt -0.029626 -0.163650
vt 0.055488 -0.162035
vt 0.054636 -0.171156
vt 0.055488 -0.162035
vt 0.057487 -0.150930
vt -0.022909 -0.112748
vt -0.029626 -0.163650
vt -0.029626 -0.163650
vt -0.022909 -0.112748
vt 0.057487 -0.150930
vt 0.055488 -0.162035
vt -0.150930 0.814633
vt -0.142084 0.808046
vt -0.084754 0.830384
vt -0.112748 0.876808
vt -0.112748 0.876808
vt -0.084754 0.830384
vt -0.142084 0.808046
vt -0.150930 0.814633
vt -0.142084 0.808046
vt -0.138875 0.797390
vt -0.050831 0.788241
vt -0.084754 0.830384
vt -0.084754 0.830384
vt -0.050831 0.788241
vt -0.138875 0.797390
vt -0.142084 0.808046
vt 0.105000 0.957402
vt 0.098232 0.958943
vt 0.092804 0.954624
vt 0.092804 0.947698
vt 0.098232 0.943380
vt 0.105000 0.944921
vt 0.108012 0.951161
vt 0.108012 0.968494
vt 0.105000 0.962253
vt 0.098232 0.960712
vt 0.092804 0.965031
vt 0.092804 0.971957
vt 0.098232 0.976275
vt 0.105000 0.974734
vt -0.149065 0.951161
vt -0.148643 0.944921
vt 0.107513 0.962253
vt 0.107091 0.968494
vt 0.105000 -0.148643
vt 0.098232 -0.148539
vt 0.098232 0.107618
vt 0.105000 0.107513
vt 0.098232 -0.148539
vt 0.092804 -0.148831
vt 0.092804 0.107325
vt 0.098232 0.107618
vt -0.148831 0.947698
vt -0.149300 0.954624
vt 0.106857 0.971957
vt 0.107325 0.965031
vt 0.092804 -0.149300
vt 0.098232 -0.149592
vt 0.098232 0.106565
vt 0.092804 0.106857
vt 0.098232 -0.149592
vt 0.105000 -0.149488
vt 0.105000 0.106669
vt 0.098232 0.106565
vt -0.149488 0.957402
vt -0.149065 0.951161
vt 0.107091 0.968494
vt 0.106669 0.974734
vt -0.072634 0.066779
vt -0.070434 0.057263
vt -0.076598 0.049893
vt -0.086485 0.050219
vt -0.092649 0.057995
vt -0.090449 0.067366
vt -0.081541 0.071275
vt -0.028495 0.162916
vt -0.036241 0.159517
vt -0.038154 0.151369
vt -0.032794 0.144607
vt -0.024197 0.144323
vt -0.018836 0.150732
vt -0.020749 0.159006
vt -0.081541 0.064108
vt -0.090449 0.066335
vt -0.036241 0.442074
vt -0.028495 0.440138
vt 0.067366 0.066335
vt 0.057995 0.068968
vt 0.151369 0.444364
vt 0.159517 0.442074
vt 0.057995 0.068968
vt 0.050219 0.070025
vt 0.144607 0.445282
vt 0.151369 0.444364
vt -0.086485 0.070025
vt -0.076598 0.068709
vt -0.024197 0.444139
vt -0.032794 0.445282
vt 0.049893 0.068709
vt 0.057263 0.066013
vt 0.150732 0.441794
vt 0.144323 0.444139
vt 0.057263 0.066013
vt 0.066779 0.063965
vt 0.159006 0.440013
vt 0.150732 0.441794
vt -0.072634 0.063965
vt -0.081541 0.064108
vt -0.028495 0.440138
vt -0.020749 0.440013
vt -0.020891 0.159604
vt -0.019013 0.151241
vt -0.024275 0.144361
vt -0.032715 0.144144
vt -0.037977 0.150754
vt -0.036099 0.159213
vt -0.028495 0.163152
vt 0.090635 0.107626
vt 0.084552 0.104476
vt 0.083049 0.097708
vt 0.087259 0.092420
vt 0.094011 0.092593
vt 0.098221 0.098098
vt 0.096718 0.104788
vt -0.028495 0.443618
vt -0.036099 0.445020
vt 0.084552 0.939985
vt 0.090635 0.938862
vt 0.159213 0.445020
vt 0.150754 0.444558
vt 0.097708 0.939615
vt 0.104476 0.939985
vt 0.150754 0.444558
vt 0.144144 0.442578
vt 0.092420 0.938031
vt 0.097708 0.939615
vt -0.032715 0.442578
vt -0.024275 0.440573
vt 0.094011 0.936426
vt 0.087259 0.938031
vt 0.144361 0.440573
vt 0.151241 0.440051
vt 0.098098 0.936009
vt 0.092593 0.936426
vt 0.151241 0.440051
vt 0.159604 0.441406
vt 0.104788 0.937093
vt 0.098098 0.936009
vt -0.020891 0.441406
vt -0.028495 0.443618
vt 0.090635 0.938862
vt 0.096718 0.937093
vt -0.091668 0.078945
vt -0.134252 0.123190
vt -0.071614 0.112767
vt -0.077299 0.075982
vt -0.077299 0.075982
vt -0.071614 0.112767
vt -0.134252 0.123190
vt -0.091668 0.078945
vt -0.077299 0.075982
vt -0.071614 0.112767
vt -0.008752 0.103796
vt -0.062706 0.074470
vt -0.062706 0.074470
vt -0.008752 0.103796
vt -0.071614 0.112767
vt -0.077299 0.075982
vt -0.134252 0.123190
vt -0.145041 0.170642
vt -0.064704 0.157484
vt -0.071614 0.112767
vt -0.071614 0.112767
vt -0.064704 0.157484
vt -0.145041 0.170642
vt -0.134252 0.123190
vt -0.071614 0.112767
vt -0.064704 0.157484
vt 0.015857 0.145778
vt -0.008752 0.103796
vt -0.008752 0.103796
vt 0.015857 0.145778
vt -0.064704 0.157484
vt -0.071614 0.112767
vt -0.145041 0.170642
vt -0.123218 0.215910
vt -0.057362 0.204990
vt -0.064704 0.157484
vt -0.064704 0.157484
vt -0.057362 0.204990
vt -0.123218 0.215910
vt -0.145041 0.170642
vt -0.064704 0.157484
vt -0.057362 0.204990
vt 0.008718 0.195521
vt 0.015857 0.145778
vt 0.015857 0.145778
vt 0.008718 0.195521
vt -0.057362 0.204990
vt -0.064704 0.157484
vt -0.123218 0.215910
vt -0.085392 0.247480
vt -0.051715 0.241532
vt -0.057362 0.204990
vt -0.057362 0.204990
vt -0.051715 0.241532
vt -0.085392 0.247480
vt -0.123218 0.215910
vt -0.057362 0.204990
vt -0.051715 0.241532
vt -0.017814 0.237037
vt 0.008718 0.195521
vt 0.008718 0.195521
vt -0.017814 0.237037
vt -0.051715 0.241532
vt -0.057362 0.204990
vt -0.085392 0.247480
vt -0.051030 0.264619
vt -0.048327 0.263458
vt -0.051715 0.241532
vt -0.051715 0.241532
vt -0.048327 0.263458
vt -0.051030 0.264619
vt -0.085392 0.247480
vt -0.051715 0.241532
vt -0.048327 0.263458
vt -0.045399 0.263749
vt -0.017814 0.237037
vt -0.017814 0.237037
vt -0.045399 0.263749
vt -0.048327 0.263458
vt -0.051715 0.241532
vt -0.034607 0.159588
vt 0.037855 0.132762
vt -0.048433 0.116436
vt -0.054172 0.153573
vt -0.054172 0.153573
vt -0.048433 0.116436
vt 0.037855 0.132762
vt -0.034607 0.159588
vt -0.054172 0.153573
vt -0.048433 0.116436
vt -0.135624 0.105953
vt -0.074640 0.153401
vt -0.074640 0.153401
vt -0.135624 0.105953
vt -0.048433 0.116436
vt -0.054172 0.153573
vt 0.037855 0.132762
vt 0.069348 0.091068
vt -0.041405 0.070961
vt -0.048433 0.116436
vt -0.048433 0.116436
vt -0.041405 0.070961
vt 0.069348 0.091068
vt 0.037855 0.132762
vt -0.048433 0.116436
vt -0.041405 0.070961
vt -0.153062 0.056697
vt -0.135624 0.105953
vt -0.135624 0.105953
vt -0.153062 0.056697
vt -0.041405 0.070961
vt -0.048433 0.116436
vt 0.069348 0.091068
vt 0.056809 0.039585
vt -0.033928 0.022572
vt -0.041405 0.070961
vt -0.041405 0.070961
vt -0.033928 0.022572
vt 0.056809 0.039585
vt 0.069348 0.091068
vt -0.041405 0.070961
vt -0.033928 0.022572
vt -0.125567 0.011402
vt -0.153062 0.056697
vt -0.153062 0.056697
vt -0.125567 0.011402
vt -0.033928 0.022572
vt -0.041405 0.070961
vt 0.056809 0.039585
vt 0.018079 -0.004511
vt -0.028175 -0.014650
vt -0.033928 0.022572
vt -0.033928 0.022572
vt -0.028175 -0.014650
vt 0.018079 -0.004511
vt 0.056809 0.039585
vt -0.033928 0.022572
vt -0.028175 -0.014650
vt -0.075333 -0.018947
vt -0.125567 0.011402
vt -0.125567 0.011402
vt -0.075333 -0.018947
vt -0.028175 -0.014650
vt -0.033928 0.022572
vt 0.018079 -0.004511
vt -0.021283 -0.033461
vt -0.024724 -0.036984
vt -0.028175 -0.014650
vt -0.028175 -0.014650
vt -0.024724 -0.036984
vt -0.021283 -0.033461
vt 0.018079 -0.004511
vt -0.028175 -0.014650
vt -0.024724 -0.036984
vt -0.029068 -0.034664
vt -0.075333 -0.018947
vt -0.075333 -0.018947
vt -0.029068 -0.034664
vt -0.024724 -0.036984
vt -0.028175 -0.014650
vt -0.037228 0.142156
vt -0.101592 0.192854
vt -0.009763 0.181006
vt -0.015809 0.140931
vt -0.015809 0.140931
vt -0.009763 0.181006
vt -0.101592 0.192854
vt -0.037228 0.142156
vt -0.015809 0.140931
vt -0.009763 0.181006
vt 0.081475 0.165234
vt 0.005018 0.135782
vt 0.005018 0.135782
vt 0.081475 0.165234
vt -0.009763 0.181006
vt -0.015809 0.140931
vt -0.101592 0.192854
vt -0.119983 0.245967
vt -0.002337 0.230224
vt -0.009763 0.181006
vt -0.009763 0.181006
vt -0.002337 0.230224
vt -0.119983 0.245967
vt -0.101592 0.192854
vt -0.009763 0.181006
vt -0.002337 0.230224
vt 0.114717 0.210557
vt 0.081475 0.165234
vt 0.081475 0.165234
vt 0.114717 0.210557
vt -0.002337 0.230224
vt -0.009763 0.181006
vt -0.119983 0.245967
vt -0.090954 0.295187
vt 0.005570 0.282631
vt -0.002337 0.230224
vt -0.002337 0.230224
vt 0.005570 0.282631
vt -0.090954 0.295187
vt -0.119983 0.245967
vt -0.002337 0.230224
vt 0.005570 0.282631
vt 0.101501 0.266151
vt 0.114717 0.210557
vt 0.114717 0.210557
vt 0.101501 0.266151
vt 0.005570 0.282631
vt -0.002337 0.230224
vt -0.090954 0.295187
vt -0.037931 0.328418
vt 0.011652 0.322943
vt 0.005570 0.282631
vt 0.005570 0.282631
vt 0.011652 0.322943
vt -0.037931 0.328418
vt -0.090954 0.295187
vt 0.005570 0.282631
vt 0.011652 0.322943
vt 0.060643 0.313545
vt 0.101501 0.266151
vt 0.101501 0.266151
vt 0.060643 0.313545
vt 0.011652 0.322943
vt 0.005570 0.282631
vt -0.037931 0.328418
vt 0.010898 0.345789
vt 0.015301 0.347131
vt 0.011652 0.322943
vt 0.011652 0.322943
vt 0.015301 0.347131
vt 0.010898 0.345789
vt -0.037931 0.328418
vt 0.011652 0.322943
vt 0.015301 0.347131
vt 0.019112 0.344549
vt 0.060643 0.313545
vt 0.060643 0.313545
vt 0.019112 0.344549
vt 0.015301 0.347131
vt 0.011652 0.322943
vt 0.045953 0.126680
vt 0.105597 0.090403
vt 0.036793 0.079680
vt 0.030114 0.123948
vt 0.030114 0.123948
vt 0.036793 0.079680
vt 0.105597 0.090403
vt 0.045953 0.126680
vt 0.030114 0.123948
vt 0.036793 0.079680
vt -0.032113 0.069626
vt 0.014174 0.121885
vt 0.014174 0.121885
vt -0.032113 0.069626
vt 0.036793 0.079680
vt 0.030114 0.123948
vt 0.105597 0.090403
vt 0.133267 0.038656
vt 0.045042 0.025003
vt 0.036793 0.079680
vt 0.036793 0.079680
vt 0.045042 0.025003
vt 0.133267 0.038656
vt 0.105597 0.090403
vt 0.036793 0.079680
vt 0.045042 0.025003
vt -0.043284 0.012019
vt -0.032113 0.069626
vt -0.032113 0.069626
vt -0.043284 0.012019
vt 0.045042 0.025003
vt 0.036793 0.079680
vt 0.133267 0.038656
vt 0.126172 -0.022033
vt 0.053837 -0.033289
vt 0.045042 0.025003
vt 0.045042 0.025003
vt 0.053837 -0.033289
vt 0.126172 -0.022033
vt 0.133267 0.038656
vt 0.045042 0.025003
vt 0.053837 -0.033289
vt -0.018600 -0.043875
vt -0.043284 0.012019
vt -0.043284 0.012019
vt -0.018600 -0.043875
vt 0.053837 -0.033289
vt 0.045042 0.025003
vt 0.126172 -0.022033
vt 0.097627 -0.072200
vt 0.060602 -0.078128
vt 0.053837 -0.033289
vt 0.053837 -0.033289
vt 0.060602 -0.078128
vt 0.097627 -0.072200
vt 0.126172 -0.022033
vt 0.053837 -0.033289
vt 0.060602 -0.078128
vt 0.023475 -0.083387
vt -0.018600 -0.043875
vt -0.018600 -0.043875
vt 0.023475 -0.083387
vt 0.060602 -0.078128
vt 0.053837 -0.033289
vt 0.097627 -0.072200
vt 0.067700 -0.104231
vt 0.064661 -0.105032
vt 0.060602 -0.078128
vt 0.060602 -0.078128
vt 0.064661 -0.105032
vt 0.067700 -0.104231
vt 0.097627 -0.072200
vt 0.060602 -0.078128
vt 0.064661 -0.105032
vt 0.061521 -0.105164
vt 0.023475 -0.083387
vt 0.023475 -0.083387
vt 0.061521 -0.105164
vt 0.064661 -0.105032
vt 0.060602 -0.078128
vt 0.045323 0.757333
vt 0.047263 0.746200
vt -0.048108 0.702375
vt -0.059769 0.746398
vt -0.059769 0.746398
vt -0.048108 0.702375
vt 0.047263 0.746200
vt 0.045323 0.757333
vt 0.047263 0.746200
vt 0.049751 0.739320
vt -0.037025 0.653879
vt -0.048108 0.702375
vt -0.048108 0.702375
vt -0.037025 0.653879
vt 0.049751 0.739320
vt 0.047263 0.746200
vt 0.049751 0.085879
vt 0.051840 0.074279
vt -0.030008 0.041854
vt -0.037025 0.095028
vt -0.037025 0.095028
vt -0.030008 0.041854
vt 0.051840 0.074279
vt 0.049751 0.085879
vt 0.051840 0.074279
vt 0.052729 0.064750
vt -0.021731 -0.013498
vt -0.030008 0.041854
vt -0.030008 0.041854
vt -0.021731 -0.013498
vt 0.052729 0.064750
vt 0.051840 0.074279
vt 0.052729 0.746200
vt 0.052080 0.757333
vt -0.029056 0.746398
vt -0.021731 0.689219
vt -0.021731 0.689219
vt -0.029056 0.746398
vt 0.052080 0.757333
vt 0.052729 0.746200
vt 0.052080 0.757333
vt 0.050141 0.768465
vt -0.035023 0.803578
vt -0.029056 0.746398
vt -0.029056 0.746398
vt -0.035023 0.803578
vt 0.050141 0.768465
vt 0.052080 0.757333
vt 0.050141 0.064284
vt 0.047652 0.073525
vt -0.046567 0.038874
vt -0.035023 -0.015891
vt -0.035023 -0.015891
vt -0.046567 0.038874
vt 0.047652 0.073525
vt 0.050141 0.064284
vt 0.047652 0.073525
vt 0.045564 0.085125
vt -0.058533 0.091156
vt -0.046567 0.038874
vt -0.046567 0.038874
vt -0.058533 0.091156
vt 0.045564 0.085125
vt 0.047652 0.073525
vt 0.045564 0.775345
vt 0.044675 0.768465
vt -0.058342 0.790422
vt -0.058533 0.838918
vt -0.058533 0.838918
vt -0.058342 0.790422
vt 0.044675 0.768465
vt 0.045564 0.775345
vt 0.044675 0.768465
vt 0.045323 0.757333
vt -0.059769 0.746398
vt -0.058342 0.790422
vt -0.058342 0.790422
vt -0.059769 0.746398
vt 0.045323 0.757333
vt 0.044675 0.768465
vt 0.095623 0.944252
vt 0.088855 0.945796
vt 0.083427 0.941471
vt 0.083427 0.934535
vt 0.088855 0.930210
vt 0.095623 0.931754
vt 0.098635 0.938003
vt 0.098635 0.947734
vt 0.095623 0.941485
vt 0.088855 0.939941
vt 0.083427 0.944266
vt 0.083427 0.951202
vt 0.088855 0.955527
vt 0.095623 0.953983
vt 0.099673 0.938003
vt 0.099929 0.931754
vt 0.337347 0.941485
vt 0.337091 0.947734
vt 0.095623 0.099929
vt 0.088855 0.099992
vt 0.088855 0.337411
vt 0.095623 0.337347
vt 0.088855 0.099992
vt 0.083427 0.099815
vt 0.083427 0.337233
vt 0.088855 0.337411
vt 0.099815 0.934535
vt 0.099531 0.941471
vt 0.336949 0.951202
vt 0.337233 0.944266
vt 0.083427 0.099531
vt 0.088855 0.099353
vt 0.088855 0.336772
vt 0.083427 0.336949
vt 0.088855 0.099353
vt 0.095623 0.099417
vt 0.095623 0.336835
vt 0.088855 0.336772
vt 0.099417 0.944252
vt 0.099673 0.938003
vt 0.337091 0.947734
vt 0.336835 0.953983
vt -0.045858 0.284603
vt -0.043638 0.275062
vt -0.049860 0.267417
vt -0.059839 0.267425
vt -0.066061 0.275081
vt -0.063840 0.284618
vt -0.054849 0.288856
vt -0.052141 0.413085
vt -0.059959 0.409399
vt -0.061890 0.401106
vt -0.056480 0.394449
vt -0.047802 0.394442
vt -0.042392 0.401090
vt -0.044323 0.409386
vt -0.054849 0.000000
vt -0.063840 0.000888
vt -0.059959 0.628308
vt -0.052141 0.627536
vt 0.284618 0.000888
vt 0.275081 0.002809
vt 0.401106 0.629978
vt 0.409399 0.628308
vt 0.275081 0.002809
vt 0.267425 0.004316
vt 0.394449 0.631289
vt 0.401106 0.629978
vt -0.059839 0.004316
vt -0.049860 0.004275
vt -0.047802 0.631253
vt -0.056480 0.631289
vt 0.267417 0.004275
vt 0.275062 0.002716
vt 0.401090 0.629898
vt 0.394442 0.631253
vt 0.275062 0.002716
vt 0.284603 0.000813
vt 0.409386 0.628243
vt 0.401090 0.629898
vt -0.045858 0.000813
vt -0.054849 0.000000
vt -0.052141 0.627536
vt -0.044323 0.628243
vt -0.045053 0.409823
vt -0.043303 0.401492
vt -0.048208 0.394508
vt -0.056075 0.394129
vt -0.060980 0.400640
vt -0.059229 0.409139
vt -0.052141 0.413226
vt 0.089219 0.379794
vt 0.083548 0.376525
vt 0.082148 0.369726
vt 0.086072 0.364516
vt 0.092366 0.364820
vt 0.096290 0.370407
vt 0.094889 0.377072
vt -0.052141 0.630536
vt -0.059229 0.633428
vt 0.083548 0.934671
vt 0.089219 0.932357
vt 0.409139 0.633428
vt 0.400640 0.633363
vt 0.369726 0.934619
vt 0.376525 0.934671
vt 0.400640 0.633363
vt 0.394129 0.630389
vt 0.364516 0.932240
vt 0.369726 0.934619
vt -0.056075 0.630389
vt -0.048208 0.626747
vt 0.092366 0.929326
vt 0.086072 0.932240
vt 0.394508 0.626747
vt 0.401492 0.625178
vt 0.370407 0.928071
vt 0.364820 0.929326
vt 0.401492 0.625178
vt 0.409823 0.626865
vt 0.377072 0.929420
vt 0.370407 0.928071
vt -0.045053 0.626865
vt -0.052141 0.630536
vt 0.089219 0.932357
vt 0.094889 0.929420
vt -0.052368 0.307559
vt 0.006309 0.280505
vt -0.062570 0.267299
vt -0.067956 0.302506
vt -0.067956 0.302506
vt -0.062570 0.267299
vt 0.006309 0.280505
vt -0.052368 0.307559
vt -0.067956 0.302506
vt -0.062570 0.267299
vt -0.132247 0.259309
vt -0.084342 0.302668
vt -0.084342 0.302668
vt -0.132247 0.259309
vt -0.062570 0.267299
vt -0.067956 0.302506
vt 0.006309 0.280505
vt 0.032402 0.240658
vt -0.056017 0.224463
vt -0.062570 0.267299
vt -0.062570 0.267299
vt -0.056017 0.224463
vt 0.032402 0.240658
vt 0.006309 0.280505
vt -0.062570 0.267299
vt -0.056017 0.224463
vt -0.145234 0.213483
vt -0.132247 0.259309
vt -0.132247 0.259309
vt -0.145234 0.213483
vt -0.056017 0.224463
vt -0.062570 0.267299
vt 0.032402 0.240658
vt 0.023378 0.192696
vt -0.049054 0.178947
vt -0.056017 0.224463
vt -0.056017 0.224463
vt -0.049054 0.178947
vt 0.023378 0.192696
vt 0.032402 0.240658
vt -0.056017 0.224463
vt -0.049054 0.178947
vt -0.122283 0.170413
vt -0.145234 0.213483
vt -0.145234 0.213483
vt -0.122283 0.170413
vt -0.049054 0.178947
vt -0.056017 0.224463
vt 0.023378 0.192696
vt -0.006793 0.152249
vt -0.043697 0.143934
vt -0.049054 0.178947
vt -0.049054 0.178947
vt -0.043697 0.143934
vt -0.006793 0.152249
vt 0.023378 0.192696
vt -0.049054 0.178947
vt -0.043697 0.143934
vt -0.081400 0.140835
vt -0.122283 0.170413
vt -0.122283 0.170413
vt -0.081400 0.140835
vt -0.043697 0.143934
vt -0.049054 0.178947
vt -0.006793 0.152249
vt -0.037774 0.126010
vt -0.040484 0.122927
vt -0.043697 0.143934
vt -0.043697 0.143934
vt -0.040484 0.122927
vt -0.037774 0.126010
vt -0.006793 0.152249
vt -0.043697 0.143934
vt -0.040484 0.122927
vt -0.043991 0.125059
vt -0.081400 0.140835
vt -0.081400 0.140835
vt -0.043991 0.125059
vt -0.040484 0.122927
vt -0.043697 0.143934
vt -0.088199 0.379933
vt -0.149115 0.428873
vt -0.062281 0.415210
vt -0.068204 0.376495
vt -0.068204 0.376495
vt -0.062281 0.415210
vt -0.149115 0.428873
vt -0.088199 0.379933
vt -0.068204 0.376495
vt -0.062281 0.415210
vt 0.024665 0.402288
vt -0.048096 0.373798
vt -0.048096 0.373798
vt 0.024665 0.402288
vt -0.062281 0.415210
vt -0.068204 0.376495
vt -0.149115 0.428873
vt -0.166390 0.479897
vt -0.055049 0.462485
vt -0.062281 0.415210
vt -0.062281 0.415210
vt -0.055049 0.462485
vt -0.166390 0.479897
vt -0.149115 0.428873
vt -0.062281 0.415210
vt -0.055049 0.462485
vt 0.056405 0.445814
vt 0.024665 0.402288
vt 0.024665 0.402288
vt 0.056405 0.445814
vt -0.055049 0.462485
vt -0.062281 0.415210
vt -0.166390 0.479897
vt -0.138648 0.527103
vt -0.047358 0.512759
vt -0.055049 0.462485
vt -0.055049 0.462485
vt -0.047358 0.512759
vt -0.138648 0.527103
vt -0.166390 0.479897
vt -0.055049 0.462485
vt -0.047358 0.512759
vt 0.044044 0.499155
vt 0.056405 0.445814
vt 0.056405 0.445814
vt 0.044044 0.499155
vt -0.047358 0.512759
vt -0.055049 0.462485
vt -0.138648 0.527103
vt -0.088172 0.558958
vt -0.041442 0.551430
vt -0.047358 0.512759
vt -0.047358 0.512759
vt -0.041442 0.551430
vt -0.088172 0.558958
vt -0.138648 0.527103
vt -0.047358 0.512759
vt -0.041442 0.551430
vt 0.005402 0.544643
vt 0.044044 0.499155
vt 0.044044 0.499155
vt 0.005402 0.544643
vt -0.041442 0.551430
vt -0.047358 0.512759
vt -0.088172 0.558958
vt -0.041735 0.575600
vt -0.037892 0.574634
vt -0.041442 0.551430
vt -0.041442 0.551430
vt -0.037892 0.574634
vt -0.041735 0.575600
vt -0.088172 0.558958
vt -0.041442 0.551430
vt -0.037892 0.574634
vt -0.033937 0.574407
vt 0.005402 0.544643
vt 0.005402 0.544643
vt -0.033937 0.574407
vt -0.037892 0.574634
vt -0.041442 0.551430
vt 0.405411 0.538196
vt 0.402228 0.528916
vt 0.451920 0.492920
vt 0.482996 0.529619
vt 0.482996 0.529619
vt 0.451920 0.492920
vt 0.402228 0.528916
vt 0.405411 0.538196
vt 0.402228 0.528916
vt 0.394285 0.523181
vt 0.425851 0.452494
vt 0.451920 0.492920
vt 0.451920 0.492920
vt 0.425851 0.452494
vt 0.394285 0.523181
vt 0.402228 0.528916
vt -0.087112 0.394285
vt -0.088853 0.384615
vt -0.157745 0.382267
vt -0.147770 0.425851
vt -0.147770 0.425851
vt -0.157745 0.382267
vt -0.088853 0.384615
vt -0.087112 0.394285
vt -0.088853 0.384615
vt -0.090927 0.376912
vt -0.167368 0.336615
vt -0.157745 0.382267
vt -0.157745 0.382267
vt -0.167368 0.336615
vt -0.090927 0.376912
vt -0.088853 0.384615
vt -0.090927 0.528916
vt -0.092544 0.538196
vt -0.172342 0.529619
vt -0.167368 0.481953
vt -0.167368 0.481953
vt -0.172342 0.529619
vt -0.092544 0.538196
vt -0.090927 0.528916
vt -0.092544 0.538196
vt -0.093085 0.547476
vt -0.178449 0.577285
vt -0.172342 0.529619
vt -0.172342 0.529619
vt -0.178449 0.577285
vt -0.093085 0.547476
vt -0.092544 0.538196
vt -0.093085 0.377300
vt -0.092343 0.385243
vt -0.171549 0.384752
vt -0.178449 0.338610
vt -0.178449 0.338610
vt -0.171549 0.384752
vt -0.092343 0.385243
vt -0.093085 0.377300
vt -0.092343 0.385243
vt -0.090603 0.394913
vt -0.165699 0.429078
vt -0.171549 0.384752
vt -0.171549 0.384752
vt -0.165699 0.429078
vt -0.090603 0.394913
vt -0.092343 0.385243
vt 0.394913 0.553212
vt 0.402617 0.547476
vt 0.453456 0.566317
vt 0.429078 0.606744
vt 0.429078 0.606744
vt 0.453456 0.566317
vt 0.402617 0.547476
vt 0.394913 0.553212
vt 0.402617 0.547476
vt 0.405411 0.538196
vt 0.482996 0.529619
vt 0.453456 0.566317
vt 0.453456 0.566317
vt 0.482996 0.529619
vt 0.405411 0.538196
vt 0.402617 0.547476
vt -0.014070 0.419385
vt 0.057746 0.389974
vt -0.027846 0.376692
vt -0.033780 0.416039
vt -0.033780 0.416039
vt -0.027846 0.376692
vt 0.057746 0.389974
vt -0.014070 0.419385
vt -0.033780 0.416039
vt -0.027846 0.376692
vt -0.113548 0.364141
vt -0.053600 0.413423
vt -0.053600 0.413423
vt -0.113548 0.364141
vt -0.027846 0.376692
vt -0.033780 0.416039
vt 0.057746 0.389974
vt 0.089159 0.345501
vt -0.020590 0.328576
vt -0.027846 0.376692
vt -0.027846 0.376692
vt -0.020590 0.328576
vt 0.089159 0.345501
vt 0.057746 0.389974
vt -0.027846 0.376692
vt -0.020590 0.328576
vt -0.130449 0.312382
vt -0.113548 0.364141
vt -0.113548 0.364141
vt -0.130449 0.312382
vt -0.020590 0.328576
vt -0.027846 0.376692
vt 0.089159 0.345501
vt 0.077113 0.291336
vt -0.012871 0.277392
vt -0.020590 0.328576
vt -0.020590 0.328576
vt -0.012871 0.277392
vt 0.077113 0.291336
vt 0.089159 0.345501
vt -0.020590 0.328576
vt -0.012871 0.277392
vt -0.102965 0.264178
vt -0.130449 0.312382
vt -0.130449 0.312382
vt -0.102965 0.264178
vt -0.012871 0.277392
vt -0.020590 0.328576
vt 0.077113 0.291336
vt 0.039130 0.245340
vt -0.006933 0.238020
vt -0.012871 0.277392
vt -0.012871 0.277392
vt -0.006933 0.238020
vt 0.039130 0.245340
vt 0.077113 0.291336
vt -0.012871 0.277392
vt -0.006933 0.238020
vt -0.053106 0.231430
vt -0.102965 0.264178
vt -0.102965 0.264178
vt -0.053106 0.231430
vt -0.006933 0.238020
vt -0.012871 0.277392
vt 0.039130 0.245340
vt 0.000418 0.215341
vt -0.003370 0.214397
vt -0.006933 0.238020
vt -0.006933 0.238020
vt -0.003370 0.214397
vt 0.000418 0.215341
vt 0.039130 0.245340
vt -0.006933 0.238020
vt -0.003370 0.214397
vt -0.007268 0.214182
vt -0.053106 0.231430
vt -0.053106 0.231430
vt -0.007268 0.214182
vt -0.003370 0.214397
vt -0.006933 0.238020
vt 0.000082 0.337587
vt -0.059744 0.392658
vt 0.027149 0.381531
vt 0.020358 0.336506
vt 0.020358 0.336506
vt 0.027149 0.381531
vt -0.059744 0.392658
vt 0.000082 0.337587
vt 0.020358 0.336506
vt 0.027149 0.381531
vt 0.113458 0.366537
vt 0.040052 0.331559
vt 0.040052 0.331559
vt 0.113458 0.366537
vt 0.027149 0.381531
vt 0.020358 0.336506
vt -0.059744 0.392658
vt -0.075752 0.452155
vt 0.035566 0.437345
vt 0.027149 0.381531
vt 0.027149 0.381531
vt 0.035566 0.437345
vt -0.075752 0.452155
vt -0.059744 0.392658
vt 0.027149 0.381531
vt 0.035566 0.437345
vt 0.146301 0.418667
vt 0.113458 0.366537
vt 0.113458 0.366537
vt 0.146301 0.418667
vt 0.035566 0.437345
vt 0.027149 0.381531
vt -0.075752 0.452155
vt -0.046786 0.508692
vt 0.044547 0.496896
vt 0.035566 0.437345
vt 0.035566 0.437345
vt 0.044547 0.496896
vt -0.046786 0.508692
vt -0.075752 0.452155
vt 0.035566 0.437345
vt 0.044547 0.496896
vt 0.135297 0.481232
vt 0.146301 0.418667
vt 0.146301 0.418667
vt 0.135297 0.481232
vt 0.044547 0.496896
vt 0.035566 0.437345
vt -0.046786 0.508692
vt 0.004533 0.547803
vt 0.051455 0.542704
vt 0.044547 0.496896
vt 0.044547 0.496896
vt 0.051455 0.542704
vt 0.004533 0.547803
vt -0.046786 0.508692
vt 0.044547 0.496896
vt 0.051455 0.542704
vt 0.097795 0.533738
vt 0.135297 0.481232
vt 0.135297 0.481232
vt 0.097795 0.533738
vt 0.051455 0.542704
vt 0.044547 0.496896
vt 0.004533 0.547803
vt 0.051423 0.568842
vt 0.055600 0.570189
vt 0.051455 0.542704
vt 0.051455 0.542704
vt 0.055600 0.570189
vt 0.051423 0.568842
vt 0.004533 0.547803
vt 0.051455 0.542704
vt 0.055600 0.570189
vt 0.059195 0.567670
vt 0.097795 0.533738
vt 0.097795 0.533738
vt 0.059195 0.567670
vt 0.055600 0.570189
vt 0.051455 0.542704
vt 0.427759 0.814721
vt 0.424154 0.804208
vt 0.480452 0.763427
vt 0.515657 0.805002
vt 0.515657 0.805002
vt 0.480452 0.763427
vt 0.424154 0.804208
vt 0.427759 0.814721
vt 0.424154 0.804208
vt 0.415155 0.797711
vt 0.450919 0.717630
vt 0.480452 0.763427
vt 0.480452 0.763427
vt 0.450919 0.717630
vt 0.415155 0.797711
vt 0.424154 0.804208
vt 0.016172 0.415155
vt 0.014200 0.404201
vt -0.063868 0.401545
vt -0.052569 0.450919
vt -0.052569 0.450919
vt -0.063868 0.401545
vt 0.014200 0.404201
vt 0.016172 0.415155
vt 0.014200 0.404201
vt 0.011850 0.395474
vt -0.074770 0.349828
vt -0.063868 0.401545
vt -0.063868 0.401545
vt -0.074770 0.349828
vt 0.011850 0.395474
vt 0.014200 0.404201
vt 0.011850 0.804208
vt 0.010018 0.814721
vt -0.080406 0.805002
vt -0.074770 0.751003
vt -0.074770 0.751003
vt -0.080406 0.805002
vt 0.010018 0.814721
vt 0.011850 0.804208
vt 0.010018 0.814721
vt 0.009406 0.825234
vt -0.087323 0.859001
vt -0.080406 0.805002
vt -0.080406 0.805002
vt -0.087323 0.859001
vt 0.009406 0.825234
vt 0.010018 0.814721
vt 0.009406 0.395914
vt 0.010246 0.404912
vt -0.079506 0.404360
vt -0.087323 0.352087
vt -0.087323 0.352087
vt -0.079506 0.404360
vt 0.010246 0.404912
vt 0.009406 0.395914
vt 0.010246 0.404912
vt 0.012218 0.415867
vt -0.072880 0.454575
vt -0.079506 0.404360
vt -0.079506 0.404360
vt -0.072880 0.454575
vt 0.012218 0.415867
vt 0.010246 0.404912
vt 0.415867 0.831732
vt 0.424594 0.825234
vt 0.482192 0.846576
vt 0.454575 0.892374
vt 0.454575 0.892374
vt 0.482192 0.846576
vt 0.424594 0.825234
vt 0.415867 0.831732
vt 0.424594 0.825234
vt 0.427759 0.814721
vt 0.515657 0.805002
vt 0.482192 0.846576
vt 0.482192 0.846576
vt 0.515657 0.805002
vt 0.427759 0.814721
vt 0.424594 0.825234
usemtl M_MorningGlory_Stem
s 1
f 7/1 6/2 5/3 4/4 3/5 2/6 1/7
f 8/8 9/9 10/10 11/11 12/12 13/13 14/14
f 1/15 2/16 9/17 8/18
f 2/19 3/20 10/21 9/22
f 3/23 4/24 11/25 10/26
f 4/27 5/28 12/29 11/30
f 5/31 6/32 13/33 12/34
f 6/35 7/36 14/37 13/38
f 7/39 1/40 8/41 14/42
f 21/43 20/44 19/45 18/46 17/47 16/48 15/49
f 22/50 23/51 24/52 25/53 26/54 27/55 28/56
f 15/57 16/58 23/59 22/60
f 16/61 17/62 24/63 23/64
f 17/65 18/66 25/67 24/68
f 18/69 19/70 26/71 25/72
f 19/73 20/74 27/75 26/76
f 20/77 21/78 28/79 27/80
f 21/81 15/82 22/83 28/84
usemtl M_MorningGlory_Leaf
s 1
f 29/85 32/86 33/87 30/88
f 30/89 33/90 32/91 29/92
f 30/93 33/94 34/95 31/96
f 31/97 34/98 33/99 30/100
f 32/101 35/102 36/103 33/104
f 33/105 36/106 35/107 32/108
f 33/109 36/110 37/111 34/112
f 34/113 37/114 36/115 33/116
f 35/117 38/118 39/119 36/120
f 36/121 39/122 38/123 35/124
f 36/125 39/126 40/127 37/128
f 37/129 40/130 39/131 36/132
f 38/133 41/134 42/135 39/136
f 39/137 42/138 41/139 38/140
f 39/141 42/142 43/143 40/144
f 40/145 43/146 42/147 39/148
f 41/149 44/150 45/151 42/152
f 42/153 45/154 44/155 41/156
f 42/157 45/158 46/159 43/160
f 43/161 46/162 45/163 42/164
f 47/165 50/166 51/167 48/168
f 48/169 51/170 50/171 47/172
f 48/173 51/174 52/175 49/176
f 49/177 52/178 51/179 48/180
f 50/181 53/182 54/183 51/184
f 51/185 54/186 53/187 50/188
f 51/189 54/190 55/191 52/192
f 52/193 55/194 54/195 51/196
f 53/197 56/198 57/199 54/200
f 54/201 57/202 56/203 53/204
f 54/205 57/206 58/207 55/208
f 55/209 58/210 57/211 54/212
f 56/213 59/214 60/215 57/216
f 57/217 60/218 59/219 56/220
f 57/221 60/222 61/223 58/224
f 58/225 61/226 60/227 57/228
f 59/229 62/230 63/231 60/232
f 60/233 63/234 62/235 59/236
f 60/237 63/238 64/239 61/240
f 61/241 64/242 63/243 60/244
usemtl M_MorningGlory_Flower
s 1
f 65/245 67/246 68/247 66/248
f 66/249 68/250 67/251 65/252
f 67/253 69/254 70/255 68/256
f 68/257 70/258 69/259 67/260
f 69/261 71/262 72/263 70/264
f 70/265 72/266 71/267 69/268
f 71/269 73/270 74/271 72/272
f 72/273 74/274 73/275 71/276
f 73/277 75/278 76/279 74/280
f 74/281 76/282 75/283 73/284
f 75/285 77/286 78/287 76/288
f 76/289 78/290 77/291 75/292
f 77/293 79/294 80/295 78/296
f 78/297 80/298 79/299 77/300
f 79/301 81/302 82/303 80/304
f 80/305 82/306 81/307 79/308
f 81/309 83/310 84/311 82/312
f 82/313 84/314 83/315 81/316
f 83/317 65/318 66/319 84/320
f 84/321 66/322 65/323 83/324
usemtl M_MorningGlory_Leaf
s 1
f 85/325 88/326 89/327 86/328
f 86/329 89/330 88/331 85/332
f 86/333 89/334 90/335 87/336
f 87/337 90/338 89/339 86/340
f 88/341 91/342 92/343 89/344
f 89/345 92/346 91/347 88/348
f 89/349 92/350 93/351 90/352
f 90/353 93/354 92/355 89/356
f 91/357 94/358 95/359 92/360
f 92/361 95/362 94/363 91/364
f 92/365 95/366 96/367 93/368
f 93/369 96/370 95/371 92/372
f 94/373 97/374 98/375 95/376
f 95/377 98/378 97/379 94/380
f 95/381 98/382 99/383 96/384
f 96/385 99/386 98/387 95/388
f 97/389 100/390 101/391 98/392
f 98/393 101/394 100/395 97/396
f 98/397 101/398 102/399 99/400
f 99/401 102/402 101/403 98/404
f 103/405 106/406 107/407 104/408
f 104/409 107/410 106/411 103/412
f 104/413 107/414 108/415 105/416
f 105/417 108/418 107/419 104/420
f 106/421 109/422 110/423 107/424
f 107/425 110/426 109/427 106/428
f 107/429 110/430 111/431 108/432
f 108/433 111/434 110/435 107/436
f 109/437 112/438 113/439 110/440
f 110/441 113/442 112/443 109/444
f 110/445 113/446 114/447 111/448
f 111/449 114/450 113/451 110/452
f 112/453 115/454 116/455 113/456
f 113/457 116/458 115/459 112/460
f 113/461 116/462 117/463 114/464
f 114/465 117/466 116/467 113/468
f 115/469 118/470 119/471 116/472
f 116/473 119/474 118/475 115/476
f 116/477 119/478 120/479 117/480
f 117/481 120/482 119/483 116/484
usemtl M_MorningGlory_Flower
s 1
f 121/485 123/486 124/487 122/488
f 122/489 124/490 123/491 121/492
f 123/493 125/494 126/495 124/496
f 124/497 126/498 125/499 123/500
f 125/501 127/502 128/503 126/504
f 126/505 128/506 127/507 125/508
f 127/509 129/510 130/511 128/512
f 128/513 130/514 129/515 127/516
f 129/517 131/518 132/519 130/520
f 130/521 132/522 131/523 129/524
f 131/525 133/526 134/527 132/528
f 132/529 134/530 133/531 131/532
f 133/533 135/534 136/535 134/536
f 134/537 136/538 135/539 133/540
f 135/541 137/542 138/543 136/544
f 136/545 138/546 137/547 135/548
f 137/549 139/550 140/551 138/552
f 138/553 140/554 139/555 137/556
f 139/557 121/558 122/559 140/560
f 140/561 122/562 121/563 139/564
usemtl M_MorningGlory_Stem
s 1
f 147/565 146/566 145/567 144/568 143/569 142/570 141/571
f 148/572 149/573 150/574 151/575 152/576 153/577 154/578
f 141/579 142/580 149/581 148/582
f 142/583 143/584 150/585 149/586
f 143/587 144/588 151/589 150/590
f 144/591 145/592 152/593 151/594
f 145/595 146/596 153/597 152/598
f 146/599 147/600 154/601 153/602
f 147/603 141/604 148/605 154/606
f 161/607 160/608 159/609 158/610 157/611 156/612 155/613
f 162/614 163/615 164/616 165/617 166/618 167/619 168/620
f 155/621 156/622 163/623 162/624
f 156/625 157/626 164/627 163/628
f 157/629 158/630 165/631 164/632
f 158/633 159/634 166/635 165/636
f 159/637 160/638 167/639 166/640
f 160/641 161/642 168/643 167/644
f 161/645 155/646 162/647 168/648
f 175/649 174/650 173/651 172/652 171/653 170/654 169/655
f 176/656 177/657 178/658 179/659 180/660 181/661 182/662
f 169/663 170/664 177/665 176/666
f 170/667 171/668 178/669 177/670
f 171/671 172/672 179/673 178/674
f 172/675 173/676 180/677 179/678
f 173/679 174/680 181/681 180/682
f 174/683 175/684 182/685 181/686
f 175/687 169/688 176/689 182/690
usemtl M_MorningGlory_Leaf
s 1
f 183/691 186/692 187/693 184/694
f 184/695 187/696 186/697 183/698
f 184/699 187/700 188/701 185/702
f 185/703 188/704 187/705 184/706
f 186/707 189/708 190/709 187/710
f 187/711 190/712 189/713 186/714
f 187/715 190/716 191/717 188/718
f 188/719 191/720 190/721 187/722
f 189/723 192/724 193/725 190/726
f 190/727 193/728 192/729 189/730
f 190/731 193/732 194/733 191/734
f 191/735 194/736 193/737 190/738
f 192/739 195/740 196/741 193/742
f 193/743 196/744 195/745 192/746
f 193/747 196/748 197/749 194/750
f 194/751 197/752 196/753 193/754
f 195/755 198/756 199/757 196/758
f 196/759 199/760 198/761 195/762
f 196/763 199/764 200/765 197/766
f 197/767 200/768 199/769 196/770
f 201/771 204/772 205/773 202/774
f 202/775 205/776 204/777 201/778
f 202/779 205/780 206/781 203/782
f 203/783 206/784 205/785 202/786
f 204/787 207/788 208/789 205/790
f 205/791 208/792 207/793 204/794
f 205/795 208/796 209/797 206/798
f 206/799 209/800 208/801 205/802
f 207/803 210/804 211/805 208/806
f 208/807 211/808 210/809 207/810
f 208/811 211/812 212/813 209/814
f 209/815 212/816 211/817 208/818
f 210/819 213/820 214/821 211/822
f 211/823 214/824 213/825 210/826
f 211/827 214/828 215/829 212/830
f 212/831 215/832 214/833 211/834
f 213/835 216/836 217/837 214/838
f 214/839 217/840 216/841 213/842
f 214/843 217/844 218/845 215/846
f 215/847 218/848 217/849 214/850
usemtl M_MorningGlory_Flower
s 1
f 219/851 221/852 222/853 220/854
f 220/855 222/856 221/857 219/858
f 221/859 223/860 224/861 222/862
f 222/863 224/864 223/865 221/866
f 223/867 225/868 226/869 224/870
f 224/871 226/872 225/873 223/874
f 225/875 227/876 228/877 226/878
f 226/879 228/880 227/881 225/882
f 227/883 229/884 230/885 228/886
f 228/887 230/888 229/889 227/890
f 229/891 231/892 232/893 230/894
f 230/895 232/896 231/897 229/898
f 231/899 233/900 234/901 232/902
f 232/903 234/904 233/905 231/906
f 233/907 235/908 236/909 234/910
f 234/911 236/912 235/913 233/914
f 235/915 237/916 238/917 236/918
f 236/919 238/920 237/921 235/922
f 237/923 219/924 220/925 238/926
f 238/927 220/928 219/929 237/930
usemtl M_MorningGlory_Leaf
s 1
f 239/931 242/932 243/933 240/934
f 240/935 243/936 242/937 239/938
f 240/939 243/940 244/941 241/942
f 241/943 244/944 243/945 240/946
f 242/947 245/948 246/949 243/950
f 243/951 246/952 245/953 242/954
f 243/955 246/956 247/957 244/958
f 244/959 247/960 246/961 243/962
f 245/963 248/964 249/965 246/966
f 246/967 249/968 248/969 245/970
f 246/971 249/972 250/973 247/974
f 247/975 250/976 249/977 246/978
f 248/979 251/980 252/981 249/982
f 249/983 252/984 251/985 248/986
f 249/987 252/988 253/989 250/990
f 250/991 253/992 252/993 249/994
f 251/995 254/996 255/997 252/998
f 252/999 255/1000 254/1001 251/1002
f 252/1003 255/1004 256/1005 253/1006
f 253/1007 256/1008 255/1009 252/1010
f 257/1011 260/1012 261/1013 258/1014
f 258/1015 261/1016 260/1017 257/1018
f 258/1019 261/1020 262/1021 259/1022
f 259/1023 262/1024 261/1025 258/1026
f 260/1027 263/1028 264/1029 261/1030
f 261/1031 264/1032 263/1033 260/1034
f 261/1035 264/1036 265/1037 262/1038
f 262/1039 265/1040 264/1041 261/1042
f 263/1043 266/1044 267/1045 264/1046
f 264/1047 267/1048 266/1049 263/1050
f 264/1051 267/1052 268/1053 265/1054
f 265/1055 268/1056 267/1057 264/1058
f 266/1059 269/1060 270/1061 267/1062
f 267/1063 270/1064 269/1065 266/1066
f 267/1067 270/1068 271/1069 268/1070
f 268/1071 271/1072 270/1073 267/1074
f 269/1075 272/1076 273/1077 270/1078
f 270/1079 273/1080 272/1081 269/1082
f 270/1083 273/1084 274/1085 271/1086
f 271/1087 274/1088 273/1089 270/1090
usemtl M_MorningGlory_Flower
s 1
f 275/1091 277/1092 278/1093 276/1094
f 276/1095 278/1096 277/1097 275/1098
f 277/1099 279/1100 280/1101 278/1102
f 278/1103 280/1104 279/1105 277/1106
f 279/1107 281/1108 282/1109 280/1110
f 280/1111 282/1112 281/1113 279/1114
f 281/1115 283/1116 284/1117 282/1118
f 282/1119 284/1120 283/1121 281/1122
f 283/1123 285/1124 286/1125 284/1126
f 284/1127 286/1128 285/1129 283/1130
f 285/1131 287/1132 288/1133 286/1134
f 286/1135 288/1136 287/1137 285/1138
f 287/1139 289/1140 290/1141 288/1142
f 288/1143 290/1144 289/1145 287/1146
f 289/1147 291/1148 292/1149 290/1150
f 290/1151 292/1152 291/1153 289/1154
f 291/1155 293/1156 294/1157 292/1158
f 292/1159 294/1160 293/1161 291/1162
f 293/1163 275/1164 276/1165 294/1166
f 294/1167 276/1168 275/1169 293/1170
usemtl M_MorningGlory_Stem
s 1
f 301/1171 300/1172 299/1173 298/1174 297/1175 296/1176 295/1177
f 302/1178 303/1179 304/1180 305/1181 306/1182 307/1183 308/1184
f 295/1185 296/1186 303/1187 302/1188
f 296/1189 297/1190 304/1191 303/1192
f 297/1193 298/1194 305/1195 304/1196
f 298/1197 299/1198 306/1199 305/1200
f 299/1201 300/1202 307/1203 306/1204
f 300/1205 301/1206 308/1207 307/1208
f 301/1209 295/1210 302/1211 308/1212
f 315/1213 314/1214 313/1215 312/1216 311/1217 310/1218 309/1219
f 316/1220 317/1221 318/1222 319/1223 320/1224 321/1225 322/1226
f 309/1227 310/1228 317/1229 316/1230
f 310/1231 311/1232 318/1233 317/1234
f 311/1235 312/1236 319/1237 318/1238
f 312/1239 313/1240 320/1241 319/1242
f 313/1243 314/1244 321/1245 320/1246
f 314/1247 315/1248 322/1249 321/1250
f 315/1251 309/1252 316/1253 322/1254
f 329/1255 328/1256 327/1257 326/1258 325/1259 324/1260 323/1261
f 330/1262 331/1263 332/1264 333/1265 334/1266 335/1267 336/1268
f 323/1269 324/1270 331/1271 330/1272
f 324/1273 325/1274 332/1275 331/1276
f 325/1277 326/1278 333/1279 332/1280
f 326/1281 327/1282 334/1283 333/1284
f 327/1285 328/1286 335/1287 334/1288
f 328/1289 329/1290 336/1291 335/1292
f 329/1293 323/1294 330/1295 336/1296
usemtl M_MorningGlory_Leaf
s 1
f 337/1297 340/1298 341/1299 338/1300
f 338/1301 341/1302 340/1303 337/1304
f 338/1305 341/1306 342/1307 339/1308
f 339/1309 342/1310 341/1311 338/1312
f 340/1313 343/1314 344/1315 341/1316
f 341/1317 344/1318 343/1319 340/1320
f 341/1321 344/1322 345/1323 342/1324
f 342/1325 345/1326 344/1327 341/1328
f 343/1329 346/1330 347/1331 344/1332
f 344/1333 347/1334 346/1335 343/1336
f 344/1337 347/1338 348/1339 345/1340
f 345/1341 348/1342 347/1343 344/1344
f 346/1345 349/1346 350/1347 347/1348
f 347/1349 350/1350 349/1351 346/1352
f 347/1353 350/1354 351/1355 348/1356
f 348/1357 351/1358 350/1359 347/1360
f 349/1361 352/1362 353/1363 350/1364
f 350/1365 353/1366 352/1367 349/1368
f 350/1369 353/1370 354/1371 351/1372
f 351/1373 354/1374 353/1375 350/1376
f 355/1377 358/1378 359/1379 356/1380
f 356/1381 359/1382 358/1383 355/1384
f 356/1385 359/1386 360/1387 357/1388
f 357/1389 360/1390 359/1391 356/1392
f 358/1393 361/1394 362/1395 359/1396
f 359/1397 362/1398 361/1399 358/1400
f 359/1401 362/1402 363/1403 360/1404
f 360/1405 363/1406 362/1407 359/1408
f 361/1409 364/1410 365/1411 362/1412
f 362/1413 365/1414 364/1415 361/1416
f 362/1417 365/1418 366/1419 363/1420
f 363/1421 366/1422 365/1423 362/1424
f 364/1425 367/1426 368/1427 365/1428
f 365/1429 368/1430 367/1431 364/1432
f 365/1433 368/1434 369/1435 366/1436
f 366/1437 369/1438 368/1439 365/1440
f 367/1441 370/1442 371/1443 368/1444
f 368/1445 371/1446 370/1447 367/1448
f 368/1449 371/1450 372/1451 369/1452
f 369/1453 372/1454 371/1455 368/1456
f 373/1457 376/1458 377/1459 374/1460
f 374/1461 377/1462 376/1463 373/1464
f 374/1465 377/1466 378/1467 375/1468
f 375/1469 378/1470 377/1471 374/1472
f 376/1473 379/1474 380/1475 377/1476
f 377/1477 380/1478 379/1479 376/1480
f 377/1481 380/1482 381/1483 378/1484
f 378/1485 381/1486 380/1487 377/1488
f 379/1489 382/1490 383/1491 380/1492
f 380/1493 383/1494 382/1495 379/1496
f 380/1497 383/1498 384/1499 381/1500
f 381/1501 384/1502 383/1503 380/1504
f 382/1505 385/1506 386/1507 383/1508
f 383/1509 386/1510 385/1511 382/1512
f 383/1513 386/1514 387/1515 384/1516
f 384/1517 387/1518 386/1519 383/1520
f 385/1521 388/1522 389/1523 386/1524
f 386/1525 389/1526 388/1527 385/1528
f 386/1529 389/1530 390/1531 387/1532
f 387/1533 390/1534 389/1535 386/1536
f 391/1537 394/1538 395/1539 392/1540
f 392/1541 395/1542 394/1543 391/1544
f 392/1545 395/1546 396/1547 393/1548
f 393/1549 396/1550 395/1551 392/1552
f 394/1553 397/1554 398/1555 395/1556
f 395/1557 398/1558 397/1559 394/1560
f 395/1561 398/1562 399/1563 396/1564
f 396/1565 399/1566 398/1567 395/1568
f 397/1569 400/1570 401/1571 398/1572
f 398/1573 401/1574 400/1575 397/1576
f 398/1577 401/1578 402/1579 399/1580
f 399/1581 402/1582 401/1583 398/1584
f 400/1585 403/1586 404/1587 401/1588
f 401/1589 404/1590 403/1591 400/1592
f 401/1593 404/1594 405/1595 402/1596
f 402/1597 405/1598 404/1599 401/1600
f 403/1601 406/1602 407/1603 404/1604
f 404/1605 407/1606 406/1607 403/1608
f 404/1609 407/1610 408/1611 405/1612
f 405/1613 408/1614 407/1615 404/1616
usemtl M_MorningGlory_Flower
s 1
f 409/1617 411/1618 412/1619 410/1620
f 410/1621 412/1622 411/1623 409/1624
f 411/1625 413/1626 414/1627 412/1628
f 412/1629 414/1630 413/1631 411/1632
f 413/1633 415/1634 416/1635 414/1636
f 414/1637 416/1638 415/1639 413/1640
f 415/1641 417/1642 418/1643 416/1644
f 416/1645 418/1646 417/1647 415/1648
f 417/1649 419/1650 420/1651 418/1652
f 418/1653 420/1654 419/1655 417/1656
f 419/1657 421/1658 422/1659 420/1660
f 420/1661 422/1662 421/1663 419/1664
f 421/1665 423/1666 424/1667 422/1668
f 422/1669 424/1670 423/1671 421/1672
f 423/1673 425/1674 426/1675 424/1676
f 424/1677 426/1678 425/1679 423/1680
f 425/1681 427/1682 428/1683 426/1684
f 426/1685 428/1686 427/1687 425/1688
f 427/1689 409/1690 410/1691 428/1692
f 428/1693 410/1694 409/1695 427/1696
usemtl M_MorningGlory_Stem
s 1
f 435/1697 434/1698 433/1699 432/1700 431/1701 430/1702 429/1703
f 436/1704 437/1705 438/1706 439/1707 440/1708 441/1709 442/1710
f 429/1711 430/1712 437/1713 436/1714
f 430/1715 431/1716 438/1717 437/1718
f 431/1719 432/1720 439/1721 438/1722
f 432/1723 433/1724 440/1725 439/1726
f 433/1727 434/1728 441/1729 440/1730
f 434/1731 435/1732 442/1733 441/1734
f 435/1735 429/1736 436/1737 442/1738
f 449/1739 448/1740 447/1741 446/1742 445/1743 444/1744 443/1745
f 450/1746 451/1747 452/1748 453/1749 454/1750 455/1751 456/1752
f 443/1753 444/1754 451/1755 450/1756
f 444/1757 445/1758 452/1759 451/1760
f 445/1761 446/1762 453/1763 452/1764
f 446/1765 447/1766 454/1767 453/1768
f 447/1769 448/1770 455/1771 454/1772
f 448/1773 449/1774 456/1775 455/1776
f 449/1777 443/1778 450/1779 456/1780
f 463/1781 462/1782 461/1783 460/1784 459/1785 458/1786 457/1787
f 464/1788 465/1789 466/1790 467/1791 468/1792 469/1793 470/1794
f 457/1795 458/1796 465/1797 464/1798
f 458/1799 459/1800 466/1801 465/1802
f 459/1803 460/1804 467/1805 466/1806
f 460/1807 461/1808 468/1809 467/1810
f 461/1811 462/1812 469/1813 468/1814
f 462/1815 463/1816 470/1817 469/1818
f 463/1819 457/1820 464/1821 470/1822
usemtl M_MorningGlory_Leaf
s 1
f 471/1823 474/1824 475/1825 472/1826
f 472/1827 475/1828 474/1829 471/1830
f 472/1831 475/1832 476/1833 473/1834
f 473/1835 476/1836 475/1837 472/1838
f 474/1839 477/1840 478/1841 475/1842
f 475/1843 478/1844 477/1845 474/1846
f 475/1847 478/1848 479/1849 476/1850
f 476/1851 479/1852 478/1853 475/1854
f 477/1855 480/1856 481/1857 478/1858
f 478/1859 481/1860 480/1861 477/1862
f 478/1863 481/1864 482/1865 479/1866
f 479/1867 482/1868 481/1869 478/1870
f 480/1871 483/1872 484/1873 481/1874
f 481/1875 484/1876 483/1877 480/1878
f 481/1879 484/1880 485/1881 482/1882
f 482/1883 485/1884 484/1885 481/1886
f 483/1887 486/1888 487/1889 484/1890
f 484/1891 487/1892 486/1893 483/1894
f 484/1895 487/1896 488/1897 485/1898
f 485/1899 488/1900 487/1901 484/1902
f 489/1903 492/1904 493/1905 490/1906
f 490/1907 493/1908 492/1909 489/1910
f 490/1911 493/1912 494/1913 491/1914
f 491/1915 494/1916 493/1917 490/1918
f 492/1919 495/1920 496/1921 493/1922
f 493/1923 496/1924 495/1925 492/1926
f 493/1927 496/1928 497/1929 494/1930
f 494/1931 497/1932 496/1933 493/1934
f 495/1935 498/1936 499/1937 496/1938
f 496/1939 499/1940 498/1941 495/1942
f 496/1943 499/1944 500/1945 497/1946
f 497/1947 500/1948 499/1949 496/1950
f 498/1951 501/1952 502/1953 499/1954
f 499/1955 502/1956 501/1957 498/1958
f 499/1959 502/1960 503/1961 500/1962
f 500/1963 503/1964 502/1965 499/1966
f 501/1967 504/1968 505/1969 502/1970
f 502/1971 505/1972 504/1973 501/1974
f 502/1975 505/1976 506/1977 503/1978
f 503/1979 506/1980 505/1981 502/1982
usemtl M_MorningGlory_Flower
s 1
f 507/1983 509/1984 510/1985 508/1986
f 508/1987 510/1988 509/1989 507/1990
f 509/1991 511/1992 512/1993 510/1994
f 510/1995 512/1996 511/1997 509/1998
f 511/1999 513/2000 514/2001 512/2002
f 512/2003 514/2004 513/2005 511/2006
f 513/2007 515/2008 516/2009 514/2010
f 514/2011 516/2012 515/2013 513/2014
f 515/2015 517/2016 518/2017 516/2018
f 516/2019 518/2020 517/2021 515/2022
f 517/2023 519/2024 520/2025 518/2026
f 518/2027 520/2028 519/2029 517/2030
f 519/2031 521/2032 522/2033 520/2034
f 520/2035 522/2036 521/2037 519/2038
f 521/2039 523/2040 524/2041 522/2042
f 522/2043 524/2044 523/2045 521/2046
f 523/2047 525/2048 526/2049 524/2050
f 524/2051 526/2052 525/2053 523/2054
f 525/2055 507/2056 508/2057 526/2058
f 526/2059 508/2060 507/2061 525/2062
usemtl M_MorningGlory_Leaf
s 1
f 527/2063 530/2064 531/2065 528/2066
f 528/2067 531/2068 530/2069 527/2070
f 528/2071 531/2072 532/2073 529/2074
f 529/2075 532/2076 531/2077 528/2078
f 530/2079 533/2080 534/2081 531/2082
f 531/2083 534/2084 533/2085 530/2086
f 531/2087 534/2088 535/2089 532/2090
f 532/2091 535/2092 534/2093 531/2094
f 533/2095 536/2096 537/2097 534/2098
f 534/2099 537/2100 536/2101 533/2102
f 534/2103 537/2104 538/2105 535/2106
f 535/2107 538/2108 537/2109 534/2110
f 536/2111 539/2112 540/2113 537/2114
f 537/2115 540/2116 539/2117 536/2118
f 537/2119 540/2120 541/2121 538/2122
f 538/2123 541/2124 540/2125 537/2126
f 539/2127 542/2128 543/2129 540/2130
f 540/2131 543/2132 542/2133 539/2134
f 540/2135 543/2136 544/2137 541/2138
f 541/2139 544/2140 543/2141 540/2142
f 545/2143 548/2144 549/2145 546/2146
f 546/2147 549/2148 548/2149 545/2150
f 546/2151 549/2152 550/2153 547/2154
f 547/2155 550/2156 549/2157 546/2158
f 548/2159 551/2160 552/2161 549/2162
f 549/2163 552/2164 551/2165 548/2166
f 549/2167 552/2168 553/2169 550/2170
f 550/2171 553/2172 552/2173 549/2174
f 551/2175 554/2176 555/2177 552/2178
f 552/2179 555/2180 554/2181 551/2182
f 552/2183 555/2184 556/2185 553/2186
f 553/2187 556/2188 555/2189 552/2190
f 554/2191 557/2192 558/2193 555/2194
f 555/2195 558/2196 557/2197 554/2198
f 555/2199 558/2200 559/2201 556/2202
f 556/2203 559/2204 558/2205 555/2206
f 557/2207 560/2208 561/2209 558/2210
f 558/2211 561/2212 560/2213 557/2214
f 558/2215 561/2216 562/2217 559/2218
f 559/2219 562/2220 561/2221 558/2222
usemtl M_MorningGlory_Flower
s 1
f 563/2223 565/2224 566/2225 564/2226
f 564/2227 566/2228 565/2229 563/2230
f 565/2231 567/2232 568/2233 566/2234
f 566/2235 568/2236 567/2237 565/2238
f 567/2239 569/2240 570/2241 568/2242
f 568/2243 570/2244 569/2245 567/2246
f 569/2247 571/2248 572/2249 570/2250
f 570/2251 572/2252 571/2253 569/2254
f 571/2255 573/2256 574/2257 572/2258
f 572/2259 574/2260 573/2261 571/2262
f 573/2263 575/2264 576/2265 574/2266
f 574/2267 576/2268 575/2269 573/2270
f 575/2271 577/2272 578/2273 576/2274
f 576/2275 578/2276 577/2277 575/2278
f 577/2279 579/2280 580/2281 578/2282
f 578/2283 580/2284 579/2285 577/2286
f 579/2287 581/2288 582/2289 580/2290
f 580/2291 582/2292 581/2293 579/2294
f 581/2295 563/2296 564/2297 582/2298
f 582/2299 564/2300 563/2301 581/2302
