# Generated by scripts/generate_terrace_planter_botanical_kit.py
mtllib VD_TerraceBotanical.mtl
o VD_TerracePlanter_EndCap
v -60.000000 -3.500000 0.000000
v 60.000000 -3.500000 0.000000
v -60.000000 4.500000 0.000000
v 60.000000 4.500000 0.000000
v -60.000000 -3.500000 102.000000
v 60.000000 -3.500000 102.000000
v -60.000000 4.500000 102.000000
v 60.000000 4.500000 102.000000
v -63.000000 -5.500000 102.000000
v 63.000000 -5.500000 102.000000
v -63.000000 6.500000 102.000000
v 63.000000 6.500000 102.000000
v -63.000000 -5.500000 110.000000
v 63.000000 -5.500000 110.000000
v -63.000000 6.500000 110.000000
v 63.000000 6.500000 110.000000
v -41.800000 -6.500000 28.000000
v -42.737258 -6.500000 25.737258
v -45.000000 -6.500000 24.800000
v -47.262742 -6.500000 25.737258
v -48.200000 -6.500000 28.000000
v -47.262742 -6.500000 30.262742
v -45.000000 -6.500000 31.200000
v -42.737258 -6.500000 30.262742
v -41.800000 -2.500000 28.000000
v -42.737258 -2.500000 25.737258
v -45.000000 -2.500000 24.800000
v -47.262742 -2.500000 25.737258
v -48.200000 -2.500000 28.000000
v -47.262742 -2.500000 30.262742
v -45.000000 -2.500000 31.200000
v -42.737258 -2.500000 30.262742
v -41.800000 -6.500000 78.000000
v -42.737258 -6.500000 75.737258
v -45.000000 -6.500000 74.800000
v -47.262742 -6.500000 75.737258
v -48.200000 -6.500000 78.000000
v -47.262742 -6.500000 80.262742
v -45.000000 -6.500000 81.200000
v -42.737258 -6.500000 80.262742
v -41.800000 -2.500000 78.000000
v -42.737258 -2.500000 75.737258
v -45.000000 -2.500000 74.800000
v -47.262742 -2.500000 75.737258
v -48.200000 -2.500000 78.000000
v -47.262742 -2.500000 80.262742
v -45.000000 -2.500000 81.200000
v -42.737258 -2.500000 80.262742
v 48.200000 -6.500000 28.000000
v 47.262742 -6.500000 25.737258
v 45.000000 -6.500000 24.800000
v 42.737258 -6.500000 25.737258
v 41.800000 -6.500000 28.000000
v 42.737258 -6.500000 30.262742
v 45.000000 -6.500000 31.200000
v 47.262742 -6.500000 30.262742
v 48.200000 -2.500000 28.000000
v 47.262742 -2.500000 25.737258
v 45.000000 -2.500000 24.800000
v 42.737258 -2.500000 25.737258
v 41.800000 -2.500000 28.000000
v 42.737258 -2.500000 30.262742
v 45.000000 -2.500000 31.200000
v 47.262742 -2.500000 30.262742
v 48.200000 -6.500000 78.000000
v 47.262742 -6.500000 75.737258
v 45.000000 -6.500000 74.800000
v 42.737258 -6.500000 75.737258
v 41.800000 -6.500000 78.000000
v 42.737258 -6.500000 80.262742
v 45.000000 -6.500000 81.200000
v 47.262742 -6.500000 80.262742
v 48.200000 -2.500000 78.000000
v 47.262742 -2.500000 75.737258
v 45.000000 -2.500000 74.800000
v 42.737258 -2.500000 75.737258
v 41.800000 -2.500000 78.000000
v 42.737258 -2.500000 80.262742
v 45.000000 -2.500000 81.200000
v 47.262742 -2.500000 80.262742
vt -0.600000 -0.035000
vt 0.600000 -0.035000
vt 0.600000 0.045000
vt -0.600000 0.045000
vt -0.600000 -0.035000
vt -0.600000 0.045000
vt 0.600000 0.045000
vt 0.600000 -0.035000
vt -0.600000 0.000000
vt -0.600000 1.020000
vt 0.600000 1.020000
vt 0.600000 0.000000
vt -0.600000 0.000000
vt 0.600000 0.000000
vt 0.600000 1.020000
vt -0.600000 1.020000
vt -0.035000 0.000000
vt 0.045000 0.000000
vt 0.045000 1.020000
vt -0.035000 1.020000
vt -0.035000 0.000000
vt -0.035000 1.020000
vt 0.045000 1.020000
vt 0.045000 0.000000
vt -0.630000 -0.055000
vt 0.630000 -0.055000
vt 0.630000 0.065000
vt -0.630000 0.065000
vt -0.630000 -0.055000
vt -0.630000 0.065000
vt 0.630000 0.065000
vt 0.630000 -0.055000
vt -0.630000 1.020000
vt -0.630000 1.100000
vt 0.630000 1.100000
vt 0.630000 1.020000
vt -0.630000 1.020000
vt 0.630000 1.020000
vt 0.630000 1.100000
vt -0.630000 1.100000
vt -0.055000 1.020000
vt 0.065000 1.020000
vt 0.065000 1.100000
vt -0.055000 1.100000
vt -0.055000 1.020000
vt -0.055000 1.100000
vt 0.065000 1.100000
vt 0.065000 1.020000
vt -0.427373 0.302627
vt -0.450000 0.312000
vt -0.472627 0.302627
vt -0.482000 0.280000
vt -0.472627 0.257373
vt -0.450000 0.248000
vt -0.427373 0.257373
vt -0.418000 0.280000
vt -0.418000 0.280000
vt -0.427373 0.257373
vt -0.450000 0.248000
vt -0.472627 0.257373
vt -0.482000 0.280000
vt -0.472627 0.302627
vt -0.450000 0.312000
vt -0.427373 0.302627
vt -0.065000 0.280000
vt -0.065000 0.257373
vt -0.025000 0.257373
vt -0.025000 0.280000
vt -0.427373 -0.065000
vt -0.450000 -0.065000
vt -0.450000 -0.025000
vt -0.427373 -0.025000
vt -0.450000 -0.065000
vt -0.472627 -0.065000
vt -0.472627 -0.025000
vt -0.450000 -0.025000
vt -0.065000 0.257373
vt -0.065000 0.280000
vt -0.025000 0.280000
vt -0.025000 0.257373
vt -0.065000 0.280000
vt -0.065000 0.302627
vt -0.025000 0.302627
vt -0.025000 0.280000
vt -0.472627 -0.065000
vt -0.450000 -0.065000
vt -0.450000 -0.025000
vt -0.472627 -0.025000
vt -0.450000 -0.065000
vt -0.427373 -0.065000
vt -0.427373 -0.025000
vt -0.450000 -0.025000
vt -0.065000 0.302627
vt -0.065000 0.280000
vt -0.025000 0.280000
vt -0.025000 0.302627
vt -0.427373 0.802627
vt -0.450000 0.812000
vt -0.472627 0.802627
vt -0.482000 0.780000
vt -0.472627 0.757373
vt -0.450000 0.748000
vt -0.427373 0.757373
vt -0.418000 0.780000
vt -0.418000 0.780000
vt -0.427373 0.757373
vt -0.450000 0.748000
vt -0.472627 0.757373
vt -0.482000 0.780000
vt -0.472627 0.802627
vt -0.450000 0.812000
vt -0.427373 0.802627
vt -0.065000 0.780000
vt -0.065000 0.757373
vt -0.025000 0.757373
vt -0.025000 0.780000
vt -0.427373 -0.065000
vt -0.450000 -0.065000
vt -0.450000 -0.025000
vt -0.427373 -0.025000
vt -0.450000 -0.065000
vt -0.472627 -0.065000
vt -0.472627 -0.025000
vt -0.450000 -0.025000
vt -0.065000 0.757373
vt -0.065000 0.780000
vt -0.025000 0.780000
vt -0.025000 0.757373
vt -0.065000 0.780000
vt -0.065000 0.802627
vt -0.025000 0.802627
vt -0.025000 0.780000
vt -0.472627 -0.065000
vt -0.450000 -0.065000
vt -0.450000 -0.025000
vt -0.472627 -0.025000
vt -0.450000 -0.065000
vt -0.427373 -0.065000
vt -0.427373 -0.025000
vt -0.450000 -0.025000
vt -0.065000 0.802627
vt -0.065000 0.780000
vt -0.025000 0.780000
vt -0.025000 0.802627
vt 0.472627 0.302627
vt 0.450000 0.312000
vt 0.427373 0.302627
vt 0.418000 0.280000
vt 0.427373 0.257373
vt 0.450000 0.248000
vt 0.472627 0.257373
vt 0.482000 0.280000
vt 0.482000 0.280000
vt 0.472627 0.257373
vt 0.450000 0.248000
vt 0.427373 0.257373
vt 0.418000 0.280000
vt 0.427373 0.302627
vt 0.450000 0.312000
vt 0.472627 0.302627
vt -0.065000 0.280000
vt -0.065000 0.257373
vt -0.025000 0.257373
vt -0.025000 0.280000
vt 0.472627 -0.065000
vt 0.450000 -0.065000
vt 0.450000 -0.025000
vt 0.472627 -0.025000
vt 0.450000 -0.065000
vt 0.427373 -0.065000
vt 0.427373 -0.025000
vt 0.450000 -0.025000
vt -0.065000 0.257373
vt -0.065000 0.280000
vt -0.025000 0.280000
vt -0.025000 0.257373
vt -0.065000 0.280000
vt -0.065000 0.302627
vt -0.025000 0.302627
vt -0.025000 0.280000
vt 0.427373 -0.065000
vt 0.450000 -0.065000
vt 0.450000 -0.025000
vt 0.427373 -0.025000
vt 0.450000 -0.065000
vt 0.472627 -0.065000
vt 0.472627 -0.025000
vt 0.450000 -0.025000
vt -0.065000 0.302627
vt -0.065000 0.280000
vt -0.025000 0.280000
vt -0.025000 0.302627
vt 0.472627 0.802627
vt 0.450000 0.812000
vt 0.427373 0.802627
vt 0.418000 0.780000
vt 0.427373 0.757373
vt 0.450000 0.748000
vt 0.472627 0.757373
vt 0.482000 0.780000
vt 0.482000 0.780000
vt 0.472627 0.757373
vt 0.450000 0.748000
vt 0.427373 0.757373
vt 0.418000 0.780000
vt 0.427373 0.802627
vt 0.450000 0.812000
vt 0.472627 0.802627
vt -0.065000 0.780000
vt -0.065000 0.757373
vt -0.025000 0.757373
vt -0.025000 0.780000
vt 0.472627 -0.065000
vt 0.450000 -0.065000
vt 0.450000 -0.025000
vt 0.472627 -0.025000
vt 0.450000 -0.065000
vt 0.427373 -0.065000
vt 0.427373 -0.025000
vt 0.450000 -0.025000
vt -0.065000 0.757373
vt -0.065000 0.780000
vt -0.025000 0.780000
vt -0.025000 0.757373
vt -0.065000 0.780000
vt -0.065000 0.802627
vt -0.025000 0.802627
vt -0.025000 0.780000
vt 0.427373 -0.065000
vt 0.450000 -0.065000
vt 0.450000 -0.025000
vt 0.427373 -0.025000
vt 0.450000 -0.065000
vt 0.472627 -0.065000
vt 0.472627 -0.025000
vt 0.450000 -0.025000
vt -0.065000 0.802627
vt -0.065000 0.780000
vt -0.025000 0.780000
vt -0.025000 0.802627
usemtl M_Planter_AgedConcrete
s 1
f 1/1 2/2 4/3 3/4
f 5/5 7/6 8/7 6/8
f 1/9 5/10 6/11 2/12
f 3/13 4/14 8/15 7/16
f 1/17 3/18 7/19 5/20
f 2/21 6/22 8/23 4/24
usemtl M_Planter_CastRepair
s 1
f 9/25 10/26 12/27 11/28
f 13/29 15/30 16/31 14/32
f 9/33 13/34 14/35 10/36
f 11/37 12/38 16/39 15/40
f 9/41 11/42 15/43 13/44
f 10/45 14/46 16/47 12/48
f 24/49 23/50 22/51 21/52 20/53 19/54 18/55 17/56
f 25/57 26/58 27/59 28/60 29/61 30/62 31/63 32/64
f 17/65 18/66 26/67 25/68
f 18/69 19/70 27/71 26/72
f 19/73 20/74 28/75 27/76
f 20/77 21/78 29/79 28/80
f 21/81 22/82 30/83 29/84
f 22/85 23/86 31/87 30/88
f 23/89 24/90 32/91 31/92
f 24/93 17/94 25/95 32/96
f 40/97 39/98 38/99 37/100 36/101 35/102 34/103 33/104
f 41/105 42/106 43/107 44/108 45/109 46/110 47/111 48/112
f 33/113 34/114 42/115 41/116
f 34/117 35/118 43/119 42/120
f 35/121 36/122 44/123 43/124
f 36/125 37/126 45/127 44/128
f 37/129 38/130 46/131 45/132
f 38/133 39/134 47/135 46/136
f 39/137 40/138 48/139 47/140
f 40/141 33/142 41/143 48/144
f 56/145 55/146 54/147 53/148 52/149 51/150 50/151 49/152
f 57/153 58/154 59/155 60/156 61/157 62/158 63/159 64/160
f 49/161 50/162 58/163 57/164
f 50/165 51/166 59/167 58/168
f 51/169 52/170 60/171 59/172
f 52/173 53/174 61/175 60/176
f 53/177 54/178 62/179 61/180
f 54/181 55/182 63/183 62/184
f 55/185 56/186 64/187 63/188
f 56/189 49/190 57/191 64/192
f 72/193 71/194 70/195 69/196 68/197 67/198 66/199 65/200
f 73/201 74/202 75/203 76/204 77/205 78/206 79/207 80/208
f 65/209 66/210 74/211 73/212
f 66/213 67/214 75/215 74/216
f 67/217 68/218 76/219 75/220
f 68/221 69/222 77/223 76/224
f 69/225 70/226 78/227 77/228
f 70/229 71/230 79/231 78/232
f 71/233 72/234 80/235 79/236
f 72/237 65/238 73/239 80/240
