# Generated by scripts/generate_terrace_planter_botanical_kit.py
mtllib VD_TerraceBotanical.mtl
o VD_TerracePlanter
v -60.000000 -122.500000 0.000000
v -47.000000 -122.500000 0.000000
v -60.000000 122.500000 0.000000
v -47.000000 122.500000 0.000000
v -60.000000 -122.500000 102.000000
v -47.000000 -122.500000 102.000000
v -60.000000 122.500000 102.000000
v -47.000000 122.500000 102.000000
v 47.000000 -122.500000 0.000000
v 60.000000 -122.500000 0.000000
v 47.000000 122.500000 0.000000
v 60.000000 122.500000 0.000000
v 47.000000 -122.500000 102.000000
v 60.000000 -122.500000 102.000000
v 47.000000 122.500000 102.000000
v 60.000000 122.500000 102.000000
v -47.000000 -122.500000 0.000000
v 47.000000 -122.500000 0.000000
v -47.000000 122.500000 0.000000
v 47.000000 122.500000 0.000000
v -47.000000 -122.500000 12.000000
v 47.000000 -122.500000 12.000000
v -47.000000 122.500000 12.000000
v 47.000000 122.500000 12.000000
v -63.000000 -122.500000 102.000000
v -42.000000 -122.500000 102.000000
v -63.000000 122.500000 102.000000
v -42.000000 122.500000 102.000000
v -63.000000 -122.500000 110.000000
v -42.000000 -122.500000 110.000000
v -63.000000 122.500000 110.000000
v -42.000000 122.500000 110.000000
v 42.000000 -122.500000 102.000000
v 63.000000 -122.500000 102.000000
v 42.000000 122.500000 102.000000
v 63.000000 122.500000 102.000000
v 42.000000 -122.500000 110.000000
v 63.000000 -122.500000 110.000000
v 42.000000 122.500000 110.000000
v 63.000000 122.500000 110.000000
v -46.500000 -122.500000 86.000000
v 46.500000 -122.500000 86.000000
v -46.500000 122.500000 86.000000
v 46.500000 122.500000 86.000000
v -46.500000 -122.500000 93.000000
v 46.500000 -122.500000 93.000000
v -46.500000 122.500000 93.000000
v 46.500000 122.500000 93.000000
v -60.500000 -65.750000 22.000000
v -60.500000 -64.890576 19.354966
v -60.500000 -62.640576 17.720246
v -60.500000 -59.859424 17.720246
v -60.500000 -57.609424 19.354966
v -60.500000 -56.750000 22.000000
v -60.500000 -57.609424 24.645034
v -60.500000 -59.859424 26.279754
v -60.500000 -62.640576 26.279754
v -60.500000 -64.890576 24.645034
v -47.000000 -65.750000 22.000000
v -47.000000 -64.890576 19.354966
v -47.000000 -62.640576 17.720246
v -47.000000 -59.859424 17.720246
v -47.000000 -57.609424 19.354966
v -47.000000 -56.750000 22.000000
v -47.000000 -57.609424 24.645034
v -47.000000 -59.859424 26.279754
v -47.000000 -62.640576 26.279754
v -47.000000 -64.890576 24.645034
v -60.500000 56.750000 22.000000
v -60.500000 57.609424 19.354966
v -60.500000 59.859424 17.720246
v -60.500000 62.640576 17.720246
v -60.500000 64.890576 19.354966
v -60.500000 65.750000 22.000000
v -60.500000 64.890576 24.645034
v -60.500000 62.640576 26.279754
v -60.500000 59.859424 26.279754
v -60.500000 57.609424 24.645034
v -47.000000 56.750000 22.000000
v -47.000000 57.609424 19.354966
v -47.000000 59.859424 17.720246
v -47.000000 62.640576 17.720246
v -47.000000 64.890576 19.354966
v -47.000000 65.750000 22.000000
v -47.000000 64.890576 24.645034
v -47.000000 62.640576 26.279754
v -47.000000 59.859424 26.279754
v -47.000000 57.609424 24.645034
vt -0.600000 -1.225000
vt -0.470000 -1.225000
vt -0.470000 1.225000
vt -0.600000 1.225000
vt -0.600000 -1.225000
vt -0.600000 1.225000
vt -0.470000 1.225000
vt -0.470000 -1.225000
vt -0.600000 0.000000
vt -0.600000 1.020000
vt -0.470000 1.020000
vt -0.470000 0.000000
vt -0.600000 0.000000
vt -0.470000 0.000000
vt -0.470000 1.020000
vt -0.600000 1.020000
vt -1.225000 0.000000
vt 1.225000 0.000000
vt 1.225000 1.020000
vt -1.225000 1.020000
vt -1.225000 0.000000
vt -1.225000 1.020000
vt 1.225000 1.020000
vt 1.225000 0.000000
vt 0.470000 -1.225000
vt 0.600000 -1.225000
vt 0.600000 1.225000
vt 0.470000 1.225000
vt 0.470000 -1.225000
vt 0.470000 1.225000
vt 0.600000 1.225000
vt 0.600000 -1.225000
vt 0.470000 0.000000
vt 0.470000 1.020000
vt 0.600000 1.020000
vt 0.600000 0.000000
vt 0.470000 0.000000
vt 0.600000 0.000000
vt 0.600000 1.020000
vt 0.470000 1.020000
vt -1.225000 0.000000
vt 1.225000 0.000000
vt 1.225000 1.020000
vt -1.225000 1.020000
vt -1.225000 0.000000
vt -1.225000 1.020000
vt 1.225000 1.020000
vt 1.225000 0.000000
vt -0.470000 -1.225000
vt 0.470000 -1.225000
vt 0.470000 1.225000
vt -0.470000 1.225000
vt -0.470000 -1.225000
vt -0.470000 1.225000
vt 0.470000 1.225000
vt 0.470000 -1.225000
vt -0.470000 0.000000
vt -0.470000 0.120000
vt 0.470000 0.120000
vt 0.470000 0.000000
vt -0.470000 0.000000
vt 0.470000 0.000000
vt 0.470000 0.120000
vt -0.470000 0.120000
vt -1.225000 0.000000
vt 1.225000 0.000000
vt 1.225000 0.120000
vt -1.225000 0.120000
vt -1.225000 0.000000
vt -1.225000 0.120000
vt 1.225000 0.120000
vt 1.225000 0.000000
vt -0.630000 -1.225000
vt -0.420000 -1.225000
vt -0.420000 1.225000
vt -0.630000 1.225000
vt -0.630000 -1.225000
vt -0.630000 1.225000
vt -0.420000 1.225000
vt -0.420000 -1.225000
vt -0.630000 1.020000
vt -0.630000 1.100000
vt -0.420000 1.100000
vt -0.420000 1.020000
vt -0.630000 1.020000
vt -0.420000 1.020000
vt -0.420000 1.100000
vt -0.630000 1.100000
vt -1.225000 1.020000
vt 1.225000 1.020000
vt 1.225000 1.100000
vt -1.225000 1.100000
vt -1.225000 1.020000
vt -1.225000 1.100000
vt 1.225000 1.100000
vt 1.225000 1.020000
vt 0.420000 -1.225000
vt 0.630000 -1.225000
vt 0.630000 1.225000
vt 0.420000 1.225000
vt 0.420000 -1.225000
vt 0.420000 1.225000
vt 0.630000 1.225000
vt 0.630000 -1.225000
vt 0.420000 1.020000
vt 0.420000 1.100000
vt 0.630000 1.100000
vt 0.630000 1.020000
vt 0.420000 1.020000
vt 0.630000 1.020000
vt 0.630000 1.100000
vt 0.420000 1.100000
vt -1.225000 1.020000
vt 1.225000 1.020000
vt 1.225000 1.100000
vt -1.225000 1.100000
vt -1.225000 1.020000
vt -1.225000 1.100000
vt 1.225000 1.100000
vt 1.225000 1.020000
vt -0.465000 -1.225000
vt 0.465000 -1.225000
vt 0.465000 1.225000
vt -0.465000 1.225000
vt -0.465000 -1.225000
vt -0.465000 1.225000
vt 0.465000 1.225000
vt 0.465000 -1.225000
vt -0.465000 0.860000
vt -0.465000 0.930000
vt 0.465000 0.930000
vt 0.465000 0.860000
vt -0.465000 0.860000
vt 0.465000 0.860000
vt 0.465000 0.930000
vt -0.465000 0.930000
vt -1.225000 0.860000
vt 1.225000 0.860000
vt 1.225000 0.930000
vt -1.225000 0.930000
vt -1.225000 0.860000
vt -1.225000 0.930000
vt 1.225000 0.930000
vt 1.225000 0.860000
vt -0.648906 0.246450
vt -0.626406 0.262798
vt -0.598594 0.262798
vt -0.576094 0.246450
vt -0.567500 0.220000
vt -0.576094 0.193550
vt -0.598594 0.177202
vt -0.626406 0.177202
vt -0.648906 0.193550
vt -0.657500 0.220000
vt -0.657500 0.220000
vt -0.648906 0.193550
vt -0.626406 0.177202
vt -0.598594 0.177202
vt -0.576094 0.193550
vt -0.567500 0.220000
vt -0.576094 0.246450
vt -0.598594 0.262798
vt -0.626406 0.262798
vt -0.648906 0.246450
vt -0.605000 0.220000
vt -0.605000 0.193550
vt -0.470000 0.193550
vt -0.470000 0.220000
vt -0.605000 -0.648906
vt -0.605000 -0.626406
vt -0.470000 -0.626406
vt -0.470000 -0.648906
vt -0.605000 -0.626406
vt -0.605000 -0.598594
vt -0.470000 -0.598594
vt -0.470000 -0.626406
vt -0.605000 -0.598594
vt -0.605000 -0.576094
vt -0.470000 -0.576094
vt -0.470000 -0.598594
vt -0.605000 0.193550
vt -0.605000 0.220000
vt -0.470000 0.220000
vt -0.470000 0.193550
vt -0.605000 0.220000
vt -0.605000 0.246450
vt -0.470000 0.246450
vt -0.470000 0.220000
vt -0.605000 -0.576094
vt -0.605000 -0.598594
vt -0.470000 -0.598594
vt -0.470000 -0.576094
vt -0.605000 -0.598594
vt -0.605000 -0.626406
vt -0.470000 -0.626406
vt -0.470000 -0.598594
vt -0.605000 -0.626406
vt -0.605000 -0.648906
vt -0.470000 -0.648906
vt -0.470000 -0.626406
vt -0.605000 0.246450
vt -0.605000 0.220000
vt -0.470000 0.220000
vt -0.470000 0.246450
vt 0.576094 0.246450
vt 0.598594 0.262798
vt 0.626406 0.262798
vt 0.648906 0.246450
vt 0.657500 0.220000
vt 0.648906 0.193550
vt 0.626406 0.177202
vt 0.598594 0.177202
vt 0.576094 0.193550
vt 0.567500 0.220000
vt 0.567500 0.220000
vt 0.576094 0.193550
vt 0.598594 0.177202
vt 0.626406 0.177202
vt 0.648906 0.193550
vt 0.657500 0.220000
vt 0.648906 0.246450
vt 0.626406 0.262798
vt 0.598594 0.262798
vt 0.576094 0.246450
vt -0.605000 0.220000
vt -0.605000 0.193550
vt -0.470000 0.193550
vt -0.470000 0.220000
vt -0.605000 0.576094
vt -0.605000 0.598594
vt -0.470000 0.598594
vt -0.470000 0.576094
vt -0.605000 0.598594
vt -0.605000 0.626406
vt -0.470000 0.626406
vt -0.470000 0.598594
vt -0.605000 0.626406
vt -0.605000 0.648906
vt -0.470000 0.648906
vt -0.470000 0.626406
vt -0.605000 0.193550
vt -0.605000 0.220000
vt -0.470000 0.220000
vt -0.470000 0.193550
vt -0.605000 0.220000
vt -0.605000 0.246450
vt -0.470000 0.246450
vt -0.470000 0.220000
vt -0.605000 0.648906
vt -0.605000 0.626406
vt -0.470000 0.626406
vt -0.470000 0.648906
vt -0.605000 0.626406
vt -0.605000 0.598594
vt -0.470000 0.598594
vt -0.470000 0.626406
vt -0.605000 0.598594
vt -0.605000 0.576094
vt -0.470000 0.576094
vt -0.470000 0.598594
vt -0.605000 0.246450
vt -0.605000 0.220000
vt -0.470000 0.220000
vt -0.470000 0.246450
usemtl M_Planter_AgedConcrete
s 1
f 1/1 2/2 4/3 3/4
f 5/5 7/6 8/7 6/8
f 1/9 5/10 6/11 2/12
f 3/13 4/14 8/15 7/16
f 1/17 3/18 7/19 5/20
f 2/21 6/22 8/23 4/24
f 9/25 10/26 12/27 11/28
f 13/29 15/30 16/31 14/32
f 9/33 13/34 14/35 10/36
f 11/37 12/38 16/39 15/40
f 9/41 11/42 15/43 13/44
f 10/45 14/46 16/47 12/48
f 17/49 18/50 20/51 19/52
f 21/53 23/54 24/55 22/56
f 17/57 21/58 22/59 18/60
f 19/61 20/62 24/63 23/64
f 17/65 19/66 23/67 21/68
f 18/69 22/70 24/71 20/72
usemtl M_Planter_CastRepair
s 1
f 25/73 26/74 28/75 27/76
f 29/77 31/78 32/79 30/80
f 25/81 29/82 30/83 26/84
f 27/85 28/86 32/87 31/88
f 25/89 27/90 31/91 29/92
f 26/93 30/94 32/95 28/96
f 33/97 34/98 36/99 35/100
f 37/101 39/102 40/103 38/104
f 33/105 37/106 38/107 34/108
f 35/109 36/110 40/111 39/112
f 33/113 35/114 39/115 37/116
f 34/117 38/118 40/119 36/120
usemtl M_Planter_Soil
s 1
f 41/121 42/122 44/123 43/124
f 45/125 47/126 48/127 46/128
f 41/129 45/130 46/131 42/132
f 43/133 44/134 48/135 47/136
f 41/137 43/138 47/139 45/140
f 42/141 46/142 48/143 44/144
usemtl M_Planter_CastRepair
s 1
f 58/145 57/146 56/147 55/148 54/149 53/150 52/151 51/152 50/153 49/154
f 59/155 60/156 61/157 62/158 63/159 64/160 65/161 66/162 67/163 68/164
f 49/165 50/166 60/167 59/168
f 50/169 51/170 61/171 60/172
f 51/173 52/174 62/175 61/176
f 52/177 53/178 63/179 62/180
f 53/181 54/182 64/183 63/184
f 54/185 55/186 65/187 64/188
f 55/189 56/190 66/191 65/192
f 56/193 57/194 67/195 66/196
f 57/197 58/198 68/199 67/200
f 58/201 49/202 59/203 68/204
f 78/205 77/206 76/207 75/208 74/209 73/210 72/211 71/212 70/213 69/214
f 79/215 80/216 81/217 82/218 83/219 84/220 85/221 86/222 87/223 88/224
f 69/225 70/226 80/227 79/228
f 70/229 71/230 81/231 80/232
f 71/233 72/234 82/235 81/236
f 72/237 73/238 83/239 82/240
f 73/241 74/242 84/243 83/244
f 74/245 75/246 85/247 84/248
f 75/249 76/250 86/251 85/252
f 76/253 77/254 87/255 86/256
f 77/257 78/258 88/259 87/260
f 78/261 69/262 79/263 88/264
